<svg width="20" height="20" viewBox="0 0 20 20" fill="none" xmlns="http://www.w3.org/2000/svg">
<g clip-path="url(#clip0_131_960)">
<path d="M19.9985 10.0081C20.0004 12.6784 18.9623 15.1881 17.0747 17.0751C15.1895 18.9604 12.682 19.9983 10.0141 19.9983H10C7.3317 19.9948 4.8231 18.9534 2.93512 17.0653C1.04518 15.176 0.00354248 12.6651 0.00158966 9.99483C-0.000363156 7.32459 1.03776 4.81482 2.92535 2.92789C4.83951 1.01405 7.39497 -0.00204114 10 0.00147393C11.2479 0.00303619 12.5067 0.238898 13.7119 0.721557L13.2761 1.80912C12.2122 1.3827 11.101 1.17496 10 1.1734C7.7 1.16988 5.44371 2.0665 3.75374 3.7562C2.08798 5.42164 1.17172 7.637 1.17328 9.99405C1.17484 12.3515 2.09501 14.5688 3.7635 16.237C5.43043 17.9037 7.64493 18.8233 10 18.8269H10.0141C12.3692 18.8269 14.5821 17.9107 16.2463 16.2468C17.9121 14.5813 18.8283 12.366 18.8268 10.0089C18.8252 8.07709 18.2069 6.23976 17.0661 4.72148L16.9517 5.61571L15.7894 5.46695L16.1354 2.76546L18.8166 2.76741L18.8158 3.93891L17.9425 3.93851C19.2744 5.67352 19.9969 7.78537 19.9985 10.0081Z" fill="#B0DAED"/>
<path d="M10 16.0934C13.365 16.0934 16.0928 13.366 16.0928 10.0015C16.0928 6.63709 13.365 3.90967 10 3.90967C6.63507 3.90967 3.90723 6.63709 3.90723 10.0015C3.90723 13.366 6.63507 16.0934 10 16.0934Z" fill="#D4F4EE"/>
<path d="M16.0928 10.0015C16.0928 13.3606 13.3596 16.0934 10 16.0934V3.90967C13.3596 3.90967 16.0928 6.6424 16.0928 10.0015Z" fill="#B0DAED"/>
<path d="M12.5114 9.41589V10.5874H9.41418V7.49072H10.5859V9.41589H12.5114Z" fill="#557F89"/>
<path d="M12.5113 9.41571V10.5874H10V7.49023H10.5858V9.41571H12.5113Z" fill="#304B59"/>
<path d="M13.2761 1.80792C12.2122 1.38142 11.101 1.17364 10 1.17208V0C11.2479 0.00156226 12.5066 0.237463 13.7119 0.7202L13.2761 1.80792ZM19.9984 10.0082C20.0004 12.6789 18.9623 15.189 17.0747 17.0762C15.1894 18.9619 12.682 20 10.0141 20H10V18.8283H10.0141C12.3692 18.8283 14.5821 17.912 16.2463 16.2479C17.912 14.5821 18.8283 12.3664 18.8267 10.009C18.8252 8.07686 18.2069 6.23926 17.0661 4.72075L16.9516 5.61514L15.7893 5.46633L16.1354 2.76441L18.8166 2.76636L18.8158 3.93806L17.9425 3.93767C19.2743 5.67294 19.9969 7.78511 19.9984 10.0082Z" fill="#98C2E2"/>
</g>
<defs>
<clipPath id="clip0_131_960">
<rect width="20" height="20" fill="white"/>
</clipPath>
</defs>
</svg>
