<svg width="23" height="23" viewBox="0 0 23 23" fill="none" xmlns="http://www.w3.org/2000/svg">
<path d="M21.1582 23H1.8418V21.3379C1.8418 18.2417 4.36079 15.7227 7.45703 15.7227H15.543C18.6392 15.7227 21.1582 18.2417 21.1582 21.3379V23Z" fill="#F3484B"/>
<path d="M21.1582 21.3379C21.1582 18.2417 18.6392 15.7227 15.543 15.7227H11.5V23H21.1582V21.3379Z" fill="#D93031"/>
<path d="M11.5 17.0703C7.53681 17.0703 4.3125 13.846 4.3125 9.88281C4.3125 5.91963 7.53681 2.69531 11.5 2.69531C15.4632 2.69531 18.6875 5.91963 18.6875 9.88281C18.6875 13.846 15.4632 17.0703 11.5 17.0703Z" fill="#FDD1A3"/>
<path d="M11.5 2.69531V17.0703C15.4632 17.0703 18.6875 13.846 18.6875 9.88281C18.6875 5.91963 15.4632 2.69531 11.5 2.69531Z" fill="#FFBB85"/>
<path d="M17.542 10.624C16.0757 10.624 14.6644 10.1863 13.4606 9.35813C12.6639 8.81003 11.9927 8.11671 11.4775 7.31607C10.9624 8.11671 10.2912 8.81003 9.49446 9.35813C8.29065 10.1863 6.87934 10.624 5.41309 10.624C5.2621 10.624 5.10416 10.6188 4.94365 10.6084L4.31861 10.5682L4.31295 9.92571C4.31272 9.91143 4.3125 9.89714 4.3125 9.88281C4.3125 5.91963 7.53681 2.69531 11.5 2.69531C15.4632 2.69531 18.6875 5.91963 18.6875 9.88281C18.6875 9.89642 18.6873 9.90995 18.687 9.92342L18.6868 9.93843L18.682 10.561L18.0609 10.6052C17.8862 10.6177 17.7116 10.624 17.542 10.624Z" fill="#FF9D48"/>
<path d="M13.4606 9.35814C14.6644 10.1863 16.0757 10.624 17.542 10.624C17.7116 10.624 17.8862 10.6178 18.0609 10.6053L18.682 10.5611L18.6868 9.93849L18.6871 9.92348C18.6873 9.90996 18.6875 9.89644 18.6875 9.88287C18.6875 5.91969 15.4632 2.69537 11.5 2.69537V7.35013C12.0122 8.13627 12.6752 8.81787 13.4606 9.35814Z" fill="#FF6E1D"/>
<path d="M11.4551 19.7656H7.68164C5.8239 19.7656 4.3125 18.2542 4.3125 16.3965V11.6797H5.66016V16.3965C5.66016 17.5111 6.56699 18.418 7.68164 18.418H11.4551V19.7656Z" fill="#9ED0FF"/>
<path d="M11.5 19.7656C10.3854 19.7656 9.47852 18.8588 9.47852 17.7441C9.47852 16.6295 10.3854 15.7227 11.5 15.7227C12.6146 15.7227 13.5215 16.6295 13.5215 17.7441C13.5215 18.8588 12.6146 19.7656 11.5 19.7656Z" fill="#0082FF"/>
<path d="M18.6875 10.0176H17.3398V7.1875C17.3398 3.96741 14.7201 1.34766 11.5 1.34766C8.27991 1.34766 5.66016 3.96741 5.66016 7.1875V10.0176H4.3125V7.1875C4.3125 3.22431 7.53681 0 11.5 0C15.4632 0 18.6875 3.22431 18.6875 7.1875V10.0176Z" fill="#9ED0FF"/>
<path d="M17.3398 7.1875V10.0176H18.6875V7.1875C18.6875 3.22431 15.4632 0 11.5 0V1.34766C14.7201 1.34766 17.3398 3.96741 17.3398 7.1875Z" fill="#3AAAFF"/>
<path d="M19.3613 12.3535H17.3398V7.32227H19.3613C20.476 7.32227 21.3828 8.2291 21.3828 9.34375V10.332C21.3828 11.4467 20.476 12.3535 19.3613 12.3535Z" fill="#0040A0"/>
<path d="M5.66016 12.3535H3.63867C2.52403 12.3535 1.61719 11.4467 1.61719 10.332V9.34375C1.61719 8.2291 2.52403 7.32227 3.63867 7.32227H5.66016V12.3535ZM11.5 15.7227V19.7656C12.6146 19.7656 13.5215 18.8588 13.5215 17.7441C13.5215 16.6295 12.6146 15.7227 11.5 15.7227Z" fill="#005FE4"/>
</svg>
