<svg width="23" height="23" viewBox="0 0 23 23" fill="none" xmlns="http://www.w3.org/2000/svg">
<g clip-path="url(#clip0_131_1851)">
<path d="M16.9969 1.38833L11.5 2.05672L6.00305 1.38833C6.00305 0.621555 6.62461 0 7.39138 0H15.6086C16.3753 0 16.9969 0.621555 16.9969 1.38833Z" fill="#E1F3FF"/>
<path d="M2.5139 2.96948L1.21294 3.44846C0.857141 3.57946 0.550085 3.81644 0.333192 4.12742C0.116299 4.4384 5.44671e-06 4.80842 0 5.18757L0 10.1377C0 10.5061 0.298722 10.8048 0.667185 10.8048C1.03565 10.8048 1.33437 10.5061 1.33437 10.1377V5.22159C1.33437 4.98205 1.48371 4.76793 1.70848 4.68518L2.51394 4.38863L3.12374 3.54541L2.5139 2.96948ZM20.4861 2.96948L21.7871 3.44846C22.1429 3.57945 22.4499 3.81642 22.6668 4.12741C22.8837 4.43839 23 4.80842 23 5.18757V10.1377C23 10.5061 22.7013 10.8048 22.3328 10.8048C21.9644 10.8048 21.6656 10.5061 21.6656 10.1377V5.22159C21.6656 4.98205 21.5163 4.76793 21.2915 4.68518L20.4861 4.38863L20.0614 3.77161L20.4861 2.96948Z" fill="#FE75A7"/>
<path d="M5.70198 23H5.02434C4.50469 23 4.08337 22.5787 4.08337 22.059V20.123H6.64295V22.059C6.64295 22.5787 6.22168 23 5.70198 23ZM17.9756 23H17.2979C16.7783 23 16.357 22.5787 16.357 22.059V20.123H18.9165V22.059C18.9166 22.5787 18.4953 23 17.9756 23Z" fill="#6B46CF"/>
<path d="M19.1344 20.8225H3.86559C3.11909 20.8225 2.51392 20.2173 2.51392 19.4708V2.73998C2.51392 1.99348 3.11909 1.38831 3.86559 1.38831H19.1344C19.881 1.38831 20.4861 1.99348 20.4861 2.73998V19.4708C20.4861 20.2173 19.881 20.8225 19.1344 20.8225Z" fill="#FE75A7"/>
<path d="M19.1344 1.38831H17.2833C18.0298 1.38831 18.635 1.99348 18.635 2.73998V19.4708C18.635 20.2173 18.0298 20.8225 17.2833 20.8225H19.1344C19.8809 20.8225 20.4861 20.2173 20.4861 19.4708V2.73998C20.4861 1.99348 19.8809 1.38831 19.1344 1.38831Z" fill="#FE5995"/>
<path d="M15.4115 19.0148C15.0938 19.0148 14.8363 18.7573 14.8363 18.4396C14.8363 17.552 15.5558 16.8325 16.4434 16.8325H17.8527C18.2991 16.8325 18.6609 17.1944 18.6609 17.6407V18.2066C18.6609 18.653 18.2991 19.0148 17.8527 19.0148H15.4115ZM8.16361 18.4396C8.16361 17.552 7.44408 16.8325 6.55652 16.8325H5.14718C4.70083 16.8325 4.33899 17.1944 4.33899 17.6407V18.2066C4.33899 18.653 4.70083 19.0148 5.14718 19.0148H7.58838C7.90607 19.0148 8.16361 18.7573 8.16361 18.4396Z" fill="#FFF1AB"/>
<path d="M15.6086 0H13.7574C14.5242 0 15.1458 0.621555 15.1458 1.38833H16.9969C16.9969 0.621555 16.3753 0 15.6086 0Z" fill="#CCEBFF"/>
<path d="M20.4861 14.2672L18.1268 14.7294C13.4449 15.6466 9.55511 15.6466 4.87329 14.7294L2.51392 14.2672V5.70581H20.4861V14.2672Z" fill="#5ED8F6"/>
<path d="M18.635 5.70581V14.6298L20.4861 14.2672V5.70581H18.635Z" fill="#26C8F0"/>
<path d="M9.79037 17.7505H13.2097C13.4014 17.7505 13.5568 17.5951 13.5568 17.4034C13.5568 17.2117 13.4014 17.0563 13.2097 17.0563H9.79037C9.59864 17.0563 9.44328 17.2117 9.44328 17.4034C9.44328 17.5951 9.59864 17.7505 9.79037 17.7505ZM13.2096 18.4648H9.79032C9.59859 18.4648 9.44324 18.6202 9.44324 18.8119C9.44324 19.0036 9.59859 19.159 9.79032 19.159H13.2096C13.4014 19.159 13.5567 19.0036 13.5567 18.8119C13.5567 18.6202 13.4014 18.4648 13.2096 18.4648Z" fill="#6B46CF"/>
<path d="M17.4599 4.33423H5.5401C5.10449 4.33423 4.75134 3.98108 4.75134 3.54547C4.75134 3.10986 5.10449 2.75671 5.5401 2.75671H17.4599C17.8955 2.75671 18.2487 3.10986 18.2487 3.54547C18.2487 3.98108 17.8955 4.33423 17.4599 4.33423Z" fill="#FFD500"/>
<path d="M9.14342 5.70581L2.51392 12.3353V14.2672L4.02238 14.5627L12.8792 5.70581H9.14342ZM20.4861 5.70581H20.4765L10.7742 15.4081C11.6157 15.4284 12.454 15.4132 13.3006 15.3629L20.4861 8.1775V5.70581H20.4861Z" fill="#E1F3FF"/>
</g>
<defs>
<clipPath id="clip0_131_1851">
<rect width="23" height="23" fill="white"/>
</clipPath>
</defs>
</svg>
