<svg width="23" height="23" viewBox="0 0 23 23" fill="none" xmlns="http://www.w3.org/2000/svg">
<path d="M4.75822 10.8683H20.768V6.96956C20.768 5.78846 20.2766 5.03668 19.3686 4.34774C17.6348 3.73956 14.8223 3.31311 11.5 3.31311C8.17777 3.31311 5.36534 3.73956 3.63145 4.34774C2.51695 4.73869 1.76929 5.78846 1.76929 6.96956V8.3819L4.75822 10.8683Z" fill="#C27E4E"/>
<path d="M19.3686 4.34778C20.0464 5.06041 20.3053 5.78849 20.3053 6.96959V9.94279H19.0664V9.93169C19.0664 9.5362 18.8518 9.1961 18.0371 8.99401L4.8592 9.94279H4.38763C4.30068 9.07791 3.5786 8.40036 2.69484 8.38342C2.55305 8.38069 2.11572 8.38111 1.76929 8.38194V14.3652H21.2308V6.96959C21.2308 5.78849 20.4831 4.73873 19.3686 4.34778Z" fill="#995E34"/>
<path d="M5.79612 6.61447C6.00059 6.61447 6.16635 6.44871 6.16635 6.24424C6.16635 6.03978 6.00059 5.87402 5.79612 5.87402C5.59166 5.87402 5.4259 6.03978 5.4259 6.24424C5.4259 6.44871 5.59166 6.61447 5.79612 6.61447Z" fill="#995E34"/>
<path d="M9.49827 6.1517C9.70274 6.1517 9.86849 5.98594 9.86849 5.78148C9.86849 5.57701 9.70274 5.41125 9.49827 5.41125C9.29381 5.41125 9.12805 5.57701 9.12805 5.78148C9.12805 5.98594 9.29381 6.1517 9.49827 6.1517Z" fill="#995E34"/>
<path d="M17.204 6.61447C17.4084 6.61447 17.5742 6.44871 17.5742 6.24424C17.5742 6.03978 17.4084 5.87402 17.204 5.87402C16.9995 5.87402 16.8337 6.03978 16.8337 6.24424C16.8337 6.44871 16.9995 6.61447 17.204 6.61447Z" fill="#995E34"/>
<path d="M13.5018 6.1517C13.7063 6.1517 13.872 5.98594 13.872 5.78148C13.872 5.57701 13.7063 5.41125 13.5018 5.41125C13.2973 5.41125 13.1316 5.57701 13.1316 5.78148C13.1316 5.98594 13.2973 6.1517 13.5018 6.1517Z" fill="#995E34"/>
<path d="M2.39922 8.01748C2.19976 7.9349 1.9866 7.89042 1.77077 7.88633C0.809258 7.86708 0.0205473 8.66305 0.000925553 9.62077L0 9.62137V15.059L3.00805 15.5218V9.62614C3.00805 9.62614 3.00814 8.45971 2.39922 8.01748Z" fill="#CF9875"/>
<path d="M2.39732 8.02209C2.49482 8.24542 2.54519 8.48646 2.54527 8.73014V14.7119C2.54527 14.804 2.5087 14.8923 2.44361 14.9574C2.37852 15.0225 2.29024 15.059 2.19819 15.059H0V15.2904C0 15.6738 0.310801 15.9846 0.694165 15.9846H3.47082V9.6557C3.47082 8.92932 3.02698 8.29129 2.39732 8.02209Z" fill="#C27E4E"/>
<path d="M1.7692 10.7784C1.86125 10.7784 1.94954 10.7418 2.01463 10.6767C2.07972 10.6116 2.11628 10.5234 2.11628 10.4313V9.73746C2.11628 9.54573 1.96088 9.39038 1.7692 9.39038C1.57752 9.39038 1.42212 9.54573 1.42212 9.73746V10.4313C1.42212 10.5234 1.45869 10.6116 1.52378 10.6767C1.58887 10.7418 1.67715 10.7784 1.7692 10.7784Z" fill="#995E34"/>
<path d="M22.5372 9.19291C22.5372 8.94255 22.2849 8.22969 21.9265 8.02209C21.7069 7.92793 21.4697 7.88164 21.2308 7.88631C20.2879 7.90436 19.5292 8.67428 19.5292 9.6214V15.059L22.5372 15.5218V9.19291Z" fill="#CF9875"/>
<path d="M21.9265 8.02209C22.024 8.24542 22.0744 8.48646 22.0744 8.73014V14.7119C22.0744 14.804 22.0379 14.8923 21.9728 14.9574C21.9077 15.0225 21.8194 15.059 21.7274 15.059H19.5292V15.9846H22.3058C22.6892 15.9846 23 15.6738 23 15.2904V9.6557C23 8.92932 22.5562 8.29129 21.9265 8.02209Z" fill="#C27E4E"/>
<path d="M21.2307 9.39038C21.1387 9.39038 21.0504 9.42695 20.9853 9.49204C20.9202 9.55713 20.8837 9.64541 20.8837 9.73746V10.4313C20.8837 10.623 21.0391 10.7784 21.2307 10.7784C21.4224 10.7784 21.5778 10.623 21.5778 10.4313V9.73746C21.5778 9.64541 21.5413 9.55713 21.4762 9.49204C21.4111 9.42695 21.3228 9.39038 21.2307 9.39038Z" fill="#995E34"/>
<path d="M19.1829 12.336L18.2531 10.8687C18.2493 10.8687 18.2456 10.8683 18.2419 10.8683H4.75825C4.48154 10.8683 4.21114 10.951 3.98176 11.1057C3.75238 11.2605 3.57448 11.4803 3.4709 11.7369L3.229 12.336L19.1829 12.336Z" fill="#F7F9FA"/>
<path d="M20.2765 13.588L19.5291 11.7369C19.4262 11.4822 19.25 11.2637 19.0229 11.1091C18.7957 10.9546 18.5278 10.8709 18.2531 10.8688L18.5274 11.5483C18.6195 11.7764 18.4516 12.0253 18.2055 12.0253H4.1033C3.78477 12.0254 3.47599 12.1351 3.22883 12.3361L2.72339 13.588L20.2765 13.588Z" fill="#DCE6EB"/>
<path d="M11.0148 10.5444V8.83473C11.0148 8.72399 10.9228 8.21984 10.4707 8.06842C9.96763 7.94365 9.23598 7.87146 8.18432 7.87146C5.42946 7.87146 4.85913 8.36645 4.85913 9.0061V9.94276C4.85913 9.94276 5.77251 10.8683 8.18432 10.8683C9.80996 10.8683 11.0148 10.5444 11.0148 10.5444Z" fill="#F7F9FA"/>
<path d="M10.4707 8.06836C10.5128 8.18137 10.5744 8.29549 10.5744 8.40623V9.92983C10.5744 10.1011 10.444 10.2468 10.2665 10.2728C9.89354 10.3275 9.14833 10.4055 8.18432 10.4055C5.77251 10.4055 4.85913 9.9427 4.85913 9.9427V10.8683C4.85913 10.8683 5.77251 11.2962 8.18432 11.2962C10.5962 11.2962 11.5 10.8683 11.5 10.8683L11.9628 9.9427L11.5 9.00604C11.5 8.61055 11.2853 8.27045 10.4707 8.06836Z" fill="#DCE6EB"/>
<path d="M17.6557 10.5444V8.83473C17.6557 8.72399 17.5637 8.21984 17.1115 8.06842C16.6085 7.94365 15.8768 7.87146 14.8252 7.87146C12.0703 7.87146 11.5 8.36645 11.5 9.0061V9.94276C11.5 9.94276 12.4134 10.8683 14.8252 10.8683C16.4508 10.8683 17.6557 10.5444 17.6557 10.5444Z" fill="#F7F9FA"/>
<path d="M17.1115 8.06836C17.1536 8.18137 17.2153 8.29549 17.2153 8.40623V9.92983C17.2153 10.1011 17.0848 10.2468 16.9074 10.2728C16.5344 10.3275 15.7892 10.4055 14.8252 10.4055C12.4134 10.4055 11.5 9.9427 11.5 9.9427V10.8683C11.5 10.8683 12.4134 11.2962 14.8252 11.2962C17.237 11.2962 18.1408 10.8683 18.1408 10.8683V9.00604C18.1408 8.61055 17.9262 8.27045 17.1115 8.06836Z" fill="#DCE6EB"/>
<path d="M20.1519 14.4252L19.0005 12.7198C18.9967 12.7197 18.993 12.7194 18.9892 12.7194H4.01086C3.73415 12.7194 3.46376 12.802 3.23438 12.9568C3.005 13.1116 2.8271 13.3314 2.72351 13.5879L2.38545 14.4253C2.18536 14.9208 2.08251 15.4502 2.08252 15.9845L20.4548 16.4473C20.4548 15.9129 20.3519 14.9208 20.1519 14.4252Z" fill="#CCF49F"/>
<path d="M20.6146 14.4253L20.2765 13.5879C20.1736 13.3332 19.9974 13.1147 19.7703 12.9602C19.5431 12.8057 19.2752 12.722 19.0005 12.7198L19.6891 14.4253C19.8891 14.9208 19.992 15.4502 19.992 15.9846H2.08252V18.7613L20.4548 19.224L20.9175 15.9846C20.9175 15.4502 20.8147 14.9208 20.6146 14.4253Z" fill="#B3E59F"/>
<path d="M19.992 18.0671C19.992 18.4505 19.6812 18.7613 19.2978 18.7613H2.08252V18.9927C2.08252 19.376 2.39332 19.6868 2.77668 19.6868H20.2234C20.6067 19.6868 20.9175 19.376 20.9175 18.9927V15.9846H19.992V18.0671Z" fill="#94D4A2"/>
</svg>
