<svg width="23" height="23" viewBox="0 0 23 23" fill="none" xmlns="http://www.w3.org/2000/svg">
<path d="M11.5 23L12.1433 22.7007C17.859 20.0412 21.5143 14.3088 21.5143 8.00467V3.1501H19.6931C16.6865 3.15008 13.7852 2.04248 11.5435 0.0388574L11.5 0L11.4565 0.0389023C9.21475 2.04251 6.31348 3.1501 3.30685 3.1501H1.48572V8.00463C1.48572 14.3088 5.14097 20.0411 10.8567 22.7006L11.5 23Z" fill="#79D60D"/>
<path d="M11.5 23L12.1433 22.7007C17.859 20.0412 21.5143 14.3088 21.5143 8.00467V3.1501H19.6932C16.6865 3.15008 13.7853 2.04248 11.5435 0.0388574L11.5 0V23Z" fill="#3CC602"/>
<path d="M15.4735 9.93039H12.9843V7.44122H10.0155V9.93039H7.52637V12.8992H10.0155V15.3884H12.9843V12.8992H15.4735V9.93039Z" fill="#F1F1F2"/>
<path d="M15.4736 9.93039H12.9844V7.44122H11.5V15.3884H12.9844V12.8992H15.4736V9.93039Z" fill="#E6E6E6"/>
</svg>
