<svg width="16" height="16" viewBox="0 0 16 16" fill="none" xmlns="http://www.w3.org/2000/svg">
<path d="M4.11946 6.55046C4.04313 6.74129 3.99996 6.94896 3.99996 7.16663C3.99996 7.38429 4.04313 7.59196 4.11946 7.78279L2.66663 8.21863V6.11463L4.11946 6.55046ZM4.75113 8.55779C4.66422 8.50032 4.58287 8.43487 4.50813 8.36229L3.79513 8.57613L3.15896 10.1666H4.10763L4.75113 8.55779ZM5.99996 5.53363C6.31115 5.59766 6.5975 5.74948 6.82513 5.97113L8.90429 5.34746C8.9541 5.33262 9.00668 5.32959 9.05786 5.33861C9.10903 5.34764 9.1574 5.36847 9.19913 5.39946C9.28346 5.46196 9.33329 5.56129 9.33329 5.66663V6.83329H15.3333V4.33329C15.3333 3.41429 14.5856 2.66663 13.6666 2.66663H5.99996V5.53363ZM5.66663 8.16663C6.21813 8.16663 6.66663 7.71813 6.66663 7.16663C6.66663 6.61513 6.21813 6.16663 5.66663 6.16663C5.11513 6.16663 4.66663 6.61513 4.66663 7.16663C4.66663 7.71813 5.11513 8.16663 5.66663 8.16663ZM5.33329 8.89746L4.64279 10.6238C4.61804 10.6856 4.57533 10.7387 4.52017 10.776C4.465 10.8133 4.39991 10.8333 4.33329 10.8333H2.66663C2.61212 10.8334 2.55842 10.8201 2.51026 10.7946C2.46209 10.7691 2.42092 10.7321 2.39036 10.687C2.3598 10.6418 2.34079 10.5899 2.335 10.5357C2.3292 10.4815 2.3368 10.4267 2.35713 10.3761L2.97913 8.82096L2.42896 8.98596C2.37919 9.00087 2.32662 9.00394 2.27545 8.99493C2.22429 8.98591 2.17594 8.96506 2.13426 8.93404C2.09258 8.90301 2.05873 8.86268 2.03542 8.81625C2.0121 8.76982 1.99996 8.71858 1.99996 8.66663V7.49996H0.666626V11.6666C0.666626 12.5856 1.41429 13.3333 2.33329 13.3333H5.33329V8.89746ZM9.33329 7.49996V8.66663C9.33334 8.71041 9.32474 8.75378 9.30801 8.79424C9.29127 8.8347 9.26672 8.87146 9.23576 8.90243C9.2048 8.93339 9.16803 8.95794 9.12757 8.97468C9.08711 8.99141 9.04375 9 8.99996 8.99996C8.96756 9.00001 8.93532 8.9953 8.90429 8.98596L8.35413 8.82096L8.97629 10.3761C8.99645 10.4267 9.00392 10.4815 8.99804 10.5356C8.99217 10.5898 8.97312 10.6417 8.94258 10.6868C8.91203 10.7318 8.87092 10.7688 8.82282 10.7943C8.77471 10.8199 8.72109 10.8332 8.66663 10.8333H6.99996C6.93334 10.8333 6.86825 10.8133 6.81309 10.776C6.75792 10.7387 6.71521 10.6856 6.69046 10.6238L5.99996 8.89746V13.3333H13.6666C14.5856 13.3333 15.3333 12.5856 15.3333 11.6666V7.49996H9.33329ZM8.17429 10.1666L7.53813 8.57613L6.82513 8.36229C6.75046 8.43463 6.66929 8.50029 6.58213 8.55779L7.22563 10.1666H8.17429ZM1.99996 6.83329V5.66663C1.99996 5.56129 2.04979 5.46196 2.13429 5.39929C2.17603 5.36833 2.2244 5.34751 2.27557 5.33849C2.32675 5.32946 2.37932 5.33248 2.42913 5.34729L4.50813 5.97096C4.73575 5.74931 5.0221 5.59749 5.33329 5.53346V2.66663H2.33329C1.41429 2.66663 0.666626 3.41429 0.666626 4.33329V6.83329H1.99996ZM8.66663 6.11463L7.21379 6.55046C7.29013 6.74129 7.33329 6.94896 7.33329 7.16663C7.33329 7.38429 7.29013 7.59196 7.21379 7.78279L8.66663 8.21863V6.11463Z" fill="#026ED2"/>
</svg>
