<svg width="23" height="23" viewBox="0 0 23 23" fill="none" xmlns="http://www.w3.org/2000/svg">
<g clip-path="url(#clip0_131_2136)">
<path d="M4.86652 5.51135H8.23566V6.85901H4.86652V5.51135ZM0 5.51135H3.36914V6.85901H0V5.51135Z" fill="#F2EBEE"/>
<path d="M4.86652 6.18518H8.23566V6.85901H4.86652V6.18518ZM0 6.18518H3.36914V6.85901H0V6.18518Z" fill="#DBD1D7"/>
<path d="M15.7071 0.0146484H13.3519L15.1963 5.00147L19.4906 4.85341L15.7071 0.0146484Z" fill="#4CB8EB"/>
<path d="M15.7071 12.3557H13.3519L15.1963 7.3689L19.4906 7.51696L15.7071 12.3557Z" fill="#0099E3"/>
<path d="M11.8335 7.91476H21.2704C22.2256 7.91476 23 7.14044 23 6.18522C23 5.23005 22.2257 4.45569 21.2704 4.45569H11.8335L11.3094 3.27002H8.71411L10.0171 6.19452L8.71411 9.11903H11.3094L11.8335 7.91476Z" fill="#75E1F7"/>
<path d="M11.8335 7.91472H21.2704C22.2256 7.91472 23 7.1404 23 6.18518L10.0171 6.19452L8.71411 9.11903H11.3094L11.8335 7.91472Z" fill="#4CB8EB"/>
<path d="M14.7643 16.1409H18.1334V17.4885H14.7643V16.1409ZM19.6308 16.1409H22.9999V17.4885H19.6308V16.1409Z" fill="#F2EBEE"/>
<path d="M14.7643 16.8147H18.1334V17.4885H14.7643V16.8147ZM19.6308 16.8147H22.9999V17.4885H19.6308V16.8147Z" fill="#DBD1D7"/>
<path d="M7.2929 10.6442H9.64806L7.80366 15.631L3.5094 15.4829L7.2929 10.6442Z" fill="#FCBE00"/>
<path d="M7.2929 22.9852H9.64806L7.80366 17.9984L3.5094 18.1465L7.2929 22.9852Z" fill="#FF9000"/>
<path d="M11.1665 18.5443H1.72954C0.774318 18.5443 0 17.77 0 16.8147C0 15.8596 0.774318 15.0852 1.72954 15.0852H11.1665L11.6906 13.8995H14.2859L12.9829 16.824L14.2859 19.7485H11.6906L11.1665 18.5443Z" fill="#FFD92E"/>
<path d="M11.1665 18.5442H1.72954C0.774363 18.5442 0 17.7699 0 16.8147L12.9829 16.824L14.2859 19.7485H11.6906L11.1665 18.5442Z" fill="#FCBE00"/>
</g>
<defs>
<clipPath id="clip0_131_2136">
<rect width="23" height="23" fill="white"/>
</clipPath>
</defs>
</svg>
