<svg width="25" height="26" viewBox="0 0 25 26" fill="none" xmlns="http://www.w3.org/2000/svg">
<path d="M23.4051 12.3845V4.52681C23.4051 2.61548 21.8501 1.06055 19.9388 1.06055H4.96152C3.0502 1.06055 1.49526 2.61553 1.49526 4.52681V12.4859C0.569482 13.4538 0 14.7651 0 16.207V22.1652C0 23.2589 0.889795 24.1487 1.98354 24.1487C3.07725 24.1487 3.96704 23.2589 3.96704 22.1652V21.5499H21.033V22.1652C21.033 23.2589 21.9228 24.1487 23.0165 24.1487C24.1102 24.1487 25 23.2589 25 22.1652V16.207C25 14.7141 24.3895 13.3612 23.4051 12.3845ZM4.96152 2.03711H19.9388C21.3117 2.03711 22.4285 3.154 22.4285 4.52681V11.616C22.1275 11.4306 21.8089 11.2754 21.4774 11.1526V9.52886C21.4774 8.0894 20.3063 6.91831 18.8668 6.91831H14.6223C13.7485 6.91831 12.9741 7.35029 12.5 8.01148C12.026 7.35029 11.2516 6.91831 10.3778 6.91831H6.13325C4.6938 6.91831 3.5227 8.08936 3.5227 9.52886V11.1526C3.15424 11.289 2.80185 11.4655 2.47187 11.6788V4.52681C2.47183 3.154 3.58867 2.03711 4.96152 2.03711ZM5.38735 10.8197C5.08486 10.8197 4.78818 10.8452 4.49917 10.8933V9.52886C4.49917 8.62788 5.23218 7.89487 6.13315 7.89487H10.3777C11.2787 7.89487 12.0117 8.62788 12.0117 9.52886V10.8197H5.38735V10.8197ZM12.9883 9.52881C12.9883 8.62783 13.7213 7.89482 14.6223 7.89482H18.8668C19.7678 7.89482 20.5008 8.62783 20.5008 9.52881V10.8933C20.2073 10.8443 19.9102 10.8197 19.6126 10.8196H12.9883V9.52881ZM5.38735 11.7962H19.6126C22.0447 11.7962 24.0234 13.7749 24.0234 16.207V17.6556H19.1261C18.8564 17.6556 18.6378 17.8743 18.6378 18.1439C18.6378 18.4135 18.8564 18.6322 19.1261 18.6322H24.0234V20.5733H0.976562V18.6322H14.2433C14.513 18.6322 14.7316 18.4135 14.7316 18.1439C14.7316 17.8743 14.513 17.6556 14.2433 17.6556H0.976562V16.207C0.976562 13.7749 2.95522 11.7962 5.38735 11.7962ZM2.99048 22.1652C2.99048 22.7204 2.53877 23.1722 1.98354 23.1722C1.42832 23.1722 0.976562 22.7204 0.976562 22.1652V21.5499H2.99048V22.1652ZM23.0165 23.1722C22.4612 23.1722 22.0095 22.7204 22.0095 22.1652V21.5499H24.0234V22.1652C24.0234 22.7204 23.5717 23.1722 23.0165 23.1722Z" fill="#026ED2"/>
<path d="M16.6845 18.6323C16.9543 18.6323 17.173 18.4136 17.173 18.1438C17.173 17.874 16.9543 17.6553 16.6845 17.6553C16.4147 17.6553 16.196 17.874 16.196 18.1438C16.196 18.4136 16.4147 18.6323 16.6845 18.6323Z" fill="#026ED2"/>
</svg>
