<svg width="25" height="26" viewBox="0 0 25 26" fill="none" xmlns="http://www.w3.org/2000/svg">
<path d="M12.5 1.47083V4.2052L14.5356 3.18738C14.8235 3.04343 14.8235 2.63254 14.5356 2.4886L12.5 1.47083Z" fill="#A5CDFF"/>
<path d="M12.5 1.47083C12.2841 1.47083 12.1094 1.64553 12.1094 1.86145V5.7677H12.8906V1.86145C12.8906 1.64553 12.7159 1.47083 12.5 1.47083Z" fill="#CD916E"/>
<path d="M15.3248 9.18005C15.2998 8.9924 15.2075 8.82022 15.065 8.69551C14.9226 8.57081 14.7397 8.50207 14.5504 8.50208H10.4497C10.0581 8.50208 9.727 8.79197 9.67524 9.18005L8.98438 14.3615V16.3146H16.0156V14.3615L15.3248 9.18005Z" fill="#FFE1A0"/>
<path d="M10.4496 8.50208C10.0581 8.50208 9.72695 8.79197 9.6752 9.18005L8.98438 14.3615V16.3146H10.6536L11.6283 9.18005C11.6533 8.9924 11.7457 8.82022 11.8881 8.69551C12.0305 8.57081 12.2134 8.50207 12.4027 8.50208H10.4496Z" fill="#F7D291"/>
<path d="M16.4062 15.5333V14.7521C16.4062 14.6485 16.3651 14.5491 16.2918 14.4759C16.2186 14.4026 16.1192 14.3615 16.0156 14.3615H15.2344C15.1308 14.3615 15.0314 14.4026 14.9582 14.4759C14.8849 14.5491 14.8438 14.6485 14.8438 14.7521V15.5333C14.8438 15.6369 14.8026 15.7363 14.7293 15.8095C14.6561 15.8828 14.5567 15.924 14.4531 15.924H13.6719C13.5683 15.924 13.4689 15.8828 13.3957 15.8095C13.3224 15.7363 13.2812 15.6369 13.2812 15.5333V14.7521C13.2812 14.6485 13.2401 14.5491 13.1668 14.4759C13.0936 14.4026 12.9942 14.3615 12.8906 14.3615H12.1094C12.0058 14.3615 11.9064 14.4026 11.8332 14.4759C11.7599 14.5491 11.7188 14.6485 11.7188 14.7521V15.5333C11.7188 15.6369 11.6776 15.7363 11.6043 15.8095C11.5311 15.8828 11.4317 15.924 11.3281 15.924H10.5469C10.4433 15.924 10.3439 15.8828 10.2707 15.8095C10.1974 15.7363 10.1562 15.6369 10.1562 15.5333V14.7521C10.1562 14.6485 10.1151 14.5491 10.0418 14.4759C9.96858 14.4026 9.86923 14.3615 9.76562 14.3615H8.98438C8.88077 14.3615 8.78142 14.4026 8.70816 14.4759C8.6349 14.5491 8.59375 14.6485 8.59375 14.7521V15.5333C8.59375 15.6369 8.5526 15.7363 8.47934 15.8095C8.40608 15.8828 8.30673 15.924 8.20312 15.924H7.8125V23.3458H17.1875V15.924H16.7969C16.6933 15.924 16.5939 15.8828 16.5207 15.8095C16.4474 15.7363 16.4062 15.6369 16.4062 15.5333Z" fill="#F0C382"/>
<path d="M19.9219 6.93958V9.67395L21.9575 8.65613C22.2454 8.51218 22.2454 8.10129 21.9575 7.95735L19.9219 6.93958Z" fill="#A5CDFF"/>
<path d="M19.9219 6.93958C19.706 6.93958 19.5312 7.11428 19.5312 7.3302V11.2365H20.3125V7.3302C20.3125 7.11428 20.1378 6.93958 19.9219 6.93958Z" fill="#CD916E"/>
<path d="M23.1115 15.4626C23.0749 15.0602 22.7375 14.7521 22.3334 14.7521H17.5104C17.1063 14.7521 16.7689 15.0602 16.7323 15.4626L16.0156 23.3458H23.8281L23.1115 15.4626Z" fill="#FFE1A0"/>
<path d="M19.4634 14.7521H17.5103C17.1062 14.7521 16.7688 15.0602 16.7323 15.4626L16.0156 23.3458H17.9688L18.6854 15.4626C18.722 15.0602 19.0594 14.7521 19.4634 14.7521Z" fill="#F7D291"/>
<path d="M21.88 11.5424C21.8368 11.146 21.502 10.8458 21.1033 10.8458H18.7404C18.3417 10.8458 18.007 11.146 17.9638 11.5424L17.6136 14.7521H22.2301L21.88 11.5424Z" fill="#FFE1A0"/>
<path d="M19.9219 18.2677C20.3533 18.2677 20.7031 17.9179 20.7031 17.4865C20.7031 17.055 20.3533 16.7052 19.9219 16.7052C19.4904 16.7052 19.1406 17.055 19.1406 17.4865C19.1406 17.9179 19.4904 18.2677 19.9219 18.2677Z" fill="#F5B97D"/>
<path d="M22.1449 13.9708H20.0117C19.5467 13.9708 19.1847 13.5671 19.2351 13.1049L19.4815 10.8458H18.7404C18.3417 10.8458 18.007 11.146 17.9638 11.5424L17.6136 14.7521H22.2301L22.1449 13.9708Z" fill="#F7D291"/>
<path d="M5.07812 6.93958V9.67395L7.11372 8.65613C7.40161 8.51218 7.40161 8.10129 7.11372 7.95735L5.07812 6.93958Z" fill="#A5CDFF"/>
<path d="M5.07812 6.93958C4.86221 6.93958 4.6875 7.11428 4.6875 7.3302V11.2365H5.46875V7.3302C5.46875 7.11428 5.29404 6.93958 5.07812 6.93958Z" fill="#CD916E"/>
<path d="M8.26772 15.4626C8.23115 15.0602 7.89375 14.7521 7.4897 14.7521H2.66655C2.2625 14.7521 1.9251 15.0602 1.88853 15.4626L1.17188 23.3458H8.98438L8.26772 15.4626Z" fill="#FFE1A0"/>
<path d="M4.61968 14.7521H2.66655C2.2625 14.7521 1.9251 15.0602 1.88853 15.4626L1.17188 23.3458H3.125L3.84165 15.4626C3.87822 15.0602 4.21563 14.7521 4.61968 14.7521Z" fill="#F7D291"/>
<path d="M7.03622 11.5424C6.99301 11.146 6.65825 10.8458 6.25956 10.8458H3.89667C3.49799 10.8458 3.16323 11.146 3.12001 11.5424L2.76987 14.7521H7.38637L7.03622 11.5424ZM14.148 6.0614C14.0992 5.67043 13.7668 5.37708 13.3728 5.37708H11.6272C11.2332 5.37708 10.9009 5.67043 10.852 6.0614L10.5469 8.50208H14.4531L14.148 6.0614Z" fill="#FFE1A0"/>
<path d="M12.5 18.6583C11.6371 18.6583 10.9375 19.3579 10.9375 20.2208V23.3458H14.0625V20.2208C14.0625 19.3579 13.3629 18.6583 12.5 18.6583Z" fill="#D29B6E"/>
<path d="M5.07812 18.2677C5.5096 18.2677 5.85938 17.9179 5.85938 17.4865C5.85938 17.055 5.5096 16.7052 5.07812 16.7052C4.64665 16.7052 4.29688 17.055 4.29688 17.4865C4.29688 17.9179 4.64665 18.2677 5.07812 18.2677Z" fill="#F5B97D"/>
<path d="M12.5 12.0177C12.9315 12.0177 13.2812 11.6679 13.2812 11.2365C13.2812 10.805 12.9315 10.4552 12.5 10.4552C12.0685 10.4552 11.7188 10.805 11.7188 11.2365C11.7188 11.6679 12.0685 12.0177 12.5 12.0177Z" fill="#F5B97D"/>
<path d="M24.6094 23.7365H0.390625C0.174707 23.7365 0 23.5617 0 23.3458C0 23.1299 0.174707 22.9552 0.390625 22.9552H24.6094C24.8253 22.9552 25 23.1299 25 23.3458C25 23.5617 24.8253 23.7365 24.6094 23.7365Z" fill="#F0C382"/>
<path d="M7.30112 13.9708H5.16796C4.70297 13.9708 4.34091 13.5671 4.3913 13.1049L4.63779 10.8458H3.89667C3.49799 10.8458 3.16328 11.146 3.12001 11.5424L2.76987 14.7521H7.38637L7.30112 13.9708ZM12.0238 6.84265L12.207 5.37708H11.6271C11.2331 5.37708 10.9008 5.67043 10.8519 6.0614L10.5469 8.50208H14.4531L14.3555 7.72083H12.7991C12.3291 7.72083 11.9655 7.30896 12.0238 6.84265Z" fill="#F7D291"/>
<path d="M12.5 18.6583C11.6371 18.6583 10.9375 19.3579 10.9375 20.2208V21.3927C10.9375 20.5298 11.6371 19.8302 12.5 19.8302C13.3629 19.8302 14.0625 20.5298 14.0625 21.3927V20.2208C14.0625 19.3579 13.3629 18.6583 12.5 18.6583Z" fill="#CD916E"/>
</svg>
