<svg width="25" height="26" viewBox="0 0 25 26" fill="none" xmlns="http://www.w3.org/2000/svg">
<path d="M10.5092 20.2411H6.57082C6.02507 20.0009 5.55376 19.6186 5.20604 19.1342C4.85832 18.6497 4.64691 18.0809 4.59385 17.487C4.54079 16.893 4.64803 16.2958 4.90438 15.7574C5.16074 15.219 5.55682 14.7592 6.05134 14.426C6.54586 14.0928 7.12071 13.8984 7.71595 13.8629C8.3112 13.8275 8.90505 13.9524 9.4356 14.2246C9.96614 14.4968 10.414 14.9064 10.7324 15.4106C11.0507 15.9147 11.2281 16.4951 11.2458 17.0911L10.5092 20.2411Z" fill="#ECF0F1"/>
<path d="M8.74999 17.1869C9.21023 17.1869 9.58332 16.8138 9.58332 16.3536C9.58332 15.8934 9.21023 15.5203 8.74999 15.5203C8.28975 15.5203 7.91666 15.8934 7.91666 16.3536C7.91666 16.8138 8.28975 17.1869 8.74999 17.1869Z" fill="#C03A2B"/>
<path d="M11.2458 17.0911C10.7835 16.6758 10.2015 16.4176 9.58333 16.3536C9.58267 16.1328 9.49466 15.9212 9.33852 15.7651C9.18238 15.609 8.9708 15.521 8.74999 15.5203C8.68391 15.5201 8.61808 15.5285 8.55416 15.5453C8.25366 14.8689 7.73803 14.3108 7.08749 13.9578C7.35855 13.8891 7.63704 13.8541 7.91666 13.8536C8.78364 13.8544 9.61622 14.1928 10.2378 14.7973C10.8593 15.4017 11.2209 16.2245 11.2458 17.0911Z" fill="#3B97D3"/>
<path d="M8.63748 17.1786C8.50555 18.2678 8.07431 19.299 7.39164 20.1578C7.36664 20.187 7.34164 20.212 7.31664 20.2411H6.57081C6.01604 19.9948 5.53875 19.6021 5.1901 19.1051C4.84145 18.6082 4.63458 18.0258 4.59164 17.4203C5.5896 16.7819 6.73412 16.409 7.91664 16.337V16.3536C7.91681 16.555 7.98992 16.7496 8.12244 16.9012C8.25496 17.0529 8.43792 17.1515 8.63748 17.1786Z" fill="#E64C3C"/>
<path d="M9.70416 20.1203L13.5 12.6744L14.9792 13.4328L11.5 20.2619L9.70416 20.1203ZM19.0696 5.41653L19.4617 4.6482C19.5605 4.45105 19.5777 4.22294 19.5096 4.01319C19.4415 3.80345 19.2936 3.62892 19.0979 3.52736C18.9009 3.42754 18.6723 3.40977 18.4622 3.47793C18.2521 3.54608 18.0776 3.69463 17.9767 3.89111L17.585 4.65945L19.0696 5.41653Z" fill="#547580"/>
<path d="M24.5833 22.187V23.8536C24.5827 24.0744 24.4947 24.286 24.3385 24.4421C24.1824 24.5983 23.9708 24.6863 23.75 24.687H1.24999C1.02918 24.6863 0.8176 24.5983 0.661463 24.4421C0.505325 24.286 0.417316 24.0744 0.416656 23.8536C0.416656 22.6036 1.56249 21.6661 3.17499 21.0411C4.96442 20.4059 6.8512 20.0886 8.74999 20.1036C10.1237 20.0971 11.4951 20.2199 12.8458 20.4703C13.2087 20.2446 13.5859 20.0428 13.975 19.8661C15.4747 19.1873 17.1038 18.8419 18.75 18.8536C23.3333 18.8536 24.5833 20.937 24.5833 22.187Z" fill="#F3D55B"/>
<path d="M18.7583 22.4244C18.7281 22.4702 18.689 22.5096 18.6435 22.5403C18.598 22.5709 18.5468 22.5923 18.493 22.6031C18.4392 22.614 18.3837 22.6141 18.3299 22.6034C18.276 22.5928 18.2248 22.5716 18.1792 22.5411C16.5593 21.4981 14.7451 20.7937 12.8458 20.4703C13.2087 20.2446 13.5859 20.0428 13.975 19.8661C15.6352 20.2471 17.2151 20.9186 18.6417 21.8494C18.733 21.9105 18.7965 22.0052 18.8184 22.1129C18.8402 22.2206 18.8186 22.3326 18.7583 22.4244Z" fill="#F0C419"/>
<path d="M18.3408 5.01195C24.6508 8.22862 25.16 14.5695 24.2133 16.4257C23.7967 17.2457 22.6254 17.4865 21.6004 16.964C21.3003 16.8215 21.0355 16.614 20.8253 16.3567C20.615 16.0994 20.4645 15.7987 20.3846 15.4761C20.3709 15.4157 20.3442 15.3591 20.3062 15.3102C20.2682 15.2613 20.2199 15.2213 20.1647 15.1932C20.1096 15.1651 20.0489 15.1495 19.987 15.1475C19.9251 15.1454 19.8635 15.1571 19.8067 15.1815C19.4967 15.297 19.1661 15.3468 18.8359 15.3278C18.5057 15.3087 18.183 15.2213 17.8884 15.0711C17.5937 14.9208 17.3335 14.7109 17.1242 14.4548C16.9149 14.1987 16.7611 13.9019 16.6725 13.5832C16.6589 13.5228 16.6322 13.4661 16.5942 13.4171C16.5562 13.3682 16.5079 13.3282 16.4528 13.3001C16.3976 13.272 16.3369 13.2564 16.2749 13.2544C16.213 13.2524 16.1514 13.2641 16.0946 13.2886C15.7847 13.4041 15.4541 13.454 15.124 13.435C14.7938 13.4161 14.4711 13.3287 14.1765 13.1785C13.8818 13.0282 13.6216 12.8184 13.4124 12.5623C13.2031 12.3062 13.0493 12.0094 12.9608 11.6907C12.9472 11.6303 12.9204 11.5736 12.8824 11.5247C12.8444 11.4758 12.7962 11.4359 12.741 11.4078C12.6859 11.3796 12.6252 11.3639 12.5633 11.3618C12.5014 11.3598 12.4398 11.3713 12.3829 11.3957C12.073 11.5111 11.7426 11.5608 11.4125 11.5418C11.0824 11.5228 10.7599 11.4354 10.4653 11.2851C10.1708 11.1349 9.91068 10.9251 9.70147 10.6691C9.49225 10.4131 9.33851 10.1164 9.24999 9.79779C9.23636 9.73739 9.2096 9.68072 9.17161 9.63183C9.13361 9.58294 9.08532 9.54301 9.03015 9.51489C8.97498 9.48677 8.9143 9.47115 8.85241 9.46913C8.79053 9.46711 8.72895 9.47874 8.67207 9.5032C8.36434 9.62783 8.03278 9.68257 7.70132 9.66348C7.36987 9.64438 7.04678 9.55193 6.7554 9.39279C5.7304 8.87029 5.23874 7.78154 5.65665 6.96154C6.59999 5.1057 12.0304 1.79445 18.3408 5.01195Z" fill="#E64C3C"/>
<path d="M20.4167 21.3536C20.6468 21.3536 20.8333 21.167 20.8333 20.9369C20.8333 20.7068 20.6468 20.5203 20.4167 20.5203C20.1865 20.5203 20 20.7068 20 20.9369C20 21.167 20.1865 21.3536 20.4167 21.3536Z" fill="#F29C1F"/>
<path d="M22.5 22.1869C22.7301 22.1869 22.9167 22.0004 22.9167 21.7702C22.9167 21.5401 22.7301 21.3536 22.5 21.3536C22.2699 21.3536 22.0833 21.5401 22.0833 21.7702C22.0833 22.0004 22.2699 22.1869 22.5 22.1869Z" fill="#F29C1F"/>
<path d="M20.8333 23.0203C21.0634 23.0203 21.25 22.8337 21.25 22.6036C21.25 22.3735 21.0634 22.187 20.8333 22.187C20.6032 22.187 20.4167 22.3735 20.4167 22.6036C20.4167 22.8337 20.6032 23.0203 20.8333 23.0203Z" fill="#F29C1F"/>
<path d="M20.3125 14.9036C20.2625 14.9995 20.2125 15.0953 20.1541 15.187C20.1004 15.1606 20.0415 15.1465 19.9817 15.1458C19.9219 15.1451 19.8626 15.1577 19.8083 15.1828C19.498 15.2978 19.1672 15.3473 18.8368 15.328C18.5064 15.3087 18.1835 15.2212 17.8887 15.0708C17.5939 14.9204 17.3334 14.7106 17.1238 14.4545C16.9141 14.1983 16.7599 13.9015 16.6708 13.5828C16.6582 13.5218 16.6318 13.4645 16.5935 13.4153C16.5552 13.3662 16.5061 13.3265 16.45 13.2995L16.6 13.012C17.925 10.412 19.4541 5.57862 18.3416 5.01196L18.5291 5.11196C21.6791 6.92862 21.6125 12.3578 20.3125 14.9036ZM18.3416 5.01196C17.225 4.44529 14.2125 8.52029 12.8875 11.1203C12.8375 11.2161 12.7916 11.312 12.7458 11.4078C12.6901 11.379 12.6287 11.363 12.566 11.3608C12.5033 11.3586 12.4409 11.3704 12.3833 11.3953C12.0756 11.5197 11.7442 11.5745 11.4128 11.5558C11.0815 11.5371 10.7584 11.4453 10.4666 11.287C10.1662 11.1448 9.9011 10.9376 9.69066 10.6803C9.48021 10.423 9.32968 10.1221 9.24998 9.79946C9.23642 9.7405 9.21045 9.68511 9.17381 9.63697C9.13717 9.58884 9.09069 9.54906 9.03748 9.52029C9.07914 9.42029 9.12914 9.32446 9.17498 9.22446C10.5 6.62862 15 3.30779 18.3416 5.01196Z" fill="#F3D55B"/>
</svg>
