<svg width="24" height="24" viewBox="0 0 24 24" fill="none" xmlns="http://www.w3.org/2000/svg">
<path d="M15.9048 8.29853H7.22945C6.83018 8.29853 6.50651 8.6222 6.50651 9.02148C6.50651 9.42075 6.83018 9.74442 7.22945 9.74442H15.9048C16.3041 9.74442 16.6277 9.42075 16.6277 9.02148C16.6277 8.6222 16.3041 8.29853 15.9048 8.29853Z" fill="#3B53CA"/>
<path fill-rule="evenodd" clip-rule="evenodd" d="M16.2807 3.87411H16.3867C19.0486 3.87411 21.2064 6.03193 21.2064 8.69374V17.3691C21.2064 20.0309 19.0486 22.1887 16.3867 22.1887H6.74749C5.46924 22.1887 4.24335 21.6809 3.33949 20.7771C2.43564 19.8732 1.92786 18.6473 1.92786 17.3691V8.69374C1.92786 6.03193 4.08568 3.87411 6.74749 3.87411H6.83424V2.11976C6.83424 1.72049 7.15791 1.39682 7.55719 1.39682C7.95646 1.39682 8.28013 1.72049 8.28013 2.11976V3.87411H14.8348V2.11976C14.8348 1.72049 15.1585 1.39682 15.5578 1.39682C15.957 1.39682 16.2807 1.72049 16.2807 2.11976V3.87411ZM16.3867 20.7428C18.25 20.7428 19.7605 19.2323 19.7605 17.3691V8.69374C19.7605 6.83048 18.25 5.32 16.3867 5.32H6.74749C4.88422 5.32 3.37375 6.83048 3.37375 8.69374V17.3691C3.37375 19.2323 4.88422 20.7428 6.74749 20.7428H16.3867Z" fill="#3B53CA"/>
</svg>
