<svg width="375" height="732" viewBox="0 0 375 732" fill="none" xmlns="http://www.w3.org/2000/svg">
<g clip-path="url(#clip0_50_1265)">
<rect x="-20" width="415" height="732" rx="200" fill="url(#paint0_linear_50_1265)"/>
<g clip-path="url(#clip1_50_1265)">
<path d="M6.8499 91.5192C6.8499 95.2652 5.38739 98.7463 2.83739 101.698C1.26239 103.514 -0.725105 105.141 -3.05011 106.503C-7.5126 109.114 -13.1751 110.665 -19.3626 110.665C-25.5876 110.665 -31.2876 109.076 -35.7501 106.427C-39.6876 104.119 -42.6876 100.979 -44.2626 97.4219C-45.0876 95.5679 -45.5376 93.5625 -45.5376 91.5192C-45.5376 90.876 -45.5001 90.2328 -45.4251 89.6273C-44.2251 80.849 -34.9626 73.849 -23.1501 72.6003C-21.9126 72.4868 -20.6376 72.4111 -19.3626 72.4111C-9.72511 72.4111 -1.2876 76.2328 3.2499 81.9084C3.8874 82.703 4.44989 83.5355 4.89989 84.3679C6.17489 86.5625 6.8499 88.9841 6.8499 91.5192Z" fill="#BDD1FF"/>
<path d="M12.1373 69.9513C12.1373 72.5242 11.6123 74.9459 10.6373 77.1404C10.4123 77.6323 10.1873 78.1242 9.92481 78.6161C9.81231 78.8431 9.69981 79.0323 9.54981 79.2594C8.34981 81.2269 6.77481 82.9675 4.93731 84.3675C2.79981 85.9567 0.287306 87.0918 -2.45019 87.5837C-3.46269 87.7729 -4.5127 87.8486 -5.56269 87.8486C-14.4877 87.8486 -21.8377 81.2269 -23.0752 72.5621C-23.1877 71.7296 -23.2627 70.8594 -23.2627 69.9513C-23.2627 60.0756 -15.3502 52.0918 -5.56269 52.0918C-5.22519 52.0918 -4.8877 52.0918 -4.5502 52.1296C4.4123 52.6594 11.6123 59.9242 12.1373 68.9675C12.1373 69.308 12.1373 69.6107 12.1373 69.9513Z" fill="#BDD1FF"/>
<path d="M28.5249 58.4861C28.5249 59.4699 28.4499 60.4537 28.3374 61.3996C28.0749 63.1401 27.6249 64.805 26.9499 66.3564C24.2499 72.751 18.3249 77.178 11.4624 77.178C11.1999 77.178 10.8999 77.178 10.6374 77.1401C10.0749 77.1023 9.5499 77.0645 8.9874 76.951C2.3499 75.8915 -3.05009 70.6699 -4.88759 63.7834C-5.33759 62.0807 -5.6001 60.3023 -5.6001 58.4861C-5.6001 56.2537 -5.22509 54.0969 -4.58759 52.1293C-2.22509 44.9401 4.0749 39.832 11.4624 39.832C16.0749 39.832 20.2749 41.8374 23.3499 45.1293C23.9499 45.7726 24.5124 46.4537 25.0374 47.2104C27.2124 50.3131 28.5249 54.2482 28.5249 58.4861Z" fill="#BDD1FF"/>
<path d="M65.1623 76.0811C65.1623 78.919 63.7748 81.5298 61.3748 83.8001C60.7373 84.4055 60.0248 85.0109 59.2373 85.5406C55.1498 88.4163 49.2998 90.4595 42.5498 91.1784C40.7873 91.3676 38.9498 91.4811 37.0748 91.4811C36.0623 91.4811 35.0498 91.4433 34.0748 91.4055C21.8873 90.6866 12.0248 85.7298 9.5498 79.2217C9.4748 79.0703 9.4373 78.919 9.3998 78.7676C9.2123 78.1622 9.0623 77.5568 9.0248 76.9514C8.9873 76.6487 8.9873 76.346 8.9873 76.0433C8.9873 73.4703 10.1123 71.0487 12.1373 68.9298C15.5123 65.373 21.3248 62.6109 28.3373 61.3622C31.0748 60.8703 34.0373 60.6055 37.0748 60.6055C52.0373 60.6055 64.2623 67.0379 65.1248 75.0974C65.1623 75.4379 65.1623 75.7406 65.1623 76.0811Z" fill="#BDD1FF"/>
<path d="M53.2377 123C65.9955 123 76.3377 113.937 76.3377 102.757C76.3377 91.5769 65.9955 82.5137 53.2377 82.5137C40.4799 82.5137 30.1377 91.5769 30.1377 102.757C30.1377 113.937 40.4799 123 53.2377 123Z" fill="#BDD1FF"/>
<path d="M19.0749 117.741C32.7025 117.741 43.7499 108.661 43.7499 97.4598C43.7499 86.2589 32.7025 77.1787 19.0749 77.1787C5.44728 77.1787 -5.6001 86.2589 -5.6001 97.4598C-5.6001 108.661 5.44728 117.741 19.0749 117.741Z" fill="#BDD1FF"/>
<path d="M88.0002 86.9028C88.0002 94.0163 82.9752 99.919 76.3002 101.168C75.4377 101.319 74.5377 101.433 73.6002 101.433C71.3502 101.433 69.2502 100.903 67.3752 99.9947C62.5377 97.6487 59.2002 92.6541 59.2002 86.9028C59.2002 86.4487 59.2377 85.9947 59.2752 85.5406C59.3502 84.7839 59.4627 84.0271 59.6502 83.2703C60.4752 79.9406 62.4627 77.0649 65.1627 75.1352C67.5252 73.3947 70.4502 72.373 73.6377 72.373C77.0502 72.373 80.2002 73.5839 82.6377 75.5893C85.8627 78.2379 88.0002 82.3244 88.0002 86.9028Z" fill="#BDD1FF"/>
<path d="M82.6001 75.5517C81.8126 79.9787 79.0376 83.6868 75.2501 85.7679C73.9751 86.449 72.5876 86.9787 71.1251 87.2436C71.1626 87.7733 71.2001 88.303 71.2001 88.8328C71.2001 89.2111 71.2001 89.5895 71.1626 89.9679C70.9376 93.676 69.5501 97.1192 67.3751 99.9949C63.2501 105.444 56.1626 109.076 48.1001 109.076C45.3626 109.076 42.7376 108.66 40.2626 107.903C36.2876 106.654 32.8001 104.46 30.1751 101.622C29.6501 101.054 29.1251 100.449 28.6751 99.8057C24.5501 102.341 19.4501 103.817 13.9376 103.817C9.96259 103.817 6.17509 103.022 2.8751 101.66C-0.387405 100.298 -3.2374 98.3679 -5.4874 96.0219C-6.4999 94.9625 -7.3999 93.7895 -8.1499 92.5409C-12.6124 95.1517 -18.2749 96.703 -24.4624 96.703C-29.2624 96.703 -33.7999 95.7571 -37.6624 94.0922C-38.6749 93.676 -39.6499 93.1841 -40.5499 92.6544C-40.6624 92.5787 -40.7374 92.5409 -40.8499 92.4652C-40.9624 92.7301 -41.0374 92.9571 -41.1499 93.222C-41.8624 94.8111 -42.9124 96.2111 -44.1874 97.3841C-44.2999 97.4976 -44.4124 97.6111 -44.5624 97.6868C-46.6999 99.4652 -49.4749 100.562 -52.4749 100.562C-52.7749 100.562 -53.0749 100.562 -53.3749 100.525C-54.9499 100.411 -56.4874 99.9949 -57.8374 99.3138C-58.2499 99.1246 -58.6624 98.8598 -59.0749 98.6328C-59.1499 98.6706 -59.2249 98.7084 -59.3374 98.7463C-57.9499 93.3733 -53.0749 89.4003 -47.3374 89.4003C-46.6624 89.4003 -45.9874 89.4382 -45.3499 89.5517C-44.1499 80.7733 -34.8874 73.7733 -23.0749 72.5247C-23.1874 71.6922 -23.2624 70.8219 -23.2624 69.9138C-23.2624 60.0382 -15.3499 52.0544 -5.5624 52.0544C-5.2249 52.0544 -4.88741 52.0544 -4.5499 52.0922C-2.1874 44.903 4.11259 39.7949 11.5001 39.7949C16.1126 39.7949 20.3126 41.8003 23.3876 45.0922C23.9876 45.7355 24.5501 46.4165 25.0751 47.1733C27.2501 50.3138 28.5626 54.249 28.5626 58.4868C28.5626 59.4706 28.4876 60.4544 28.3751 61.4003C31.1126 60.9084 34.0751 60.6436 37.1126 60.6436C52.0751 60.6436 64.3001 67.076 65.1626 75.1355C67.5251 73.3949 70.4501 72.3733 73.6376 72.3733C76.9751 72.3733 80.1251 73.5463 82.6001 75.5517Z" fill="#E9F2DC"/>
<path d="M71.1252 87.2432C71.1627 87.773 71.2002 88.3027 71.2002 88.8324C71.2002 89.2108 71.2002 89.5892 71.1627 89.9676C70.9377 93.6757 69.5502 97.1189 67.3752 99.9946C63.2502 105.443 56.1627 109.076 48.1002 109.076C45.3627 109.076 42.7377 108.659 40.2627 107.903C36.2877 106.654 32.8002 104.459 30.1752 101.622C29.6502 101.054 29.1252 100.449 28.6752 99.8054C24.5502 102.341 19.4502 103.816 13.9377 103.816C9.96269 103.816 6.17519 103.022 2.87519 101.659C-0.38731 100.297 -3.23731 98.3676 -5.48731 96.0216C-6.49981 94.9622 -7.39981 93.7892 -8.14981 92.5405C-12.6123 95.1514 -18.2748 96.7027 -24.4623 96.7027C-29.2623 96.7027 -33.7998 95.7568 -37.6623 94.0919C-38.6748 93.6757 -39.6498 93.1838 -40.5498 92.6541C-36.4998 88.9838 -30.6498 86.4487 -23.9373 85.7297C-24.0498 84.8973 -24.1248 84.027 -24.1248 83.1189C-24.1248 73.2432 -16.2123 65.2595 -6.42481 65.2595C-6.08731 65.2595 -5.74981 65.2595 -5.41231 65.2973C-3.04981 58.1081 3.25019 53 10.6377 53C15.2502 53 19.4502 55.0054 22.5252 58.2973C22.4877 59.0919 22.4502 59.8865 22.3377 60.6432C22.9377 60.5297 23.5752 60.4162 24.2127 60.3405C26.3877 63.4811 27.7002 67.4162 27.7002 71.6541C27.7002 72.6378 27.6252 73.6216 27.5127 74.5676C30.2502 74.0757 33.2127 73.8108 36.2502 73.8108C51.2127 73.8108 63.4377 80.2432 64.3002 88.3027C66.6627 86.5622 69.5877 85.5405 72.7752 85.5405C73.6377 85.5405 74.5002 85.6162 75.3252 85.7676C73.9752 86.4487 72.5877 86.9784 71.1252 87.2432Z" fill="#E9F2DC"/>
<path d="M10.7125 85.1621C9.66249 92.9567 2.0875 98.9729 -7.1 98.9729C-16.2875 98.9729 -23.825 92.9567 -24.875 85.1621C-21.05 89.7405 -14.525 92.7297 -7.0625 92.7297C0.399998 92.7297 6.8875 89.7405 10.7125 85.1621Z" fill="#BDD1FF"/>
<path d="M49.5625 90.0059C50.35 95.7194 46.1875 101.471 39.7 103.287C33.2125 105.103 26.6875 102.341 24.4375 97.0815C28 99.541 33.2125 100.373 38.4625 98.8978C43.75 97.3842 47.7625 93.9788 49.5625 90.0059Z" fill="#BDD1FF"/>
<path d="M87.8873 86.0703C87.8873 87.4324 87.6998 88.7946 87.3248 90.0432C85.4498 84.2162 80.0123 80.0162 73.6373 80.0162C70.4873 80.0162 67.5623 81.0378 65.1623 82.7784C64.2998 74.6811 52.0748 68.2487 37.1123 68.2487C34.0748 68.2487 31.1123 68.5135 28.3748 69.0054C28.5248 68.0595 28.5623 67.0757 28.5623 66.0919C28.5623 55.7622 20.9123 47.4 11.4998 47.4C4.11231 47.4 -2.15019 52.5081 -4.55019 59.6973C-4.8877 59.6595 -5.22519 59.6595 -5.56269 59.6595C-15.3502 59.6595 -23.2627 67.6432 -23.2627 77.5189C-23.2627 78.3892 -23.1877 79.2595 -23.0752 80.1297C-34.8877 81.3784 -44.1502 88.4162 -45.3502 97.1568C-45.9877 97.0432 -46.6627 97.0054 -47.3377 97.0054C-53.2627 97.0054 -58.2502 101.205 -59.4877 106.805C-59.6002 106.805 -59.6752 106.805 -59.7877 106.805C-63.5377 106.805 -66.8377 108.016 -68.8627 109.832C-70.2502 108.622 -71.0752 107.146 -71.0752 105.519C-71.0752 101.546 -66.0877 98.3297 -59.9752 98.3297C-59.8627 98.3297 -59.7877 98.3297 -59.6752 98.3297C-58.4377 92.7297 -53.4877 88.5297 -47.5252 88.5297C-46.8502 88.5297 -46.1752 88.5676 -45.5377 88.6811C-44.3377 79.9027 -35.0752 72.9027 -23.2627 71.6541C-23.3752 70.8216 -23.4502 69.9514 -23.4502 69.0432C-23.4502 59.1676 -15.5377 51.1838 -5.75019 51.1838C-5.41269 51.1838 -5.0752 51.1838 -4.73769 51.2216C-2.30019 44.1081 3.99981 39 11.3498 39C20.7623 39 28.4123 47.3622 28.4123 57.6919C28.4123 58.6757 28.3373 59.6595 28.2248 60.6054C30.9623 60.1135 33.9248 59.8486 36.9623 59.8486C51.9248 59.8486 64.1498 66.2811 65.0123 74.3784C67.3748 72.6378 70.2998 71.6162 73.4873 71.6162C81.4373 71.5405 87.8873 78.0486 87.8873 86.0703Z" fill="white"/>
<path d="M43.9 75.5514C39.8875 72.2217 34.1125 70.1406 27.7 70.1406C21.2875 70.1406 15.5125 72.2217 11.5 75.5514C13.6 68.5136 20.05 63.4055 27.7 63.4055C35.35 63.3676 41.8 68.5136 43.9 75.5514Z" fill="white"/>
</g>
<g clip-path="url(#clip2_50_1265)">
<path d="M311.41 74.5582C311.41 76.757 311.15 78.851 310.683 80.8404C310.215 82.725 309.592 84.4526 308.813 86.0755C307.203 89.3213 304.918 91.9912 302.218 93.7188C299.985 95.1323 297.492 95.9176 294.895 95.9176C291.156 95.9176 287.728 94.347 284.976 91.6771C284.664 91.363 284.301 90.9965 284.041 90.6824C280.821 87.1225 278.692 81.9397 278.38 76.1287C278.328 75.6052 278.328 75.0817 278.328 74.5582C278.328 71.8359 278.744 69.166 279.471 66.7578C281.86 58.8004 287.884 53.1465 294.895 53.1465C302.997 53.1465 309.748 60.6851 311.15 70.6318C311.358 71.9406 311.41 73.2494 311.41 74.5582Z" fill="#BDD1FF"/>
<path d="M337.792 87.175C337.792 97.3835 329.587 105.707 319.408 105.707C316.292 105.707 313.384 104.922 310.839 103.561C306.892 101.467 303.828 97.9593 302.218 93.7189C301.439 91.6772 301.023 89.4784 301.023 87.175C301.023 86.8085 301.023 86.442 301.075 86.0756C301.283 82.7774 302.322 79.7411 303.984 77.1235C305.749 74.3489 308.242 72.0978 311.151 70.6319C313.643 69.3755 316.448 68.6426 319.408 68.6426C323.407 68.6426 327.146 69.9514 330.158 72.1501C334.78 75.553 337.792 80.9975 337.792 87.175Z" fill="#BDD1FF"/>
<path d="M289.701 110C304.874 110 317.174 102.078 317.174 92.3051C317.174 82.5326 304.874 74.6104 289.701 74.6104C274.529 74.6104 262.229 82.5326 262.229 92.3051C262.229 102.078 274.529 110 289.701 110Z" fill="#BDD1FF"/>
<path d="M278.328 89.7924C278.328 90.0542 278.328 90.2636 278.328 90.5253C278.224 92.3053 277.653 94.0329 276.718 95.5511C274.797 98.7445 271.421 101.257 267.214 102.514C265.345 103.09 263.267 103.404 261.138 103.404C251.686 103.351 244 97.2787 244 89.7924C244 87.1748 244.935 84.7667 246.493 82.725C248.518 80.1074 251.686 78.0657 255.425 77.0187C257.191 76.4952 259.113 76.2334 261.138 76.2334C265.033 76.2334 268.617 77.2804 271.525 79.008C275.68 81.4685 278.328 85.3949 278.328 89.7924Z" fill="#BDD1FF"/>
<path d="M290.377 80.7881C290.377 84.5051 288.819 87.9079 286.222 90.5778C285.807 90.9967 285.443 91.3631 284.976 91.7296C282.691 93.6142 279.886 94.9754 276.718 95.6036C275.42 95.8653 274.07 96.0224 272.668 96.0224C268.773 96.0224 265.189 94.9754 262.281 93.1431C258.801 90.9967 256.257 87.8032 255.322 84.0863C255.062 83.0392 254.906 81.9399 254.906 80.8405C254.906 79.5317 255.114 78.2753 255.478 77.0712C257.451 70.5273 264.41 65.7109 272.668 65.7109C275.108 65.7109 277.394 66.1297 279.471 66.8627C283.626 68.3285 287.001 71.1555 288.819 74.663C289.806 76.4953 290.377 78.5894 290.377 80.7881Z" fill="#BDD1FF"/>
<path d="M330.158 72.15C328.496 79.3222 322.731 84.8714 315.461 86.1278C314.422 86.3373 313.331 86.3896 312.241 86.3896C311.046 86.3896 309.904 86.2849 308.761 86.0755C306.944 85.709 305.23 85.1332 303.62 84.2432C302.789 84.8714 301.906 85.4473 300.971 86.0231C296.92 88.4313 291.779 90.0019 286.118 90.5254C285.391 90.5777 284.664 90.6301 283.937 90.6301C283.47 90.6301 282.95 90.6301 282.483 90.6301C281.029 90.6301 279.627 90.5777 278.224 90.4207C272.719 89.8972 267.786 88.2743 263.891 85.9708C262.436 85.1332 261.138 84.1385 259.996 83.1438C258.49 83.615 256.88 83.8767 255.218 83.9814C254.802 83.9814 254.387 84.0338 253.919 84.0338C251.219 84.0338 248.674 83.5626 246.441 82.6727C248.466 80.0551 251.634 78.0134 255.373 76.9664C257.347 70.4224 264.306 65.6061 272.564 65.6061C275.004 65.6061 277.29 66.0249 279.367 66.7578C281.756 58.8004 287.78 53.1465 294.791 53.1465C302.893 53.1465 309.644 60.6851 311.046 70.6318C313.539 69.3754 316.344 68.6425 319.304 68.6425C323.407 68.6948 327.146 69.9513 330.158 72.15Z" fill="#E9F2DC"/>
<path d="M309.177 79.4795C308.605 83.8247 304.399 87.1751 299.309 87.2275C294.168 87.2798 289.961 83.9294 289.338 79.5842C291.467 82.0971 295.154 83.7723 299.257 83.72C303.412 83.72 307.047 81.9924 309.177 79.4795Z" fill="#BDD1FF"/>
<path d="M273.342 78.8514C272.148 80.6837 269.551 81.2596 267.214 80.1602C264.929 79.0608 263.735 76.6526 264.41 74.5586C264.825 76.1815 266.124 77.6997 267.993 78.5897C269.811 79.532 271.836 79.532 273.342 78.8514Z" fill="#BDD1FF"/>
<path d="M338 85.0284C338 86.9654 337.688 88.7977 337.169 90.5776C334.624 83.3531 327.821 78.2227 319.823 78.2227C316.863 78.2227 314.058 78.9556 311.566 80.2121C310.163 70.2653 303.412 62.7267 295.31 62.7267C288.299 62.7267 282.275 68.3807 279.886 76.3381C277.809 75.6051 275.472 75.1863 273.083 75.1863C264.825 75.1863 257.866 80.0027 255.893 86.5466C251.53 87.7507 247.947 90.3682 246.025 93.6664C244.883 91.8341 244.208 89.7924 244.208 87.646C244.208 81.7303 248.985 76.7045 255.633 74.8722C257.606 68.276 264.566 63.4596 272.823 63.4596C275.264 63.4596 277.549 63.8784 279.626 64.6114C282.067 56.6539 288.091 51 295.103 51C303.204 51 309.956 58.5386 311.358 68.4854C313.851 67.2289 316.655 66.496 319.615 66.496C329.794 66.496 338 74.8199 338 85.0284Z" fill="white"/>
</g>
<g clip-path="url(#clip3_50_1265)">
<path d="M22.6477 312.752C22.6477 313.523 22.596 314.293 22.4411 315.064C21.7697 318.557 19.6524 321.793 16.4505 324.413C12.9904 327.238 8.29088 329.395 2.86834 330.525C0.13125 331.091 -2.76076 331.399 -5.75607 331.399C-9.26781 331.399 -12.573 330.988 -15.6716 330.217C-24.8124 327.957 -31.7326 322.718 -33.6434 316.297C-33.9533 315.167 -34.1598 313.985 -34.1598 312.752C-34.1598 302.479 -21.4556 294.157 -5.75607 294.157C6.48337 294.157 16.9153 299.243 20.8918 306.331C22.028 308.335 22.6477 310.492 22.6477 312.752Z" fill="#BDD1FF"/>
<path d="M47.0751 321.536C47.0751 325.389 46.3521 328.985 45.061 332.118C44.5446 333.299 43.9765 334.43 43.3568 335.508C40.5164 340.08 36.3333 342.957 31.6854 342.957C30.9624 342.957 30.2394 342.905 29.5164 342.751C27.3474 342.34 25.2817 341.261 23.5258 339.72C19.7042 336.433 17.0188 330.834 16.3991 324.362C16.2958 323.437 16.2441 322.512 16.2441 321.588C16.2441 319.019 16.554 316.554 17.1737 314.293C17.9484 311.263 19.2394 308.54 20.8404 306.331C23.6291 302.53 27.3991 300.219 31.6338 300.219C38.2441 300.219 43.9249 306.075 46.0939 314.242C46.7653 316.502 47.0751 318.968 47.0751 321.536Z" fill="#BDD1FF"/>
<path d="M3.69478 336.022C3.69478 340.953 1.83563 345.473 -1.36625 349.172C-4.30991 352.613 -8.38973 355.233 -13.1409 356.774C-15.9296 357.647 -18.9766 358.161 -22.1268 358.161C-36.3803 358.161 -47.9484 348.247 -47.9484 336.073C-47.9484 334.892 -47.8451 333.761 -47.6385 332.631C-46.3475 325.44 -40.9766 319.379 -33.5916 316.245C-30.1315 314.755 -26.2066 313.934 -22.0752 313.934C-15.5681 313.934 -9.62916 315.988 -5.08456 319.379C-1.26297 322.255 1.57741 326.056 2.92013 330.423C3.38492 332.272 3.69478 334.121 3.69478 336.022Z" fill="#BDD1FF"/>
<path d="M14.2301 369C32.3699 369 47.0751 356.719 47.0751 341.569C47.0751 326.42 32.3699 314.139 14.2301 314.139C-3.90977 314.139 -18.615 326.42 -18.615 341.569C-18.615 356.719 -3.90977 369 14.2301 369Z" fill="#BDD1FF"/>
<path d="M72.7935 334.327C72.7935 345.473 61.587 354.514 47.695 354.514C46.1973 354.514 44.7513 354.411 43.3569 354.206C36.1785 353.179 30.033 349.737 26.3147 344.908C25.0752 343.316 24.1457 341.569 23.4743 339.669C22.9062 337.974 22.5964 336.176 22.5964 334.327C22.5964 327.957 26.263 322.255 32.0471 318.557C35.972 316.04 40.8264 314.447 46.094 314.191C46.6105 314.139 47.1269 314.139 47.695 314.139C54.4602 314.139 60.5541 316.297 65.0987 319.79C69.8499 323.488 72.7935 328.625 72.7935 334.327Z" fill="#BDD1FF"/>
<path d="M65.0988 319.79C63.033 327.392 55.5964 333.402 46.1457 335.097C45.2161 335.251 44.2866 335.405 43.357 335.457C42.479 335.559 41.5495 335.559 40.6199 335.559C39.1222 335.559 37.6762 335.457 36.2819 335.251C34.526 338.025 32.2537 340.542 29.5166 342.648C28.5354 343.419 27.4509 344.138 26.3147 344.857C20.8922 348.145 14.2302 350.045 7.05181 350.045C4.10815 350.045 1.26778 349.737 -1.41767 349.12C-8.28622 347.579 -14.3285 344.241 -18.6149 339.72C-19.1829 339.104 -19.751 338.487 -20.3191 337.82C-23.1078 338.693 -26.1548 339.207 -29.305 339.207C-36.535 339.207 -43.0421 336.69 -47.7416 332.58C-46.4505 325.389 -41.0796 319.327 -33.6947 316.194C-34.0045 315.064 -34.2111 313.882 -34.2111 312.65C-34.2111 302.376 -21.5069 294.054 -5.80734 294.054C6.43209 294.054 16.864 299.14 20.8405 306.229C23.6293 302.427 27.3992 300.116 31.634 300.116C38.2443 300.116 43.9251 305.972 46.0941 314.139C46.6105 314.088 47.1269 314.088 47.695 314.088C54.4603 314.139 60.6058 316.297 65.0988 319.79Z" fill="#E9F2DC"/>
<path d="M6.53516 331.347C5.60558 338.333 -1.3146 343.727 -9.62916 343.727C-17.9954 343.727 -24.8639 338.333 -25.7935 331.347C-22.3334 335.457 -16.3944 338.128 -9.62916 338.128C-2.91554 338.128 3.07507 335.405 6.53516 331.347Z" fill="#BDD1FF"/>
<path d="M54.0471 326.827C53.1175 333.813 46.1973 339.207 37.8828 339.207C29.5166 339.207 22.648 333.813 21.7185 326.827C25.1786 330.937 31.1175 333.608 37.8828 333.608C44.648 333.608 50.587 330.885 54.0471 326.827Z" fill="#BDD1FF"/>
<path d="M72.9998 332.221C72.9998 334.121 72.6899 335.919 72.0702 337.666C68.8683 329.447 59.366 323.54 48.1594 323.54C47.643 323.54 47.1266 323.54 46.5585 323.591C44.3895 315.424 38.7604 309.568 32.0984 309.568C27.9153 309.568 24.0937 311.931 21.305 315.68C17.3284 308.592 6.89651 303.506 -5.34293 303.506C-21.0425 303.506 -33.7467 311.828 -33.7467 322.101C-33.7467 323.283 -33.5918 324.464 -33.2302 325.646C-39.8922 328.471 -44.9533 333.71 -46.8124 340.029C-47.4838 338.077 -47.7936 336.073 -47.7936 333.916C-47.7936 325.235 -41.9579 317.735 -33.4368 314.139C-33.7467 313.009 -33.9533 311.828 -33.9533 310.595C-33.9533 300.322 -21.249 292 -5.5495 292C6.68994 292 17.1219 297.085 21.0984 304.174C23.8871 300.373 27.6571 298.061 31.8918 298.061C38.5021 298.061 44.1829 303.917 46.3519 312.085C46.8683 312.033 47.3848 312.033 47.9529 312.033C61.7932 312.033 72.9998 321.074 72.9998 332.221Z" fill="white"/>
<path d="M31.2725 322.923C28.2772 320.149 23.9908 318.403 19.2396 318.403C14.4884 318.403 10.1504 320.149 7.20675 322.923C8.75604 317.016 13.5589 312.752 19.2396 312.752C24.9204 312.752 29.7232 317.016 31.2725 322.923Z" fill="white"/>
</g>
<g clip-path="url(#clip4_50_1265)">
<path d="M120.921 514.408C120.921 518.409 117.634 521.889 112.646 523.803C110.004 524.847 106.894 525.427 103.548 525.427C93.9232 525.427 86.1761 520.497 86.1761 514.408C86.1761 509.652 90.93 505.534 97.6207 504.026C98.7946 503.736 100.086 503.562 101.377 503.446C102.081 503.388 102.786 503.388 103.548 503.388C103.725 503.388 103.842 503.388 104.018 503.388C104.898 503.388 105.72 503.446 106.542 503.562C109.124 503.852 111.472 504.49 113.526 505.418C117.986 507.332 120.921 510.638 120.921 514.408Z" fill="#BDD1FF"/>
<path d="M142.46 507.506C142.46 509.884 141.991 512.204 141.228 514.292C138.469 521.541 131.368 526.703 123.034 526.703C119.219 526.703 115.697 525.601 112.704 523.745C107.246 520.323 103.607 514.35 103.607 507.448C103.607 505.998 103.783 504.606 104.077 503.272C104.135 503.04 104.194 502.75 104.253 502.518C106.424 494.283 114.054 488.193 123.034 488.193C124.09 488.193 125.147 488.251 126.144 488.425C131.016 489.179 135.241 491.731 138.176 495.327C140.817 498.749 142.46 502.982 142.46 507.506Z" fill="#BDD1FF"/>
<path d="M207.842 491.499C207.842 497.241 205.553 502.577 201.562 507.1C199.097 509.884 195.986 512.378 192.347 514.466C185.363 518.468 176.501 520.845 166.817 520.845C157.074 520.845 148.153 518.41 141.169 514.35C135.007 510.812 130.311 505.998 127.846 500.547C126.555 497.705 125.851 494.631 125.851 491.499C125.851 490.513 125.91 489.527 126.027 488.599C127.905 475.144 142.402 464.415 160.889 462.501C162.826 462.327 164.821 462.211 166.817 462.211C181.9 462.211 195.106 468.069 202.207 476.768C203.205 477.986 204.085 479.262 204.79 480.538C206.785 483.902 207.842 487.614 207.842 491.499Z" fill="#BDD1FF"/>
<path d="M216.117 458.441C216.117 462.385 215.295 466.097 213.769 469.46C213.417 470.214 213.065 470.968 212.654 471.722C212.478 472.07 212.302 472.36 212.067 472.708C210.189 475.724 207.724 478.392 204.848 480.538C201.503 482.974 197.571 484.713 193.286 485.467C191.702 485.757 190.058 485.873 188.415 485.873C174.447 485.873 162.943 475.724 161.007 462.443C160.83 461.167 160.713 459.833 160.713 458.441C160.713 443.304 173.097 431.067 188.415 431.067C188.943 431.067 189.471 431.067 190 431.125C204.027 431.937 215.295 443.072 216.117 456.933C216.117 457.455 216.117 457.919 216.117 458.441Z" fill="#BDD1FF"/>
<path d="M241.764 440.868C241.764 442.376 241.647 443.884 241.471 445.334C241.06 448.002 240.356 450.554 239.299 452.931C235.074 462.733 225.801 469.518 215.06 469.518C214.649 469.518 214.18 469.518 213.769 469.46C212.889 469.402 212.067 469.344 211.187 469.17C200.798 467.547 192.347 459.543 189.471 448.988C188.767 446.378 188.356 443.652 188.356 440.868C188.356 437.446 188.943 434.141 189.941 431.125C193.638 420.106 203.498 412.276 215.06 412.276C222.279 412.276 228.853 415.35 233.665 420.396C234.604 421.382 235.485 422.425 236.306 423.585C239.71 428.341 241.764 434.373 241.764 440.868Z" fill="#BDD1FF"/>
<path d="M299.105 467.836C299.105 472.186 296.934 476.188 293.177 479.668C292.18 480.596 291.065 481.524 289.832 482.335C283.435 486.743 274.279 489.875 263.715 490.977C260.956 491.267 258.08 491.441 255.146 491.441C253.561 491.441 251.977 491.383 250.451 491.325C231.376 490.223 215.941 482.625 212.067 472.65C211.95 472.418 211.891 472.186 211.832 471.954C211.539 471.026 211.304 470.098 211.245 469.17C211.187 468.706 211.187 468.242 211.187 467.778C211.187 463.835 212.947 460.123 216.117 456.875C221.399 451.423 230.496 447.19 241.471 445.276C245.755 444.522 250.392 444.116 255.146 444.116C278.563 444.116 297.697 453.975 299.046 466.329C299.105 466.85 299.105 467.314 299.105 467.836Z" fill="#BDD1FF"/>
<path d="M280.442 539.752C300.409 539.752 316.595 525.86 316.595 508.724C316.595 491.587 300.409 477.696 280.442 477.696C260.475 477.696 244.288 491.587 244.288 508.724C244.288 525.86 260.475 539.752 280.442 539.752Z" fill="#BDD1FF"/>
<path d="M226.974 531.691C248.302 531.691 265.592 517.773 265.592 500.605C265.592 483.436 248.302 469.519 226.974 469.519C205.646 469.519 188.356 483.436 188.356 500.605C188.356 517.773 205.646 531.691 226.974 531.691Z" fill="#BDD1FF"/>
<path d="M334.848 484.424C334.848 495.327 326.983 504.374 316.536 506.288C315.187 506.52 313.778 506.694 312.311 506.694C308.789 506.694 305.503 505.882 302.568 504.49C294.997 500.895 289.774 493.239 289.774 484.424C289.774 483.728 289.832 483.032 289.891 482.336C290.008 481.176 290.184 480.016 290.478 478.856C291.769 473.752 294.88 469.345 299.105 466.387C302.803 463.719 307.381 462.153 312.369 462.153C317.71 462.153 322.64 464.009 326.455 467.083C331.503 471.142 334.848 477.406 334.848 484.424Z" fill="#BDD1FF"/>
<path d="M326.396 467.025C325.164 473.81 320.82 479.494 314.893 482.684C312.897 483.728 310.726 484.54 308.437 484.946C308.495 485.757 308.554 486.569 308.554 487.381C308.554 487.961 308.554 488.541 308.495 489.121C308.143 494.805 305.972 500.083 302.568 504.49C296.112 512.842 285.019 518.409 272.401 518.409C268.116 518.409 264.008 517.771 260.134 516.611C253.913 514.698 248.455 511.334 244.347 506.984C243.525 506.114 242.703 505.186 241.999 504.2C235.543 508.086 227.561 510.348 218.934 510.348C212.713 510.348 206.785 509.13 201.62 507.042C196.514 504.954 192.054 501.996 188.532 498.401C186.947 496.777 185.539 494.979 184.365 493.065C177.381 497.067 168.519 499.445 158.835 499.445C151.322 499.445 144.221 497.995 138.176 495.443C136.591 494.805 135.065 494.051 133.656 493.239C133.48 493.123 133.363 493.065 133.187 492.949C133.011 493.355 132.894 493.703 132.717 494.109C131.602 496.545 129.959 498.691 127.964 500.489C127.787 500.663 127.611 500.836 127.377 500.952C124.031 503.678 119.688 505.36 114.993 505.36C114.523 505.36 114.054 505.36 113.584 505.302C111.119 505.128 108.713 504.49 106.6 503.446C105.955 503.156 105.309 502.75 104.663 502.402C104.546 502.46 104.429 502.518 104.253 502.576C106.424 494.341 114.054 488.251 123.034 488.251C124.09 488.251 125.146 488.309 126.144 488.483C128.022 475.028 142.519 464.299 161.006 462.385C160.83 461.109 160.713 459.775 160.713 458.383C160.713 443.246 173.096 431.009 188.415 431.009C188.943 431.009 189.471 431.009 189.999 431.067C193.697 420.048 203.557 412.218 215.119 412.218C222.338 412.218 228.911 415.292 233.724 420.338C234.663 421.324 235.543 422.368 236.365 423.528C239.769 428.341 241.823 434.373 241.823 440.868C241.823 442.376 241.706 443.884 241.53 445.334C245.814 444.58 250.451 444.174 255.204 444.174C278.622 444.174 297.755 454.034 299.105 466.387C302.802 463.719 307.38 462.153 312.369 462.153C317.592 462.153 322.522 463.951 326.396 467.025Z" fill="#E9F2DC"/>
<path d="M97.6207 504.027C98.7945 503.737 100.086 503.563 101.377 503.447C100.203 503.737 98.9119 503.911 97.6207 504.027Z" fill="#E9F2DC"/>
<path d="M132.659 494.167C131.544 496.603 129.9 498.749 127.905 500.547C127.729 500.721 127.553 500.895 127.318 501.011C128.668 498.517 130.428 496.255 132.659 494.167Z" fill="#E9F2DC"/>
<path d="M308.437 484.945C308.495 485.757 308.554 486.569 308.554 487.381C308.554 487.961 308.554 488.541 308.495 489.121C308.143 494.805 305.972 500.082 302.568 504.49C296.112 512.841 285.019 518.409 272.401 518.409C268.116 518.409 264.008 517.771 260.135 516.611C253.913 514.697 248.455 511.334 244.347 506.984C243.525 506.114 242.703 505.186 241.999 504.2C235.543 508.086 227.561 510.348 218.934 510.348C212.713 510.348 206.785 509.13 201.62 507.042C196.514 504.954 192.054 501.996 188.532 498.4C186.947 496.777 185.539 494.979 184.365 493.065C177.381 497.067 168.519 499.444 158.835 499.444C151.322 499.444 144.221 497.994 138.176 495.443C136.591 494.805 135.065 494.051 133.657 493.239C139.995 487.613 149.151 483.727 159.656 482.625C159.48 481.35 159.363 480.016 159.363 478.624C159.363 463.487 171.747 451.25 187.065 451.25C187.593 451.25 188.121 451.25 188.649 451.308C192.347 440.288 202.207 432.459 213.769 432.459C220.988 432.459 227.561 435.533 232.374 440.578C232.315 441.796 232.257 443.014 232.08 444.174C233.02 444 234.017 443.826 235.015 443.71C238.419 448.524 240.473 454.555 240.473 461.051C240.473 462.559 240.356 464.067 240.18 465.517C244.464 464.763 249.101 464.357 253.855 464.357C277.272 464.357 296.405 474.216 297.755 486.569C301.453 483.901 306.03 482.335 311.019 482.335C312.369 482.335 313.719 482.451 315.01 482.683C312.897 483.727 310.726 484.539 308.437 484.945Z" fill="#E9F2DC"/>
<path d="M213.886 481.756C212.243 493.704 200.388 502.925 186.008 502.925C171.629 502.925 159.833 493.704 158.189 481.756C164.176 488.774 174.388 493.356 186.067 493.356C197.747 493.356 207.9 488.774 213.886 481.756Z" fill="#BDD1FF"/>
<path d="M274.69 489.18C275.922 497.937 269.408 506.753 259.254 509.537C249.101 512.32 238.889 508.087 235.367 500.025C240.943 503.795 249.101 505.071 257.317 502.809C265.593 500.489 271.873 495.27 274.69 489.18Z" fill="#BDD1FF"/>
<path d="M334.671 483.148C334.671 485.236 334.378 487.324 333.791 489.237C330.857 480.306 322.346 473.868 312.369 473.868C307.439 473.868 302.861 475.434 299.105 478.102C297.755 465.691 278.622 455.832 255.204 455.832C250.451 455.832 245.814 456.238 241.53 456.991C241.764 455.542 241.823 454.034 241.823 452.526C241.823 436.693 229.85 423.876 215.119 423.876C203.557 423.876 193.756 431.705 189.999 442.724C189.471 442.666 188.943 442.666 188.415 442.666C173.097 442.666 160.713 454.904 160.713 470.041C160.713 471.375 160.83 472.708 161.006 474.042C142.519 475.956 128.022 486.744 126.144 500.141C125.146 499.967 124.09 499.909 123.034 499.909C113.76 499.909 105.955 506.346 104.018 514.93C103.842 514.93 103.724 514.93 103.548 514.93C97.6792 514.93 92.5145 516.786 89.3452 519.569C87.1737 517.714 85.8825 515.452 85.8825 512.958C85.8825 506.868 93.6883 501.939 103.255 501.939C103.431 501.939 103.548 501.939 103.724 501.939C105.661 493.355 113.408 486.918 122.74 486.918C123.797 486.918 124.853 486.976 125.851 487.15C127.729 473.694 142.225 462.965 160.713 461.051C160.537 459.775 160.419 458.441 160.419 457.049C160.419 441.912 172.803 429.675 188.121 429.675C188.649 429.675 189.178 429.675 189.706 429.733C193.521 418.83 203.381 411 214.884 411C229.615 411 241.588 423.818 241.588 439.651C241.588 441.159 241.471 442.666 241.295 444.116C245.579 443.362 250.216 442.956 254.97 442.956C278.387 442.956 297.52 452.816 298.87 465.227C302.568 462.559 307.146 460.993 312.134 460.993C324.577 460.877 334.671 470.853 334.671 483.148Z" fill="white"/>
<path d="M265.828 467.025C259.548 461.921 250.509 458.731 240.473 458.731C230.437 458.731 221.399 461.921 215.119 467.025C218.406 456.238 228.5 448.408 240.473 448.408C252.446 448.35 262.541 456.238 265.828 467.025Z" fill="white"/>
<path d="M189.765 479.436C185.539 474.332 179.435 471.143 172.686 471.143C165.936 471.143 159.832 474.332 155.607 479.436C157.837 468.649 164.586 460.819 172.686 460.819C180.785 460.819 187.534 468.649 189.765 479.436Z" fill="white"/>
</g>
</g>
<defs>
<linearGradient id="paint0_linear_50_1265" x1="187.5" y1="0" x2="187.5" y2="732" gradientUnits="userSpaceOnUse">
<stop stop-color="#89C9FF"/>
<stop offset="1" stop-color="#D1CDFF"/>
</linearGradient>
<clipPath id="clip0_50_1265">
<rect x="-20" width="415" height="732" rx="200" fill="white"/>
</clipPath>
<clipPath id="clip1_50_1265">
<rect width="159" height="84" fill="white" transform="translate(-71 39)"/>
</clipPath>
<clipPath id="clip2_50_1265">
<rect width="94" height="59" fill="white" transform="translate(244 51)"/>
</clipPath>
<clipPath id="clip3_50_1265">
<rect width="121" height="77" fill="white" transform="translate(-48 292)"/>
</clipPath>
<clipPath id="clip4_50_1265">
<rect width="248.848" height="128.752" fill="white" transform="matrix(1 0 0 -1 86 539.752)"/>
</clipPath>
</defs>
</svg>
