<svg width="375" height="812" viewBox="0 0 375 812" fill="none" xmlns="http://www.w3.org/2000/svg">
<g clip-path="url(#clip0_50_1571)">
<rect x="-21" y="-215" width="661" height="1165" rx="200" fill="url(#paint0_linear_50_1571)"/>
<g opacity="0.8" clip-path="url(#clip1_50_1571)">
<path d="M21.6477 97.7523C21.6477 98.5228 21.596 99.2933 21.4411 100.064C20.7697 103.557 18.6524 106.793 15.4505 109.413C11.9904 112.238 7.29085 114.395 1.86832 115.525C-0.868774 116.091 -3.76079 116.399 -6.75609 116.399C-10.2678 116.399 -13.573 115.988 -16.6716 115.217C-25.8124 112.957 -32.7326 107.718 -34.6434 101.297C-34.9533 100.167 -35.1599 98.9851 -35.1599 97.7523C-35.1599 87.4788 -22.4556 79.1572 -6.75609 79.1572C5.48335 79.1572 15.9153 84.2426 19.8918 91.3313C21.0279 93.3347 21.6477 95.4921 21.6477 97.7523Z" fill="#BDD1FF"/>
<path d="M46.0751 106.536C46.0751 110.389 45.3521 113.985 44.061 117.118C43.5446 118.299 42.9765 119.43 42.3568 120.508C39.5164 125.08 35.3333 127.957 30.6855 127.957C29.9625 127.957 29.2394 127.905 28.5164 127.751C26.3474 127.34 24.2817 126.261 22.5258 124.72C18.7042 121.433 16.0188 115.834 15.3991 109.362C15.2958 108.437 15.2441 107.512 15.2441 106.588C15.2441 104.019 15.554 101.554 16.1737 99.2935C16.9484 96.2628 18.2394 93.5403 19.8404 91.3315C22.6291 87.5303 26.3991 85.2188 30.6338 85.2188C37.2441 85.2188 42.9249 91.0747 45.0939 99.2421C45.7653 101.502 46.0751 103.968 46.0751 106.536Z" fill="#BDD1FF"/>
<path d="M2.69476 121.022C2.69476 125.953 0.835609 130.473 -2.36627 134.172C-5.30993 137.613 -9.38974 140.233 -14.1409 141.774C-16.9296 142.647 -19.9766 143.161 -23.1268 143.161C-37.3804 143.161 -48.9484 133.247 -48.9484 121.073C-48.9484 119.892 -48.8451 118.761 -48.6386 117.631C-47.3475 110.44 -41.9766 104.379 -34.5916 101.245C-31.1315 99.7555 -27.2066 98.9336 -23.0752 98.9336C-16.5681 98.9336 -10.6292 100.988 -6.08458 104.379C-2.26299 107.255 0.577393 111.056 1.92011 115.423C2.3849 117.272 2.69476 119.121 2.69476 121.022Z" fill="#BDD1FF"/>
<path d="M13.2301 154C31.3699 154 46.0752 141.719 46.0752 126.569C46.0752 111.42 31.3699 99.1392 13.2301 99.1392C-4.90975 99.1392 -19.615 111.42 -19.615 126.569C-19.615 141.719 -4.90975 154 13.2301 154Z" fill="#BDD1FF"/>
<path d="M71.7936 119.327C71.7936 130.473 60.587 139.514 46.695 139.514C45.1973 139.514 43.7513 139.411 42.3569 139.206C35.1785 138.179 29.033 134.737 25.3147 129.908C24.0752 128.316 23.1457 126.569 22.4743 124.669C21.9062 122.974 21.5964 121.176 21.5964 119.327C21.5964 112.957 25.263 107.255 31.0471 103.557C34.972 101.04 39.8264 99.4474 45.094 99.1905C45.6105 99.1392 46.1269 99.1392 46.695 99.1392C53.4602 99.1392 59.5541 101.297 64.0987 104.79C68.8499 108.488 71.7936 113.625 71.7936 119.327Z" fill="#BDD1FF"/>
<path d="M64.0987 104.79C62.033 112.392 54.5964 118.402 45.1457 120.097C44.2161 120.251 43.2865 120.405 42.357 120.457C41.479 120.559 40.5495 120.559 39.6199 120.559C38.1222 120.559 36.6762 120.457 35.2818 120.251C33.526 123.025 31.2537 125.542 28.5166 127.648C27.5354 128.419 26.4509 129.138 25.3147 129.857C19.8922 133.145 13.2302 135.045 6.0518 135.045C3.10813 135.045 0.267757 134.737 -2.41769 134.12C-9.28624 132.579 -15.3285 129.241 -19.6149 124.72C-20.1829 124.104 -20.751 123.487 -21.3191 122.82C-24.1078 123.693 -27.1548 124.207 -30.305 124.207C-37.5351 124.207 -44.0421 121.69 -48.7416 117.58C-47.4506 110.389 -42.0797 104.327 -34.6947 101.194C-35.0045 100.064 -35.2111 98.8823 -35.2111 97.6495C-35.2111 87.376 -22.5069 79.0544 -6.80736 79.0544C5.43208 79.0544 15.864 84.1398 19.8405 91.2286C22.6293 87.4274 26.3992 85.1158 30.634 85.1158C37.2443 85.1158 42.925 90.9717 45.0941 99.1392C45.6105 99.0878 46.1269 99.0878 46.695 99.0878C53.4603 99.1392 59.6058 101.297 64.0987 104.79Z" fill="#E9F2DC"/>
<path d="M5.53518 116.347C4.6056 123.333 -2.31458 128.727 -10.6291 128.727C-18.9953 128.727 -25.8639 123.333 -26.7935 116.347C-23.3334 120.457 -17.3944 123.128 -10.6291 123.128C-3.91552 123.128 2.07509 120.405 5.53518 116.347Z" fill="#BDD1FF"/>
<path d="M53.0471 111.827C52.1175 118.813 45.1973 124.207 36.8828 124.207C28.5166 124.207 21.648 118.813 20.7184 111.827C24.1785 115.937 30.1175 118.608 36.8828 118.608C43.648 118.608 49.587 115.885 53.0471 111.827Z" fill="#BDD1FF"/>
<path d="M71.9998 117.221C71.9998 119.121 71.6899 120.919 71.0702 122.666C67.8683 114.447 58.366 108.54 47.1594 108.54C46.643 108.54 46.1266 108.54 45.5585 108.591C43.3895 100.424 37.7604 94.5677 31.0984 94.5677C26.9153 94.5677 23.0937 96.9306 20.305 100.68C16.3284 93.5917 5.8965 88.5063 -6.34294 88.5063C-22.0425 88.5063 -34.7467 96.8279 -34.7467 107.101C-34.7467 108.283 -34.5918 109.464 -34.2303 110.646C-40.8922 113.471 -45.9533 118.71 -47.8124 125.029C-48.4838 123.077 -48.7936 121.073 -48.7936 118.916C-48.7936 110.235 -42.958 102.735 -34.4368 99.1394C-34.7467 98.0093 -34.9533 96.8279 -34.9533 95.5951C-34.9533 85.3215 -22.249 77 -6.54951 77C5.68993 77 16.1219 82.0854 20.0984 89.1741C22.8871 85.3729 26.6571 83.0614 30.8918 83.0614C37.5021 83.0614 43.1829 88.9173 45.3519 97.0847C45.8683 97.0334 46.3848 97.0334 46.9528 97.0334C60.7932 97.0334 71.9998 106.074 71.9998 117.221Z" fill="white"/>
<path d="M30.2725 107.923C27.2771 105.149 22.9908 103.403 18.2396 103.403C13.4884 103.403 9.15039 105.149 6.20673 107.923C7.75602 102.016 12.5588 97.7522 18.2396 97.7522C23.9203 97.7522 28.7232 102.016 30.2725 107.923Z" fill="white"/>
</g>
<g clip-path="url(#clip2_50_1571)">
<path d="M48.0083 382.332C48.0083 389.543 42.0781 395.813 33.0769 399.262C28.3116 401.143 22.6991 402.188 16.663 402.188C-0.70395 402.188 -14.6823 393.305 -14.6823 382.332C-14.6823 373.763 -6.10466 366.343 5.96751 363.626C8.08543 363.104 10.4152 362.79 12.7449 362.581C14.0156 362.477 15.2864 362.477 16.663 362.477C16.9807 362.477 17.1925 362.477 17.5102 362.477C19.0986 362.477 20.5812 362.581 22.0637 362.79C26.7232 363.313 30.959 364.462 34.6654 366.134C42.7135 369.583 48.0083 375.54 48.0083 382.332Z" fill="#BDD1FF"/>
<path d="M86.8722 369.896C86.8722 374.18 86.025 378.361 84.6484 382.123C79.6713 395.186 66.8578 404.487 51.8206 404.487C44.9373 404.487 38.5835 402.501 33.1828 399.157C23.3345 392.991 16.7689 382.227 16.7689 369.791C16.7689 367.179 17.0866 364.67 17.6161 362.267C17.722 361.849 17.8279 361.326 17.9338 360.908C21.8519 346.069 35.6184 335.096 51.8206 335.096C53.7267 335.096 55.6328 335.2 57.4331 335.514C66.2225 336.872 73.847 341.47 79.1418 347.95C83.9071 354.116 86.8722 361.744 86.8722 369.896Z" fill="#BDD1FF"/>
<path d="M204.841 341.053C204.841 351.399 200.711 361.013 193.51 369.165C189.062 374.181 183.45 378.675 176.884 382.437C164.283 389.648 148.292 393.932 130.819 393.932C113.241 393.932 97.1444 389.543 84.5427 382.228C73.4236 375.853 64.9519 367.179 60.5043 357.356C58.1746 352.235 56.9038 346.696 56.9038 341.053C56.9038 339.277 57.0097 337.5 57.2215 335.828C60.6102 311.583 86.7665 292.249 120.124 288.801C123.618 288.487 127.219 288.278 130.819 288.278C158.035 288.278 181.861 298.833 194.675 314.509C196.475 316.704 198.063 319.003 199.334 321.302C202.935 327.363 204.841 334.051 204.841 341.053Z" fill="#BDD1FF"/>
<path d="M219.772 281.485C219.772 288.591 218.29 295.279 215.536 301.341C214.901 302.699 214.266 304.058 213.524 305.416C213.207 306.043 212.889 306.566 212.465 307.193C209.077 312.627 204.629 317.434 199.44 321.301C193.404 325.69 186.309 328.825 178.579 330.184C175.719 330.706 172.754 330.915 169.789 330.915C144.586 330.915 123.83 312.627 120.336 288.696C120.018 286.397 119.806 283.993 119.806 281.485C119.806 254.209 142.15 232.159 169.789 232.159C170.742 232.159 171.695 232.159 172.648 232.263C197.958 233.726 218.29 253.791 219.772 278.768C219.772 279.708 219.772 280.544 219.772 281.485Z" fill="#BDD1FF"/>
<path d="M266.048 249.82C266.048 252.537 265.837 255.254 265.519 257.867C264.778 262.674 263.507 267.272 261.601 271.557C253.976 289.218 237.245 301.445 217.866 301.445C217.124 301.445 216.277 301.445 215.536 301.341C213.947 301.236 212.465 301.132 210.876 300.818C192.133 297.892 176.884 283.47 171.695 264.451C170.424 259.748 169.683 254.836 169.683 249.82C169.683 243.654 170.742 237.698 172.542 232.263C179.214 212.407 197.004 198.299 217.866 198.299C230.891 198.299 242.751 203.838 251.435 212.93C253.129 214.707 254.718 216.588 256.2 218.678C262.342 227.247 266.048 238.116 266.048 249.82Z" fill="#BDD1FF"/>
<path d="M369.509 298.414C369.509 306.252 365.591 313.463 358.814 319.733C357.013 321.405 355.001 323.078 352.778 324.541C341.235 332.483 324.715 338.126 305.654 340.112C300.677 340.634 295.488 340.948 290.193 340.948C287.334 340.948 284.474 340.843 281.721 340.739C247.305 338.753 219.454 325.063 212.465 307.088C212.253 306.67 212.147 306.252 212.041 305.834C211.512 304.162 211.088 302.49 210.982 300.818C210.877 299.982 210.877 299.146 210.877 298.31C210.877 291.204 214.053 284.515 219.772 278.663C229.303 268.84 245.716 261.211 265.519 257.762C273.249 256.404 281.615 255.672 290.193 255.672C332.446 255.672 366.968 273.438 369.403 295.697C369.509 296.638 369.509 297.474 369.509 298.414Z" fill="#BDD1FF"/>
<path d="M335.834 428C371.861 428 401.066 402.968 401.066 372.09C401.066 341.212 371.861 316.18 335.834 316.18C299.808 316.18 270.602 341.212 270.602 372.09C270.602 402.968 299.808 428 335.834 428Z" fill="#BDD1FF"/>
<path d="M239.362 413.474C277.845 413.474 309.042 388.396 309.042 357.46C309.042 326.524 277.845 301.446 239.362 301.446C200.879 301.446 169.682 326.524 169.682 357.46C169.682 388.396 200.879 413.474 239.362 413.474Z" fill="#BDD1FF"/>
<path d="M434 328.303C434 347.95 419.81 364.253 400.961 367.701C398.525 368.119 395.984 368.433 393.336 368.433C386.982 368.433 381.052 366.97 375.757 364.462C362.097 357.982 352.672 344.188 352.672 328.303C352.672 327.049 352.778 325.795 352.884 324.541C353.096 322.451 353.413 320.361 353.943 318.271C356.273 309.074 361.885 301.132 369.51 295.802C376.181 290.995 384.441 288.173 393.442 288.173C403.079 288.173 411.974 291.517 418.857 297.056C427.964 304.372 434 315.658 434 328.303Z" fill="#BDD1FF"/>
<path d="M418.751 296.952C416.527 309.179 408.691 319.42 397.995 325.168C394.395 327.049 390.476 328.512 386.346 329.244C386.452 330.707 386.558 332.17 386.558 333.633C386.558 334.678 386.558 335.723 386.452 336.768C385.817 347.009 381.899 356.519 375.757 364.462C364.108 379.51 344.094 389.543 321.326 389.543C313.596 389.543 306.183 388.393 299.194 386.303C287.969 382.855 278.12 376.793 270.708 368.955C269.225 367.388 267.743 365.716 266.472 363.939C254.823 370.941 240.421 375.017 224.855 375.017C213.63 375.017 202.934 372.822 193.615 369.06C184.402 365.298 176.354 359.968 170 353.489C167.141 350.563 164.6 347.323 162.482 343.874C149.88 351.085 133.89 355.37 116.417 355.37C102.862 355.37 90.0488 352.757 79.1414 348.159C76.2822 347.009 73.5289 345.651 70.9874 344.188C70.6697 343.979 70.4579 343.874 70.1403 343.665C69.8226 344.397 69.6108 345.024 69.2931 345.755C67.2811 350.145 64.316 354.011 60.7155 357.251C60.3978 357.564 60.0801 357.878 59.6565 358.087C53.6204 362.999 45.7841 366.029 37.3124 366.029C36.4653 366.029 35.6181 366.029 34.7709 365.925C30.3233 365.611 25.9815 364.462 22.1693 362.581C21.0044 362.058 19.8395 361.327 18.6747 360.7C18.4629 360.804 18.2511 360.909 17.9334 361.013C21.8516 346.173 35.6181 335.2 51.8202 335.2C53.7263 335.2 55.6325 335.305 57.4327 335.618C60.8214 311.373 86.9778 292.04 120.335 288.591C120.017 286.292 119.806 283.889 119.806 281.381C119.806 254.105 142.15 232.055 169.789 232.055C170.742 232.055 171.695 232.055 172.648 232.159C179.319 212.303 197.11 198.195 217.971 198.195C230.997 198.195 242.857 203.734 251.54 212.826C253.235 214.602 254.823 216.483 256.306 218.573C262.448 227.247 266.154 238.116 266.154 249.82C266.154 252.537 265.942 255.255 265.625 257.867C273.355 256.509 281.721 255.777 290.298 255.777C332.551 255.777 367.073 273.543 369.509 295.802C376.18 290.995 384.44 288.173 393.441 288.173C402.866 288.173 411.762 291.413 418.751 296.952Z" fill="#E9F2DC"/>
<path d="M5.96747 363.626C8.08539 363.104 10.4151 362.79 12.7448 362.581C10.6269 363.104 8.29719 363.417 5.96747 363.626Z" fill="#E9F2DC"/>
<path d="M69.1871 345.86C67.1751 350.249 64.21 354.116 60.6095 357.356C60.2918 357.669 59.9741 357.983 59.5505 358.192C61.9861 353.698 65.163 349.622 69.1871 345.86Z" fill="#E9F2DC"/>
<path d="M386.346 329.243C386.452 330.706 386.558 332.169 386.558 333.632C386.558 334.677 386.558 335.722 386.452 336.767C385.817 347.009 381.899 356.519 375.757 364.461C364.108 379.51 344.094 389.542 321.326 389.542C313.596 389.542 306.183 388.393 299.194 386.303C287.969 382.854 278.12 376.793 270.708 368.955C269.225 367.387 267.743 365.715 266.472 363.939C254.823 370.94 240.421 375.016 224.855 375.016C213.63 375.016 202.934 372.821 193.615 369.059C184.402 365.297 176.354 359.967 170 353.488C167.141 350.562 164.6 347.322 162.482 343.874C149.88 351.085 133.89 355.369 116.417 355.369C102.862 355.369 90.0488 352.757 79.1415 348.158C76.2823 347.009 73.529 345.65 70.9875 344.187C82.4243 334.05 98.9441 327.048 117.9 325.063C117.582 322.764 117.37 320.36 117.37 317.852C117.37 290.576 139.714 268.526 167.353 268.526C168.306 268.526 169.259 268.526 170.212 268.63C176.884 248.775 194.674 234.667 215.536 234.667C228.561 234.667 240.421 240.205 249.105 249.297C248.999 251.492 248.893 253.686 248.575 255.776C250.27 255.463 252.07 255.149 253.87 254.94C260.012 263.614 263.719 274.483 263.719 286.187C263.719 288.904 263.507 291.621 263.189 294.234C270.92 292.876 279.285 292.144 287.863 292.144C330.116 292.144 364.638 309.91 367.073 332.169C373.745 327.362 382.005 324.54 391.006 324.54C393.441 324.54 395.877 324.749 398.207 325.167C394.395 327.048 390.476 328.512 386.346 329.243Z" fill="#E9F2DC"/>
<path d="M215.748 323.497C212.783 345.025 191.392 361.641 165.447 361.641C139.502 361.641 118.217 345.025 115.252 323.497C126.054 336.142 144.48 344.398 165.553 344.398C186.626 344.398 204.946 336.142 215.748 323.497Z" fill="#BDD1FF"/>
<path d="M325.456 336.874C327.68 352.654 315.926 368.538 297.606 373.555C279.286 378.571 260.86 370.942 254.506 356.416C264.566 363.209 279.286 365.508 294.111 361.432C309.042 357.252 320.373 347.847 325.456 336.874Z" fill="#BDD1FF"/>
<path d="M433.682 326.004C433.682 329.766 433.153 333.529 432.094 336.977C426.799 320.884 411.444 309.284 393.441 309.284C384.546 309.284 376.286 312.105 369.509 316.912C367.073 294.548 332.551 276.783 290.298 276.783C281.721 276.783 273.355 277.514 265.625 278.873C266.048 276.26 266.154 273.543 266.154 270.826C266.154 242.296 244.551 219.201 217.971 219.201C197.11 219.201 179.425 233.309 172.648 253.165C171.695 253.06 170.742 253.06 169.789 253.06C142.15 253.06 119.806 275.111 119.806 302.386C119.806 304.79 120.017 307.194 120.335 309.597C86.9778 313.046 60.8214 332.484 57.4327 356.624C55.6325 356.311 53.7263 356.206 51.8202 356.206C35.0886 356.206 21.0044 367.806 17.5098 383.273C17.1922 383.273 16.9804 383.273 16.6627 383.273C6.07304 383.273 -3.24582 386.617 -8.96422 391.633C-12.8824 388.289 -15.2121 384.213 -15.2121 379.72C-15.2121 368.747 -1.1279 359.864 16.1332 359.864C16.4509 359.864 16.6627 359.864 16.9804 359.864C20.4749 344.397 34.4532 332.797 51.2907 332.797C53.1969 332.797 55.103 332.902 56.9032 333.215C60.2919 308.97 86.4483 289.637 119.806 286.188C119.488 283.889 119.276 281.485 119.276 278.977C119.276 251.702 141.62 229.651 169.259 229.651C170.212 229.651 171.165 229.651 172.118 229.756C179.002 210.109 196.792 196.001 217.548 196.001C244.128 196.001 265.731 219.096 265.731 247.626C265.731 250.343 265.519 253.06 265.201 255.673C272.932 254.314 281.297 253.583 289.875 253.583C332.128 253.583 366.65 271.348 369.085 293.712C375.757 288.905 384.017 286.084 393.018 286.084C415.468 285.875 433.682 303.849 433.682 326.004Z" fill="white"/>
<path d="M309.466 296.952C298.135 287.756 281.827 282.008 263.719 282.008C245.611 282.008 229.303 287.756 217.972 296.952C223.902 277.514 242.116 263.406 263.719 263.406C285.322 263.302 303.536 277.514 309.466 296.952Z" fill="white"/>
<path d="M172.224 319.316C164.6 310.12 153.586 304.372 141.408 304.372C129.23 304.372 118.217 310.12 110.593 319.316C114.617 299.878 126.795 285.77 141.408 285.77C156.022 285.77 168.2 299.878 172.224 319.316Z" fill="white"/>
</g>
<g opacity="0.8" clip-path="url(#clip3_50_1571)">
<path d="M118.716 703.088C118.716 708.976 118.02 714.584 116.767 719.911C115.514 724.958 113.843 729.585 111.755 733.931C107.439 742.623 101.313 749.773 94.0729 754.399C88.0862 758.185 81.4033 760.288 74.442 760.288C64.4177 760.288 55.2287 756.082 47.8497 748.932C47.0144 748.091 46.0398 747.109 45.3437 746.268C36.7116 736.735 31.0033 722.855 30.168 707.294C30.0287 705.892 30.0287 704.49 30.0287 703.088C30.0287 695.798 31.1426 688.648 33.0917 682.199C39.4962 660.889 55.6464 645.748 74.442 645.748C96.1613 645.748 114.261 665.936 118.02 692.573C118.577 696.078 118.716 699.583 118.716 703.088Z" fill="#BDD1FF"/>
<path d="M189.444 736.875C189.444 764.214 167.446 786.505 140.158 786.505C131.804 786.505 124.007 784.402 117.185 780.757C106.604 775.149 98.3896 765.756 94.0735 754.4C91.9851 748.932 90.8713 743.044 90.8713 736.875C90.8713 735.894 90.8713 734.913 91.0106 733.931C91.5675 725.099 94.352 716.968 98.8072 709.958C103.541 702.528 110.224 696.499 118.021 692.574C124.703 689.209 132.222 687.246 140.158 687.246C150.878 687.246 160.902 690.751 168.977 696.639C181.369 705.752 189.444 720.332 189.444 736.875Z" fill="#BDD1FF"/>
<path d="M60.5188 798C101.195 798 134.17 776.784 134.17 750.614C134.17 724.443 101.195 703.228 60.5188 703.228C19.8425 703.228 -13.1321 724.443 -13.1321 750.614C-13.1321 776.784 19.8425 798 60.5188 798Z" fill="#BDD1FF"/>
<path d="M30.0287 743.885C30.0287 744.586 30.0287 745.147 30.0287 745.848C29.7503 750.614 28.2188 755.241 25.7127 759.306C20.5613 767.858 11.5116 774.588 0.234261 777.952C-4.77789 779.494 -10.347 780.336 -16.0552 780.336C-41.3945 780.195 -62 763.933 -62 743.885C-62 736.875 -59.4939 730.426 -55.3171 724.958C-49.8873 717.949 -41.3945 712.481 -31.3702 709.677C-26.6365 708.275 -21.4851 707.574 -16.0552 707.574C-5.61325 707.574 3.99338 710.378 11.7901 715.005C22.9282 721.594 30.0287 732.108 30.0287 743.885Z" fill="#BDD1FF"/>
<path d="M62.3298 719.772C62.3298 729.726 58.153 738.838 51.1916 745.988C50.0778 747.11 49.1032 748.091 47.8502 749.073C41.7242 754.12 34.206 757.765 25.7132 759.447C22.2325 760.148 18.6126 760.569 14.8535 760.569C4.41151 760.569 -5.19511 757.765 -12.9918 752.858C-22.32 747.11 -29.1421 738.558 -31.6482 728.604C-32.3443 725.8 -32.762 722.856 -32.762 719.912C-32.762 716.407 -32.2051 713.042 -31.2305 709.818C-25.9399 692.293 -7.28351 679.396 14.8535 679.396C21.3971 679.396 27.5231 680.517 33.0922 682.48C44.2303 686.405 53.28 693.976 58.153 703.369C60.7983 708.276 62.3298 713.884 62.3298 719.772Z" fill="#BDD1FF"/>
<path d="M168.977 696.639C164.521 715.846 149.067 730.706 129.576 734.071C126.791 734.632 123.867 734.772 120.944 734.772C117.741 734.772 114.678 734.492 111.615 733.931C106.743 732.949 102.148 731.407 97.832 729.024C95.6044 730.706 93.2375 732.248 90.7315 733.791C79.8718 740.24 66.0884 744.445 50.9127 745.847C48.9635 745.988 47.0144 746.128 45.0652 746.128C43.8121 746.128 42.4199 746.128 41.1668 746.128C37.2685 746.128 33.5094 745.988 29.7503 745.567C14.9922 744.165 1.76573 739.819 -8.67626 733.65C-12.5746 731.407 -16.0553 728.744 -19.1182 726.08C-23.1558 727.342 -27.4718 728.043 -31.9271 728.323C-33.0409 728.323 -34.1547 728.463 -35.4077 728.463C-42.6475 728.463 -49.4696 727.201 -55.4564 724.818C-50.0265 717.808 -41.5337 712.341 -31.5094 709.537C-26.2188 692.012 -7.56245 679.115 14.5746 679.115C21.1182 679.115 27.2442 680.236 32.8132 682.199C39.2177 660.889 55.3679 645.748 74.1635 645.748C95.8828 645.748 113.982 665.936 117.741 692.573C124.424 689.209 131.943 687.246 139.878 687.246C150.877 687.386 160.902 690.751 168.977 696.639Z" fill="#E9F2DC"/>
<path d="M112.729 716.267C111.197 727.903 99.9198 736.876 86.2756 737.016C72.4922 737.156 61.2148 728.184 59.5441 716.547C65.2524 723.277 75.1375 727.763 86.1364 727.623C97.2745 727.623 107.02 722.996 112.729 716.267Z" fill="#BDD1FF"/>
<path d="M16.6628 714.585C13.4606 719.492 6.49931 721.034 0.234117 718.09C-5.89185 715.146 -9.09406 708.697 -7.28412 703.089C-6.1703 707.435 -2.68964 711.501 2.32251 713.884C7.19544 716.408 12.6253 716.408 16.6628 714.585Z" fill="#BDD1FF"/>
<path d="M189.999 731.127C189.999 736.314 189.164 741.221 187.772 745.988C180.95 726.641 162.711 712.902 141.27 712.902C133.334 712.902 125.816 714.864 119.133 718.229C115.374 691.592 97.2746 671.404 75.5553 671.404C56.7597 671.404 40.6094 686.545 34.205 707.854C28.6359 705.892 22.3707 704.77 15.9663 704.77C-6.17073 704.77 -24.8271 717.668 -30.1177 735.193C-41.8127 738.417 -51.4194 745.427 -56.5707 754.259C-59.6337 749.352 -61.4437 743.885 -61.4437 738.137C-61.4437 722.295 -48.6348 708.836 -30.8138 703.929C-25.5232 686.264 -6.86687 673.366 15.2701 673.366C21.8138 673.366 27.9398 674.488 33.5088 676.451C40.0525 655.141 56.2028 640 74.9983 640C96.7177 640 114.817 660.188 118.576 686.825C125.259 683.461 132.777 681.498 140.713 681.498C168.002 681.498 189.999 703.789 189.999 731.127Z" fill="white"/>
</g>
</g>
<defs>
<linearGradient id="paint0_linear_50_1571" x1="309.5" y1="-215" x2="309.5" y2="950" gradientUnits="userSpaceOnUse">
<stop stop-color="#89C9FF"/>
<stop offset="1" stop-color="#D1CDFF"/>
</linearGradient>
<clipPath id="clip0_50_1571">
<rect x="-21" y="-215" width="661" height="1165" rx="200" fill="white"/>
</clipPath>
<clipPath id="clip1_50_1571">
<rect width="121" height="77" fill="white" transform="translate(-49 77)"/>
</clipPath>
<clipPath id="clip2_50_1571">
<rect width="449" height="232" fill="white" transform="matrix(1 0 0 -1 -15 428)"/>
</clipPath>
<clipPath id="clip3_50_1571">
<rect width="252" height="158" fill="white" transform="translate(-62 640)"/>
</clipPath>
</defs>
</svg>
