<svg width="25" height="25" viewBox="0 0 25 25" fill="none" xmlns="http://www.w3.org/2000/svg">
<g clip-path="url(#clip0_148_2601)">
<path d="M24.9205 11.0603C24.8673 10.9332 24.7913 10.8175 24.6944 10.7207L21.5705 7.59668C21.1632 7.19043 20.5048 7.19043 20.0976 7.59668C19.6903 8.00396 19.6903 8.66333 20.0976 9.06958L21.4444 10.4165H15.6256C15.0496 10.4165 14.584 10.8831 14.584 11.4581C14.584 12.0331 15.0496 12.4998 15.6256 12.4998H21.4444L20.0975 13.8466C19.6902 14.2539 19.6902 14.9133 20.0975 15.3195C20.3006 15.5237 20.5673 15.6248 20.834 15.6248C21.1007 15.6248 21.3673 15.5237 21.5705 15.3195L24.6944 12.1956C24.7913 12.0997 24.8673 11.9841 24.9205 11.856C25.0256 11.6011 25.0256 11.3151 24.9205 11.0603Z" fill="#026ED2"/>
<path d="M17.7088 14.5833C17.1328 14.5833 16.6671 15.05 16.6671 15.625V20.8333H12.5005V4.16665C12.5005 3.70728 12.1984 3.30103 11.7578 3.16875L8.14004 2.08335H16.6671V7.2917C16.6671 7.8667 17.1328 8.33335 17.7088 8.33335C18.2848 8.33335 18.7504 7.8667 18.7504 7.2917V1.0417C18.7504 0.46665 18.2848 0 17.7088 0H1.04214C1.00464 0 0.971289 0.015625 0.934863 0.0197754C0.885889 0.025 0.841113 0.0333008 0.794238 0.0447754C0.687751 0.0717911 0.58617 0.115373 0.493213 0.173926C0.470312 0.188525 0.442188 0.189551 0.420313 0.206201C0.411914 0.2125 0.408789 0.223975 0.400439 0.230225C0.286914 0.319775 0.192139 0.42915 0.123389 0.559375C0.108789 0.5875 0.105664 0.617725 0.0942383 0.646875C0.0608887 0.726025 0.0244629 0.803125 0.0119629 0.890625C0.00673828 0.921875 0.0161133 0.951025 0.0150879 0.98125C0.0140625 1.0021 0.000488281 1.02085 0.000488281 1.04165V21.875C0.000488281 22.3719 0.351514 22.799 0.837988 22.8959L11.2546 24.9792C11.3224 24.9938 11.3911 25 11.4588 25C11.6997 25 11.9331 24.9165 12.1192 24.7636C12.2383 24.6659 12.3342 24.543 12.4001 24.4037C12.4661 24.2645 12.5003 24.1124 12.5004 23.9583V22.9167H17.7088C18.2848 22.9167 18.7504 22.45 18.7504 21.875V15.625C18.7504 15.05 18.2848 14.5833 17.7088 14.5833Z" fill="#026ED2"/>
</g>
<defs>
<clipPath id="clip0_148_2601">
<rect width="25" height="25" fill="white"/>
</clipPath>
</defs>
</svg>
