<svg width="26" height="26" viewBox="0 0 26 26" fill="none" xmlns="http://www.w3.org/2000/svg">
<path d="M9.875 7.24541V2.55791C9.875 2.04111 9.09375 2.04072 9.09375 2.55791V7.24541C9.09375 7.76221 9.875 7.7626 9.875 7.24541Z" fill="#026ED2"/>
<path d="M10.6957 22.089C10.6957 20.7922 10.5648 19.157 10.427 17.4257C10.268 15.4437 10.1043 13.3949 10.1043 11.5422C10.1043 11.3218 10.3785 10.8125 11.1484 10.0449C11.3798 9.81411 11.5596 9.53691 11.6761 9.23155C11.7925 8.9262 11.8428 8.59964 11.8238 8.27341L11.4117 2.52966C11.3754 2.01794 10.5953 2.06872 10.6328 2.58591L11.0449 8.32458C11.0566 8.53967 11.0228 8.75482 10.9457 8.95595C10.8685 9.15708 10.7498 9.33966 10.5973 9.49176C9.32344 10.7617 9.32344 11.3492 9.32344 11.5422C9.32344 13.4257 9.48867 15.4906 9.64805 17.4879C9.78555 19.2031 9.91484 20.8234 9.91484 22.089C9.91484 22.9179 9.30937 23.3328 8.70351 23.3328C8.09805 23.3328 7.49219 22.9179 7.49219 22.089C7.49219 20.823 7.62148 19.2031 7.75898 17.4879C7.91797 15.4906 8.0832 13.4257 8.0832 11.5422C8.0832 11.3492 8.0832 10.7617 6.80937 9.49176C6.65666 9.33979 6.53782 9.15723 6.46066 8.95607C6.38351 8.75491 6.34979 8.5397 6.36172 8.32458L6.77383 2.58591C6.81133 2.06872 6.03125 2.01794 5.99492 2.52966L5.58242 8.27341C5.56341 8.59964 5.61378 8.9262 5.7302 9.23155C5.84661 9.53691 6.02644 9.81411 6.25781 10.0449C7.02773 10.8125 7.30195 11.3218 7.30195 11.5422C7.30195 13.3949 7.13828 15.4437 6.97969 17.4257C6.8414 19.157 6.71055 20.7922 6.71055 22.089C6.71055 24.7179 10.6957 24.716 10.6957 22.089Z" fill="#026ED2"/>
<path d="M8.3125 7.24536V2.55786C8.3125 2.04106 7.53125 2.04067 7.53125 2.55786V7.24536C7.53125 7.76216 8.3125 7.76255 8.3125 7.24536ZM17.2969 24.0403C18.4688 24.0403 19.2898 23.3375 19.2898 22.0891C19.2898 20.7922 19.159 19.1567 19.0207 17.4254C18.8621 15.4438 18.698 13.3946 18.698 11.5422C18.698 11.3223 18.9723 10.8129 19.7426 10.045C19.9723 9.81557 20.1512 9.54042 20.2677 9.23739C20.3842 8.93435 20.4357 8.6102 20.4187 8.28599C20.4145 6.12231 19.2301 2.16724 17.2969 2.16724C15.3637 2.16724 14.1793 6.12231 14.175 8.2856C14.1581 8.60981 14.2095 8.93397 14.326 9.23701C14.4425 9.54005 14.6214 9.8152 14.8512 10.0446C15.6215 10.8129 15.8957 11.3219 15.8957 11.5418C15.8957 13.3942 15.7316 15.4434 15.5734 17.425C15.4348 19.1567 15.3039 20.7922 15.3039 22.0891C15.3039 23.3375 16.125 24.0403 17.2969 24.0403ZM17.2969 2.94849C18.4582 2.94849 19.6375 6.06021 19.6375 8.29653L19.6383 8.31958C19.6505 8.53549 19.617 8.75155 19.5398 8.95358C19.4627 9.15561 19.3437 9.33904 19.1906 9.49185C18.3336 10.3469 17.9168 11.0176 17.9168 11.5422C17.9168 13.4258 18.082 15.4907 18.2418 17.4879C18.3789 19.2032 18.5086 20.8235 18.5086 22.0891C18.5086 23.6809 16.0855 23.6801 16.0855 22.0891C16.0855 20.8235 16.2152 19.2032 16.3523 17.4879C16.5117 15.4907 16.677 13.4258 16.677 11.5422C16.677 11.0176 16.2605 10.3469 15.4031 9.49185C15.2499 9.33915 15.1309 9.15573 15.0537 8.95367C14.9765 8.75162 14.9431 8.53551 14.9555 8.31958L14.9562 8.29653C14.9562 6.06021 16.1355 2.94849 17.2969 2.94849Z" fill="#026ED2"/>
</svg>
