<svg width="46" height="47" viewBox="0 0 46 47" fill="none" xmlns="http://www.w3.org/2000/svg">
<path d="M35.0839 34.9558L20.3728 43.8284L5.29007 35.4423L5.07776 19.5546L20.1605 27.9408L34.8716 19.0769L35.0839 34.9558Z" fill="#FFD06C"/>
<path d="M34.8689 19.0742L35.0839 34.9593L20.378 43.8284L20.1631 27.9434L34.8689 19.0742Z" fill="#FFD06C"/>
<path d="M20.1631 27.9434L20.378 43.8284L5.29357 35.4431L5.07861 19.5581L20.1631 27.9434Z" fill="#FEBC1F"/>
<path d="M12.382 24.6925L11.0931 24.7137L11.0896 24.4589L10.1191 24.4748L10.3049 38.2288L13.9062 40.2316L13.7257 26.7881L12.4165 26.8093L12.382 24.6925Z" fill="#DF3260"/>
<path d="M27.2816 24.4996L28.5705 24.4783L28.566 24.2236L29.5365 24.2076L29.8018 38.1448L26.2669 40.2767L26.0068 26.6368L27.3161 26.6156L27.2816 24.4996Z" fill="#E93565"/>
<path d="M35.5793 21.9254L20.0012 31.4438L4.01621 22.4385L3.96313 19.0327L19.5501 9.52307L35.5351 18.5196L35.5793 21.9254Z" fill="#FFD06C"/>
<path d="M35.5386 18.5178L19.9552 28.0301L3.96753 19.0309L19.5509 9.51953L35.5386 18.5178Z" fill="#FFD06C"/>
<path d="M19.5811 11.2437L6.90894 18.9796L19.9252 26.3069L32.5973 18.5709L19.5811 11.2437Z" fill="#FEBC1F"/>
<path d="M25.7503 13.0084L10.1068 22.4871L13.7001 24.5093L29.4304 15.0793L25.7503 13.0084Z" fill="#F45170"/>
<path d="M35.5386 18.5178L35.5846 21.928L20.0012 31.4394L19.9552 28.0301L35.5386 18.5178Z" fill="#FEBC1F"/>
<path d="M19.9552 28.0292L20.0012 31.4394L4.01353 22.4402L3.96753 19.0309L19.9552 28.0292Z" fill="#F9A83D"/>
<path d="M13.7001 24.5084L13.7399 27.9151L10.1395 25.8884L10.1068 22.4871L13.7001 24.5084Z" fill="#E93565"/>
<path d="M25.9591 24.3581L26.0299 27.7638L29.563 25.6213L29.4834 22.2208L25.9591 24.3581Z" fill="#DF3260"/>
<path d="M9.88477 15.4199L25.9582 24.359L29.4843 22.2208L13.4834 13.2225L9.88477 15.4199Z" fill="#E93565"/>
<path d="M26.6889 21.023C26.565 19.9173 25.6539 18.5019 24.4774 18.2276C24.5127 18.21 24.5393 18.1923 24.5658 18.1657C25.1231 17.6438 24.9727 16.3611 24.2297 15.2996C23.9112 14.8573 23.5485 14.5211 23.1858 14.3265C22.7612 14.0876 22.3454 14.0346 22.027 14.2026C21.8943 13.2119 21.1866 12.115 20.3374 11.6461C19.8685 11.3807 19.4439 11.363 19.1431 11.5488L18.4266 11.9734C18.1524 11.6284 17.8339 11.3453 17.5154 11.1684C17.0112 10.8853 16.6397 10.9119 16.3212 11.0711L15.1977 11.7523C15.1889 11.7611 15.1712 11.77 15.1624 11.77L15.1447 11.7876C14.7731 12.0088 14.6227 12.5396 14.7024 13.1588C14.667 13.1765 14.6316 13.1853 14.605 13.203L13.4197 13.9107C13.4374 13.9107 13.455 13.9019 13.4639 13.9019C13.1985 14.0434 13.0127 14.3265 12.9597 14.76C12.8624 15.7507 13.5258 17.0776 14.4547 17.7234C14.4989 17.7588 14.552 17.7853 14.605 17.8207C15.6843 18.4223 18.9043 19.0946 19.2227 19.1565L19.2758 19.1919C19.5943 19.4749 22.8497 22.403 23.9289 23.0046C23.9908 23.0311 24.035 23.0576 24.0793 23.0753C24.495 23.2523 24.8489 23.208 25.1054 23.0223C25.0877 23.0399 25.0789 23.0576 25.0612 23.0753L26.2377 22.3588C26.5827 22.1553 26.7685 21.6776 26.6889 21.023ZM15.7904 16.6C15.7572 16.5733 15.7216 16.5497 15.6843 16.5292C15.0562 16.0869 14.5962 15.22 14.5962 14.5211C14.605 14.53 14.6139 14.53 14.6227 14.5388C14.6758 14.5653 14.7289 14.6007 14.782 14.6361C15.1358 14.8838 16.0558 15.9188 17.0289 17.0688C16.4981 16.9007 16.0558 16.7415 15.7904 16.6ZM16.5777 13.4065C16.4008 13.0526 16.3212 12.6988 16.3212 12.398C16.33 12.398 16.3389 12.398 16.3477 12.4069C16.7104 12.6103 17.082 12.9996 17.3297 13.4861C17.4712 13.7692 17.657 14.3973 17.8604 15.1757C17.2324 14.3884 16.737 13.725 16.5777 13.4065ZM20.0454 16.37C19.5677 14.8307 19.1343 13.3269 19.1343 12.8846V12.8669C19.1431 12.8669 19.152 12.8757 19.1697 12.8757C19.842 13.2561 20.4081 14.1938 20.417 14.9634C20.417 15.2376 20.2666 15.7596 20.0454 16.37ZM21.8943 15.503C21.9385 15.5207 21.9739 15.5384 22.0181 15.5561C22.2835 15.7065 22.5489 15.9453 22.77 16.2638C23.177 16.8388 23.3362 17.4934 23.23 17.9534C22.6285 18.0684 21.8324 18.1569 21.1158 18.21C21.3458 17.2457 21.6377 16.1842 21.8943 15.503ZM22.195 19.475C22.8497 19.4484 23.407 19.4661 23.6635 19.5723C23.7166 19.5988 23.7697 19.6165 23.8227 19.6519C24.4331 19.988 24.9727 20.8019 25.0612 21.5538C25.07 21.6246 25.07 21.6865 25.07 21.7484C24.557 21.4565 23.3539 20.4746 22.195 19.475Z" fill="#E93565"/>
<path d="M19.3006 17.6624L18.1222 18.3727C16.7989 18.0675 15.2119 17.6376 14.6165 17.3068C14.5791 17.2862 14.5428 17.2638 14.5077 17.2395C13.8327 16.7672 13.3453 15.7985 13.4214 15.0811C13.4532 14.7838 13.5753 14.5751 13.7567 14.4663L14.9332 13.7559C14.7536 13.8647 14.6307 14.0735 14.5988 14.3707C14.5236 15.0882 15.0111 16.0568 15.6851 16.5292C15.7161 16.5504 15.7524 16.5734 15.7939 16.5973C16.3893 16.9273 17.9763 17.3581 19.3006 17.6624Z" fill="#CC104A"/>
<path d="M19.727 17.4368L18.5487 18.1472C17.2447 16.6115 15.7064 14.7219 15.4047 14.1213C15.0155 13.3473 15.058 12.5874 15.4782 12.3344L16.6556 11.624C16.2354 11.877 16.1938 12.6369 16.583 13.4109C16.8838 14.0125 18.4239 15.902 19.727 17.4368Z" fill="#CC104A"/>
<path d="M15.1455 11.7832L16.3229 11.0729C16.3756 11.0413 16.4317 11.0158 16.4901 10.9968C16.7944 10.8968 17.1562 10.9685 17.5172 11.1693C17.9418 11.4046 18.3637 11.8186 18.6893 12.345L17.5119 13.0553C17.1854 12.529 16.7635 12.115 16.3397 11.8788C15.9788 11.6788 15.6161 11.6072 15.3127 11.7072C15.2543 11.7261 15.1982 11.7516 15.1455 11.7832Z" fill="#E93565"/>
<path d="M25.906 21.8104L24.7277 22.5207C24.5446 22.6313 24.2978 22.641 24.0165 22.5252C23.979 22.5094 23.9424 22.4917 23.9068 22.4721C23.3124 22.1403 21.7121 20.8002 20.3772 19.6263L21.5555 18.915C22.8895 20.0889 24.4898 21.43 25.0851 21.7608C25.1258 21.7838 25.1621 21.8015 25.1939 21.8148C25.4752 21.9307 25.722 21.921 25.906 21.8104Z" fill="#F45170"/>
<path d="M18.2992 12.8076L19.4766 12.0981C19.2599 12.2282 19.1281 12.5015 19.1334 12.8855C19.1405 13.4375 19.8119 15.6808 20.417 17.5527L19.2404 18.263C18.6336 16.3912 17.963 14.1478 17.956 13.5958C17.9507 13.2119 18.0825 12.9376 18.2992 12.8076Z" fill="#CC104A"/>
<path d="M22.326 14.7733C22.2909 14.795 22.258 14.8202 22.2278 14.8484C21.9368 15.1209 21.4618 16.7831 21.1159 18.2091L19.9393 18.9194C20.2843 17.4926 20.7594 15.8313 21.0495 15.5579C21.0798 15.5299 21.113 15.5053 21.1486 15.4845L22.326 14.7733Z" fill="#CC104A"/>
<path d="M24.1305 17.6934L22.9531 18.4037C22.5444 18.6505 21.1414 18.8283 19.9383 18.9195L21.1158 18.2091C22.3189 18.118 23.7227 17.9402 24.1305 17.6934ZM17.9665 12.2565L19.1449 11.5471C19.4456 11.3648 19.8685 11.3825 20.3382 11.6444C21.1839 12.1141 21.8942 13.2101 22.0314 14.2027L20.853 14.913C20.7159 13.9205 20.0065 12.8245 19.1608 12.3538C18.691 12.0929 18.2691 12.0752 17.9665 12.2565ZM26.2377 22.3615L25.0603 23.071C25.4088 22.8613 25.5919 22.3871 25.515 21.7361C25.3929 20.7046 24.6569 19.5918 23.8183 19.1256C23.7477 19.086 23.6747 19.0508 23.5998 19.0203C23.5044 18.9832 23.4054 18.9565 23.3043 18.9407L24.4826 18.2295C24.6637 18.2589 24.8377 18.3219 24.9957 18.4152C25.8343 18.8805 26.5703 19.9943 26.6924 21.0266C26.7694 21.6759 26.5862 22.151 26.2377 22.3615ZM15.1313 14.0656C15.1083 14.1107 15.0491 14.0939 15.0323 14.0541C14.9403 13.8391 14.988 13.5366 15.0181 13.3101C15.027 13.2446 15.0314 13.1615 15.0482 13.0845C14.8915 13.0835 14.7375 13.1247 14.6024 13.204L13.4249 13.9143C13.7292 13.7312 14.1547 13.7533 14.6165 14.0098C14.6882 14.0505 14.7607 14.0956 14.8341 14.147C14.9155 14.2036 15.0164 14.2894 15.1331 14.3982L15.1703 14.3752L15.1641 13.9842C15.1556 14.0122 15.1447 14.0395 15.1313 14.0656Z" fill="#F45170"/>
<path d="M25.5151 21.737C25.6478 22.8569 25.0064 23.4575 24.082 23.0772C24.0305 23.0556 23.9803 23.0311 23.9316 23.0037C22.8541 22.4048 19.5979 19.4759 19.2785 19.1875L19.2263 19.1592C18.9087 19.0928 15.6834 18.4179 14.6051 17.819C14.5534 17.7906 14.5032 17.7596 14.4547 17.7261C13.5276 17.0768 12.8598 15.7481 12.965 14.76C13.0606 13.8488 13.7789 13.5445 14.6166 14.0098C14.6883 14.0505 14.7608 14.0957 14.8342 14.147C14.9156 14.2036 15.0164 14.2894 15.1332 14.3982C15.1021 14.346 15.0726 14.2929 15.0447 14.239C14.4627 13.0801 14.5821 11.9469 15.3128 11.7072C15.6162 11.6072 15.9789 11.6789 16.3389 11.8797C16.7636 12.115 17.1855 12.529 17.5119 13.0553C17.6243 12.2017 18.3152 11.8841 19.1609 12.3538C20.0066 12.8245 20.716 13.9196 20.8531 14.913C21.1698 14.7441 21.5874 14.7963 22.0111 15.0316C22.372 15.2324 22.7374 15.5659 23.0496 16.0082C23.7971 17.0697 23.9493 18.3533 23.3893 18.8779C23.3629 18.901 23.3345 18.9218 23.3044 18.9398C23.4857 18.9687 23.6598 19.0317 23.8175 19.1256C24.6561 19.5909 25.3921 20.7046 25.5151 21.737ZM15.4048 14.1204C15.7073 14.722 17.2448 16.6115 18.5487 18.1472C18.1595 16.3116 17.6323 14.0921 17.3288 13.4897C17.082 12.9987 16.7149 12.6095 16.3469 12.4043C16.0842 12.2583 15.8206 12.2061 15.5994 12.2787C15.0686 12.452 14.9819 13.2774 15.4048 14.1204ZM21.0504 15.5588C20.7594 15.8313 20.2843 17.4935 19.9384 18.9195C21.2211 18.8222 22.7303 18.6267 23.0204 18.3542C23.4274 17.9738 23.3168 17.037 22.7736 16.2665C22.5774 15.9771 22.3193 15.7348 22.0182 15.557C21.6502 15.3518 21.2875 15.3359 21.0504 15.5588ZM24.0156 22.5252C24.6879 22.8012 25.1568 22.3642 25.0595 21.5494C24.971 20.7993 24.4332 19.9872 23.8237 19.6484C23.7727 19.62 23.7201 19.5946 23.6662 19.5723C23.185 19.375 21.6387 19.4768 20.3772 19.6254C21.713 20.7993 23.3124 22.1403 23.9068 22.4712C23.9484 22.4942 23.9847 22.5119 24.0156 22.5243M14.6166 17.3077C15.2111 17.6385 16.7989 18.0685 18.1223 18.3737C16.8379 16.8088 15.265 14.9732 14.7829 14.6353C14.7298 14.5981 14.6768 14.5645 14.6254 14.5362C14.0151 14.1974 13.4923 14.4194 13.4224 15.0811C13.3463 15.7994 13.8328 16.7681 14.5078 17.2396C14.5387 17.2626 14.575 17.2847 14.6166 17.3077ZM19.2396 18.264C19.804 17.0432 20.425 15.5172 20.417 14.9643C20.4073 14.1921 19.8464 13.257 19.1679 12.8793C18.4886 12.5016 17.9454 12.8236 17.956 13.5958C17.9631 14.1487 18.6336 16.3921 19.2396 18.264Z" fill="#DF3260"/>
<path d="M20.8531 14.913L22.0315 14.2027C22.3473 14.0337 22.7657 14.0859 23.1885 14.3221C23.5495 14.522 23.9157 14.8555 24.2271 15.2978C24.9746 16.3594 25.1267 17.643 24.5668 18.1675C24.5404 18.1907 24.512 18.2114 24.4818 18.2295L23.3044 18.9407C23.3346 18.9224 23.363 18.9013 23.3893 18.8779C23.9493 18.3533 23.7963 17.0688 23.0496 16.0082C22.7374 15.5659 22.372 15.2324 22.0111 15.0316C21.5874 14.7963 21.1707 14.7441 20.8531 14.913Z" fill="#E93565"/>
<path d="M42.037 40.5996C42.0406 41.6576 41.3523 42.7112 39.9635 43.5197C37.1876 45.1341 32.6681 45.1341 29.8727 43.5241C28.4768 42.7147 27.7726 41.6611 27.7646 40.5996C27.7646 40.5288 27.7691 40.4554 27.7726 40.3855C27.808 39.6973 27.9557 38.9038 28.2078 38.0678C28.4608 37.3132 28.7908 36.4994 29.1721 35.6457C29.9859 34.0163 31.0979 32.4611 32.385 31.4341C32.3965 31.7915 32.6451 32.1533 33.1236 32.4248C34.1073 32.9972 35.6935 32.9972 36.6736 32.4248C37.1487 32.1533 37.3928 31.7915 37.4008 31.4252C40.0219 33.5023 41.9123 37.7679 42.0282 40.4094C42.0326 40.4748 42.037 40.5377 42.037 40.5996Z" fill="#5094FF"/>
<path d="M31.3818 35.1247C31.3588 35.1127 31.3385 35.0963 31.3219 35.0763C31.3053 35.0564 31.2929 35.0334 31.2852 35.0087C31.2776 34.9839 31.2749 34.9579 31.2774 34.9321C31.2798 34.9063 31.2873 34.8813 31.2995 34.8584C31.9055 33.735 32.5981 32.945 33.4111 32.4461L33.6145 32.7769C32.8617 33.2396 32.2151 33.9818 31.6419 35.0416C31.6181 35.0868 31.5775 35.1208 31.5288 35.1364C31.4802 35.1519 31.4274 35.1477 31.3818 35.1247ZM32.6185 26.6828C32.6185 26.6828 31.0792 26.206 30.6759 26.9155C30.6759 26.9155 30.3247 27.2923 30.644 27.8372C30.8147 28.1309 31.1217 28.3185 31.4552 28.3857C31.8205 28.4582 32.3628 28.5998 32.6627 28.8386C33.1404 29.2208 34.9848 29.9532 36.7647 29.234C36.7647 29.234 37.36 28.851 37.9102 28.8669C38.4614 28.8829 39.0337 28.5892 39.1505 28.1822C39.2681 27.7762 39.1186 26.5307 38.1137 26.6864C38.1137 26.6864 37.3087 27.0482 36.4135 26.6554C35.4262 26.2219 34.3948 26.62 34.3948 26.62C34.3948 26.62 33.4872 27.134 32.6185 26.6828Z" fill="#57B3FE"/>
<path d="M35.1555 29.1491C34.048 29.1491 33.1457 28.7272 32.9051 28.5343C32.6202 28.3078 32.1584 28.1292 31.5313 28.0035C31.2862 27.9549 31.0854 27.8231 30.9793 27.6408C30.8112 27.3542 30.9589 27.1826 30.9598 27.1808L30.9916 27.1481L31.0137 27.1083C31.1102 26.9402 31.426 26.9146 31.6056 26.9146C31.9798 26.9146 32.3681 27.0163 32.4751 27.0455C32.7582 27.1862 33.0687 27.2578 33.3978 27.2578C33.9639 27.2578 34.4239 27.0428 34.5513 26.9774C34.6309 26.9508 34.9733 26.842 35.4006 26.842C35.7137 26.842 36.0021 26.8995 36.2569 27.011C36.8784 27.2781 37.5786 27.2971 38.2136 27.0641C38.2357 27.062 38.2578 27.0611 38.28 27.0614C38.4224 27.0614 38.5241 27.1118 38.6099 27.226C38.7948 27.4719 38.8231 27.916 38.778 28.0752C38.7223 28.2654 38.3578 28.4786 37.9536 28.4786L37.8766 28.4777C37.3016 28.4777 36.7416 28.7926 36.5886 28.8855C36.1317 29.0628 35.6455 29.1522 35.1555 29.1491ZM36.6806 31.3155C35.7004 31.8843 34.1134 31.8843 33.1271 31.3155C32.8033 31.128 32.3831 30.6645 32.3831 30.6645L32.3796 31.3898C32.3778 31.7649 32.6264 32.14 33.1227 32.4266C34.1081 32.9954 35.6951 32.9954 36.6753 32.4266C37.1618 32.1435 37.4051 31.7747 37.406 31.4049L37.4095 30.6883C37.4095 30.6883 37.0026 31.128 36.6806 31.3155Z" fill="#497BFE"/>
<path d="M34.0772 34.6231C34.0701 34.6503 34.0573 34.6756 34.0396 34.6974C34.0218 34.7192 33.9996 34.7368 33.9744 34.7492C33.9492 34.7615 33.9216 34.7683 33.8935 34.769C33.8654 34.7697 33.8376 34.7643 33.8118 34.7532C33.5759 34.653 33.3838 34.4716 33.2704 34.2419C32.928 33.5536 33.319 32.5761 33.3359 32.5345L33.7021 32.677C33.6985 32.6858 33.3544 33.5386 33.6189 34.0694C33.6932 34.218 33.8091 34.3259 33.9692 34.3967C34.0113 34.4153 34.0453 34.4484 34.0651 34.4899C34.0848 34.5315 34.0891 34.5787 34.0772 34.6231Z" fill="#57B3FE"/>
<path d="M39.5335 42.283C39.1797 42.4856 38.8205 42.5749 38.4826 42.5608C37.9961 42.5378 37.5449 42.3202 37.1928 41.9309C37.0887 41.8098 36.996 41.6792 36.9159 41.5408C36.7739 41.3026 36.6678 41.0448 36.601 40.7756C36.5931 40.7606 36.5931 40.7385 36.586 40.7226C36.2029 39.1409 36.9009 37.2814 38.1376 36.5613C38.4574 36.371 38.8235 36.2724 39.1956 36.2765C39.4283 36.2836 39.6529 36.3437 39.8626 36.441C39.99 36.5012 40.1174 36.5764 40.2306 36.6737C40.6128 36.9736 40.9206 37.4539 41.071 38.0758C41.0781 38.0908 41.0851 38.1059 41.0851 38.1209C41.4673 39.7035 40.7782 41.5629 39.5335 42.283Z" fill="#F9A83D"/>
<path d="M38.5454 41.9884C37.9031 41.9884 37.3529 41.4373 37.145 40.5836C36.8221 39.2602 37.4086 37.6467 38.4268 37.0584C38.663 36.9222 38.901 36.8523 39.1327 36.8523C39.7829 36.8523 40.3181 37.3919 40.5304 38.2588C40.8533 39.5822 40.2651 41.1966 39.2477 41.784C39.0133 41.9194 38.7771 41.9884 38.5454 41.9884Z" fill="#FFD475"/>
<path d="M35.199 28.9315L34.9601 29.4464C34.8425 29.7029 34.5567 29.8798 34.1303 29.9214C33.274 30.0037 32.1736 29.4985 31.6738 28.7935C31.4216 28.437 31.3703 28.0991 31.4898 27.8399L31.7286 27.3259C31.6083 27.5842 31.6605 27.923 31.9126 28.2787C32.4115 28.9837 33.512 29.4888 34.3692 29.4065C34.7938 29.3658 35.0804 29.1872 35.199 28.9315Z" fill="#FFD06C"/>
<path d="M34.1471 28.4874L34.2709 29.0412C34.3329 29.3154 34.5735 29.5507 34.9813 29.6808C35.8013 29.9426 36.9832 29.6825 37.621 29.0996C37.943 28.805 38.0651 28.4857 38.0031 28.207L37.8793 27.6541C37.9412 27.9328 37.8191 28.2521 37.498 28.5458C36.8602 29.1297 35.6775 29.3897 34.8574 29.1279C34.4505 28.997 34.209 28.7625 34.1471 28.4874Z" fill="#FFD475"/>
<path d="M37.4962 28.5441C37.145 28.8687 36.6266 29.0978 36.0897 29.1854C35.8703 29.2208 35.6598 29.2385 35.4492 29.2208C35.3519 29.2208 35.2466 29.212 35.1502 29.1943C35.0529 29.1766 34.9565 29.15 34.8601 29.1235C34.5443 29.0271 34.324 28.8599 34.2187 28.667C34.0427 28.3592 34.1391 27.9549 34.5266 27.5949C34.8866 27.2693 35.405 27.05 35.9322 26.9535C36.363 26.8828 36.8018 26.9005 37.1707 27.0155C37.2061 27.0243 37.2415 27.042 37.2768 27.0588C37.3565 27.0853 37.4263 27.1207 37.4962 27.165C37.6378 27.2437 37.7421 27.349 37.8041 27.4719C37.9881 27.7877 37.8925 28.184 37.4962 28.5441Z" fill="#F9A83D"/>
<path d="M34.922 27.7223C34.4531 28.1513 34.5619 28.6546 35.1635 28.8475C35.7668 29.0394 36.6355 28.8484 37.1043 28.4193C37.5732 27.9903 37.4643 27.4869 36.8619 27.2941C36.2604 27.1021 35.3917 27.2932 34.922 27.7223Z" fill="#FFD06C"/>
<path d="M36.7337 27.7762C36.6807 27.7017 36.6133 27.6386 36.5355 27.5905L36.6178 27.5002C36.6236 27.4946 36.6281 27.4878 36.6311 27.4804C36.6342 27.4729 36.6357 27.4649 36.6355 27.4569C36.635 27.4497 36.6328 27.4428 36.6289 27.4368C36.625 27.4308 36.6197 27.4258 36.6134 27.4224C36.5988 27.4143 36.5818 27.4121 36.5656 27.4162C36.5479 27.4205 36.5319 27.4301 36.5196 27.4436L36.4356 27.5365C36.3689 27.5061 36.2966 27.4898 36.2233 27.4887C36.1545 27.4879 36.0863 27.5015 36.0231 27.5287C35.9599 27.5558 35.903 27.5958 35.8562 27.6462C35.8107 27.6908 35.7814 27.7493 35.773 27.8125C35.7688 27.8643 35.7805 27.9162 35.8066 27.9611C35.8375 28.0131 35.8737 28.0617 35.9145 28.1062L35.6315 28.4158C35.5579 28.3678 35.4961 28.3037 35.451 28.2283C35.4454 28.2188 35.4375 28.2109 35.428 28.2053C35.4184 28.1999 35.4078 28.1966 35.3969 28.1953C35.3859 28.1941 35.3749 28.1951 35.3643 28.1982C35.3411 28.2036 35.3201 28.2159 35.3042 28.2336C35.2925 28.2457 35.2848 28.2612 35.282 28.2778C35.2794 28.2928 35.2825 28.3083 35.2909 28.3211C35.344 28.4078 35.4174 28.4848 35.5103 28.5485L35.4245 28.6423C35.4112 28.6573 35.405 28.6715 35.4068 28.6865C35.4077 28.6989 35.4156 28.7104 35.4289 28.7183C35.4439 28.7272 35.4599 28.7298 35.4775 28.7254C35.4951 28.7217 35.5109 28.7124 35.5227 28.6989L35.6085 28.6051C35.6727 28.6367 35.7424 28.6556 35.8137 28.6608C35.8826 28.6653 35.9517 28.6547 36.016 28.6296C36.0804 28.6046 36.1384 28.5657 36.1861 28.5158C36.2352 28.4685 36.2673 28.4063 36.2772 28.3388C36.2814 28.286 36.2683 28.2333 36.2401 28.1885C36.206 28.1359 36.1665 28.087 36.1224 28.0425L36.4161 27.7214C36.4834 27.7647 36.5382 27.8151 36.5789 27.8718C36.584 27.88 36.591 27.887 36.5992 27.8921C36.6089 27.8975 36.6195 27.9008 36.6304 27.9019C36.6414 27.903 36.6525 27.9017 36.6629 27.8983C36.685 27.892 36.7049 27.8798 36.7204 27.8629C36.7487 27.8328 36.7523 27.8028 36.7337 27.7762ZM35.9676 27.8328C35.957 27.7948 35.9694 27.7568 36.0057 27.7178C36.0417 27.6778 36.0911 27.6524 36.1446 27.6462C36.2022 27.6402 36.2604 27.6481 36.3144 27.6692L36.0464 27.9611C36.0108 27.9248 35.9839 27.881 35.9676 27.8328ZM35.9906 28.1867C36.0366 28.2389 36.0667 28.284 36.0809 28.3211C36.095 28.3583 36.0862 28.3928 36.0543 28.4273C35.9703 28.5202 35.8641 28.5343 35.7297 28.4724L35.9906 28.1867Z" fill="#F9A83D"/>
<path opacity="0.3" d="M37.2769 27.0588L35.1503 29.1943C35.0529 29.1766 34.9565 29.15 34.8601 29.1235C34.5443 29.0271 34.324 28.8599 34.2188 28.667L35.9323 26.9535C36.3631 26.8828 36.8018 26.9005 37.1707 27.0155C37.2061 27.0243 37.2415 27.042 37.2769 27.0588ZM37.8041 27.4719L36.0906 29.1854C35.8703 29.2208 35.6598 29.2385 35.4493 29.2208L37.4963 27.1641C37.6378 27.2437 37.7422 27.349 37.8041 27.4719Z" fill="#FDFDFD"/>
<path d="M35.0157 27.9814C35.5156 28.6865 35.2254 29.3252 34.3691 29.4065C33.511 29.4888 32.4114 28.9837 31.9125 28.2787C31.4118 27.571 31.702 26.9332 32.5583 26.8509C33.4146 26.7695 34.5151 27.2746 35.0157 27.9814Z" fill="#F9A83D"/>
<path d="M34.6036 28.0204C34.9716 28.5388 34.7575 29.0076 34.1294 29.0678C33.4996 29.1279 32.6911 28.7573 32.3231 28.238C31.9559 27.7196 32.1691 27.2508 32.799 27.1906C33.4271 27.1304 34.2365 27.5011 34.6036 28.0204Z" fill="#FFD06C"/>
<path d="M34.086 28.4963C34.1144 28.4439 34.125 28.3836 34.1161 28.3247C34.105 28.2617 34.0768 28.2029 34.0347 28.1548C33.9912 28.0998 33.9345 28.0566 33.8699 28.0294C33.8052 28.0022 33.7347 27.9918 33.665 27.9991C33.5938 28.007 33.5234 28.0206 33.4544 28.0398L33.1687 27.6992C33.2412 27.6622 33.3191 27.6368 33.3996 27.624C33.4101 27.6232 33.4203 27.6202 33.4296 27.6152C33.4382 27.6108 33.4454 27.6041 33.4502 27.5958C33.4551 27.5875 33.4575 27.5779 33.4571 27.5683C33.4568 27.5471 33.449 27.5267 33.435 27.5108C33.4084 27.4781 33.3748 27.4639 33.3359 27.4701C33.237 27.4837 33.1413 27.5143 33.0528 27.5604L32.9732 27.4648C32.9614 27.4504 32.9453 27.4402 32.9272 27.4356C32.9191 27.4333 32.9107 27.4325 32.9023 27.4334C32.894 27.4343 32.8859 27.4369 32.8785 27.4409C32.872 27.4443 32.8665 27.4493 32.8626 27.4556C32.8587 27.4618 32.8566 27.469 32.8564 27.4763C32.8564 27.4922 32.8617 27.5073 32.8741 27.5214L32.9555 27.6196C32.9017 27.6576 32.8589 27.7092 32.8316 27.7691C32.8076 27.8239 32.8014 27.8849 32.814 27.9434C32.8263 28.0018 32.8546 28.0584 32.8989 28.1106C32.9434 28.1665 33.0025 28.209 33.0696 28.2335C33.1294 28.2548 33.193 28.2633 33.2563 28.2583C33.3164 28.2539 33.3854 28.2433 33.4624 28.2247L33.7384 28.5538C33.6505 28.5963 33.5553 28.6218 33.458 28.629C33.4455 28.6299 33.4334 28.6335 33.4226 28.6396C33.4138 28.6441 33.4064 28.651 33.4013 28.6594C33.3961 28.6678 33.3934 28.6775 33.3934 28.6874C33.3937 28.709 33.4018 28.7297 33.4164 28.7457C33.4286 28.7598 33.4439 28.7709 33.4611 28.7781C33.4782 28.7853 33.4969 28.7885 33.5155 28.7873C33.6358 28.7758 33.7499 28.7449 33.856 28.6944L33.9392 28.7935C33.9506 28.8079 33.9665 28.8182 33.9843 28.8227C34.002 28.8262 34.017 28.8245 34.0303 28.8165C34.0453 28.8077 34.0533 28.7962 34.0551 28.7811C34.0552 28.7729 34.0537 28.7648 34.0506 28.7572C34.0476 28.7496 34.0431 28.7427 34.0374 28.7369L33.9551 28.6378C34.0096 28.602 34.0545 28.5534 34.086 28.4963ZM33.5818 28.1929C33.6434 28.1773 33.7067 28.1696 33.7702 28.1699C33.7928 28.17 33.8151 28.1752 33.8354 28.185C33.8557 28.1948 33.8737 28.2089 33.8879 28.2265C33.9701 28.3247 33.9533 28.4131 33.8366 28.4963L33.5818 28.1929ZM32.9918 27.885C33.005 27.8359 33.0339 27.7924 33.074 27.7612L33.3341 28.0708C33.2765 28.0864 33.2167 28.0924 33.1572 28.0885C33.1325 28.0858 33.1087 28.0781 33.0871 28.066C33.0655 28.0538 33.0466 28.0374 33.0316 28.0177C32.9962 27.9752 32.982 27.931 32.9918 27.885Z" fill="#F9A83D"/>
<path opacity="0.3" d="M35.2555 28.7192C35.2201 29.0448 34.9653 29.2907 34.5354 29.3783L32.1275 26.9624C32.263 26.8983 32.4089 26.8593 32.5583 26.8474C32.8564 26.8208 33.182 26.8651 33.5066 26.9712L35.2555 28.7192ZM34.2541 29.4136C34.0427 29.4225 33.8233 29.3959 33.6039 29.334L31.6958 27.4277C31.7343 27.2901 31.8139 27.1675 31.924 27.0765L34.2541 29.4136Z" fill="#FDFDFD"/>
<path d="M38.7807 27.6868C38.8045 27.8461 38.8001 27.9964 38.7771 28.0743C38.7223 28.2654 38.3578 28.4786 37.9535 28.4786L37.8766 28.4777C37.3016 28.4777 36.7416 28.7926 36.5886 28.8855C36.1317 29.0627 35.6455 29.1522 35.1555 29.1491C34.048 29.1491 33.1457 28.7271 32.905 28.5343C32.6202 28.3078 32.1584 28.1291 31.5312 28.0035C31.5171 28.0009 31.3481 27.946 31.3349 27.9425L31.1588 28.3521C31.5233 28.4273 32.3725 28.6068 32.6627 28.8386C33.1404 29.2208 34.9848 29.9532 36.7646 29.234C36.7646 29.234 37.36 28.851 37.9102 28.8669C38.4613 28.8828 39.0337 28.5891 39.1504 28.1822C39.184 28.0672 39.1947 27.885 39.1717 27.6868H38.7807Z" fill="#57B3FE"/>
<path d="M39.1824 27.9965C39.2284 28.8015 37.7396 30.3566 37.7396 30.3566C37.5835 30.4922 37.4378 30.6392 37.3034 30.7963C37.2999 30.7998 37.2964 30.8042 37.2884 30.8078C37.1442 30.9555 36.8956 31.1881 36.6816 31.3173C35.7014 31.8852 34.1153 31.8852 33.1272 31.3173C32.8352 31.1457 32.4619 30.7494 32.3965 30.676C32.1904 30.216 32.0267 29.917 32.0267 29.917C31.6693 29.2093 30.9262 28.2185 30.744 27.9805C30.9227 28.1946 31.1792 28.3308 31.4552 28.3848C31.8206 28.4591 32.3611 28.5989 32.661 28.8404C33.1431 29.2208 34.9857 29.9523 36.7629 29.2331C36.7629 29.2331 37.3583 28.8519 37.9103 28.8669C38.4623 28.8828 39.0337 28.5874 39.1505 28.1831C39.1629 28.1327 39.1779 28.0663 39.1824 27.9965Z" fill="#5094FF"/>
<path d="M38.5922 37.8856C38.625 37.8679 38.6621 37.8714 38.6842 37.9121L39.0823 38.6057C39.1027 38.6411 39.1398 38.6526 39.1752 38.6322L39.8493 38.243C39.9271 38.1988 39.9882 38.3049 39.9386 38.3987L39.5096 39.2161C39.4875 39.2585 39.4857 39.3107 39.5069 39.3461L39.905 40.0396C39.9386 40.1007 39.9085 40.1883 39.8581 40.2166C39.8506 40.2213 39.8421 40.2245 39.8333 40.2258C39.8245 40.2272 39.8155 40.2268 39.8068 40.2245L39.1434 40.0361C39.1348 40.034 39.126 40.0337 39.1173 40.035C39.1087 40.0364 39.1004 40.0395 39.0929 40.0441C39.0745 40.055 39.0595 40.071 39.0496 40.0901L38.6205 40.9092C38.6111 40.9286 38.5964 40.9448 38.5781 40.9561C38.5277 40.9853 38.4693 40.949 38.4702 40.8676L38.4905 39.9326C38.4923 39.8839 38.4693 39.8459 38.4357 39.8353L37.774 39.6495C37.6979 39.6265 37.7014 39.4832 37.7784 39.439L38.4525 39.0498C38.4878 39.0294 38.5117 38.9825 38.5126 38.9348L38.533 37.9988C38.5325 37.9765 38.5377 37.9544 38.5481 37.9346C38.5584 37.9148 38.5736 37.898 38.5922 37.8856Z" fill="#F9A83D"/>
<g opacity="0.3">
<path d="M41.0701 38.0758L38.4827 42.5608C37.9961 42.5378 37.545 42.3202 37.1929 41.9309L40.2307 36.6737C40.6128 36.9736 40.9207 37.4539 41.071 38.0758H41.0701ZM39.8627 36.4419L36.916 41.5408C36.774 41.3026 36.6679 41.0448 36.6011 40.7756L39.1957 36.2765C39.4283 36.2836 39.653 36.3446 39.8627 36.4419Z" fill="#FDFDFD"/>
</g>
<path d="M39.3831 6.0288C39.392 8.84188 37.4281 12.2477 34.9866 13.663C34.3762 14.008 33.8012 14.2027 33.2704 14.2557L31.4835 16.8211L30.3954 16.1842L30.7847 13.3534L30.7493 13.3357C29.962 12.8669 29.4754 11.8938 29.4666 10.4961C29.4577 7.69188 31.4304 4.27727 33.872 2.87073C35.0927 2.17188 36.1985 2.10111 37.0035 2.56111L38.0916 3.19803C38.0472 3.16921 37.9997 3.14547 37.95 3.12727C38.8258 3.55188 39.3743 4.56034 39.3831 6.0288Z" fill="#78E75A"/>
<path d="M31.4853 16.8167L30.3964 16.1833L30.7829 13.3535L31.8728 13.9868L31.4853 16.8167Z" fill="#5EC363"/>
<path d="M38.0952 3.19805C37.2919 2.73363 36.1871 2.79555 34.9583 3.50678C32.5168 4.91332 30.5467 8.32793 30.5547 11.1322C30.5627 12.5228 31.0492 13.5047 31.8374 13.9682L30.7476 13.334C29.9602 12.8704 29.4737 11.8894 29.4649 10.4988C29.4578 7.69455 31.4278 4.27905 33.8694 2.8734C35.0981 2.17013 36.2021 2.10024 37.0062 2.56378L38.0952 3.19805Z" fill="#72D561"/>
<path d="M34.9557 3.50767C37.3972 2.09848 39.377 3.23255 39.3849 6.03236C39.3938 8.84455 37.4264 12.2512 34.984 13.6604C34.378 14.0107 33.8004 14.2027 33.2714 14.2522L31.4844 16.8167L31.8728 13.9859C31.0607 13.5348 30.5591 12.5422 30.5547 11.1304C30.5467 8.33059 32.5186 4.91421 34.9557 3.50767Z" fill="#78E75A"/>
<path d="M37.5173 10.0361C38.9343 7.59461 38.9365 4.94998 37.5222 4.12917C36.108 3.30835 33.8128 4.62217 32.3958 7.06366C30.9788 9.50515 30.9766 12.1498 32.3908 12.9706C33.8051 13.7914 36.1003 12.4776 37.5173 10.0361Z" fill="#FDFDFD"/>
<path d="M34.9645 5.54846L35.5457 7.25577L37.4166 6.17654L35.9022 8.31465L36.4904 10.0264L34.976 9.62919L33.4677 11.7717L34.0383 9.39035L32.5229 9.00112L34.3939 7.92189L34.9645 5.54846Z" fill="#4C5C75"/>
<path d="M31.4853 16.8167L30.3964 16.1833L30.7829 13.3535L31.8728 13.9868L31.4853 16.8167Z" fill="#5EC363"/>
<path d="M38.0952 3.19805C37.2919 2.73363 36.1871 2.79555 34.9583 3.50678C32.5168 4.91332 30.5467 8.32793 30.5547 11.1322C30.5627 12.5228 31.0492 13.5047 31.8374 13.9682L30.7476 13.334C29.9602 12.8704 29.4737 11.8894 29.4649 10.4988C29.4578 7.69455 31.4278 4.27905 33.8694 2.8734C35.0981 2.17013 36.2021 2.10024 37.0062 2.56378L38.0952 3.19805Z" fill="#72D561"/>
<path d="M34.9557 3.50767C37.3972 2.09848 39.377 3.23255 39.3849 6.03236C39.3938 8.84455 37.4264 12.2512 34.984 13.6604C34.378 14.0107 33.8004 14.2027 33.2714 14.2522L31.4844 16.8167L31.8728 13.9859C31.0607 13.5348 30.5591 12.5422 30.5547 11.1304C30.5467 8.33059 32.5186 4.91421 34.9557 3.50767Z" fill="#78E75A"/>
<path d="M37.5173 10.0361C38.9343 7.59461 38.9365 4.94998 37.5222 4.12917C36.108 3.30835 33.8128 4.62217 32.3958 7.06366C30.9788 9.50515 30.9766 12.1498 32.3908 12.9706C33.8051 13.7914 36.1003 12.4776 37.5173 10.0361Z" fill="#FDFDFD"/>
<path d="M34.9645 5.54846L35.5457 7.25577L37.4166 6.17654L35.9022 8.31465L36.4904 10.0264L34.976 9.62919L33.4677 11.7717L34.0383 9.39035L32.5229 9.00112L34.3939 7.92189L34.9645 5.54846Z" fill="#4C5C75"/>
</svg>
