<svg width="46" height="47" viewBox="0 0 46 47" fill="none" xmlns="http://www.w3.org/2000/svg">
<g clip-path="url(#clip0_134_2472)">
<path d="M42.9334 15.8333C44.627 15.8333 46 14.4604 46 12.7667C46 11.0731 44.627 9.70007 42.9334 9.70007L41.4 12.7666L42.9334 15.8333Z" fill="#E2E2E2"/>
<path d="M29.1334 17.3666L39.8667 23.5L41.4 12.7666L39.8667 2.03333L29.1334 8.1666L27.4341 12.7666L29.1334 17.3666Z" fill="#F8F6F6"/>
<path d="M19.8375 17.3666H29.1334V8.16663H19.8375C19.0436 8.16663 18.4 8.81027 18.4 9.60413V15.9291C18.4 16.7231 19.0436 17.3666 19.8375 17.3666Z" fill="#8AC9FE"/>
<path d="M42.9334 9.69995L42.6316 10.3036C43.3838 10.8624 43.8713 11.7576 43.8713 12.7667C43.8713 13.7758 43.3838 14.6708 42.6316 15.2297L42.9334 15.8334C44.627 15.8334 46 14.4604 46 12.7668C46 11.0731 44.627 9.69995 42.9334 9.69995Z" fill="#D1D1D1"/>
<path d="M39.8667 2.03333L37.7379 3.24972V22.2835L39.8667 23.5L41.4 12.7666L39.8667 2.03333Z" fill="#E2E2E2"/>
<path d="M27.0045 8.16663H29.1333V17.3666H27.0045V8.16663Z" fill="#60B7FF"/>
<path d="M42.2146 25.0334H40.5854C40.3948 25.0334 40.212 24.9576 40.0772 24.8228C39.9424 24.6881 39.8667 24.5052 39.8667 24.3146V1.21875C39.8667 1.02813 39.9424 0.845309 40.0772 0.710517C40.212 0.575725 40.3948 0.5 40.5854 0.5H42.2146C42.4052 0.5 42.588 0.575725 42.7228 0.710517C42.8576 0.845309 42.9333 1.02813 42.9333 1.21875V24.3146C42.9333 24.5052 42.8576 24.6881 42.7228 24.8228C42.588 24.9576 42.4052 25.0334 42.2146 25.0334Z" fill="#8AC9FE"/>
<path d="M42.1928 0.5H40.6071C40.5111 0.5 40.4198 0.518867 40.3356 0.552109C40.61 0.660461 40.8046 0.927477 40.8046 1.24049V24.293C40.8046 24.606 40.61 24.873 40.3356 24.9813C40.4198 25.0146 40.5111 25.0335 40.6071 25.0335H42.1928C42.2901 25.0335 42.3863 25.0143 42.4762 24.9771C42.566 24.9399 42.6476 24.8853 42.7164 24.8166C42.7851 24.7478 42.8397 24.6662 42.8769 24.5763C42.9141 24.4865 42.9332 24.3902 42.9332 24.293V1.2404C42.9332 1.14317 42.9141 1.04688 42.8769 0.957049C42.8397 0.867214 42.7851 0.785588 42.7164 0.716833C42.6476 0.648077 42.566 0.59354 42.4762 0.556336C42.3863 0.519131 42.2901 0.499988 42.1928 0.5Z" fill="#60B7FF"/>
<path d="M30.6663 37.2997C30.6663 33.9125 27.9205 31.1667 24.5333 31.1667H6.13309C2.74589 31.1667 8.98438e-05 33.9125 8.98438e-05 37.2997L0 44.9666C0 45.8134 0.686496 46.4999 1.53336 46.4999H13.0333L15.4419 44.3437L17.6331 46.4999H29.1331C29.98 46.4999 30.6665 45.8134 30.6665 44.9666L30.6663 37.2997Z" fill="#DAEBFE"/>
<path d="M17.6332 33.7516L15.3332 33.4667L13.0332 33.7516V35.7667L13.7999 38.8334L13.0332 46.4999L17.6332 46.5L16.8666 38.8334L17.6332 35.7667V33.7516Z" fill="#A2E62E"/>
<path d="M30.6663 37.2999C30.6663 33.9128 27.9205 31.1669 24.5333 31.1669H22.4061C25.7925 31.1678 28.5374 33.9132 28.5374 37.2998L28.5375 44.9665C28.5375 45.8134 27.851 46.4999 27.0042 46.4999H29.1329C29.9798 46.4999 30.6663 45.8134 30.6663 44.9665V37.2999Z" fill="#BDD6FF"/>
<path d="M17.6332 33.7515L16.0571 33.5563L14.7378 38.8333L15.5044 46.5H17.6332L16.8666 38.8333L17.6332 35.7666V33.7515Z" fill="#32DB1F"/>
<path d="M13.587 40.9621H17.0795L16.8666 38.8334H13.8L13.587 40.9621Z" fill="#32DB1F"/>
<path d="M19.3161 33.4666C19.7211 32.7678 19.934 31.9742 19.9332 31.1665V26.5668L10.7332 26.5662V31.1664C10.7323 31.9741 10.9452 32.7677 11.3502 33.4665H19.3161V33.4666Z" fill="#FFCDBE"/>
<path d="M17.8062 31.1665C17.8062 32.0048 17.5811 32.79 17.1893 33.4666H19.3162C19.7212 32.7678 19.9341 31.9742 19.9332 31.1665V26.5668L10.7332 26.5662V26.5663L17.8062 26.5667V31.1665Z" fill="#EBACA4"/>
<path d="M6.13318 14.2997V11.2331C6.13318 7.84572 8.87916 5.09973 12.2665 5.09973H18.3998C21.7872 5.09973 24.5332 7.84572 24.5332 11.2331V14.2997H6.13318Z" fill="#444444"/>
<path d="M24.5331 14.2997C25.38 14.2997 26.0665 14.9862 26.0665 15.833V18.8998C26.0665 19.7466 25.38 20.4331 24.5331 20.4331H6.13322C5.28635 20.4331 4.59985 19.7466 4.59985 18.8998V15.833C4.59985 14.9862 5.28635 14.2997 6.13322 14.2997H24.5331Z" fill="#FFCDBE"/>
<path d="M24.5332 14.2997H22.4044C23.2513 14.2997 23.9378 14.9862 23.9378 15.833V18.8998C23.9378 19.7466 23.2513 20.4331 22.4044 20.4331H24.5332C25.38 20.4331 26.0665 19.7466 26.0665 18.8998V15.833C26.0664 14.9862 25.38 14.2997 24.5332 14.2997Z" fill="#EBACA4"/>
<path d="M22.9998 14.2998V9.48401H7.66663L7.66672 20.4334C7.66672 24.6675 11.0991 28.0999 15.3333 28.0999C16.1753 28.1001 17.0117 27.9613 17.8085 27.689L18.6344 26.5668H19.933C21.7951 25.1681 22.9998 22.9415 22.9998 20.4333L21.9193 17.3663L22.9998 14.2998Z" fill="#FFCDBE"/>
<path d="M20.8712 9.48389V20.4332C20.8712 24.3059 17.9991 27.5062 14.269 28.0246C14.6171 28.0729 14.9721 28.0998 15.3334 28.0998C19.5676 28.0998 23 24.6674 23 20.4332L23.0001 9.48389H20.8712Z" fill="#EBACA4"/>
<path d="M12.2665 18.8273C12.1754 18.8273 12.0851 18.8093 12.0009 18.7745C11.9167 18.7396 11.8401 18.6884 11.7757 18.624C11.7112 18.5595 11.6601 18.483 11.6252 18.3988C11.5903 18.3146 11.5724 18.2243 11.5724 18.1331V17.3665C11.5724 17.2753 11.5903 17.1851 11.6252 17.1009C11.6601 17.0166 11.7112 16.9401 11.7757 16.8757C11.8402 16.8112 11.9167 16.7601 12.0009 16.7252C12.0851 16.6903 12.1754 16.6724 12.2665 16.6724C12.3577 16.6724 12.4479 16.6903 12.5322 16.7252C12.6164 16.7601 12.6929 16.8112 12.7573 16.8757C12.8218 16.9401 12.8729 17.0166 12.9078 17.1009C12.9427 17.1851 12.9607 17.2753 12.9607 17.3665V18.1331C12.9607 18.2243 12.9427 18.3146 12.9078 18.3988C12.873 18.483 12.8218 18.5595 12.7574 18.624C12.6929 18.6884 12.6164 18.7396 12.5322 18.7745C12.4479 18.8093 12.3577 18.8273 12.2665 18.8273ZM18.3999 18.8273C18.3087 18.8273 18.2185 18.8093 18.1342 18.7745C18.05 18.7396 17.9735 18.6884 17.909 18.624C17.8446 18.5595 17.7934 18.483 17.7586 18.3988C17.7237 18.3146 17.7057 18.2243 17.7058 18.1331V17.3665C17.7058 17.1824 17.7789 17.0058 17.9091 16.8757C18.0392 16.7455 18.2158 16.6724 18.3999 16.6724C18.584 16.6724 18.7605 16.7455 18.8907 16.8757C19.0209 17.0058 19.094 17.1824 19.094 17.3665V18.1331C19.094 18.3172 19.0209 18.4938 18.8907 18.6239C18.7605 18.7541 18.584 18.8272 18.3999 18.8273Z" fill="#444444"/>
<path d="M15.3332 22.6607C14.5418 22.6607 13.803 22.2344 13.4051 21.548C13.3594 21.4692 13.3297 21.3821 13.3176 21.2917C13.3056 21.2013 13.3114 21.1095 13.3349 21.0214C13.3583 20.9333 13.3989 20.8507 13.4543 20.7783C13.5097 20.7059 13.5788 20.6451 13.6576 20.5994C13.7365 20.5537 13.8236 20.5239 13.914 20.5119C14.0043 20.4998 14.0962 20.5057 14.1843 20.5291C14.2724 20.5526 14.355 20.5931 14.4274 20.6485C14.4998 20.7039 14.5606 20.773 14.6063 20.8518C14.7566 21.1113 15.0352 21.2725 15.3332 21.2725C15.6312 21.2725 15.9098 21.1113 16.0601 20.8518C16.1524 20.6925 16.3042 20.5764 16.4821 20.5291C16.5702 20.5056 16.6621 20.4998 16.7524 20.5118C16.8428 20.5239 16.9299 20.5536 17.0088 20.5993C17.0876 20.645 17.1567 20.7058 17.2121 20.7783C17.2675 20.8507 17.3081 20.9333 17.3315 21.0214C17.355 21.1095 17.3608 21.2013 17.3488 21.2917C17.3367 21.3821 17.307 21.4692 17.2613 21.548C16.8635 22.2343 16.1247 22.6607 15.3332 22.6607Z" fill="#EBACA4"/>
<path d="M7.66657 14.2998H14.0574C16.5979 14.2998 18.6574 12.2403 18.6574 9.69979V7.70337H7.82047L6.92383 11.2332L7.66657 14.2998Z" fill="#444444"/>
<path d="M22.9999 14.2997H21.4665C19.7729 14.2997 18.3999 12.9267 18.3999 11.2331V9.00757H23.0845L23.5532 10.1692L22.9999 14.2997Z" fill="#444444"/>
<path d="M18.3998 5.09973H16.2711C19.6584 5.09973 22.4044 7.84572 22.4044 11.2331V14.2997H24.5331V11.2331C24.5331 7.84572 21.7872 5.09973 18.3998 5.09973Z" fill="#333333"/>
<path d="M10.7332 28.8667L8.43323 31.1668L11.0242 36.3485C11.2583 36.8166 11.8821 36.9178 12.252 36.5478L15.3332 33.4666L10.7332 28.8667ZM19.9332 28.8667L22.2332 31.1668L19.6423 36.3485C19.4083 36.8166 18.7845 36.9178 18.4145 36.5478L15.3333 33.4666L19.9332 28.8667Z" fill="#F8F6F6"/>
<path d="M39.1955 28.4696L40.0959 30.2939C40.1304 30.3638 40.1814 30.4243 40.2444 30.4701C40.3075 30.5159 40.3807 30.5457 40.4579 30.5569L42.4712 30.8494C43.2598 30.964 43.5747 31.9331 43.0041 32.4894L41.5472 33.9095C41.4914 33.9639 41.4497 34.0311 41.4256 34.1052C41.4015 34.1793 41.3958 34.2582 41.409 34.335L41.7529 36.3401C41.8876 37.1256 41.0632 37.7245 40.3578 37.3537L38.5571 36.407C38.4881 36.3707 38.4113 36.3518 38.3333 36.3518C38.2554 36.3518 38.1786 36.3707 38.1096 36.407L36.3089 37.3537C35.6035 37.7245 34.7791 37.1256 34.9138 36.3401L35.2577 34.335C35.2709 34.2582 35.2652 34.1793 35.2411 34.1052C35.217 34.0311 35.1753 33.9639 35.1195 33.9095L33.6626 32.4894C33.092 31.9332 33.4069 30.9641 34.1955 30.8494L36.2088 30.5569C36.2859 30.5457 36.3592 30.5159 36.4223 30.4701C36.4853 30.4243 36.5363 30.3638 36.5708 30.2939L37.4712 28.4696C37.8238 27.7549 38.8429 27.7549 39.1955 28.4696Z" fill="#FEDF30"/>
<path d="M43.004 32.4894C43.5747 31.9332 43.2598 30.9641 42.4711 30.8494L40.4578 30.5569C40.3807 30.5457 40.3074 30.5159 40.2444 30.4701C40.1813 30.4243 40.1303 30.3638 40.0958 30.2939L39.1954 28.4696C38.8427 27.7549 37.8237 27.7549 37.471 28.4696L37.2688 28.8792L37.967 30.2939C38.0015 30.3638 38.0524 30.4243 38.1155 30.4701C38.1786 30.5159 38.2518 30.5457 38.329 30.5569L40.3423 30.8494C41.1309 30.964 41.4458 31.9331 40.8751 32.4894L39.4183 33.9095C39.3625 33.9639 39.3207 34.0311 39.2967 34.1052C39.2726 34.1793 39.2669 34.2582 39.28 34.335L39.624 36.3401C39.6607 36.5542 39.6258 36.7542 39.5418 36.9248L40.3576 37.3537C41.063 37.7245 41.8874 37.1256 41.7527 36.3401L41.4088 34.335C41.3956 34.2582 41.4013 34.1793 41.4254 34.1052C41.4495 34.0311 41.4913 33.9639 41.5471 33.9095L43.004 32.4894Z" fill="#FEC526"/>
</g>
<defs>
<clipPath id="clip0_134_2472">
<rect width="46" height="46" fill="white" transform="translate(0 0.5)"/>
</clipPath>
</defs>
</svg>
