<svg width="365" height="251" viewBox="0 0 365 251" fill="none" xmlns="http://www.w3.org/2000/svg">
<g clip-path="url(#clip0_50_2270)">
<path d="M363.022 239.843C339.743 222.405 241.257 148.427 227.11 134.314L146.978 176.202C146.978 176.202 205.891 188.877 244.211 205.776C277.07 220.158 336.789 243.888 353.442 250.45C356.128 251.529 359.261 250.99 361.41 249.102L363.201 247.574C365.708 245.506 365.529 241.731 363.022 239.843Z" fill="url(#paint0_linear_50_2270)"/>
<path d="M227.111 134.314C241.257 148.517 339.744 222.495 363.022 239.843C364.634 241.012 365.261 242.989 364.902 244.787C353.621 236.697 233.557 149.326 227.111 134.314Z" fill="#EAEEEF"/>
<path d="M319.509 217.371C319.509 217.371 296.678 220.158 292.649 226.09C288.62 232.023 284.501 236.877 286.739 238.765C288.978 240.562 326.582 219.259 319.509 217.371Z" fill="#EAEEEF"/>
<path d="M292.649 226.001C296.678 220.068 319.509 217.281 319.509 217.281C319.509 217.281 294.529 232.203 292.291 232.652C292.291 232.742 295.335 227.169 292.649 226.001Z" fill="#7895AD"/>
<path d="M274.653 199.125C274.653 199.125 251.822 201.911 247.793 207.844C243.764 213.776 239.645 218.63 241.884 220.518C244.122 222.316 281.726 201.012 274.653 199.125Z" fill="#EAEEEF"/>
<path d="M247.793 207.844C251.822 201.911 274.653 199.125 274.653 199.125C274.653 199.125 249.673 214.046 247.435 214.495C247.524 214.495 250.568 208.922 247.793 207.844Z" fill="#7895AD"/>
<path d="M229.886 181.955C229.886 181.955 207.055 184.742 203.026 190.675C198.997 196.607 194.878 201.461 197.117 203.349C199.265 205.147 236.959 183.753 229.886 181.955Z" fill="#EAEEEF"/>
<path d="M203.026 190.585C207.055 184.652 229.886 181.865 229.886 181.865C229.886 181.865 204.906 196.787 202.667 197.236C202.667 197.236 205.712 191.753 203.026 190.585Z" fill="#7895AD"/>
<path d="M56.7289 218.45L29.2422 196.607L-14.5395 199.214L44.2838 222.944C45.1791 223.304 46.0744 223.484 46.9698 223.484C49.1185 223.484 53.2371 223.304 56.1021 222.315C57.8033 221.776 58.1614 219.528 56.7289 218.45Z" fill="#EAEEEF"/>
<path d="M44.2838 222.944L-14.5395 199.214L27.4516 196.697L54.7592 218.45C56.1022 219.529 55.744 221.776 54.1324 222.315C51.8046 223.124 48.6709 223.394 46.4326 223.394C45.6268 223.394 44.9105 223.214 44.2838 222.944Z" fill="#7895AD"/>
<path d="M27.0934 144.203L-2.00489 64.3821L-21.7022 73.1911L-28.059 177.911L27.0934 144.203Z" fill="#7895AD"/>
<path d="M-59.0377 194.719C-54.6506 198.135 17.0655 209.641 67.025 199.124C116.984 188.607 122.536 184.472 122.536 184.472C122.536 184.472 134.712 188.067 155.036 182.584C175.271 177.101 225.588 155.078 231.139 150.135C236.69 145.191 246.181 134.314 246.181 134.314C246.181 134.314 335.803 104.202 352.188 77.9542C368.573 51.7068 341.713 46.4034 341.713 46.4034C341.713 46.4034 343.056 33.0999 313.957 30.6729C284.859 28.2459 248.33 46.4034 227.2 54.8529C205.891 63.2125 111.971 100.336 111.971 100.336C111.971 100.336 -81.0629 177.371 -59.0377 194.719Z" fill="url(#paint1_linear_50_2270)"/>
<path d="M-59.038 194.721C-59.8438 194.092 -60.2915 193.372 -60.5601 192.653C-53.3974 196.608 -48.2045 194.721 -48.2045 194.721C-49.637 188.159 -45.429 181.058 -45.429 181.058C-41.1314 172.878 -26.1793 173.597 -24.6573 173.687C-25.5526 173.687 -30.7455 174.046 -33.9687 186.541C-37.4605 200.204 6.85839 195.979 52.9679 181.058C99.0775 166.136 96.2124 149.777 96.2124 149.777C101.763 128.743 162.915 107.709 162.915 107.709L169.182 116.967C155.931 126.496 157.274 137.552 157.274 137.552C194.609 128.113 200.518 111.574 200.518 111.574C204.368 116.158 202.22 125.237 202.22 125.237C202.22 125.237 316.016 80.7423 336.251 72.6524C356.485 64.5624 350.755 50.45 350.755 50.45C356.575 54.6747 361.41 62.8545 352.009 77.8659C335.624 104.113 245.912 134.316 245.912 134.316C245.912 134.316 236.6 145.192 231.049 150.136C225.498 155.08 175.181 177.103 154.946 182.586C134.712 188.069 122.446 184.473 122.446 184.473C122.446 184.473 116.895 188.698 66.9351 199.125C17.0652 209.642 -54.6509 198.226 -59.038 194.721Z" fill="url(#paint2_linear_50_2270)"/>
<path d="M325.686 32.4717C342.607 36.9661 341.712 46.3145 341.712 46.3145L336.877 44.8763C336.877 36.5167 325.686 32.4717 325.686 32.4717Z" fill="url(#paint3_linear_50_2270)"/>
<path d="M253.075 57.9997L254.418 57.4604C255.224 57.1008 255.851 56.2918 255.851 55.393L255.94 51.6176C255.94 49.9997 254.329 48.8311 252.807 49.4603L251.285 50.0895C250.389 50.4491 249.852 51.2581 249.852 52.2469V55.9323C249.942 57.4604 251.643 58.6289 253.075 57.9997Z" fill="#001B4B"/>
<path d="M242.242 62.404L243.585 61.8647C244.39 61.5051 245.017 60.6961 245.017 59.7973L245.107 56.0219C245.107 54.404 243.495 53.2354 241.973 53.8646L240.451 54.4938C239.556 54.8534 239.018 55.6624 239.018 56.6512V60.3366C239.108 61.9546 240.72 63.0332 242.242 62.404Z" fill="#001B4B"/>
<path d="M231.318 66.8982L232.661 66.3588C233.467 65.9993 234.094 65.1903 234.094 64.2914L234.183 60.5161C234.183 58.8981 232.572 57.7295 231.05 58.3588L229.528 58.988C228.632 59.3475 228.095 60.1565 228.095 61.1453V64.7408C228.185 66.3588 229.796 67.4375 231.318 66.8982Z" fill="#001B4B"/>
<path d="M220.396 71.3025L221.739 70.7631C222.545 70.4036 223.171 69.5946 223.171 68.6957L223.261 64.9204C223.261 63.3024 221.649 62.1338 220.127 62.7631L218.605 63.3923C217.71 63.7518 217.173 64.5608 217.173 65.5496V69.235C217.262 70.7631 218.874 71.9317 220.396 71.3025Z" fill="#001B4B"/>
<path d="M209.473 75.7082L210.816 75.1689C211.622 74.8093 212.249 74.0003 212.249 73.1015L212.338 69.3261C212.338 67.7082 210.727 66.5396 209.205 67.1688L207.683 67.798C206.787 68.1576 206.25 68.9666 206.25 69.9554V73.6408C206.34 75.2588 208.041 76.3374 209.473 75.7082Z" fill="#001B4B"/>
<path d="M198.639 80.2024L199.982 79.663C200.787 79.3035 201.414 78.4945 201.414 77.5956L201.504 73.8203C201.504 72.2023 199.892 71.0337 198.37 71.663L196.848 72.2922C195.953 72.6517 195.415 73.4607 195.415 74.4495V78.1349C195.505 79.663 197.117 80.7417 198.639 80.2024Z" fill="#001B4B"/>
<path d="M187.716 84.6066L189.059 84.0673C189.865 83.7078 190.492 82.8988 190.492 81.9999L190.581 78.2246C190.581 76.6066 188.97 75.438 187.447 76.0673L185.925 76.6965C185.03 77.056 184.493 77.865 184.493 78.8538V82.5392C184.582 84.1572 186.194 85.2359 187.716 84.6066Z" fill="#001B4B"/>
<path d="M176.793 89.1008L178.136 88.5615C178.942 88.2019 179.569 87.3929 179.569 86.494L179.658 82.7187C179.658 81.1007 178.047 79.9322 176.525 80.5614L175.003 81.1906C174.107 81.5502 173.57 82.3592 173.57 83.3479V87.0334C173.659 88.5615 175.271 89.6401 176.793 89.1008Z" fill="#001B4B"/>
<path d="M165.959 93.5051L167.302 92.9658C168.108 92.6062 168.735 91.7972 168.735 90.8983L168.824 87.123C168.824 85.505 167.213 84.3365 165.691 84.9657L164.169 85.5949C163.273 85.9545 162.736 86.7635 162.736 87.7522V91.4377C162.826 92.9658 164.437 94.1343 165.959 93.5051Z" fill="#001B4B"/>
<path d="M155.037 97.9094L156.38 97.3701C157.185 97.0105 157.812 96.2015 157.812 95.3026L157.902 91.5273C157.902 89.9093 156.29 88.7408 154.768 89.37L153.246 89.9992C152.351 90.3588 151.813 91.1678 151.813 92.1565V95.8419C151.903 97.4599 153.515 98.5386 155.037 97.9094Z" fill="#001B4B"/>
<path d="M144.113 102.405L145.456 101.866C146.262 101.506 146.888 100.697 146.888 99.7982L146.978 96.0229C146.978 94.4049 145.366 93.2364 143.844 93.8656L142.412 94.4049C141.516 94.7645 140.979 95.5735 140.979 96.5623V100.248C140.979 101.866 142.591 102.944 144.113 102.405Z" fill="#001B4B"/>
<path d="M133.19 106.808L134.533 106.269C135.339 105.909 135.966 105.1 135.966 104.201L136.055 100.426C136.055 98.808 134.444 97.6395 132.922 98.2687L131.399 98.8979C130.504 99.2574 129.967 100.066 129.967 101.055V104.741C130.056 106.269 131.758 107.437 133.19 106.808Z" fill="#001B4B"/>
<path d="M122.357 111.214L123.7 110.675C124.505 110.315 125.132 109.506 125.132 108.607L125.222 104.832C125.222 103.214 123.61 102.045 122.088 102.674L120.566 103.304C119.671 103.663 119.133 104.472 119.133 105.461V109.146C119.223 110.764 120.835 111.843 122.357 111.214Z" fill="#001B4B"/>
<path d="M111.434 115.708L112.777 115.168C113.582 114.809 114.209 114 114.209 113.101L114.299 109.326C114.299 107.708 112.687 106.539 111.165 107.168L109.643 107.798C108.748 108.157 108.21 108.966 108.21 109.955V113.64C108.3 115.168 109.912 116.247 111.434 115.708Z" fill="#001B4B"/>
<path d="M100.51 120.112L101.853 119.573C102.659 119.213 103.286 118.404 103.286 117.506L103.376 113.73C103.376 112.112 101.764 110.944 100.242 111.573L98.7198 112.202C97.8245 112.562 97.2872 113.371 97.2872 114.359V118.045C97.3768 119.573 98.9884 120.741 100.51 120.112Z" fill="#001B4B"/>
<path d="M89.5879 124.517L90.9309 123.977C91.7367 123.618 92.3634 122.809 92.3634 121.91L92.4529 118.134C92.4529 116.516 90.8413 115.348 89.3193 115.977L87.7972 116.606C86.9019 116.966 86.3647 117.775 86.3647 118.764V122.449C86.5437 124.067 88.1553 125.146 89.5879 124.517Z" fill="#001B4B"/>
<path d="M78.7543 129.011L80.0973 128.472C80.9031 128.112 81.5298 127.303 81.5298 126.404L81.6194 122.629C81.6194 121.011 80.0078 119.842 78.4857 120.472L76.9636 121.101C76.0683 121.46 75.5311 122.269 75.5311 123.258V126.944C75.6206 128.472 77.2322 129.55 78.7543 129.011Z" fill="#001B4B"/>
<path d="M67.8311 133.416L69.1741 132.877C69.9799 132.518 70.6066 131.709 70.6066 130.81L70.6961 127.034C70.6961 125.416 69.0845 124.248 67.5625 124.877L66.0404 125.506C65.1451 125.866 64.6079 126.675 64.6079 127.664V131.349C64.6974 132.967 66.309 134.046 67.8311 133.416Z" fill="#001B4B"/>
<path d="M56.9078 137.911L58.2508 137.372C59.0566 137.012 59.6834 136.203 59.6834 135.304L59.7729 131.529C59.7729 129.911 58.1613 128.742 56.6392 129.371L55.1172 130.001C54.2218 130.36 53.6846 131.169 53.6846 132.158V135.843C53.7741 137.372 55.4753 138.45 56.9078 137.911Z" fill="#001B4B"/>
<path d="M46.0749 142.315L47.4179 141.776C48.2237 141.416 48.8505 140.607 48.8505 139.708L48.94 135.933C48.94 134.315 47.3284 133.147 45.8063 133.776L44.2843 134.405C43.3889 134.765 42.8517 135.574 42.8517 136.562V140.248C42.9413 141.776 44.5529 142.944 46.0749 142.315Z" fill="#001B4B"/>
<path d="M35.151 146.719L36.494 146.18C37.2998 145.821 37.9265 145.012 37.9265 144.113L38.016 140.337C38.016 138.719 36.4044 137.551 34.8824 138.18L33.3603 138.809C32.465 139.169 31.9278 139.978 31.9278 140.967V144.652C32.0173 146.27 33.6289 147.349 35.151 146.719Z" fill="#001B4B"/>
<path d="M24.2284 151.214L25.5714 150.674C26.3772 150.315 27.004 149.506 27.004 148.607L27.0935 144.832C27.0935 143.214 25.4819 142.045 23.9598 142.674L22.4378 143.303C21.5424 143.663 21.0052 144.472 21.0052 145.461V149.146C21.0948 150.674 22.7064 151.753 24.2284 151.214Z" fill="#001B4B"/>
<path d="M13.3055 155.619L14.6485 155.08C15.4543 154.72 16.081 153.911 16.081 153.013L16.1706 149.237C16.1706 147.619 14.559 146.451 13.0369 147.08L11.5149 147.709C10.6195 148.069 10.0823 148.878 10.0823 149.866V153.552C10.1719 155.08 11.873 156.249 13.3055 155.619Z" fill="#001B4B"/>
<path d="M302.587 41.9091C295.872 42.5383 291.932 43.7068 291.932 43.7068C295.335 38.4933 301.065 36.1562 307.332 35.2573L302.587 41.9091Z" fill="#001B4B"/>
<path d="M319.777 35.2573C329.894 36.336 338.668 39.3922 338.758 39.4821C341.981 43.0776 341.712 46.4035 341.712 46.4035C333.923 43.8866 326.581 42.6282 320.045 41.999L319.777 35.2573Z" fill="#001B4B"/>
<path d="M310.644 34.9887C312.793 34.8988 315.031 34.8988 317.27 35.0786L317.001 41.8202C312.972 41.5506 309.301 41.6405 306.078 41.7304C307.6 39.3034 309.391 36.7865 310.644 34.9887Z" fill="#001B4B"/>
<path d="M162.826 102.494C162.826 102.494 165.78 111.303 160.946 115.798C156.021 120.292 96.3921 149.686 96.3921 149.686C96.3921 149.686 35.8677 107.168 24.2284 100.966C12.5891 94.674 -92.4333 47.3028 -98.7901 43.7073C-105.147 40.0219 -163.433 6.76316 -163.791 2.53841C-164.149 -1.68634 -140.423 0.111427 -134.782 2.53841C-129.231 5.05529 131.847 100.876 162.826 102.494Z" fill="url(#paint4_linear_50_2270)"/>
<path d="M114.299 95.4837C82.7829 86.7645 -134.872 6.85379 -139.259 1.37061C-137.379 1.73016 -135.768 2.1796 -134.783 2.53915C-129.232 5.05603 131.847 100.877 162.825 102.495C162.825 102.495 165.512 110.405 161.662 115.079C157.274 112.383 141.069 102.944 114.299 95.4837Z" fill="#EAEEEF"/>
<path d="M242.421 194.72C242.421 188.967 244.749 184.023 248.241 181.057C248.42 180.967 248.599 180.787 248.688 180.697C275.548 158.675 297.931 161.641 297.931 161.641C297.931 161.641 305.989 184.832 305.004 200.383C292.38 215.574 254.329 211.079 254.329 211.079C247.614 210.36 242.421 203.349 242.421 194.72Z" fill="url(#paint5_linear_50_2270)"/>
<path d="M254.239 211.08C251.732 210.81 249.494 209.641 247.614 207.844C247.703 207.844 247.793 207.844 247.882 207.844C268.744 205.237 288.351 194.36 303.572 183.124C304.646 188.967 305.363 195.079 305.005 200.293C292.291 215.484 254.239 211.08 254.239 211.08Z" fill="#7895AD"/>
<path d="M297.932 202.45C306.783 202.45 313.958 193.314 313.958 182.045C313.958 170.776 306.783 161.641 297.932 161.641C289.081 161.641 281.906 170.776 281.906 182.045C281.906 193.314 289.081 202.45 297.932 202.45Z" fill="#2D364D"/>
<path d="M301.244 197.506C308.216 197.506 313.868 190.141 313.868 181.056C313.868 171.971 308.216 164.606 301.244 164.606C294.272 164.606 288.62 171.971 288.62 181.056C288.62 190.141 294.272 197.506 301.244 197.506Z" fill="#000A22"/>
<path d="M76.1575 109.595C76.1575 109.595 53.3265 112.382 49.2975 118.314C45.2685 124.247 41.15 129.101 43.3883 130.989C45.5371 132.786 83.2306 111.393 76.1575 109.595Z" fill="#EAEEEF"/>
<path d="M49.2974 118.225C53.3264 112.292 76.1573 109.505 76.1573 109.505C76.1573 109.505 51.1776 124.427 48.9392 124.876C48.9392 124.876 51.9834 119.303 49.2974 118.225Z" fill="#7895AD"/>
<path d="M15.8119 77.4155C15.8119 77.4155 -7.01909 80.2021 -11.0481 86.1347C-15.0771 92.0673 -19.1956 96.9213 -16.9573 98.809C-14.8085 100.607 22.885 79.3032 15.8119 77.4155Z" fill="#EAEEEF"/>
<path d="M-11.0483 86.1347C-7.01932 80.2021 15.8116 77.4155 15.8116 77.4155C15.8116 77.4155 -9.16812 92.337 -11.4065 92.7864C-11.4065 92.7864 -8.36232 87.2134 -11.0483 86.1347Z" fill="#7895AD"/>
<path d="M64.6976 111.573C64.6976 105.82 67.0254 100.877 70.5172 97.9103C70.6963 97.7305 70.8754 97.6406 70.9649 97.5508C97.8248 75.5281 120.208 78.4944 120.208 78.4944C120.208 78.4944 128.266 101.686 127.281 117.236C114.657 132.427 76.6055 127.933 76.6055 127.933C69.8905 127.214 64.6976 120.203 64.6976 111.573Z" fill="url(#paint6_linear_50_2270)"/>
<path d="M76.4262 127.933C73.9193 127.663 71.681 126.495 69.8008 124.697C69.8903 124.697 69.9798 124.697 70.0694 124.697C90.9306 122.09 110.538 111.214 125.759 99.9778C126.833 105.821 127.55 111.933 127.192 117.146C114.567 132.338 76.4262 127.933 76.4262 127.933Z" fill="#7895AD"/>
<path d="M120.119 119.303C128.97 119.303 136.145 110.168 136.145 98.8988C136.145 87.6296 128.97 78.4941 120.119 78.4941C111.268 78.4941 104.093 87.6296 104.093 98.8988C104.093 110.168 111.268 119.303 120.119 119.303Z" fill="#2D364D"/>
<path d="M123.521 114.359C130.493 114.359 136.145 106.994 136.145 97.9095C136.145 88.8247 130.493 81.46 123.521 81.46C116.549 81.46 110.897 88.8247 110.897 97.9095C110.897 106.994 116.549 114.359 123.521 114.359Z" fill="#000A22"/>
</g>
<defs>
<linearGradient id="paint0_linear_50_2270" x1="139.509" y1="130.188" x2="360.514" y2="245.827" gradientUnits="userSpaceOnUse">
<stop stop-color="#303B45"/>
<stop offset="0.1467" stop-color="#384551"/>
<stop offset="0.4113" stop-color="#4E6170"/>
<stop offset="0.7608" stop-color="#718DA3"/>
<stop offset="1" stop-color="#8CAECA"/>
</linearGradient>
<linearGradient id="paint1_linear_50_2270" x1="135.868" y1="98.3406" x2="156.951" y2="144.541" gradientUnits="userSpaceOnUse">
<stop stop-color="#EAEEEF"/>
<stop offset="0.4048" stop-color="#DEE6EB"/>
<stop offset="1" stop-color="#C5D6E3"/>
</linearGradient>
<linearGradient id="paint2_linear_50_2270" x1="148.864" y1="49.3642" x2="148.01" y2="204.196" gradientUnits="userSpaceOnUse">
<stop stop-color="#8CAECA"/>
<stop offset="0.0156188" stop-color="#86A7C2"/>
<stop offset="0.0503115" stop-color="#7E9DB6"/>
<stop offset="0.0987955" stop-color="#7997AF"/>
<stop offset="0.2296" stop-color="#7895AD"/>
<stop offset="0.6081" stop-color="#809FB9"/>
<stop offset="1" stop-color="#8CAECA"/>
</linearGradient>
<linearGradient id="paint3_linear_50_2270" x1="333.738" y1="32.559" x2="333.662" y2="46.3265" gradientUnits="userSpaceOnUse">
<stop stop-color="#8CAECA"/>
<stop offset="0.0156188" stop-color="#86A7C2"/>
<stop offset="0.0503115" stop-color="#7E9DB6"/>
<stop offset="0.0987955" stop-color="#7997AF"/>
<stop offset="0.2296" stop-color="#7895AD"/>
<stop offset="0.6081" stop-color="#809FB9"/>
<stop offset="1" stop-color="#8CAECA"/>
</linearGradient>
<linearGradient id="paint4_linear_50_2270" x1="286.058" y1="216.617" x2="-49.7101" y2="28.4929" gradientUnits="userSpaceOnUse">
<stop stop-color="#303B45"/>
<stop offset="0.1467" stop-color="#384551"/>
<stop offset="0.4113" stop-color="#4E6170"/>
<stop offset="0.7608" stop-color="#718DA3"/>
<stop offset="1" stop-color="#8CAECA"/>
</linearGradient>
<linearGradient id="paint5_linear_50_2270" x1="267.137" y1="167.887" x2="275.577" y2="198.712" gradientUnits="userSpaceOnUse">
<stop stop-color="#C5D6E3"/>
<stop offset="0.2873" stop-color="#B9CEDE"/>
<stop offset="0.8034" stop-color="#9AB8D0"/>
<stop offset="1" stop-color="#8CAECA"/>
</linearGradient>
<linearGradient id="paint6_linear_50_2270" x1="93.6163" y1="81.9583" x2="96.4311" y2="118.406" gradientUnits="userSpaceOnUse">
<stop stop-color="#C5D6E3"/>
<stop offset="1" stop-color="#8CAECA"/>
</linearGradient>
<clipPath id="clip0_50_2270">
<rect width="462" height="251" fill="white" transform="translate(-97)"/>
</clipPath>
</defs>
</svg>
