<svg width="255" height="251" viewBox="0 0 255 251" fill="none" xmlns="http://www.w3.org/2000/svg">
<g clip-path="url(#clip0_50_1473)">
<path d="M460.022 239.843C436.743 222.405 338.257 148.427 324.111 134.314L243.978 176.202C243.978 176.202 302.891 188.877 341.211 205.776C374.07 220.158 433.789 243.888 450.442 250.45C453.128 251.529 456.261 250.99 458.41 249.102L460.201 247.574C462.708 245.506 462.529 241.731 460.022 239.843Z" fill="url(#paint0_linear_50_1473)"/>
<path d="M153.729 218.45L126.242 196.607L82.4605 199.214L141.284 222.944C142.179 223.304 143.074 223.484 143.97 223.484C146.119 223.484 150.237 223.304 153.102 222.315C154.803 221.776 155.161 219.528 153.729 218.45Z" fill="#EAEEEF"/>
<path d="M141.284 222.944L82.4605 199.214L124.452 196.697L151.759 218.45C153.102 219.529 152.744 221.776 151.132 222.315C148.805 223.124 145.671 223.394 143.433 223.394C142.627 223.394 141.911 223.214 141.284 222.944Z" fill="#7895AD"/>
<path d="M124.093 144.203L94.9951 64.3821L75.2978 73.1911L68.941 177.911L124.093 144.203Z" fill="#7895AD"/>
<path d="M37.9623 194.719C42.3494 198.135 114.065 209.641 164.025 199.124C213.984 188.607 219.536 184.472 219.536 184.472C219.536 184.472 231.712 188.067 252.036 182.584C272.271 177.101 322.588 155.078 328.139 150.135C333.69 145.191 343.181 134.314 343.181 134.314C343.181 134.314 432.803 104.202 449.188 77.9542C465.573 51.7068 438.713 46.4034 438.713 46.4034C438.713 46.4034 440.056 33.0999 410.957 30.6729C381.859 28.2459 345.33 46.4034 324.2 54.8529C302.891 63.2125 208.971 100.336 208.971 100.336C208.971 100.336 15.9372 177.371 37.9623 194.719Z" fill="url(#paint1_linear_50_1473)"/>
<path d="M37.962 194.721C37.1562 194.092 36.7085 193.372 36.4399 192.653C43.6026 196.608 48.7955 194.721 48.7955 194.721C47.363 188.159 51.571 181.058 51.571 181.058C55.8686 172.878 70.8207 173.597 72.3427 173.687C71.4474 173.687 66.2545 174.046 63.0313 186.541C59.5395 200.204 103.858 195.979 149.968 181.058C196.077 166.136 193.212 149.777 193.212 149.777C198.763 128.743 259.915 107.709 259.915 107.709L266.182 116.967C252.931 126.496 254.274 137.552 254.274 137.552C291.609 128.113 297.518 111.574 297.518 111.574C301.368 116.158 299.22 125.237 299.22 125.237C299.22 125.237 413.016 80.7423 433.251 72.6524C453.485 64.5624 447.755 50.45 447.755 50.45C453.575 54.6747 458.41 62.8545 449.009 77.8659C432.624 104.113 342.912 134.316 342.912 134.316C342.912 134.316 333.6 145.192 328.049 150.136C322.498 155.08 272.181 177.103 251.946 182.586C231.712 188.069 219.446 184.473 219.446 184.473C219.446 184.473 213.895 188.698 163.935 199.125C114.065 209.642 42.3491 198.226 37.962 194.721Z" fill="url(#paint2_linear_50_1473)"/>
<path d="M252.037 97.9094L253.38 97.3701C254.185 97.0105 254.812 96.2015 254.812 95.3026L254.902 91.5273C254.902 89.9093 253.29 88.7408 251.768 89.37L250.246 89.9992C249.351 90.3588 248.813 91.1678 248.813 92.1565V95.8419C248.903 97.4599 250.515 98.5386 252.037 97.9094Z" fill="#001B4B"/>
<path d="M241.113 102.405L242.456 101.866C243.262 101.506 243.888 100.697 243.888 99.7982L243.978 96.0229C243.978 94.4049 242.366 93.2364 240.844 93.8656L239.412 94.4049C238.516 94.7645 237.979 95.5735 237.979 96.5623V100.248C237.979 101.866 239.591 102.944 241.113 102.405Z" fill="#001B4B"/>
<path d="M230.19 106.808L231.533 106.269C232.339 105.909 232.966 105.1 232.966 104.201L233.055 100.426C233.055 98.808 231.444 97.6395 229.922 98.2687L228.4 98.8979C227.504 99.2574 226.967 100.066 226.967 101.055V104.741C227.057 106.269 228.758 107.437 230.19 106.808Z" fill="#001B4B"/>
<path d="M219.357 111.214L220.7 110.675C221.505 110.315 222.132 109.506 222.132 108.607L222.222 104.832C222.222 103.214 220.61 102.045 219.088 102.674L217.566 103.304C216.671 103.663 216.133 104.472 216.133 105.461V109.146C216.223 110.764 217.835 111.843 219.357 111.214Z" fill="#001B4B"/>
<path d="M208.434 115.708L209.777 115.168C210.582 114.809 211.209 114 211.209 113.101L211.299 109.326C211.299 107.708 209.687 106.539 208.165 107.168L206.643 107.798C205.748 108.157 205.211 108.966 205.211 109.955V113.64C205.3 115.168 206.912 116.247 208.434 115.708Z" fill="#001B4B"/>
<path d="M197.51 120.112L198.853 119.573C199.659 119.213 200.286 118.404 200.286 117.506L200.375 113.73C200.375 112.112 198.764 110.944 197.242 111.573L195.72 112.202C194.824 112.562 194.287 113.371 194.287 114.359V118.045C194.377 119.573 195.988 120.741 197.51 120.112Z" fill="#001B4B"/>
<path d="M186.588 124.517L187.931 123.977C188.737 123.618 189.363 122.809 189.363 121.91L189.453 118.134C189.453 116.516 187.841 115.348 186.319 115.977L184.797 116.606C183.902 116.966 183.365 117.775 183.365 118.764V122.449C183.544 124.067 185.155 125.146 186.588 124.517Z" fill="#001B4B"/>
<path d="M175.754 129.011L177.097 128.472C177.903 128.112 178.53 127.303 178.53 126.404L178.619 122.629C178.619 121.011 177.008 119.842 175.486 120.472L173.964 121.101C173.068 121.46 172.531 122.269 172.531 123.258V126.944C172.621 128.472 174.232 129.55 175.754 129.011Z" fill="#001B4B"/>
<path d="M164.831 133.416L166.174 132.877C166.98 132.518 167.607 131.709 167.607 130.81L167.696 127.034C167.696 125.416 166.085 124.248 164.563 124.877L163.04 125.506C162.145 125.866 161.608 126.675 161.608 127.664V131.349C161.697 132.967 163.309 134.046 164.831 133.416Z" fill="#001B4B"/>
<path d="M153.908 137.911L155.251 137.372C156.057 137.012 156.683 136.203 156.683 135.304L156.773 131.529C156.773 129.911 155.161 128.742 153.639 129.371L152.117 130.001C151.222 130.36 150.685 131.169 150.685 132.158V135.843C150.774 137.372 152.475 138.45 153.908 137.911Z" fill="#001B4B"/>
<path d="M143.075 142.315L144.418 141.776C145.224 141.416 145.85 140.607 145.85 139.708L145.94 135.933C145.94 134.315 144.328 133.147 142.806 133.776L141.284 134.405C140.389 134.765 139.852 135.574 139.852 136.562V140.248C139.941 141.776 141.553 142.944 143.075 142.315Z" fill="#001B4B"/>
<path d="M132.151 146.719L133.494 146.18C134.3 145.821 134.927 145.012 134.927 144.113L135.016 140.337C135.016 138.719 133.404 137.551 131.882 138.18L130.36 138.809C129.465 139.169 128.928 139.978 128.928 140.967V144.652C129.017 146.27 130.629 147.349 132.151 146.719Z" fill="#001B4B"/>
<path d="M121.228 151.214L122.571 150.674C123.377 150.315 124.004 149.506 124.004 148.607L124.093 144.832C124.093 143.214 122.482 142.045 120.96 142.674L119.438 143.303C118.542 143.663 118.005 144.472 118.005 145.461V149.146C118.095 150.674 119.706 151.753 121.228 151.214Z" fill="#001B4B"/>
<path d="M110.306 155.619L111.649 155.08C112.454 154.72 113.081 153.911 113.081 153.013L113.171 149.237C113.171 147.619 111.559 146.451 110.037 147.08L108.515 147.709C107.62 148.069 107.082 148.878 107.082 149.866V153.552C107.172 155.08 108.873 156.249 110.306 155.619Z" fill="#001B4B"/>
<path d="M259.826 102.494C259.826 102.494 262.78 111.303 257.946 115.798C253.021 120.292 193.392 149.686 193.392 149.686C193.392 149.686 132.868 107.168 121.228 100.966C109.589 94.674 4.56675 47.3028 -1.7901 43.7073C-8.14696 40.0219 -66.433 6.76316 -66.7912 2.53841C-67.1493 -1.68634 -43.423 0.111427 -37.7824 2.53841C-32.2314 5.05529 228.847 100.876 259.826 102.494Z" fill="url(#paint3_linear_50_1473)"/>
<path d="M211.299 95.4837C179.783 86.7645 -37.8722 6.85379 -42.2593 1.37061C-40.3791 1.73016 -38.7675 2.1796 -37.7826 2.53915C-32.2316 5.05603 228.847 100.877 259.826 102.495C259.826 102.495 262.512 110.405 258.662 115.079C254.275 112.383 238.069 102.944 211.299 95.4837Z" fill="#EAEEEF"/>
<path d="M-42.2593 138.001C-42.2593 138.001 -26.4119 134.046 -21.3981 135.304C-16.3842 136.563 75.6559 169.282 75.6559 169.282C75.6559 169.282 75.2082 175.844 47.0053 180.698L-42.2593 138.001Z" fill="#EAEEEF"/>
<path d="M74.7609 170.899C72.7912 173.146 66.6134 177.371 47.0056 180.697L-40.2892 138.899C-35.4544 137.82 -25.9639 135.932 -22.293 136.831C-17.1896 138.18 74.4923 170.809 74.7609 170.899Z" fill="#7895AD"/>
<path d="M173.157 109.595C173.157 109.595 150.327 112.382 146.298 118.314C142.269 124.247 138.15 129.101 140.388 130.989C142.537 132.786 180.231 111.393 173.157 109.595Z" fill="#EAEEEF"/>
<path d="M146.297 118.225C150.326 112.292 173.157 109.505 173.157 109.505C173.157 109.505 148.178 124.427 145.939 124.876C145.939 124.876 148.983 119.303 146.297 118.225Z" fill="#7895AD"/>
<path d="M112.812 77.4155C112.812 77.4155 89.9809 80.2021 85.9519 86.1347C81.9229 92.0673 77.8044 96.9213 80.0427 98.809C82.1915 100.607 119.885 79.3032 112.812 77.4155Z" fill="#EAEEEF"/>
<path d="M85.9516 86.1347C89.9806 80.2021 112.812 77.4155 112.812 77.4155C112.812 77.4155 87.8318 92.337 85.5935 92.7864C85.5935 92.7864 88.6376 87.2134 85.9516 86.1347Z" fill="#7895AD"/>
<path d="M46.1105 46.4038C46.1105 46.4038 23.2795 49.1903 19.2505 55.123C15.2216 61.0556 11.103 65.9096 13.3414 67.7972C15.5797 69.595 53.1836 48.2016 46.1105 46.4038Z" fill="#EAEEEF"/>
<path d="M19.2504 55.0331C23.2794 49.1005 46.1103 46.314 46.1103 46.314C46.1103 46.314 21.2201 61.3253 18.9818 61.6849C18.9818 61.6849 22.0259 56.1118 19.2504 55.0331Z" fill="#7895AD"/>
<path d="M161.698 111.573C161.698 105.82 164.025 100.877 167.517 97.9103C167.696 97.7305 167.875 97.6406 167.965 97.5508C194.825 75.5281 217.208 78.4944 217.208 78.4944C217.208 78.4944 225.266 101.686 224.281 117.236C211.657 132.427 173.605 127.933 173.605 127.933C166.89 127.214 161.698 120.203 161.698 111.573Z" fill="url(#paint4_linear_50_1473)"/>
<path d="M173.426 127.933C170.919 127.663 168.681 126.495 166.801 124.697C166.89 124.697 166.98 124.697 167.069 124.697C187.931 122.09 207.538 111.214 222.759 99.9778C223.833 105.821 224.55 111.933 224.192 117.146C211.567 132.338 173.426 127.933 173.426 127.933Z" fill="#7895AD"/>
<path d="M217.119 119.303C225.97 119.303 233.145 110.168 233.145 98.8988C233.145 87.6296 225.97 78.4941 217.119 78.4941C208.268 78.4941 201.093 87.6296 201.093 98.8988C201.093 110.168 208.268 119.303 217.119 119.303Z" fill="#2D364D"/>
<path d="M220.521 114.359C227.493 114.359 233.145 106.994 233.145 97.9095C233.145 88.8247 227.493 81.46 220.521 81.46C213.549 81.46 207.897 88.8247 207.897 97.9095C207.897 106.994 213.549 114.359 220.521 114.359Z" fill="#000A22"/>
</g>
<defs>
<linearGradient id="paint0_linear_50_1473" x1="236.509" y1="130.188" x2="457.514" y2="245.827" gradientUnits="userSpaceOnUse">
<stop stop-color="#303B45"/>
<stop offset="0.1467" stop-color="#384551"/>
<stop offset="0.4113" stop-color="#4E6170"/>
<stop offset="0.7608" stop-color="#718DA3"/>
<stop offset="1" stop-color="#8CAECA"/>
</linearGradient>
<linearGradient id="paint1_linear_50_1473" x1="232.868" y1="98.3406" x2="253.951" y2="144.541" gradientUnits="userSpaceOnUse">
<stop stop-color="#EAEEEF"/>
<stop offset="0.4048" stop-color="#DEE6EB"/>
<stop offset="1" stop-color="#C5D6E3"/>
</linearGradient>
<linearGradient id="paint2_linear_50_1473" x1="245.864" y1="49.3642" x2="245.01" y2="204.196" gradientUnits="userSpaceOnUse">
<stop stop-color="#8CAECA"/>
<stop offset="0.0156188" stop-color="#86A7C2"/>
<stop offset="0.0503115" stop-color="#7E9DB6"/>
<stop offset="0.0987955" stop-color="#7997AF"/>
<stop offset="0.2296" stop-color="#7895AD"/>
<stop offset="0.6081" stop-color="#809FB9"/>
<stop offset="1" stop-color="#8CAECA"/>
</linearGradient>
<linearGradient id="paint3_linear_50_1473" x1="383.058" y1="216.617" x2="47.2899" y2="28.4929" gradientUnits="userSpaceOnUse">
<stop stop-color="#303B45"/>
<stop offset="0.1467" stop-color="#384551"/>
<stop offset="0.4113" stop-color="#4E6170"/>
<stop offset="0.7608" stop-color="#718DA3"/>
<stop offset="1" stop-color="#8CAECA"/>
</linearGradient>
<linearGradient id="paint4_linear_50_1473" x1="190.616" y1="81.9583" x2="193.431" y2="118.406" gradientUnits="userSpaceOnUse">
<stop stop-color="#C5D6E3"/>
<stop offset="1" stop-color="#8CAECA"/>
</linearGradient>
<clipPath id="clip0_50_1473">
<rect width="462" height="251" fill="white"/>
</clipPath>
</defs>
</svg>
