<svg width="20" height="20" viewBox="0 0 20 20" fill="none" xmlns="http://www.w3.org/2000/svg">
<path d="M12.0052 1.50806H9.97626L9.16669 7.84919L9.97626 13.2398H12.0052V1.50806Z" fill="#D2D2D7"/>
<path d="M0 1.50806V13.2398H2.33074V15.5752L6.66598 13.2398H9.97625V1.50806H0Z" fill="#E1E1E6"/>
<path d="M3.52216 5.6748H6.25001V6.84668H3.52216V5.6748ZM3.52216 8.1748H8.48309V9.34668H3.52216V8.1748Z" fill="#FFFBF5"/>
<path d="M7.99481 4.4248V16.1566H9.97626L10.4167 10.6358L9.97626 4.4248H7.99481Z" fill="#04DB7B"/>
<path d="M9.97626 4.4248V16.1566H13.334L17.6693 18.492V16.1566H20V4.4248H9.97626Z" fill="#0DCA71"/>
<path d="M13.4114 9.28613H14.5833V12.9272H13.4114V9.28613Z" fill="#F7F0EB"/>
<path d="M13.9974 8.43506C14.321 8.43506 14.5833 8.17273 14.5833 7.84912C14.5833 7.52552 14.321 7.26318 13.9974 7.26318C13.6738 7.26318 13.4114 7.52552 13.4114 7.84912C13.4114 8.17273 13.6738 8.43506 13.9974 8.43506Z" fill="#F7F0EB"/>
</svg>
