<svg width="20" height="20" viewBox="0 0 20 20" fill="none" xmlns="http://www.w3.org/2000/svg">
<path d="M13.3047 15.2734H5.27344C2.36723 15.2734 0 12.9062 0 10C0 7.07527 2.38121 4.72656 5.27344 4.72656H6.69531L12.3438 5.3125L13.3047 15.2734Z" fill="#F3F5F9"/>
<path d="M9.98828 5.06812V15.2734H13.3047L12.3438 5.31245L9.98828 5.06812Z" fill="#D8E0F0"/>
<path d="M14.7266 4.72656H6.69531C8.6523 5.67578 10 7.67965 10 10C10 12.3203 11.3477 14.3242 13.3047 15.2734H14.7266C17.6163 15.2734 20 12.9269 20 10C20 7.09371 17.6328 4.72656 14.7266 4.72656Z" fill="#7ADFE3"/>
<path d="M10 10C10 12.3203 11.3477 14.3242 13.3047 15.2734H14.7266C17.6163 15.2734 20 12.9269 20 10C20 7.09371 17.6328 4.72656 14.7266 4.72656H9.98828V9.8377C9.98977 9.89242 10 9.94484 10 10Z" fill="#68C9E0"/>
<path d="M5.27344 7.36328C4.30414 7.36328 3.51562 8.1518 3.51562 9.12109V12.0508H4.6875V10.8789H5.85938V12.0508H7.03125V9.12109C7.03125 8.1518 6.24273 7.36328 5.27344 7.36328ZM4.6875 9.70703V9.12109C4.6875 8.79781 4.9507 8.53516 5.27344 8.53516C5.59617 8.53516 5.85938 8.79781 5.85938 9.12109V9.70703H4.6875Z" fill="#4D5E80"/>
<path d="M16.4453 10V8.82812H15.2734V7.65625H14.1016V8.82812H12.9297V10H14.1016V10.5859C14.1016 10.9092 13.8384 11.1719 13.5156 11.1719H12.9297V12.3438H13.5156C13.9675 12.3438 14.3758 12.1677 14.6875 11.8866C14.9992 12.1677 15.4075 12.3438 15.8594 12.3438H16.4453V11.1719H15.8594C15.5366 11.1719 15.2734 10.9092 15.2734 10.5859V10H16.4453Z" fill="#D8E0F0"/>
</svg>
