<svg width="26" height="26" viewBox="0 0 26 26" fill="none" xmlns="http://www.w3.org/2000/svg">
<path d="M8.02539 3.97144H10.2332V4.81362H8.02539V3.97144ZM15.3848 3.97144H17.5922V4.81362H15.3848V3.97144Z" fill="#026ED2"/>
<path d="M21.0883 23.1833H4.5293C3.97003 23.1735 3.43745 22.9424 3.04828 22.5406C2.6591 22.1389 2.44508 21.5992 2.45313 21.0399V6.11489C2.44519 5.55567 2.65925 5.01609 3.04842 4.61441C3.43758 4.21273 3.9701 3.98169 4.5293 3.97192H6.55469V4.8145H4.5293C4.19332 4.82391 3.87477 4.96609 3.6434 5.2099C3.41204 5.45371 3.28673 5.77927 3.29493 6.11528V21.0399C3.28673 21.3759 3.41204 21.7015 3.6434 21.9453C3.87477 22.1891 4.19332 22.3313 4.5293 22.3407H21.0883C21.4243 22.3313 21.7429 22.1891 21.9743 21.9453C22.2057 21.7015 22.3311 21.3759 22.3231 21.0399V6.11489C22.3311 5.77884 22.2057 5.45328 21.9743 5.20948C21.7429 4.96569 21.4243 4.82352 21.0883 4.81411H19.0645V3.97192H21.0883C21.6477 3.98148 22.1805 4.21248 22.5698 4.61428C22.9592 5.01607 23.1733 5.55586 23.1652 6.11528V21.0399C23.1733 21.5993 22.9592 22.1391 22.5698 22.5409C22.1805 22.9427 21.6477 23.1737 21.0883 23.1833Z" fill="#026ED2"/>
<path d="M11.7051 3.97153H13.9129V4.81372H11.7051V3.97153ZM2.87384 8.1813H22.7442V9.02349H2.87384V8.1813ZM8.0254 7.1102H6.5547C6.49937 7.1102 6.44458 7.0993 6.39346 7.07811C6.34235 7.05693 6.29591 7.02588 6.2568 6.98673C6.2177 6.94759 6.18669 6.90112 6.16555 6.84999C6.14441 6.79885 6.13355 6.74405 6.13361 6.68872V2.47935C6.13355 2.42401 6.14441 2.36921 6.16555 2.31808C6.18669 2.26695 6.2177 2.22048 6.2568 2.18133C6.29591 2.14219 6.34235 2.11114 6.39346 2.08995C6.44458 2.06877 6.49937 2.05786 6.5547 2.05786H8.02657C8.08187 2.05786 8.13663 2.06875 8.18772 2.08992C8.23881 2.11108 8.28523 2.14209 8.32433 2.1812C8.36344 2.2203 8.39445 2.26672 8.41561 2.31781C8.43678 2.3689 8.44767 2.42366 8.44767 2.47896V6.68872C8.44767 6.74414 8.43674 6.79901 8.41551 6.8502C8.39428 6.90138 8.36316 6.94788 8.32394 6.98703C8.28472 7.02618 8.23816 7.05721 8.18694 7.07835C8.13571 7.09948 8.08082 7.11031 8.0254 7.1102ZM6.97462 6.26763H7.60431V2.90044H6.97462V6.26763Z" fill="#026ED2"/>
<path d="M11.7051 7.11021H10.2332C10.1779 7.11021 10.1231 7.0993 10.072 7.07811C10.0208 7.05693 9.97441 7.02588 9.9353 6.98673C9.89619 6.94759 9.86518 6.90112 9.84405 6.84999C9.82291 6.79885 9.81205 6.74405 9.8121 6.68872V2.47935C9.81205 2.42401 9.82291 2.36921 9.84405 2.31808C9.86518 2.26695 9.89619 2.22048 9.9353 2.18133C9.97441 2.14219 10.0208 2.11114 10.072 2.08995C10.1231 2.06877 10.1779 2.05786 10.2332 2.05786H11.7051C11.7604 2.05786 11.8151 2.06875 11.8662 2.08992C11.9173 2.11108 11.9637 2.14209 12.0028 2.1812C12.0419 2.2203 12.073 2.26672 12.0941 2.31781C12.1153 2.3689 12.1262 2.42366 12.1262 2.47896V6.68872C12.1262 6.80044 12.0818 6.90758 12.0029 6.98662C11.9239 7.06565 11.8168 7.1101 11.7051 7.11021ZM10.6562 6.26763H11.2855V2.90044H10.6562V6.26763ZM15.3828 7.11021H13.9129C13.8576 7.11021 13.8028 7.0993 13.7516 7.07811C13.7005 7.05693 13.6541 7.02588 13.615 6.98673C13.5759 6.94759 13.5449 6.90112 13.5237 6.84999C13.5026 6.79885 13.4917 6.74405 13.4918 6.68872V2.47935C13.4917 2.42401 13.5026 2.36921 13.5237 2.31808C13.5449 2.26695 13.5759 2.22048 13.615 2.18133C13.6541 2.14219 13.7005 2.11114 13.7516 2.08995C13.8028 2.06877 13.8576 2.05786 13.9129 2.05786H15.3828C15.4945 2.05786 15.6017 2.10221 15.6807 2.18117C15.7597 2.26013 15.8042 2.36724 15.8043 2.47896V6.68872C15.8043 6.74407 15.7934 6.79888 15.7722 6.85002C15.751 6.90115 15.72 6.94762 15.6808 6.98675C15.6417 7.02589 15.5952 7.05694 15.5441 7.07812C15.493 7.0993 15.4382 7.11021 15.3828 7.11021ZM14.332 6.26763H14.9617V2.90044H14.334L14.332 6.26763ZM19.0644 7.11021H17.5926C17.5372 7.11021 17.4825 7.0993 17.4313 7.07811C17.3802 7.05693 17.3338 7.02588 17.2947 6.98673C17.2556 6.94759 17.2246 6.90112 17.2034 6.84999C17.1823 6.79885 17.1714 6.74405 17.1715 6.68872V2.47935C17.1714 2.42401 17.1823 2.36921 17.2034 2.31808C17.2246 2.26695 17.2556 2.22048 17.2947 2.18133C17.3338 2.14219 17.3802 2.11114 17.4313 2.08995C17.4825 2.06877 17.5372 2.05786 17.5926 2.05786H19.0644C19.176 2.05827 19.2828 2.10286 19.3615 2.18186C19.4402 2.26086 19.4844 2.36783 19.4844 2.47935V6.68872C19.4844 6.80023 19.4402 6.90721 19.3615 6.9862C19.2828 7.0652 19.176 7.10979 19.0644 7.11021ZM18.0137 6.26763H18.6434V2.90044H18.0137V6.26763ZM7.28945 12.8504H4.71367C4.60198 12.8504 4.49488 12.8061 4.41591 12.7271C4.33694 12.6481 4.29257 12.541 4.29257 12.4293V10.1333C4.29309 10.0219 4.33768 9.9153 4.4166 9.83676C4.49551 9.75821 4.60232 9.71411 4.71367 9.71411H7.28945C7.40113 9.71411 7.50823 9.75848 7.58721 9.83745C7.66618 9.91642 7.71054 10.0235 7.71054 10.1352V12.4313C7.71002 12.5426 7.66543 12.6492 7.58652 12.7278C7.5076 12.8063 7.40079 12.8504 7.28945 12.8504ZM5.13476 12.0083H6.86718V10.5543H5.13476V12.0083ZM7.28945 16.6774H4.71367C4.60198 16.6774 4.49488 16.633 4.41591 16.5541C4.33694 16.4751 4.29257 16.368 4.29257 16.2563V13.9602C4.29257 13.8485 4.33694 13.7414 4.41591 13.6624C4.49488 13.5835 4.60198 13.5391 4.71367 13.5391H7.28945C7.40113 13.5391 7.50823 13.5835 7.58721 13.6624C7.66618 13.7414 7.71054 13.8485 7.71054 13.9602V16.2563C7.71054 16.368 7.66618 16.4751 7.58721 16.5541C7.50823 16.633 7.40113 16.6774 7.28945 16.6774ZM5.13476 15.8352H6.86718V14.3813H5.13476V15.8352ZM7.28945 20.5043H4.71367C4.60198 20.5043 4.49488 20.46 4.41591 20.381C4.33694 20.302 4.29257 20.1949 4.29257 20.0833V17.7872C4.29252 17.7318 4.30337 17.677 4.32451 17.6259C4.34565 17.5748 4.37666 17.5283 4.41577 17.4891C4.45488 17.45 4.50132 17.419 4.55243 17.3978C4.60355 17.3766 4.65833 17.3657 4.71367 17.3657H7.28945C7.34478 17.3657 7.39957 17.3766 7.45068 17.3978C7.5018 17.419 7.54824 17.45 7.58734 17.4891C7.62645 17.5283 7.65746 17.5748 7.6786 17.6259C7.69974 17.677 7.71059 17.7318 7.71054 17.7872V20.0833C7.71054 20.1949 7.66618 20.302 7.58721 20.381C7.50823 20.46 7.40113 20.5043 7.28945 20.5043ZM5.13476 19.6618H6.86718V18.2083H5.13476V19.6618ZM11.7051 12.8504H9.12929C9.01761 12.8504 8.9105 12.8061 8.83153 12.7271C8.75256 12.6481 8.7082 12.541 8.7082 12.4293V10.1333C8.70871 10.0219 8.75331 9.9153 8.83222 9.83676C8.91114 9.75821 9.01795 9.71411 9.12929 9.71411H11.7051C11.8168 9.71411 11.9239 9.75848 12.0028 9.83745C12.0818 9.91642 12.1262 10.0235 12.1262 10.1352V12.4313C12.1256 12.5426 12.0811 12.6492 12.0021 12.7278C11.9232 12.8063 11.8164 12.8504 11.7051 12.8504ZM9.55038 12.0083H11.2836V10.5543H9.55038V12.0083ZM11.7051 16.6774H9.12929C9.01761 16.6774 8.9105 16.633 8.83153 16.5541C8.75256 16.4751 8.7082 16.368 8.7082 16.2563V13.9602C8.7082 13.8485 8.75256 13.7414 8.83153 13.6624C8.9105 13.5835 9.01761 13.5391 9.12929 13.5391H11.7051C11.8168 13.5391 11.9239 13.5835 12.0028 13.6624C12.0818 13.7414 12.1262 13.8485 12.1262 13.9602V16.2563C12.1262 16.368 12.0818 16.4751 12.0028 16.5541C11.9239 16.633 11.8168 16.6774 11.7051 16.6774ZM9.55038 15.8352H11.2836V14.3813H9.55038V15.8352ZM11.7051 20.5043H9.12929C9.01761 20.5043 8.9105 20.46 8.83153 20.381C8.75256 20.302 8.7082 20.1949 8.7082 20.0833V17.7872C8.70815 17.7318 8.719 17.677 8.74014 17.6259C8.76128 17.5748 8.79229 17.5283 8.83139 17.4891C8.8705 17.45 8.91694 17.419 8.96805 17.3978C9.01917 17.3766 9.07396 17.3657 9.12929 17.3657H11.7051C11.8168 17.3658 11.9239 17.4102 12.0029 17.4893C12.0818 17.5683 12.1262 17.6754 12.1262 17.7872V20.0833C12.1262 20.1949 12.0818 20.302 12.0028 20.381C11.9239 20.46 11.8168 20.5043 11.7051 20.5043ZM9.55038 19.6618H11.2836V18.2083H9.55038V19.6618ZM16.1207 12.8504H13.5469C13.4352 12.8504 13.328 12.8061 13.249 12.7271C13.1699 12.6482 13.1255 12.5411 13.1254 12.4293V10.1333C13.126 10.0219 13.1707 9.91527 13.2497 9.83673C13.3286 9.75819 13.4355 9.71411 13.5469 9.71411H16.1223C16.2339 9.71411 16.341 9.75848 16.42 9.83745C16.499 9.91642 16.5434 10.0235 16.5434 10.1352V12.4313C16.5428 12.5429 16.498 12.6498 16.4188 12.7283C16.3395 12.8069 16.2323 12.8509 16.1207 12.8504ZM13.9664 12.0083H15.6996V10.5543H13.9664V12.0083ZM16.1207 16.6774H13.5469C13.4352 16.6774 13.328 16.633 13.249 16.5541C13.1699 16.4751 13.1255 16.368 13.1254 16.2563V13.9602C13.1255 13.8485 13.1699 13.7414 13.249 13.6624C13.328 13.5835 13.4352 13.5391 13.5469 13.5391H16.1223C16.2339 13.5391 16.341 13.5835 16.42 13.6624C16.499 13.7414 16.5434 13.8485 16.5434 13.9602V16.2563C16.5434 16.3117 16.5324 16.3666 16.5112 16.4178C16.4899 16.469 16.4587 16.5155 16.4195 16.5546C16.3802 16.5937 16.3336 16.6247 16.2823 16.6458C16.2311 16.6669 16.1761 16.6776 16.1207 16.6774ZM13.9664 15.8352H15.6996V14.3813H13.9664V15.8352ZM16.1207 20.5043H13.5469C13.4352 20.5043 13.328 20.46 13.249 20.381C13.1699 20.3021 13.1255 20.195 13.1254 20.0833V17.7872C13.1254 17.6754 13.1698 17.5682 13.2488 17.4891C13.3279 17.4101 13.4351 17.3657 13.5469 17.3657H16.1223C16.1776 17.3657 16.2324 17.3766 16.2835 17.3978C16.3346 17.419 16.381 17.45 16.4202 17.4891C16.4593 17.5283 16.4903 17.5748 16.5114 17.6259C16.5326 17.677 16.5434 17.7318 16.5434 17.7872V20.0833C16.5434 20.1387 16.5324 20.1936 16.5112 20.2448C16.4899 20.296 16.4587 20.3424 16.4195 20.3816C16.3802 20.4207 16.3336 20.4517 16.2823 20.4727C16.2311 20.4938 16.1761 20.5046 16.1207 20.5043ZM13.9664 19.6618H15.6996V18.2083H13.9664V19.6618ZM20.5363 12.8504H17.9609C17.8493 12.8504 17.7421 12.8061 17.6632 12.7271C17.5842 12.6481 17.5398 12.541 17.5398 12.4293V10.1333C17.5404 10.0219 17.5849 9.9153 17.6639 9.83676C17.7428 9.75821 17.8496 9.71411 17.9609 9.71411H20.5367C20.6484 9.71411 20.7555 9.75848 20.8345 9.83745C20.9134 9.91642 20.9578 10.0235 20.9578 10.1352V12.4313C20.9573 12.5427 20.9126 12.6494 20.8336 12.7279C20.7546 12.8065 20.6477 12.8505 20.5363 12.8504ZM18.3816 12.0083H20.1152V10.5543H18.3816V12.0083ZM20.5363 16.6774H17.9609C17.8493 16.6774 17.7421 16.633 17.6632 16.5541C17.5842 16.4751 17.5398 16.368 17.5398 16.2563V13.9602C17.5398 13.8485 17.5842 13.7414 17.6632 13.6624C17.7421 13.5835 17.8493 13.5391 17.9609 13.5391H20.5367C20.6484 13.5391 20.7555 13.5835 20.8345 13.6624C20.9134 13.7414 20.9578 13.8485 20.9578 13.9602V16.2563C20.9578 16.3116 20.9469 16.3664 20.9257 16.4175C20.9045 16.4686 20.8735 16.5151 20.8343 16.5542C20.7952 16.5933 20.7487 16.6243 20.6976 16.6455C20.6465 16.6666 20.5917 16.6774 20.5363 16.6774ZM18.3816 15.8352H20.1152V14.3813H18.3816V15.8352ZM20.5363 20.5043H17.9609C17.8493 20.5043 17.7421 20.46 17.6632 20.381C17.5842 20.302 17.5398 20.1949 17.5398 20.0833V17.7872C17.5398 17.6754 17.5842 17.5683 17.6631 17.4893C17.7421 17.4102 17.8492 17.3658 17.9609 17.3657H20.5367C20.592 17.3657 20.6468 17.3766 20.6979 17.3978C20.7491 17.419 20.7955 17.45 20.8346 17.4891C20.8737 17.5283 20.9047 17.5748 20.9259 17.6259C20.947 17.677 20.9579 17.7318 20.9578 17.7872V20.0833C20.9578 20.1386 20.9469 20.1934 20.9257 20.2445C20.9045 20.2956 20.8735 20.342 20.8343 20.3811C20.7952 20.4203 20.7487 20.4513 20.6976 20.4724C20.6465 20.4935 20.5917 20.5044 20.5363 20.5043ZM18.3816 19.6618H20.1152V18.2083H18.3816V19.6618Z" fill="#026ED2"/>
</svg>
