<svg width="30" height="30" viewBox="0 0 30 30" fill="none" xmlns="http://www.w3.org/2000/svg">
<g clip-path="url(#clip0_145_4325)">
<path d="M16.3277 10.8691C15.9397 10.8691 15.6252 11.1837 15.6252 11.5717V24.8504C15.6252 25.2382 15.9397 25.5529 16.3277 25.5529C16.7158 25.5529 17.0303 25.2382 17.0303 24.8504V11.5717C17.0303 11.1837 16.7158 10.8691 16.3277 10.8691ZM8.03737 10.8691C7.64934 10.8691 7.33479 11.1837 7.33479 11.5717V24.8504C7.33479 25.2382 7.64934 25.5529 8.03737 25.5529C8.42547 25.5529 8.73994 25.2382 8.73994 24.8504V11.5717C8.73994 11.1837 8.42547 10.8691 8.03737 10.8691Z" fill="black"/>
<path d="M1.99523 8.93129V26.2412C1.99523 27.2644 2.3704 28.2252 3.02576 28.9145C3.34847 29.2566 3.7375 29.5292 4.16911 29.7158C4.60071 29.9025 5.06583 29.9992 5.53606 30H18.8291C19.2993 29.9992 19.7644 29.9026 20.196 29.7159C20.6277 29.5293 21.0167 29.2566 21.3394 28.9145C21.9948 28.2252 22.3699 27.2644 22.3699 26.2412V8.93129C23.6727 8.58548 24.5169 7.32689 24.3426 5.9901C24.1681 4.65352 23.0294 3.65376 21.6813 3.65348H18.0842V2.77526C18.0862 2.40966 18.0156 2.04731 17.8764 1.70923C17.7372 1.37116 17.5323 1.06409 17.2735 0.805874C17.0146 0.547679 16.707 0.34349 16.3685 0.205163C16.0301 0.0668371 15.6675 -0.00286964 15.3019 9.10716e-05H9.06327C8.69764 -0.00287897 8.33506 0.0668233 7.9966 0.20515C7.65813 0.343476 7.35052 0.547671 7.09163 0.805874C6.83281 1.06409 6.62787 1.37116 6.4887 1.70923C6.34953 2.04731 6.27891 2.40966 6.28093 2.77526V3.65348H2.68389C1.33579 3.65376 0.197128 4.65352 0.0225386 5.9901C-0.1517 7.32689 0.692443 8.58548 1.99523 8.93129ZM18.8291 28.5949H5.53613C4.33487 28.5949 3.40038 27.5629 3.40038 26.2412V8.99304H20.9647V26.2412C20.9647 27.563 20.0303 28.5949 18.8291 28.5949ZM7.68608 2.77526C7.68378 2.59413 7.7179 2.41438 7.7864 2.24668C7.85491 2.07898 7.9564 1.92675 8.08486 1.79903C8.21328 1.67124 8.36605 1.57053 8.53412 1.50289C8.70219 1.43525 8.88213 1.40204 9.06327 1.40524H15.3019C15.4831 1.40204 15.663 1.43525 15.8311 1.50289C15.9991 1.57053 16.1519 1.67124 16.2803 1.79903C16.4088 1.92675 16.5103 2.07897 16.5788 2.24667C16.6473 2.41437 16.6814 2.59413 16.679 2.77526V3.65348H7.68608V2.77526ZM2.68389 5.05863H21.6814C22.3799 5.05863 22.9461 5.62483 22.9461 6.32326C22.9461 7.02169 22.3799 7.5879 21.6814 7.5879H2.68382C1.98539 7.5879 1.41919 7.02169 1.41919 6.32326C1.41919 5.62483 1.98546 5.05863 2.68389 5.05863Z" fill="black"/>
<path d="M12.1826 10.8691C11.7945 10.8691 11.48 11.1837 11.48 11.5717V24.8504C11.48 25.2382 11.7945 25.5529 12.1826 25.5529C12.5707 25.5529 12.8851 25.2382 12.8851 24.8504V11.5717C12.8851 11.1837 12.5707 10.8691 12.1826 10.8691Z" fill="black"/>
</g>
<defs>
<clipPath id="clip0_145_4325">
<rect width="29.9999" height="30" fill="white"/>
</clipPath>
</defs>
</svg>
