<svg width="23" height="23" viewBox="0 0 23 23" fill="none" xmlns="http://www.w3.org/2000/svg">
<g clip-path="url(#clip0_131_1678)">
<path d="M2.7962 21.3766C2.79673 21.5047 2.77191 21.6316 2.72315 21.75C2.67439 21.8684 2.60266 21.976 2.51211 22.0666C2.42155 22.1571 2.31397 22.2288 2.19555 22.2776C2.07714 22.3264 1.95024 22.3512 1.82218 22.3506C1.69412 22.3512 1.56722 22.3264 1.4488 22.2776C1.33039 22.2288 1.2228 22.1571 1.13224 22.0666C1.04169 21.976 0.969966 21.8684 0.921206 21.75C0.872447 21.6316 0.847618 21.5047 0.848153 21.3766V12.5926C0.847618 12.4645 0.872447 12.3376 0.921206 12.2192C0.969966 12.1008 1.04169 11.9932 1.13224 11.9026C1.2228 11.8121 1.33039 11.7404 1.4488 11.6916C1.56722 11.6428 1.69412 11.618 1.82218 11.6185C1.95024 11.618 2.07714 11.6428 2.19555 11.6916C2.31397 11.7404 2.42155 11.8121 2.51211 11.9026C2.60266 11.9932 2.67439 12.1008 2.72315 12.2192C2.77191 12.3376 2.79673 12.4645 2.7962 12.5926V21.3766Z" fill="#80C3FF"/>
<path d="M1.82227 11.6186C1.95033 11.6181 2.07722 11.6429 2.19564 11.6917C2.31406 11.7404 2.42164 11.8121 2.5122 11.9027C2.60275 11.9932 2.67448 12.1008 2.72324 12.2192C2.772 12.3377 2.79682 12.4646 2.79629 12.5926V21.3767C2.79682 21.5047 2.772 21.6316 2.72324 21.7501C2.67448 21.8685 2.60275 21.9761 2.5122 22.0666C2.42164 22.1572 2.31406 22.2289 2.19564 22.2777C2.07722 22.3264 1.95033 22.3512 1.82227 22.3507" fill="#2A8BF4"/>
<path d="M1.82218 22.6212C1.13678 22.6212 0.577637 22.062 0.577637 21.3766V12.5926C0.577637 11.9072 1.13678 11.348 1.82218 11.348C2.50758 11.348 3.06673 11.9072 3.06673 12.5926V21.3766C3.06673 22.062 2.50758 22.6212 1.82218 22.6212ZM1.82218 11.8891C1.42535 11.8891 1.11873 12.2138 1.11873 12.5926V21.3766C1.11873 21.7735 1.4434 22.0801 1.82218 22.0801C2.20096 22.0801 2.52563 21.7554 2.52563 21.3766V12.5926C2.52563 12.2138 2.21901 11.8891 1.82218 11.8891Z" fill="#33363A"/>
<path d="M1.82227 21.1422C1.67796 21.1422 1.5517 21.0159 1.5517 20.8716V20.6372C1.5517 20.4929 1.67796 20.3666 1.82227 20.3666C1.96658 20.3666 2.09284 20.4929 2.09284 20.6372V20.8716C2.09284 21.0159 1.98458 21.1422 1.82227 21.1422ZM1.82227 7.99315C1.67796 7.99315 1.5517 7.86689 1.5517 7.72258V3.89874C1.5517 3.75443 1.67796 3.62817 1.82227 3.62817C1.96658 3.62817 2.09284 3.75443 2.09284 3.89874V7.72258C2.09284 7.88495 1.98458 7.99315 1.82227 7.99315ZM1.82227 11.8531C1.56975 11.8531 1.37134 11.6547 1.37134 11.4022V8.48014C1.37134 8.22762 1.56975 8.02921 1.82227 8.02921C2.07479 8.02921 2.27321 8.22762 2.27321 8.48014V11.4022C2.27321 11.6366 2.07479 11.8531 1.82227 11.8531Z" fill="#33363A"/>
<path d="M1.82224 7.92101C0.992531 7.92101 0.307129 7.2356 0.307129 6.40589V4.00696C0.307129 3.86265 0.433388 3.73639 0.577699 3.73639C0.72201 3.73639 0.848269 3.86265 0.848269 4.00696V6.40589C0.848269 6.94698 1.28115 7.37991 1.82229 7.37991C2.36343 7.37991 2.79632 6.94703 2.79632 6.40589V4.00696C2.79632 3.86265 2.92258 3.73639 3.06689 3.73639C3.2112 3.73639 3.33746 3.86265 3.33746 4.00696V6.40589C3.33736 7.25365 2.66996 7.92101 1.82224 7.92101Z" fill="#33363A"/>
<path d="M3.15705 8.3178C3.15705 8.73263 2.81432 9.07536 2.39949 9.07536H1.24511C0.830274 9.07536 0.487549 8.73263 0.487549 8.3178V6.92894C0.487549 6.51411 0.830274 6.17139 1.24511 6.17139H2.39949C2.81432 6.17139 3.15705 6.51411 3.15705 6.92894V8.3178Z" fill="#33363A"/>
<path d="M2.39943 9.32786H1.24505C0.685904 9.32786 0.216919 8.87693 0.216919 8.29973V6.91088C0.216919 6.35174 0.667853 5.88275 1.24505 5.88275H2.39943C2.95858 5.88275 3.42756 6.33369 3.42756 6.91088V8.29973C3.42751 8.87693 2.95858 9.32786 2.39943 9.32786ZM1.24505 6.44194C1.18102 6.44168 1.11757 6.45409 1.05837 6.47847C0.999164 6.50285 0.945372 6.53871 0.900098 6.58398C0.854824 6.62926 0.818963 6.68305 0.794584 6.74225C0.770206 6.80146 0.757792 6.8649 0.758059 6.92893V8.31778C0.757792 8.38181 0.770206 8.44526 0.794584 8.50446C0.818963 8.56367 0.854824 8.61746 0.900098 8.66273C0.945372 8.70801 0.999164 8.74387 1.05837 8.76825C1.11757 8.79263 1.18102 8.80504 1.24505 8.80477H2.39943C2.46346 8.80504 2.52691 8.79263 2.58611 8.76825C2.64532 8.74387 2.69911 8.70801 2.74438 8.66273C2.78966 8.61746 2.82552 8.56367 2.8499 8.50446C2.87427 8.44526 2.88669 8.38181 2.88642 8.31778V6.92893C2.88669 6.8649 2.87427 6.80146 2.8499 6.74225C2.82552 6.68305 2.78966 6.62926 2.74438 6.58398C2.69911 6.53871 2.64532 6.50285 2.58611 6.47847C2.52691 6.45409 2.46346 6.44168 2.39943 6.44194H1.24505Z" fill="#33363A"/>
<path d="M22.4927 13.4764C22.4927 18.5989 18.3442 22.7474 13.2216 22.7474C8.09909 22.7474 3.96863 18.5989 3.96863 13.4764C3.96863 8.35383 8.11714 4.20532 13.2216 4.20532C18.3442 4.20532 22.4927 8.35383 22.4927 13.4764Z" fill="#FDFDFD"/>
<path d="M13.2397 4.20532C18.3623 4.20532 22.5108 8.35383 22.5108 13.4764C22.5108 18.5989 18.3623 22.7474 13.2397 22.7474" fill="#C8DBDB"/>
<path d="M13.2398 23C7.99096 23 3.71619 18.7252 3.71619 13.4584C3.71619 8.20957 7.99096 3.91675 13.2398 3.91675C18.4886 3.91675 22.7814 8.19152 22.7814 13.4584C22.7633 18.7252 18.4886 23 13.2398 23ZM13.2398 4.47594C8.27958 4.47594 4.25728 8.51624 4.25728 13.4764C4.25728 18.4366 8.29758 22.4769 13.2398 22.4769C18.1999 22.4769 22.2402 18.4366 22.2402 13.4764C22.2222 8.51624 18.1999 4.47594 13.2398 4.47594Z" fill="#33363A"/>
<path d="M13.2397 19.6271C16.6366 19.6271 19.3903 16.8733 19.3903 13.4764C19.3903 10.0795 16.6366 7.32574 13.2397 7.32574C9.84274 7.32574 7.08899 10.0795 7.08899 13.4764C7.08899 16.8733 9.84274 19.6271 13.2397 19.6271Z" fill="#FDFDFD"/>
<path d="M7.08899 13.4764C7.08899 10.0855 9.84865 7.32574 13.2397 7.32574C16.6307 7.32574 19.3903 10.0854 19.3903 13.4764" fill="#C8DBDB"/>
<path d="M13.2397 19.8976C9.7044 19.8976 6.81848 17.0117 6.81848 13.4764C6.81848 9.94115 9.7044 7.05524 13.2397 7.05524C16.7749 7.05524 19.6609 9.94115 19.6609 13.4764C19.6609 17.0117 16.7749 19.8976 13.2397 19.8976ZM13.2397 7.59633C9.99297 7.59633 7.35957 10.2297 7.35957 13.4764C7.35957 16.7231 9.99297 19.3565 13.2397 19.3565C16.4864 19.3565 19.1198 16.7231 19.1198 13.4764C19.1198 10.2298 16.4864 7.59633 13.2397 7.59633Z" fill="#33363A"/>
<path d="M13.2397 17.192C15.2918 17.192 16.9553 15.5285 16.9553 13.4764C16.9553 11.4243 15.2918 9.76074 13.2397 9.76074C11.1876 9.76074 9.52405 11.4243 9.52405 13.4764C9.52405 15.5285 11.1876 17.192 13.2397 17.192Z" fill="#C8DBDB"/>
<path d="M13.2397 17.192C11.1835 17.192 9.52405 15.5326 9.52405 13.4764C9.52405 11.4202 11.1835 9.76074 13.2397 9.76074" fill="#FDFDFD"/>
<path d="M22.0778 9.97721C20.7972 4.18728 15.0794 0.5438 9.28955 1.82445L11.5983 12.304L22.0778 9.97721Z" fill="#83ED88"/>
<path d="M20.9235 10.2297C19.7872 5.08915 14.7008 1.8425 9.56018 2.97884L11.6164 12.286L20.9235 10.2297Z" fill="#5FCE96"/>
<path d="M20.2021 10.3921C19.1559 5.6483 14.4663 2.65417 9.72253 3.7003L11.6164 12.2859L20.2021 10.3921Z" fill="#F42535"/>
<path d="M11.6163 12.2859L20.202 10.392C19.6789 8.02917 18.2359 6.08117 16.342 4.87268L11.6163 12.2859Z" fill="#FC4259"/>
<path d="M19.6068 10.5183L20.2021 10.3921C19.1559 5.6483 14.4663 2.65417 9.72253 3.7003L9.84879 4.29555C14.1957 3.62815 18.3803 6.29765 19.6068 10.5183Z" fill="#D60024"/>
<path d="M19.733 8.9491C19.0295 7.23557 17.821 5.82866 16.324 4.87274L15.873 5.57619C17.6226 6.69448 18.9754 8.40801 19.5887 10.5184L20.1839 10.3921C20.1118 10.0314 20.0036 9.6706 19.8773 9.32793C19.8412 9.20162 19.7871 9.07536 19.733 8.9491Z" fill="#F42535"/>
<path d="M9.70447 3.71838L11.6164 12.286L20.2021 10.3921L12.2838 11.2399L9.70447 3.71838Z" fill="#FC4259"/>
<path d="M12.2837 11.2399L11.6163 12.286L20.202 10.3921L12.2837 11.2399Z" fill="#FF647E"/>
<path d="M11.6164 12.5566C11.4901 12.5566 11.3819 12.4664 11.3458 12.3401L9.03711 1.86055C9.01906 1.78839 9.03711 1.71624 9.07316 1.66213C9.10922 1.60803 9.18137 1.55393 9.23548 1.53587C15.1517 0.219175 21.0318 3.97091 22.3485 9.88706C22.3665 9.95921 22.3485 10.0314 22.3124 10.0855C22.2764 10.1396 22.2042 10.1937 22.1501 10.2117L11.6886 12.5205C11.6525 12.5566 11.6344 12.5566 11.6164 12.5566ZM9.61426 2.04091L11.8148 11.9794L21.7532 9.77885C20.4185 4.38574 15.0615 0.976733 9.61426 2.04091Z" fill="#33363A"/>
<path d="M20.202 10.6627C20.0758 10.6627 19.9676 10.5725 19.9315 10.4462C18.9214 5.8648 14.358 2.96083 9.77659 3.97091C9.63228 4.00696 9.48802 3.91681 9.45192 3.77249C9.41586 3.62818 9.50602 3.48392 9.65033 3.44782C14.5384 2.36559 19.3723 5.46797 20.4545 10.338C20.4906 10.4823 20.4004 10.6266 20.2561 10.6627H20.202Z" fill="#33363A"/>
<path d="M14.7187 10.1035C14.7187 12.9714 12.392 15.2982 9.52404 15.2982C6.65612 15.2982 4.32935 12.9714 4.32935 10.1035C4.32935 7.23557 6.65612 4.9088 9.52404 4.9088C12.3919 4.89074 14.7187 7.21752 14.7187 10.1035Z" fill="#A07F3C"/>
<path d="M14.7187 10.1035C14.7187 12.9714 12.392 15.2982 9.52404 15.2982C6.65612 15.2982 4.32935 12.9714 4.32935 10.1035" fill="#84692C"/>
<path d="M9.52405 4.89075V15.2981C12.392 15.2981 14.7187 12.9714 14.7187 10.1034C14.7187 7.23553 12.3919 4.89075 9.52405 4.89075Z" fill="#84692C"/>
<path d="M9.52405 10.1035V15.2982C12.392 15.2982 14.7187 12.9714 14.7187 10.1035H9.52405Z" fill="#705622"/>
<path d="M9.52405 15.5687C6.51187 15.5687 4.05884 13.1157 4.05884 10.1035C4.05884 7.09134 6.51187 4.63831 9.52405 4.63831C10.9851 4.63831 12.3559 5.2155 13.384 6.24363C14.4121 7.27175 14.9893 8.64256 14.9893 10.1036C14.9893 13.1157 12.5362 15.5687 9.52405 15.5687ZM9.52405 5.16135C6.80045 5.16135 4.59993 7.37991 4.59993 10.0855C4.59993 12.8091 6.8185 15.0096 9.52405 15.0096C12.2477 15.0096 14.4482 12.791 14.4482 10.0855C14.4482 8.76877 13.9431 7.52422 13.0052 6.6043C12.0673 5.68444 10.8408 5.16135 9.52405 5.16135Z" fill="#33363A"/>
<path d="M9.52412 13.6027C11.4567 13.6027 13.0233 12.0361 13.0233 10.1035C13.0233 8.17096 11.4567 6.60431 9.52412 6.60431C7.59155 6.60431 6.0249 8.17096 6.0249 10.1035C6.0249 12.0361 7.59155 13.6027 9.52412 13.6027Z" fill="#BEDD05"/>
<path d="M6.0249 10.1035C6.0249 8.17358 7.59412 6.60431 9.52412 6.60431L6.0249 10.1035Z" fill="#DEF21D"/>
<path d="M6.0249 10.1035C6.0249 12.0335 7.59412 13.6027 9.52412 13.6027C11.4541 13.6027 13.0233 12.0335 13.0233 10.1035H6.0249Z" fill="#85C606"/>
<path d="M6.0249 10.1035C6.0249 12.0335 7.59412 13.6027 9.52412 13.6027L6.0249 10.1035Z" fill="#BEDD05"/>
<path d="M9.52405 6.60431V13.6027C11.454 13.6027 13.0233 12.0335 13.0233 10.1035C13.0052 8.17353 11.454 6.60431 9.52405 6.60431Z" fill="#85C606"/>
<path d="M13.0052 10.1035C13.0052 8.17358 11.436 6.60431 9.50598 6.60431L13.0052 10.1035ZM9.52403 10.1035V13.6027C11.454 13.6027 13.0232 12.0335 13.0232 10.1035H9.52403Z" fill="#52C408"/>
<path d="M9.52405 13.5846C11.454 13.5846 13.0233 12.0154 13.0233 10.0854L9.52405 13.5846Z" fill="#25C10A"/>
<path d="M9.52409 11.348C10.2114 11.348 10.7686 10.7908 10.7686 10.1035C10.7686 9.41615 10.2114 8.85895 9.52409 8.85895C8.83674 8.85895 8.27954 9.41615 8.27954 10.1035C8.27954 10.7908 8.83674 11.348 9.52409 11.348Z" fill="#BEDD05"/>
<path d="M9.52405 11.33C10.2094 11.33 10.7686 10.7708 10.7686 10.0854C10.7686 9.40002 10.2094 8.84088 9.52405 8.84088V11.33Z" fill="#85C606"/>
<path d="M8.27954 10.1035H10.7687C10.7687 9.41809 10.2095 8.85895 9.52413 8.85895C8.83868 8.8589 8.27954 9.41804 8.27954 10.1035Z" fill="#85C606"/>
<path d="M9.52405 10.1035H10.7686C10.7686 9.41809 10.2094 8.85895 9.52405 8.85895V10.1035Z" fill="#52C408"/>
<path d="M9.52405 10.843C9.93247 10.843 10.2636 10.5119 10.2636 10.1035C10.2636 9.6951 9.93247 9.36401 9.52405 9.36401C9.11563 9.36401 8.78455 9.6951 8.78455 10.1035C8.78455 10.5119 9.11563 10.843 9.52405 10.843Z" fill="#BEDD05"/>
<path d="M10.2636 10.1035C10.2636 9.68869 9.93888 9.36401 9.52405 9.36401C9.10922 9.36401 8.78455 9.68869 8.78455 10.1035H10.2636Z" fill="#85C606"/>
<path d="M9.52412 10.843V9.34595C9.10929 9.34595 8.78462 9.67062 8.78462 10.0855C8.76657 10.5003 9.10924 10.843 9.52412 10.843Z" fill="#85C606"/>
<path d="M9.52405 10.1035V9.34595C9.10922 9.34595 8.78455 9.67062 8.78455 10.0855H9.52405V10.1035Z" fill="#52C408"/>
<path d="M9.52413 13.8552C7.44987 13.8552 5.75439 12.1597 5.75439 10.0855C5.75439 8.01121 7.44987 6.31573 9.52413 6.31573C11.5984 6.31573 13.2939 8.01121 13.2939 10.0855C13.2758 12.1778 11.5984 13.8552 9.52413 13.8552ZM9.52413 6.87488C7.73845 6.87488 6.29549 8.31784 6.29549 10.1035C6.29549 11.8892 7.73845 13.3322 9.52413 13.3322C11.3098 13.3322 12.7528 11.8892 12.7528 10.1035C12.7347 8.31784 11.2918 6.87488 9.52413 6.87488Z" fill="#33363A"/>
<path d="M16.0715 6.1173C15.6206 7.4701 13.0232 18.7433 14.376 19.1942C15.7288 19.6451 20.5267 9.12948 20.9776 7.77673C21.4284 6.42397 20.5807 5.34174 19.228 4.89081C17.8752 4.43983 16.5405 4.7645 16.0715 6.1173Z" fill="#FFE108"/>
<path d="M16.0715 6.11727C15.6206 7.47007 13.0232 18.7432 14.376 19.1942C15.7288 19.6451 20.5267 9.12945 20.9776 7.7767C21.4284 6.42394 20.3102 6.11727 18.9574 5.66634C17.6047 5.19735 16.5405 4.76447 16.0715 6.11727Z" fill="#FFB206"/>
<path d="M16.0715 6.11731C15.6206 7.47011 13.0232 18.7433 14.376 19.1942C15.7288 19.6451 20.5267 9.12949 20.9776 7.77673" fill="#FF8103"/>
<path d="M14.376 19.1942C13.3479 18.8514 14.5924 12.304 15.4582 8.55231L19.9855 10.0855C18.3982 13.6026 15.4041 19.5549 14.376 19.1942Z" fill="#FF6B06"/>
<path d="M14.376 19.1942C13.6184 18.9417 14.1054 15.2441 14.7728 11.817L18.5606 13.0977C16.9914 16.218 15.1336 19.4647 14.376 19.1942Z" fill="#ED4706"/>
<path d="M14.3761 19.1942C13.835 19.0138 13.9252 17.156 14.2498 14.8833L17.0997 15.8573C15.9814 17.8594 14.8992 19.3745 14.3761 19.1942Z" fill="#D83705"/>
<path d="M14.4842 19.5008C14.394 19.5008 14.3399 19.4828 14.2858 19.4648C13.9611 19.3566 13.2036 19.086 14.2858 12.9534C14.8269 9.88709 15.5845 6.7306 15.819 6.04515C16.288 4.6563 17.6948 4.09715 19.3182 4.63824C20.9415 5.17934 21.6991 6.49609 21.2301 7.86689C20.9957 8.57034 19.679 11.5284 18.254 14.2881C15.8551 18.9236 14.9171 19.5008 14.4842 19.5008ZM16.3421 6.20746C16.1076 6.87481 15.368 9.9592 14.827 12.9894C13.8349 18.599 14.4662 18.9417 14.4662 18.9417C14.4662 18.9417 15.1877 19.0499 17.8031 13.9995C19.21 11.2759 20.5086 8.37193 20.7251 7.68653C21.176 6.35177 20.1479 5.48601 19.1378 5.14328C18.1278 4.80061 16.793 4.87271 16.3421 6.20746Z" fill="#33363A"/>
<path d="M19.3001 4.99898C19.5527 4.94487 19.715 4.7104 19.6609 4.45789C19.4625 3.48386 20.0938 2.52794 21.0678 2.34753C21.3203 2.29342 21.4826 2.05895 21.4285 1.80644C21.3744 1.55392 21.1399 1.3916 20.8874 1.44571C19.4264 1.73428 18.4704 3.17729 18.7591 4.63825C18.8132 4.89077 19.0476 5.05313 19.3001 4.99898Z" fill="#92FC6B"/>
<path d="M21.0137 2.05896C21.1399 2.04091 21.2843 2.05896 21.3744 2.14917C21.3023 2.25738 21.2121 2.32953 21.0678 2.36564C20.0938 2.56405 19.4625 3.50197 19.6609 4.476C19.715 4.72851 19.5527 4.96298 19.3002 5.01709C19.1198 5.05314 18.9394 4.98103 18.8312 4.83672C18.7771 3.50192 19.6789 2.31148 21.0137 2.05896Z" fill="#70D63A"/>
<path d="M19.2099 5.28759C19.0656 5.28759 18.9213 5.25154 18.8131 5.16133C18.6508 5.05312 18.5425 4.89076 18.5065 4.69234C18.1818 3.08702 19.228 1.4998 20.8513 1.17513C21.2481 1.10297 21.6269 1.35549 21.699 1.75232C21.7712 2.14915 21.5187 2.52793 21.1218 2.60009C20.2921 2.7624 19.751 3.57411 19.9134 4.40377C19.9494 4.60219 19.9134 4.78255 19.8051 4.94486C19.6969 5.10718 19.5346 5.21543 19.3362 5.25149C19.3001 5.28759 19.246 5.28759 19.2099 5.28759ZM20.9775 1.71622H20.9415C19.6248 1.98679 18.759 3.26739 19.0295 4.58414C19.0476 4.63824 19.0656 4.67434 19.1017 4.7104C19.1377 4.74645 19.1919 4.74645 19.246 4.74645C19.3001 4.7284 19.3362 4.7104 19.3723 4.67429C19.4083 4.63824 19.4083 4.58409 19.4083 4.52998C19.1919 3.4117 19.9134 2.31141 21.0316 2.095C21.1399 2.07695 21.194 1.96874 21.176 1.87853C21.1399 1.77037 21.0677 1.71622 20.9775 1.71622Z" fill="#33363A"/>
<path d="M19.5167 4.90882C19.7151 4.7465 19.7331 4.45788 19.5527 4.25947C18.9034 3.51996 18.9755 2.36558 19.715 1.71623C19.8954 1.55391 19.9315 1.26529 19.7511 1.06688C19.5888 0.868463 19.3001 0.850411 19.1017 1.03082C17.9834 2.02285 17.8572 3.73638 18.8492 4.85466C19.0477 5.05313 19.3362 5.07113 19.5167 4.90882Z" fill="#92FC6B"/>
<path d="M19.5347 1.48174C19.6429 1.39154 19.7691 1.35548 19.8954 1.37354C19.8954 1.49979 19.8413 1.62605 19.7331 1.71626C18.9936 2.36561 18.9214 3.51995 19.5708 4.2595C19.7331 4.45792 19.7151 4.74649 19.5347 4.90885C19.3904 5.03511 19.192 5.05316 19.0297 4.98101C18.3262 3.86262 18.5066 2.38361 19.5347 1.48174Z" fill="#70D63A"/>
<path d="M19.2281 5.2876H19.174C18.9755 5.26955 18.7952 5.17939 18.6689 5.03508C18.1458 4.43984 17.8753 3.66428 17.9294 2.87062C17.9835 2.07701 18.3442 1.33745 18.9395 0.814411C19.2461 0.543841 19.697 0.579943 19.9676 0.886566C20.2382 1.19319 20.2021 1.64412 19.8955 1.91469C19.5888 2.18526 19.4085 2.56404 19.3724 2.96082C19.3543 3.37565 19.4806 3.75443 19.7512 4.06111C19.8774 4.20542 19.9496 4.38578 19.9315 4.5842C19.9135 4.78261 19.8233 4.96297 19.679 5.08923C19.5708 5.2335 19.3904 5.2876 19.2281 5.2876ZM19.4265 1.19319C19.3904 1.19319 19.3363 1.21124 19.3002 1.24729C18.8132 1.68018 18.5246 2.27542 18.4705 2.92472C18.4345 3.57407 18.6328 4.20537 19.0657 4.69235C19.1018 4.72841 19.1379 4.74646 19.192 4.76451C19.2461 4.76451 19.2822 4.74646 19.3363 4.71041C19.3724 4.67435 19.3904 4.63825 19.3904 4.58415C19.3904 4.53004 19.3724 4.49394 19.3363 4.45789C18.9756 4.04306 18.7952 3.50191 18.8313 2.96082C18.8673 2.40168 19.1199 1.89664 19.5347 1.53592C19.6069 1.46376 19.6249 1.35555 19.5528 1.26534C19.5347 1.21119 19.4806 1.19319 19.4265 1.19319Z" fill="#33363A"/>
<path d="M19.3363 4.22338C19.1739 4.02496 19.1919 3.73639 19.3723 3.57403C20.1118 2.92468 20.184 1.77034 19.5346 1.03079C19.3723 0.832371 19.3903 0.543799 19.5707 0.381437C19.751 0.219075 20.0577 0.237126 20.22 0.41749C21.212 1.53577 21.1038 3.26736 19.9675 4.24133C19.7872 4.43979 19.4986 4.42179 19.3363 4.22338Z" fill="#92FC6B"/>
<path d="M19.7692 0.850423C19.679 0.742215 19.5527 0.706112 19.4265 0.68811C19.4084 0.81437 19.4445 0.940629 19.5347 1.04884C20.184 1.78834 20.1119 2.94273 19.3724 3.59208C19.1739 3.75439 19.1559 4.04301 19.3363 4.24143C19.4626 4.38574 19.661 4.42179 19.8233 4.36769C20.653 3.35756 20.671 1.8605 19.7692 0.850423Z" fill="#70D63A"/>
<path d="M19.6789 4.65629H19.6248C19.4264 4.63824 19.246 4.54808 19.1198 4.40377C18.9935 4.25946 18.9213 4.07909 18.9394 3.88068C18.9574 3.68226 19.0476 3.5019 19.1919 3.37564C19.8232 2.8165 19.8954 1.84247 19.3362 1.21118C19.0657 0.904553 19.1018 0.453619 19.4084 0.183049C19.5527 0.0567896 19.7331 -0.0153658 19.9315 0.00268541C20.1299 0.0207366 20.3102 0.110894 20.4365 0.255204C20.9596 0.850449 21.2301 1.62601 21.176 2.41967C21.1219 3.21328 20.7612 3.95283 20.1659 4.47587C20.0216 4.60218 19.8593 4.65629 19.6789 4.65629ZM19.8954 0.561877C19.8413 0.561877 19.8052 0.579928 19.7691 0.615981C19.6969 0.688137 19.6789 0.796345 19.7511 0.886551C20.5086 1.75232 20.4184 3.05101 19.5526 3.80857C19.4805 3.88073 19.4624 3.98894 19.5346 4.07914C19.5706 4.1152 19.6067 4.13325 19.6608 4.13325C19.715 4.13325 19.7511 4.1152 19.7871 4.07914C20.2741 3.64626 20.5627 3.05101 20.6168 2.40172C20.6709 1.75237 20.4545 1.12107 20.0216 0.634082C20.0036 0.579879 19.9495 0.561877 19.8954 0.561877Z" fill="#33363A"/>
<path d="M19.2281 4.00696C19.174 3.75444 19.3363 3.51998 19.5888 3.46587C20.5628 3.26746 21.1941 2.32954 20.9957 1.35551C20.9416 1.10299 21.1039 0.868526 21.3564 0.814422C21.6089 0.760318 21.8434 0.92263 21.8975 1.17515C22.1861 2.63616 21.2302 4.07912 19.7691 4.36769C19.5167 4.42184 19.2642 4.25948 19.2281 4.00696Z" fill="#92FC6B"/>
<path d="M21.2843 1.30137C21.2662 1.17511 21.1761 1.06691 21.0678 0.994751C20.9957 1.10296 20.9596 1.22922 20.9776 1.35548C21.176 2.3295 20.5447 3.28542 19.5707 3.46584C19.3182 3.51994 19.1559 3.75441 19.21 4.00693C19.246 4.18729 19.3904 4.3316 19.5707 4.36766C20.7973 3.91677 21.5548 2.61807 21.2843 1.30137Z" fill="#70D63A"/>
<path d="M19.6609 4.65627C19.3182 4.65627 19.0116 4.4218 18.9394 4.07908C18.8673 3.68225 19.1198 3.30347 19.5166 3.23131C20.3463 3.069 20.8874 2.25729 20.7251 1.42763C20.6529 1.0308 20.9055 0.65202 21.3023 0.579864C21.5007 0.543811 21.6811 0.579864 21.8434 0.688073C22.0057 0.796281 22.114 0.958643 22.15 1.15706C22.4747 2.76238 21.4285 4.3496 19.8052 4.67427C19.7692 4.65627 19.715 4.65627 19.6609 4.65627ZM19.4806 3.97087C19.4986 4.07908 19.6068 4.13318 19.697 4.11518C21.0137 3.84461 21.8795 2.56401 21.609 1.24726C21.5909 1.19316 21.5729 1.15706 21.5368 1.121C21.5008 1.08495 21.4466 1.08495 21.3925 1.08495C21.2843 1.103 21.2302 1.21121 21.2482 1.30142C21.4647 2.4197 20.7431 3.51999 19.6249 3.7364C19.5347 3.7544 19.4625 3.86261 19.4806 3.97087Z" fill="#33363A"/>
<path d="M19.0295 5.43192C18.7951 5.35976 18.6688 5.08919 18.741 4.85473C19.0656 3.91681 18.5606 2.88868 17.6227 2.564C17.3882 2.49185 17.2619 2.22128 17.3341 1.98681C17.4243 1.75234 17.6768 1.62608 17.9113 1.69824C19.3362 2.18522 20.0938 3.71839 19.6068 5.1433C19.5346 5.37777 19.282 5.50403 19.0295 5.43192Z" fill="#92FC6B"/>
<path d="M17.7129 2.27542C17.5866 2.23936 17.4604 2.25736 17.3522 2.31147C17.4063 2.41968 17.4965 2.52793 17.6227 2.56399C18.5607 2.88866 19.0657 3.89874 18.741 4.85471C18.6689 5.08918 18.7951 5.35975 19.0296 5.4319C19.21 5.48601 19.3903 5.4319 19.5166 5.30564C19.7331 4.00695 18.9935 2.7083 17.7129 2.27542Z" fill="#70D63A"/>
<path d="M19.1738 5.72046C19.1017 5.72046 19.0115 5.70241 18.9394 5.68441C18.5606 5.55815 18.3622 5.14332 18.4884 4.76454C18.6147 4.38576 18.5967 3.97093 18.4163 3.59215C18.2359 3.23142 17.9293 2.9428 17.5325 2.81654C17.1537 2.69028 16.9553 2.27545 17.0815 1.89667C17.2078 1.51789 17.6226 1.31948 18.0014 1.44574C18.759 1.69826 19.3722 2.23935 19.7149 2.96085C20.0757 3.68236 20.1298 4.49402 19.8593 5.23352C19.8051 5.41389 19.6608 5.5582 19.4985 5.64836C19.4083 5.70241 19.3001 5.72046 19.1738 5.72046ZM17.7669 1.95073C17.6948 1.95073 17.6226 2.00483 17.5866 2.07699C17.5505 2.16719 17.6046 2.2754 17.6948 2.31145C18.2179 2.49182 18.6327 2.85254 18.8852 3.35758C19.1377 3.86262 19.1738 4.42176 18.9934 4.94485C18.9574 5.03506 19.0115 5.14327 19.1016 5.17932C19.1557 5.19737 19.1919 5.19737 19.246 5.16127C19.282 5.14322 19.3181 5.10717 19.3362 5.05306C19.5526 4.43981 19.4985 3.77241 19.2099 3.19522C18.9213 2.61803 18.4163 2.16709 17.803 1.96868C17.803 1.95073 17.785 1.95073 17.7669 1.95073Z" fill="#33363A"/>
<path d="M19.0477 5.43187C19.2822 5.50402 19.5527 5.37776 19.6249 5.14329C19.9496 4.20537 20.9596 3.70034 21.9156 4.00696C22.1501 4.07911 22.4207 3.95285 22.4928 3.71839C22.565 3.48392 22.4387 3.21335 22.2042 3.14119C20.7793 2.65421 19.2462 3.42977 18.7592 4.83667C18.687 5.08914 18.8132 5.35971 19.0477 5.43187Z" fill="#92FC6B"/>
<path d="M22.0057 3.73635C22.1319 3.7724 22.2221 3.88066 22.2762 3.98887C22.168 4.04297 22.0418 4.06103 21.9155 4.02492C20.9776 3.70025 19.9495 4.20529 19.6248 5.16126C19.5526 5.39573 19.2821 5.52199 19.0476 5.44983C18.8672 5.39573 18.759 5.23337 18.741 5.053C19.3542 3.88066 20.725 3.30347 22.0057 3.73635Z" fill="#70D63A"/>
<path d="M19.1919 5.73853C19.1198 5.73853 19.0296 5.72048 18.9575 5.70248C18.7771 5.64838 18.6328 5.50406 18.5426 5.34175C18.4524 5.17944 18.4524 4.96297 18.5066 4.78261C19.0297 3.23144 20.7251 2.38368 22.2944 2.90677C22.6731 3.03303 22.8716 3.44786 22.7453 3.82664C22.619 4.20542 22.2042 4.40383 21.8254 4.27757C21.0318 4.007 20.148 4.43988 19.8774 5.23354C19.7871 5.54012 19.4986 5.73853 19.1919 5.73853ZM19.1378 5.17939C19.228 5.21544 19.3362 5.16134 19.3723 5.07118C19.733 3.98895 20.9235 3.41176 22.0057 3.77253C22.0959 3.80859 22.2041 3.75448 22.2402 3.66432C22.2762 3.57412 22.2221 3.46591 22.1139 3.42986C20.8333 2.99697 19.4444 3.68238 19.0115 4.96302C18.9935 5.01713 18.9935 5.05323 19.0296 5.10733C19.0476 5.12524 19.0837 5.16134 19.1378 5.17939ZM20.7972 7.99315C20.7611 7.99315 20.7431 7.99315 20.707 7.9751L19.5166 7.57827C19.3722 7.52417 19.3001 7.37986 19.3542 7.23555C19.4083 7.09124 19.5527 7.01908 19.697 7.07323L20.8874 7.47006C21.0317 7.52417 21.1039 7.66848 21.0497 7.81279C21.0137 7.921 20.9055 7.99315 20.7972 7.99315ZM18.741 7.27165C18.7049 7.27165 18.6869 7.27165 18.6508 7.2536L18.4524 7.18144C18.3081 7.12734 18.2359 6.98303 18.272 6.83872C18.3261 6.69441 18.4704 6.62225 18.6147 6.65835L18.8131 6.73051C18.9575 6.78461 19.0296 6.92892 18.9935 7.07323C18.9574 7.19954 18.8492 7.27165 18.741 7.27165ZM17.7309 6.94702C17.6949 6.94702 17.6768 6.94702 17.6407 6.92897L17.5505 6.91092C17.4062 6.85682 17.334 6.71251 17.3701 6.5682C17.4242 6.42388 17.5686 6.35173 17.7129 6.38783L17.8031 6.40588C17.9474 6.45999 18.0195 6.6043 17.9834 6.74861C17.9473 6.87487 17.8391 6.94702 17.7309 6.94702ZM16.9553 6.67645C16.9193 6.67645 16.9012 6.67645 16.8651 6.6584L16.7749 6.64035C16.6306 6.58625 16.5584 6.44194 16.5945 6.29763C16.6486 6.15331 16.7929 6.08116 16.9373 6.11726L17.0275 6.13531C17.1718 6.18942 17.2439 6.33373 17.2078 6.47804C17.1898 6.6043 17.0816 6.67645 16.9553 6.67645ZM20.3102 9.41806C20.2742 9.41806 20.2561 9.41806 20.22 9.40001L19.0296 9.00318C18.8853 8.94908 18.8131 8.80476 18.8673 8.66045C18.9214 8.51614 19.0657 8.44399 19.21 8.49814L20.4004 8.89497C20.5447 8.94908 20.6169 9.09339 20.5627 9.2377C20.5267 9.34595 20.4184 9.41806 20.3102 9.41806ZM18.254 8.71466C18.218 8.71466 18.1999 8.71466 18.1638 8.69661L17.9654 8.62445C17.8211 8.57035 17.7489 8.42604 17.785 8.28172C17.8391 8.13741 17.9834 8.06526 18.1277 8.10136L18.3262 8.17352C18.4705 8.22762 18.5426 8.37193 18.5065 8.51624C18.4704 8.6425 18.3622 8.71466 18.254 8.71466ZM17.2439 8.37193C17.2259 8.37193 17.1898 8.37193 17.1537 8.35388L17.0635 8.33583C16.9192 8.29978 16.8471 8.13741 16.8832 7.9931C16.9193 7.84879 17.0816 7.77664 17.2259 7.81274L17.3161 7.83079C17.4604 7.86684 17.5326 8.02921 17.4964 8.17352C17.4603 8.29978 17.3521 8.37193 17.2439 8.37193ZM16.4683 8.11941C16.4503 8.11941 16.4142 8.11941 16.3781 8.10136L16.2879 8.08331C16.1436 8.02921 16.0714 7.88489 16.1075 7.74058C16.1436 7.59627 16.306 7.52412 16.4503 7.56022L16.5405 7.57827C16.6848 7.63238 16.7569 7.77669 16.7208 7.921C16.7028 8.04726 16.5946 8.11941 16.4683 8.11941ZM19.7511 10.825C19.715 10.825 19.697 10.825 19.6609 10.8069L18.4704 10.4101C18.3261 10.356 18.254 10.2117 18.3081 10.0674C18.3622 9.92305 18.5065 9.85089 18.6508 9.90505L19.8413 10.3019C19.9856 10.356 20.0577 10.5003 20.0036 10.6446C19.9675 10.7709 19.8593 10.825 19.7511 10.825ZM17.6948 10.1215C17.6768 10.1215 17.6407 10.1215 17.6046 10.1035L17.4062 10.0313C17.2619 9.9772 17.1897 9.83289 17.2258 9.68858C17.2799 9.54427 17.4242 9.47212 17.5686 9.50822L17.767 9.58037C17.9113 9.63448 17.9834 9.77879 17.9473 9.9231C17.9113 10.0494 17.8031 10.1215 17.6948 10.1215ZM16.6847 9.79684C16.6487 9.79684 16.6306 9.79684 16.5945 9.77879L16.5043 9.76074C16.36 9.70663 16.2879 9.56232 16.324 9.41801C16.3781 9.2737 16.5224 9.20155 16.6667 9.23765L16.7569 9.2557C16.9012 9.3098 16.9734 9.45411 16.9373 9.59842C16.9012 9.70668 16.793 9.79684 16.6847 9.79684ZM15.9092 9.52632C15.8911 9.52632 15.8551 9.52632 15.819 9.50827L15.7288 9.49022C15.5845 9.45416 15.5123 9.2918 15.5484 9.14749C15.6025 9.00318 15.7468 8.93102 15.8911 8.96713L15.9813 8.98518C16.1256 9.02123 16.1978 9.18359 16.1617 9.3279C16.1436 9.45416 16.0354 9.52632 15.9092 9.52632ZM19.0837 12.1958C19.0476 12.1958 19.0296 12.1958 18.9935 12.1777L17.803 11.7809C17.6587 11.7268 17.5866 11.5825 17.6407 11.4382C17.6948 11.2939 17.8391 11.2217 17.9834 11.2759L19.1739 11.6727C19.3182 11.7268 19.3903 11.8711 19.3362 12.0154C19.3001 12.1417 19.1919 12.1958 19.0837 12.1958ZM17.0275 11.4924C16.9914 11.4924 16.9734 11.4924 16.9373 11.4743L16.7208 11.4022C16.5765 11.3481 16.5043 11.2037 16.5404 11.0594C16.5945 10.9151 16.7388 10.843 16.8832 10.8791L17.0996 10.9512C17.2439 11.0053 17.3161 11.1496 17.28 11.294C17.2439 11.4202 17.1357 11.4924 17.0275 11.4924ZM16.0174 11.1677C15.9813 11.1677 15.9633 11.1677 15.9272 11.1496L15.837 11.1316C15.6927 11.0775 15.6205 10.9332 15.6566 10.7889C15.7107 10.6446 15.855 10.5724 15.9993 10.6085L16.0895 10.6266C16.2339 10.6807 16.306 10.825 16.2699 10.9693C16.2339 11.0775 16.1256 11.1677 16.0174 11.1677ZM15.2418 10.8971C15.2057 10.8971 15.1877 10.8971 15.1516 10.8791L15.0614 10.861C14.9171 10.8069 14.8449 10.6626 14.881 10.5183C14.9351 10.374 15.0794 10.3018 15.2237 10.3379L15.3139 10.356C15.4582 10.4101 15.5304 10.5544 15.4943 10.6987C15.4582 10.825 15.368 10.8971 15.2418 10.8971ZM18.3983 13.5846C18.3622 13.5846 18.3442 13.5846 18.3081 13.5666L17.1898 13.1878C17.0455 13.1337 16.9733 12.9894 17.0275 12.8451C17.0816 12.7008 17.2259 12.6286 17.3702 12.6828L18.4885 13.0615C18.6328 13.1156 18.7049 13.26 18.6508 13.4043C18.6147 13.5125 18.5245 13.5846 18.3983 13.5846ZM16.4864 12.9173C16.4683 12.9173 16.4323 12.9173 16.3962 12.8992L16.1978 12.8451C16.0534 12.8091 15.9813 12.6467 16.0174 12.5024C16.0534 12.3581 16.2158 12.2859 16.3601 12.322L16.5585 12.3761C16.7028 12.4122 16.775 12.5745 16.7389 12.7189C16.7028 12.8451 16.5946 12.9173 16.4864 12.9173ZM15.5484 12.6107C15.5304 12.6107 15.4943 12.6107 15.4582 12.5926L15.386 12.5745C15.2417 12.5204 15.1696 12.3761 15.2057 12.2318C15.2417 12.0875 15.4041 12.0154 15.5484 12.0515L15.6206 12.0695C15.7649 12.1236 15.837 12.2679 15.8009 12.4122C15.7649 12.5204 15.6747 12.6107 15.5484 12.6107ZM14.8269 12.3581C14.8089 12.3581 14.7728 12.3581 14.7367 12.3401L14.6646 12.322C14.5203 12.2679 14.4481 12.1236 14.4842 11.9793C14.5203 11.835 14.6826 11.7628 14.8269 11.7989L14.8991 11.817C15.0434 11.8711 15.1156 12.0154 15.0795 12.1597C15.0614 12.286 14.9532 12.3581 14.8269 12.3581ZM17.6948 14.9374C17.6588 14.9374 17.6407 14.9374 17.6046 14.9194L16.4142 14.5225C16.2699 14.4684 16.1977 14.3241 16.2519 14.1798C16.306 14.0355 16.4503 13.9634 16.5946 14.0175L17.785 14.4143C17.9293 14.4684 18.0015 14.6128 17.9473 14.7571C17.9113 14.8653 17.8031 14.9374 17.6948 14.9374ZM15.6386 14.2159C15.6206 14.2159 15.5845 14.2159 15.5484 14.1979L15.35 14.1257C15.2057 14.0716 15.1335 13.9273 15.1696 13.783C15.2057 13.6387 15.368 13.5665 15.5124 13.6026L15.7108 13.6748C15.8551 13.7289 15.9272 13.8732 15.8911 14.0175C15.8551 14.1438 15.7468 14.2159 15.6386 14.2159ZM14.6285 13.8913C14.5925 13.8913 14.5744 13.8913 14.5383 13.8732L14.4481 13.8552C14.3038 13.8011 14.2317 13.6568 14.2678 13.5125C14.3219 13.3682 14.4662 13.296 14.6105 13.3321L14.7007 13.3502C14.845 13.4043 14.9172 13.5486 14.8811 13.6929C14.863 13.8191 14.7548 13.8913 14.6285 13.8913ZM16.9553 16.2902C16.9193 16.2902 16.9012 16.2902 16.8651 16.2722L15.6747 15.8753C15.5304 15.8212 15.4582 15.6769 15.5124 15.5326C15.5665 15.3883 15.7108 15.3162 15.8551 15.3703L17.0455 15.7671C17.1898 15.8212 17.262 15.9656 17.2078 16.1099C17.1718 16.2181 17.0635 16.2902 16.9553 16.2902ZM14.8991 15.5687C14.8811 15.5687 14.845 15.5687 14.8089 15.5507L14.6105 15.4785C14.4662 15.4244 14.394 15.2801 14.4301 15.1358C14.4662 14.9915 14.6285 14.9193 14.7728 14.9554L14.9713 15.0276C15.1156 15.0817 15.1877 15.226 15.1516 15.3703C15.1155 15.4966 15.0073 15.5687 14.8991 15.5687ZM16.1617 17.6069C16.1256 17.6069 16.1076 17.6069 16.0715 17.5889L14.8811 17.192C14.7367 17.1379 14.6646 16.9936 14.7187 16.8493C14.7728 16.705 14.9172 16.6329 15.0615 16.687L16.2519 17.0838C16.3962 17.1379 16.4684 17.2823 16.4142 17.4266C16.3781 17.5348 16.2699 17.6069 16.1617 17.6069ZM14.2858 16.9576C14.2498 16.9576 14.2317 16.9576 14.1956 16.9395L13.9972 16.8674C13.8529 16.8133 13.7807 16.669 13.8168 16.5246C13.8709 16.3803 14.0152 16.3082 14.1595 16.3443L14.358 16.4164C14.5023 16.4705 14.5744 16.6149 14.5383 16.7592C14.5023 16.8854 14.3941 16.9576 14.2858 16.9576ZM15.2779 18.9056C15.2418 18.9056 15.2238 18.9056 15.1877 18.8875L13.9972 18.4907C13.8529 18.4366 13.7808 18.2923 13.8349 18.148C13.889 18.0037 14.0333 17.9315 14.1776 17.9857L15.3681 18.3825C15.5124 18.4366 15.5846 18.5809 15.5304 18.7252C15.4943 18.8334 15.3861 18.9056 15.2779 18.9056Z" fill="#33363A"/>
<path d="M19.8052 17.2101C19.8052 20.2944 16.8652 20.4207 13.2397 20.4207C9.61422 20.4207 6.67419 20.2944 6.67419 17.2101C6.67419 14.1257 9.61422 11.6186 13.2397 11.6186C16.8652 11.6186 19.8052 14.1257 19.8052 17.2101Z" fill="#C17E25"/>
<path d="M19.8052 17.2101C19.8052 20.2944 16.8652 20.4207 13.2397 20.4207C9.61422 20.4207 6.67419 20.2944 6.67419 17.2101C6.67419 14.1257 9.61422 11.6186 13.2397 11.6186C16.8652 11.6186 19.8052 14.1257 19.8052 17.2101Z" fill="#FDFDFD"/>
<path d="M19.8052 17.2101C19.8052 20.2944 16.8652 20.4207 13.2397 20.4207C9.61422 20.4207 6.67419 20.2944 6.67419 17.2101C6.67419 14.1258 9.61422 17.2281 13.2397 17.2281C16.8652 17.2281 19.8052 14.1258 19.8052 17.2101Z" fill="#F4F3E9"/>
<path d="M13.2397 18.8154C9.97498 18.8154 7.26943 16.3083 6.74634 18.0398C7.25138 20.3125 9.97498 20.4027 13.2397 20.4027C16.5044 20.4027 19.2099 20.2945 19.733 18.0398C19.2099 16.3263 16.5044 18.8154 13.2397 18.8154Z" fill="#E0DECE"/>
<path d="M13.2398 20.6912C9.8668 20.6912 6.40369 20.6912 6.40369 17.2101C6.40369 13.9814 9.46997 11.348 13.2398 11.348C17.0095 11.348 20.0758 13.9814 20.0758 17.2101C20.0758 20.6912 16.5947 20.6912 13.2398 20.6912ZM13.2398 11.8891C9.75859 11.8891 6.94483 14.27 6.94483 17.2101C6.94483 19.9517 9.43396 20.1501 13.2398 20.1501C17.0455 20.1501 19.5347 19.9517 19.5347 17.2101C19.5347 14.27 16.7209 11.8891 13.2398 11.8891Z" fill="#33363A"/>
<path d="M16.4143 16.3082C16.4143 19.2844 14.9894 19.609 13.2397 19.609C11.4901 19.609 10.0652 19.2844 10.0652 16.3082C10.0652 14.7751 11.4901 13.5486 13.2397 13.5486C14.9893 13.5486 16.4143 14.7751 16.4143 16.3082Z" fill="#D3D1C1"/>
<path d="M16.4143 16.3082C16.4143 17.8414 14.9894 18.5088 13.2397 18.5088C11.4901 18.5088 10.0652 17.8414 10.0652 16.3082C10.0652 14.7751 11.4901 13.5486 13.2397 13.5486C14.9893 13.5486 16.4143 14.7751 16.4143 16.3082Z" fill="#FFBC00"/>
<path d="M13.2397 14.0717C14.8991 14.0717 16.2519 15.172 16.4142 16.5608C16.4323 16.4706 16.4323 16.3804 16.4323 16.2902C16.4323 14.7571 15.0074 13.5306 13.2577 13.5306C11.5081 13.5306 10.0652 14.7751 10.0652 16.2902C10.0652 16.3804 10.0652 16.4706 10.0832 16.5608C10.2275 15.1719 11.5803 14.0717 13.2397 14.0717Z" fill="#FFCE00"/>
<path d="M16.4143 16.3082C16.4143 17.8414 14.9894 18.5088 13.2397 18.5088C11.4901 18.5088 10.0652 17.8414 10.0652 16.3082C10.0652 14.7751 11.4901 16.3082 13.2397 16.3082C14.9893 16.3082 16.4143 14.7751 16.4143 16.3082Z" fill="#FF9100"/>
<path d="M13.2397 18.7793C11.1114 18.7793 9.79468 17.8414 9.79468 16.3082C9.79468 14.6308 11.3458 13.278 13.2397 13.278C15.1517 13.278 16.7029 14.6308 16.7029 16.3082C16.6848 17.8234 15.3681 18.7793 13.2397 18.7793ZM13.2397 13.8192C11.6344 13.8192 10.3358 14.9374 10.3358 16.3083C10.3358 18.094 12.5724 18.2382 13.2397 18.2382C13.9071 18.2382 16.1618 18.0939 16.1618 16.3083C16.1437 14.9374 14.8451 13.8192 13.2397 13.8192Z" fill="#33363A"/>
<path d="M11.003 15.8212H10.9489C10.7505 15.7852 10.6062 15.6047 10.6423 15.4064C10.7866 14.3963 12.2115 13.7469 12.915 13.7469C13.1134 13.7469 13.2757 13.9093 13.2757 14.1077C13.2757 14.3061 13.1134 14.4684 12.915 14.4684C12.446 14.4684 11.4359 14.9374 11.3458 15.4965C11.3277 15.6949 11.1654 15.8212 11.003 15.8212ZM10.9489 16.6329H10.8948C10.6964 16.5968 10.5521 16.4164 10.5882 16.218C10.6242 15.9836 10.8407 15.8393 11.0391 15.8393C11.2375 15.8393 11.3999 16.0016 11.3999 16.2C11.3999 16.3443 11.3096 16.4706 11.2014 16.5247C11.1293 16.5968 11.0391 16.6329 10.9489 16.6329ZM10.985 17.0477H10.949C10.8588 17.0297 10.7867 16.9395 10.8047 16.8493C10.8227 16.7411 10.9129 16.687 11.0031 16.687C11.1113 16.687 11.1834 16.7592 11.1834 16.8674C11.1834 16.9395 11.1474 16.9936 11.0932 17.0297C11.0752 17.0297 11.0391 17.0477 10.985 17.0477Z" fill="#FFEF5A"/>
</g>
<defs>
<clipPath id="clip0_131_1678">
<rect width="23" height="23" fill="white"/>
</clipPath>
</defs>
</svg>
