<svg width="29" height="28" viewBox="0 0 29 28" fill="none" xmlns="http://www.w3.org/2000/svg">
<g clip-path="url(#clip0_131_2193)">
<path d="M8.19392 10.2602C8.18277 10.3019 8.17994 10.3453 8.18559 10.3881C8.19123 10.4308 8.20523 10.472 8.2268 10.5094C8.24838 10.5467 8.27709 10.5794 8.31131 10.6057C8.34553 10.6319 8.38458 10.6511 8.42623 10.6623C8.46789 10.6734 8.51133 10.6763 8.55408 10.6706C8.59682 10.665 8.63804 10.651 8.67538 10.6294C8.71271 10.6078 8.74543 10.5791 8.77167 10.5449C8.79791 10.5107 8.81715 10.4716 8.82829 10.43C8.85081 10.3459 8.83898 10.2562 8.79541 10.1808C8.75184 10.1054 8.68011 10.0504 8.59598 10.0279C8.51186 10.0054 8.42224 10.0172 8.34684 10.0608C8.27144 10.1044 8.21643 10.1761 8.19392 10.2602ZM10.5157 10.5424C10.5587 10.5523 10.5992 10.5708 10.6348 10.5967C10.6704 10.6226 10.7005 10.6554 10.7232 10.6931C10.7459 10.7309 10.7607 10.7728 10.7669 10.8165C10.773 10.8601 10.7703 10.9045 10.7589 10.9471C10.7475 10.9896 10.7276 11.0294 10.7005 11.0642C10.6734 11.0989 10.6395 11.1278 10.601 11.1491C10.5625 11.1705 10.52 11.1839 10.4762 11.1885C10.4324 11.1931 10.3881 11.1888 10.346 11.1759C10.2647 11.151 10.1962 11.0956 10.1549 11.0212C10.1137 10.9468 10.103 10.8593 10.125 10.7772C10.147 10.6951 10.2 10.6247 10.2729 10.5809C10.3458 10.5371 10.4329 10.5233 10.5157 10.5424ZM12.4355 11.0569C12.4784 11.0668 12.5189 11.0853 12.5545 11.1112C12.5902 11.1371 12.6203 11.1699 12.6429 11.2076C12.6656 11.2454 12.6805 11.2873 12.6866 11.331C12.6928 11.3746 12.69 11.419 12.6786 11.4616C12.6672 11.5041 12.6474 11.5439 12.6203 11.5787C12.5931 11.6134 12.5593 11.6423 12.5208 11.6636C12.4822 11.685 12.4398 11.6984 12.396 11.703C12.3522 11.7076 12.3079 11.7033 12.2657 11.6904C12.1844 11.6655 12.1159 11.6101 12.0747 11.5357C12.0335 11.4613 12.0227 11.3738 12.0447 11.2917C12.0668 11.2096 12.1198 11.1392 12.1927 11.0954C12.2656 11.0516 12.3526 11.0378 12.4355 11.0569ZM14.3552 11.5714C14.3982 11.5813 14.4387 11.5998 14.4743 11.6257C14.5099 11.6516 14.54 11.6844 14.5627 11.7221C14.5854 11.7599 14.6002 11.8018 14.6064 11.8455C14.6125 11.8891 14.6098 11.9335 14.5984 11.9761C14.587 12.0186 14.5671 12.0584 14.54 12.0932C14.5129 12.1279 14.479 12.1568 14.4405 12.1781C14.402 12.1995 14.3595 12.2129 14.3157 12.2175C14.2719 12.2221 14.2276 12.2178 14.1855 12.2049C14.1042 12.18 14.0357 12.1246 13.9945 12.0502C13.9532 11.9758 13.9425 11.8883 13.9645 11.8062C13.9865 11.7241 14.0395 11.6537 14.1124 11.6099C14.1853 11.5661 14.2724 11.5523 14.3552 11.5714ZM16.275 12.0855C16.3179 12.0954 16.3584 12.1138 16.394 12.1397C16.4297 12.1656 16.4598 12.1984 16.4824 12.2362C16.5051 12.274 16.52 12.3159 16.5261 12.3595C16.5323 12.4032 16.5295 12.4476 16.5181 12.4901C16.5067 12.5327 16.4869 12.5725 16.4598 12.6072C16.4326 12.6419 16.3988 12.6708 16.3603 12.6922C16.3217 12.7135 16.2793 12.7269 16.2355 12.7315C16.1917 12.7361 16.1474 12.7319 16.1052 12.719C16.0239 12.6941 15.9554 12.6386 15.9142 12.5643C15.873 12.4899 15.8622 12.4024 15.8842 12.3203C15.9063 12.2381 15.9593 12.1677 16.0322 12.1239C16.1051 12.0801 16.1921 12.0664 16.275 12.0855ZM1.04911 11.9993C1.53255 12.5116 2.29205 12.918 3.24623 13.1735L10.0074 14.9848L11.886 18.1199C12.5258 19.1837 13.4975 20.0078 14.6514 20.4654L17.2007 21.4707C17.3152 21.517 17.4413 21.526 17.5612 21.4963C17.681 21.4666 17.7884 21.3997 17.8679 21.3054C17.9491 21.2125 17.999 21.0964 18.0106 20.9737C18.0222 20.8509 17.9949 20.7276 17.9327 20.6211L15.4897 16.39C17.199 16.7545 18.6812 16.9478 19.9412 16.9478C21.1925 16.9478 22.2311 16.7589 23.11 16.4001L23.7287 17.472C23.8542 17.6908 24.0219 17.8826 24.222 18.0361C24.4221 18.1897 24.6507 18.3021 24.8946 18.3667L25.6467 18.5679C25.7519 18.597 25.8631 18.596 25.9679 18.5653C26.0726 18.5345 26.1667 18.4751 26.2395 18.3938C26.3129 18.3135 26.3627 18.2144 26.3834 18.1076C26.4041 18.0007 26.3949 17.8902 26.3567 17.7883L25.2599 14.8369C25.2765 14.8168 25.294 14.798 25.3102 14.7779C26.3415 13.5063 27.3628 12.2267 28.374 10.9392C28.4345 10.8628 28.475 10.7726 28.4918 10.6766C28.5086 10.5806 28.5012 10.482 28.4703 10.3896C28.4394 10.2972 28.3859 10.214 28.3147 10.1475C28.2435 10.0809 28.1568 10.0332 28.0625 10.0087L26.1629 9.49941C25.9795 9.44983 25.7865 9.44775 25.602 9.49336C25.4175 9.53898 25.2477 9.6308 25.1085 9.76016L22.5623 12.117L16.8927 10.5975L21.2997 8.05304C21.5215 7.92529 21.6339 7.68029 21.5862 7.42872C21.5385 7.17716 21.3439 6.98991 21.091 6.95229L18.3802 6.54804C17.16 6.36516 15.8922 6.59616 14.812 7.19597L13.0615 8.16898C13.0223 8.18898 12.9875 8.21669 12.9592 8.25044C12.9308 8.28419 12.9096 8.3233 12.8967 8.36543C12.8839 8.40756 12.8796 8.45186 12.8842 8.49567C12.8888 8.53948 12.9022 8.58192 12.9236 8.62045C12.945 8.65898 12.9739 8.69281 13.0086 8.71992C13.0433 8.74704 13.0831 8.76689 13.1257 8.77828C13.1682 8.78968 13.2127 8.79238 13.2563 8.78624C13.2999 8.7801 13.3418 8.76524 13.3796 8.74254L15.1305 7.76954C16.0903 7.23854 17.1979 7.03734 18.2831 7.19685L20.8154 7.57441L15.9959 10.3569L7.03105 7.9546C5.27929 7.4856 4.01623 8.23941 3.26242 8.69047C3.12767 8.77098 3.01086 8.84185 2.91111 8.89085C1.92673 9.03304 0.780045 9.58429 0.540295 10.4798C0.410793 10.965 0.596294 11.5189 1.04911 11.9993ZM15.0482 15.6257L14.4182 14.5346L20.8372 16.2544C19.3217 16.3813 17.4225 16.1717 15.0482 15.6257ZM1.17467 10.6505C1.33173 10.0642 2.25748 9.63854 3.04848 9.53485C3.08057 9.53095 3.11186 9.5221 3.14123 9.5086C3.2523 9.45542 3.36065 9.39672 3.46586 9.33273L5.60873 9.90672C5.69278 9.92895 5.78222 9.91705 5.85753 9.87361C5.93284 9.83018 5.98794 9.75873 6.0108 9.67485C6.0322 9.59083 6.01993 9.50177 5.97662 9.42667C5.9333 9.35156 5.86236 9.29634 5.77892 9.27279L4.29011 8.87379C4.94854 8.55398 5.79729 8.30372 6.86173 8.58897L22.5675 12.7977C22.6211 12.8122 22.6775 12.8129 22.7314 12.7995C22.7853 12.7862 22.8349 12.7594 22.8755 12.7216L25.5539 10.2418C25.6118 10.1879 25.6824 10.1496 25.7592 10.1306C25.836 10.1116 25.9164 10.1125 25.9927 10.1333L27.7935 10.6159C27.4172 11.0954 26.3397 12.463 24.7997 14.3649C24.7476 14.4292 24.6947 14.4922 24.64 14.553C24.5569 14.6462 24.5415 14.7726 24.5809 14.882L24.5774 14.8846L25.6987 17.9016L25.0639 17.7318C24.9034 17.6893 24.7529 17.6152 24.6212 17.5141C24.4895 17.4129 24.3791 17.2866 24.2965 17.1425L22.8003 14.5512L23.6832 14.7879C23.7672 14.8098 23.8565 14.7977 23.9317 14.7543C24.0069 14.711 24.0621 14.6397 24.0852 14.556C24.0964 14.5144 24.0993 14.471 24.0937 14.4283C24.0881 14.3855 24.0741 14.3443 24.0526 14.307C24.0311 14.2696 24.0024 14.2369 23.9682 14.2107C23.934 14.1844 23.895 14.1651 23.8534 14.154L22.8244 13.8779C22.711 13.8474 22.5911 13.8513 22.4799 13.889C22.3688 13.9267 22.2713 13.9965 22.1998 14.0896C22.1283 14.1827 22.0861 14.295 22.0784 14.4121C22.0707 14.5292 22.098 14.646 22.1567 14.7477L22.7784 15.8243C22.6384 15.8786 22.501 15.9355 22.351 15.9801L13.954 13.7296L13.737 13.3538C13.7162 13.3153 13.6878 13.2813 13.6536 13.2539C13.6194 13.2265 13.58 13.2063 13.5378 13.1943C13.4957 13.1824 13.4515 13.179 13.408 13.1844C13.3646 13.1898 13.3226 13.2039 13.2846 13.2258C13.2467 13.2477 13.2135 13.277 13.187 13.3119C13.1605 13.3468 13.1413 13.3867 13.1305 13.4292C13.1197 13.4717 13.1175 13.5159 13.1241 13.5592C13.1307 13.6025 13.1458 13.6441 13.1687 13.6815L17.2738 20.7939L14.8916 19.8546C13.8721 19.4508 13.0136 18.7229 12.4486 17.783L9.03873 12.0929C9.01659 12.0559 8.98738 12.0237 8.95277 11.998C8.91816 11.9723 8.87883 11.9537 8.83702 11.9432C8.79522 11.9327 8.75175 11.9306 8.70912 11.9369C8.66648 11.9432 8.62551 11.9579 8.58854 11.98C8.54194 12.0088 8.50342 12.0489 8.47663 12.0967C8.44984 12.1445 8.43566 12.1983 8.43542 12.253L2.46311 10.6527C2.42148 10.6415 2.37807 10.6387 2.33535 10.6443C2.29263 10.6499 2.25143 10.6639 2.21412 10.6855C2.1768 10.707 2.1441 10.7357 2.11787 10.7699C2.09165 10.8041 2.07241 10.8431 2.06126 10.8848C2.05012 10.9264 2.04728 10.9698 2.05291 11.0125C2.05854 11.0552 2.07253 11.0964 2.09409 11.1337C2.11564 11.1711 2.14433 11.2038 2.17852 11.23C2.21271 11.2562 2.25173 11.2755 2.29336 11.2866L8.84229 13.0414L9.52261 14.1767L3.41642 12.5405C2.35942 12.2574 1.80554 11.8457 1.52686 11.55C1.23767 11.2428 1.10598 10.9068 1.17467 10.6505ZM18.1947 12.6C18.2377 12.6099 18.2782 12.6283 18.3138 12.6542C18.3494 12.6801 18.3795 12.7129 18.4022 12.7507C18.4249 12.7885 18.4397 12.8304 18.4459 12.874C18.452 12.9177 18.4493 12.9621 18.4379 13.0046C18.4265 13.0472 18.4066 13.087 18.3795 13.1217C18.3524 13.1564 18.3185 13.1853 18.28 13.2067C18.2415 13.228 18.199 13.2414 18.1552 13.246C18.1114 13.2506 18.0671 13.2464 18.025 13.2335C17.9437 13.2086 17.8752 13.1531 17.834 13.0788C17.7927 13.0044 17.782 12.9169 17.804 12.8348C17.826 12.7526 17.879 12.6822 17.9519 12.6384C18.0248 12.5946 18.1119 12.5809 18.1947 12.6Z" fill="#026ED2"/>
</g>
<defs>
<clipPath id="clip0_131_2193">
<rect width="28" height="28" fill="white" transform="matrix(-1 0 0 1 28.5 0)"/>
</clipPath>
</defs>
</svg>
