<svg width="23" height="23" viewBox="0 0 23 23" fill="none" xmlns="http://www.w3.org/2000/svg">
<path fill-rule="evenodd" clip-rule="evenodd" d="M18.2083 2.87512C19.7961 2.87512 21.0833 4.16236 21.0833 5.75012V12.8307C21.0833 12.8527 21.0831 12.8748 21.0825 12.8968C20.1158 11.258 18.3321 10.1585 16.2916 10.1585C14.9625 10.1565 13.6771 10.6327 12.6701 11.5001H6.32496C6.22329 11.5001 6.12579 11.5405 6.0539 11.6124C5.98201 11.6843 5.94163 11.7818 5.94163 11.8835C5.94163 11.9851 5.98201 12.0826 6.0539 12.1545C6.12579 12.2264 6.22329 12.2668 6.32496 12.2668H11.9331C11.1543 13.2479 10.7313 14.4641 10.7333 15.7168C10.7333 16.7192 10.9986 17.6595 11.4628 18.4714C10.8767 18.4603 10.2946 18.1839 9.92178 17.6427L8.87278 16.1202C8.78468 15.9924 8.66683 15.8879 8.52937 15.8156C8.39191 15.7434 8.23897 15.7057 8.08369 15.7057H4.79163C3.20386 15.7057 1.91663 14.4184 1.91663 12.8307V5.75012C1.91663 4.16236 3.20386 2.87512 4.79163 2.87512H18.2083ZM6.32496 5.75012C6.22329 5.75012 6.12579 5.79051 6.0539 5.8624C5.98201 5.93429 5.94163 6.03179 5.94163 6.13346C5.94163 6.23512 5.98201 6.33262 6.0539 6.40451C6.12579 6.4764 6.22329 6.51679 6.32496 6.51679H10.8291C10.9308 6.51679 11.0283 6.4764 11.1002 6.40451C11.1721 6.33262 11.2125 6.23512 11.2125 6.13346C11.2125 6.03179 11.1721 5.93429 11.1002 5.8624C11.0283 5.79051 10.9308 5.75012 10.8291 5.75012H6.32496ZM5.94163 9.00846C5.94163 8.90679 5.98201 8.80929 6.0539 8.7374C6.12579 8.66551 6.22329 8.62512 6.32496 8.62512H17.0583C17.16 8.62512 17.2575 8.66551 17.3294 8.7374C17.4012 8.80929 17.4416 8.90679 17.4416 9.00846C17.4416 9.11012 17.4012 9.20762 17.3294 9.27951C17.2575 9.3514 17.16 9.39179 17.0583 9.39179H6.32496C6.22329 9.39179 6.12579 9.3514 6.0539 9.27951C5.98201 9.20762 5.94163 9.11012 5.94163 9.00846Z" fill="#FF7A00"/>
<path fill-rule="evenodd" clip-rule="evenodd" d="M16.2917 20.5085C18.938 20.5085 21.0833 18.3632 21.0833 15.7168C21.0833 13.0705 18.938 10.9252 16.2917 10.9252C13.6453 10.9252 11.5 13.0705 11.5 15.7168C11.5 18.3632 13.6453 20.5085 16.2917 20.5085ZM15.3333 14.7585C15.3333 14.5043 15.4343 14.2606 15.614 14.0809C15.7937 13.9011 16.0375 13.8002 16.2917 13.8002C16.8243 13.8002 17.25 14.181 17.25 14.7202C17.25 14.9438 17.1611 15.1583 17.003 15.3165C16.8448 15.4747 16.6303 15.5635 16.4067 15.5635C16.2725 15.5635 16.1438 15.6168 16.0489 15.7117C15.954 15.8066 15.9007 15.9353 15.9007 16.0695V16.6752C15.9007 16.7768 15.9411 16.8743 16.0129 16.9462C16.0848 17.0181 16.1823 17.0585 16.284 17.0585C16.3857 17.0585 16.4832 17.0181 16.5551 16.9462C16.6269 16.8743 16.6673 16.7768 16.6673 16.6752V16.3091C17.0441 16.2472 17.3866 16.0534 17.6337 15.7624C17.8809 15.4713 18.0166 15.102 18.0167 14.7202C18.0167 13.767 17.2383 13.0335 16.2917 13.0335C15.8342 13.0335 15.3954 13.2152 15.0719 13.5387C14.7484 13.8622 14.5667 14.301 14.5667 14.7585C14.5667 15.0013 14.6573 15.2568 14.95 15.2568C15.2427 15.2568 15.3333 15.0013 15.3333 14.7585ZM16.8667 18.0168C16.8667 18.1693 16.8061 18.3156 16.6983 18.4234C16.5904 18.5313 16.4442 18.5918 16.2917 18.5918C16.1392 18.5918 15.9929 18.5313 15.8851 18.4234C15.7772 18.3156 15.7167 18.1693 15.7167 18.0168C15.7167 17.8643 15.7772 17.7181 15.8851 17.6103C15.9929 17.5024 16.1392 17.4418 16.2917 17.4418C16.4442 17.4418 16.5904 17.5024 16.6983 17.6103C16.8061 17.7181 16.8667 17.8643 16.8667 18.0168Z" fill="#FFAA5B"/>
</svg>
