<svg width="25" height="26" viewBox="0 0 25 26" fill="none" xmlns="http://www.w3.org/2000/svg">
<g clip-path="url(#clip0_43_432)">
<path d="M10.9449 0.103638H12.4098V2.42219H10.9449V0.103638Z" fill="#DCF0FF"/>
<path d="M11.6773 0.103638H12.4098V2.42219H11.6773V0.103638Z" fill="#BBDCFF"/>
<path d="M10.9449 21.4589H12.4098V23.7198H10.9449V21.4589Z" fill="#DCF0FF"/>
<path d="M11.6773 21.4589H12.4098V23.7198H11.6773V21.4589Z" fill="#BBDCFF"/>
<path d="M15.8485 0.830151L19.4092 0.105103L20.3976 4.95989L16.8369 5.68489L15.8485 0.830151Z" fill="#FF7D00"/>
<path d="M15.8485 0.830151L19.4092 0.105103L20.3976 4.95989L16.8369 5.68489L15.8485 0.830151Z" fill="#FF4E0A"/>
<path d="M18.4072 16.2673L13.294 13.8024L4.26962 15.4931L10.0731 18.1863L18.4072 16.2673Z" fill="#FF9100"/>
<path d="M13.294 13.8024L11.6773 14.1053V17.8168L18.4072 16.2672L13.294 13.8024Z" fill="#FF7D00"/>
<path d="M18.4431 8.51504L13.5579 6.15771L4.36002 7.68477L9.42994 10.1364L18.4431 8.51504Z" fill="#FF9100"/>
<path d="M13.5576 6.15771L11.6773 6.46997V9.73208L18.4431 8.51504L13.5576 6.15771Z" fill="#FF7D00"/>
<path d="M10.9449 6.26318H12.4098V9.96309H10.9449V6.26318Z" fill="#DCF0FF"/>
<path d="M11.6773 6.26318H12.4098V9.96309H11.6773V6.26318Z" fill="#BBDCFF"/>
<path d="M10.9449 14.0149H12.4098V17.6995H10.9449V14.0149Z" fill="#DCF0FF"/>
<path d="M11.6773 14.0149H12.4098V17.6995H11.6773V14.0149Z" fill="#BBDCFF"/>
<path d="M18.1129 13.1713L5.75049 15.6876C4.5084 15.9404 3.29649 15.1385 3.04375 13.8965L2.9711 13.5396C2.71836 12.2975 3.52041 11.0856 4.76226 10.8329L17.1248 8.31674C18.3668 8.06381 19.5788 8.86581 19.8314 10.1079L19.9042 10.4645C20.1568 11.7066 19.355 12.9185 18.1129 13.1713Z" fill="#FFDA53"/>
<path d="M19.9041 10.4645L19.8314 10.1079C19.5788 8.8658 18.3668 8.06375 17.1248 8.31668L11.6773 9.42542V14.4812L18.1129 13.1715C19.355 12.9185 20.1569 11.7066 19.9041 10.4645Z" fill="#FFCD00"/>
<path d="M16.9105 16.1056L9.93862 17.5246L10.4326 19.9521L2.97168 21.4705C3.24463 22.8112 4.55264 23.6767 5.89312 23.4038L17.8987 20.9603C19.2394 20.6874 20.105 19.3795 19.832 18.0388C19.5591 16.6981 18.2512 15.8326 16.9105 16.1055V16.1056Z" fill="#FFDA53"/>
<path d="M19.832 18.0388C19.5591 16.6981 18.2512 15.8326 16.9105 16.1055L11.6773 17.1705V22.2265L17.8987 20.9603C19.2394 20.6873 20.105 19.3795 19.832 18.0388Z" fill="#FFCD00"/>
<path d="M4.97647 3.04399C3.6358 3.31675 2.77022 4.6248 3.04317 5.96528C3.31593 7.30596 4.62398 8.17148 5.96446 7.89878L17.2985 5.5918L16.3103 0.737061L4.97647 3.04399Z" fill="#FFDA53"/>
<path d="M16.3105 0.737061L11.6773 1.68003V6.73584L17.2987 5.5918L16.3105 0.737061Z" fill="#FFCD00"/>
<path d="M19.0201 25.1037C18.6577 25.1034 18.2986 25.034 17.9623 24.899L17.0921 24.5509C16.7625 24.4184 16.3943 24.4184 16.0646 24.5509L15.1945 24.899C14.5123 25.172 13.7609 25.172 13.0789 24.899L12.2087 24.5509C11.879 24.4184 11.5108 24.4184 11.1811 24.5509L10.3109 24.899C9.62886 25.172 8.87759 25.172 8.19531 24.899L7.3252 24.5509C6.99551 24.4184 6.62739 24.4184 6.29771 24.5509L5.42759 24.899C4.74531 25.172 3.99399 25.172 3.31191 24.899L2.4418 24.5509C2.11204 24.4184 1.74387 24.4184 1.41411 24.5509L0.543994 24.899L0 23.5389L0.870117 23.1908C1.55225 22.918 2.30352 22.918 2.98574 23.1908L3.85586 23.5389C4.18554 23.6715 4.55371 23.6715 4.8834 23.5389L5.75352 23.1908C6.4356 22.918 7.18711 22.918 7.86914 23.1908L8.73926 23.5389C9.06899 23.6715 9.43721 23.6715 9.76694 23.5389L10.6371 23.1908C11.3192 22.918 12.0705 22.918 12.7527 23.1908L13.6229 23.5389C13.9525 23.6715 14.3207 23.6715 14.6503 23.5389L15.5205 23.1908C16.2026 22.918 16.9541 22.918 17.6361 23.1908L18.5063 23.5389C18.836 23.6715 19.2042 23.6715 19.5339 23.5389L20.4041 23.1908C21.0861 22.918 21.8374 22.918 22.5197 23.1908L23.3898 23.5389L22.8457 24.899L21.9757 24.5509C21.6459 24.4184 21.2778 24.4184 20.948 24.5509L20.0779 24.899C19.7415 25.034 19.3825 25.1034 19.02 25.1037H19.0201Z" fill="#8AEEFF"/>
<path d="M22.5197 23.1908C21.8374 22.918 21.0861 22.918 20.404 23.1908L19.5339 23.5389C19.2042 23.6714 18.8359 23.6713 18.5062 23.5387L17.6363 23.1908C16.954 22.918 16.2027 22.918 15.5206 23.1908L14.6503 23.5389C14.3206 23.6714 13.9525 23.6713 13.6228 23.5387L12.7527 23.1908C12.4109 23.0537 12.0456 22.9843 11.6773 22.9865V24.4519C11.8593 24.4496 12.0398 24.4833 12.2087 24.5509L13.0789 24.899C13.761 25.172 14.5124 25.172 15.1945 24.899L16.0646 24.5509C16.3944 24.4184 16.7626 24.4184 17.0923 24.5509L17.9623 24.899C18.2987 25.034 18.6578 25.1034 19.0203 25.1037C19.3826 25.1034 19.7416 25.034 20.0779 24.899L20.948 24.5509C21.2778 24.4184 21.646 24.4184 21.9757 24.5509L22.8458 24.899L23.3898 23.5389L22.5197 23.1908Z" fill="#00B9ED"/>
</g>
<defs>
<clipPath id="clip0_43_432">
<rect width="25" height="25" fill="white" transform="translate(0 0.103638)"/>
</clipPath>
</defs>
</svg>
