<svg width="375" height="812" viewBox="0 0 375 812" fill="none" xmlns="http://www.w3.org/2000/svg">
<g clip-path="url(#clip0_50_1413)">
<rect x="-21" y="-215" width="661" height="1165" rx="200" fill="url(#paint0_linear_50_1413)"/>
<g clip-path="url(#clip1_50_1413)">
<path d="M21.6477 97.7523C21.6477 98.5228 21.596 99.2933 21.4411 100.064C20.7698 103.557 18.6524 106.793 15.4505 109.413C11.9904 112.238 7.29088 114.395 1.86835 115.525C-0.868744 116.091 -3.76076 116.399 -6.75606 116.399C-10.2678 116.399 -13.573 115.988 -16.6716 115.217C-25.8124 112.957 -32.7326 107.718 -34.6434 101.297C-34.9532 100.167 -35.1598 98.9851 -35.1598 97.7523C-35.1598 87.4788 -22.4556 79.1572 -6.75606 79.1572C5.48338 79.1572 15.9153 84.2426 19.8918 91.3313C21.028 93.3347 21.6477 95.4921 21.6477 97.7523Z" fill="#BDD1FF"/>
<path d="M46.0751 106.536C46.0751 110.389 45.3521 113.985 44.061 117.118C43.5446 118.299 42.9765 119.43 42.3568 120.508C39.5164 125.08 35.3333 127.957 30.6855 127.957C29.9625 127.957 29.2394 127.905 28.5164 127.751C26.3474 127.34 24.2817 126.261 22.5258 124.72C18.7042 121.433 16.0188 115.834 15.3991 109.362C15.2958 108.437 15.2441 107.512 15.2441 106.588C15.2441 104.019 15.554 101.554 16.1737 99.2935C16.9484 96.2628 18.2394 93.5403 19.8404 91.3315C22.6291 87.5303 26.3991 85.2188 30.6338 85.2188C37.2441 85.2188 42.9249 91.0747 45.0939 99.2421C45.7653 101.502 46.0751 103.968 46.0751 106.536Z" fill="#BDD1FF"/>
<path d="M2.69479 121.022C2.69479 125.953 0.83564 130.473 -2.36624 134.172C-5.3099 137.613 -9.38971 140.233 -14.1409 141.774C-16.9296 142.647 -19.9766 143.161 -23.1268 143.161C-37.3803 143.161 -48.9484 133.247 -48.9484 121.073C-48.9484 119.892 -48.8451 118.761 -48.6385 117.631C-47.3475 110.44 -41.9766 104.379 -34.5916 101.245C-31.1315 99.7555 -27.2066 98.9336 -23.0752 98.9336C-16.5681 98.9336 -10.6292 100.988 -6.08455 104.379C-2.26295 107.255 0.577423 111.056 1.92014 115.423C2.38493 117.272 2.69479 119.121 2.69479 121.022Z" fill="#BDD1FF"/>
<path d="M13.2301 154C31.3699 154 46.0751 141.719 46.0751 126.569C46.0751 111.42 31.3699 99.1392 13.2301 99.1392C-4.90978 99.1392 -19.615 111.42 -19.615 126.569C-19.615 141.719 -4.90978 154 13.2301 154Z" fill="#BDD1FF"/>
<path d="M71.7936 119.327C71.7936 130.473 60.587 139.514 46.695 139.514C45.1973 139.514 43.7513 139.411 42.3569 139.206C35.1785 138.179 29.033 134.737 25.3147 129.908C24.0752 128.316 23.1457 126.569 22.4743 124.669C21.9062 122.974 21.5964 121.176 21.5964 119.327C21.5964 112.957 25.263 107.255 31.0471 103.557C34.972 101.04 39.8264 99.4474 45.094 99.1905C45.6105 99.1392 46.1269 99.1392 46.695 99.1392C53.4602 99.1392 59.5541 101.297 64.0987 104.79C68.8499 108.488 71.7936 113.625 71.7936 119.327Z" fill="#BDD1FF"/>
<path d="M64.0988 104.79C62.0331 112.392 54.5964 118.402 45.1457 120.097C44.2161 120.251 43.2866 120.405 42.357 120.457C41.4791 120.559 40.5495 120.559 39.6199 120.559C38.1223 120.559 36.6762 120.457 35.2819 120.251C33.526 123.025 31.2537 125.542 28.5166 127.648C27.5354 128.419 26.4509 129.138 25.3147 129.857C19.8922 133.145 13.2302 135.045 6.05183 135.045C3.10816 135.045 0.267788 134.737 -2.41766 134.12C-9.28621 132.579 -15.3285 129.241 -19.6148 124.72C-20.1829 124.104 -20.751 123.487 -21.3191 122.82C-24.1078 123.693 -27.1548 124.207 -30.305 124.207C-37.535 124.207 -44.0421 121.69 -48.7416 117.58C-47.4505 110.389 -42.0796 104.327 -34.6947 101.194C-35.0045 100.064 -35.2111 98.8823 -35.2111 97.6495C-35.2111 87.376 -22.5069 79.0544 -6.80733 79.0544C5.43211 79.0544 15.864 84.1398 19.8406 91.2286C22.6293 87.4274 26.3992 85.1158 30.634 85.1158C37.2443 85.1158 42.9251 90.9717 45.0941 99.1392C45.6105 99.0878 46.127 99.0878 46.695 99.0878C53.4603 99.1392 59.6058 101.297 64.0988 104.79Z" fill="#E9F2DC"/>
<path d="M5.53515 116.347C4.60557 123.333 -2.31461 128.727 -10.6292 128.727C-18.9954 128.727 -25.8639 123.333 -26.7935 116.347C-23.3334 120.457 -17.3944 123.128 -10.6292 123.128C-3.91555 123.128 2.07506 120.405 5.53515 116.347Z" fill="#BDD1FF"/>
<path d="M53.0471 111.827C52.1175 118.813 45.1973 124.207 36.8828 124.207C28.5166 124.207 21.648 118.813 20.7184 111.827C24.1785 115.937 30.1175 118.608 36.8828 118.608C43.648 118.608 49.587 115.885 53.0471 111.827Z" fill="#BDD1FF"/>
<path d="M71.9998 117.221C71.9998 119.121 71.6899 120.919 71.0702 122.666C67.8683 114.447 58.366 108.54 47.1594 108.54C46.643 108.54 46.1266 108.54 45.5585 108.591C43.3895 100.424 37.7604 94.5677 31.0984 94.5677C26.9153 94.5677 23.0937 96.9306 20.305 100.68C16.3284 93.5917 5.8965 88.5063 -6.34294 88.5063C-22.0425 88.5063 -34.7467 96.8279 -34.7467 107.101C-34.7467 108.283 -34.5918 109.464 -34.2303 110.646C-40.8922 113.471 -45.9533 118.71 -47.8124 125.029C-48.4838 123.077 -48.7936 121.073 -48.7936 118.916C-48.7936 110.235 -42.958 102.735 -34.4368 99.1394C-34.7467 98.0093 -34.9533 96.8279 -34.9533 95.5951C-34.9533 85.3215 -22.249 77 -6.54951 77C5.68993 77 16.1219 82.0854 20.0984 89.1741C22.8871 85.3729 26.6571 83.0614 30.8918 83.0614C37.5021 83.0614 43.1829 88.9173 45.3519 97.0847C45.8683 97.0334 46.3848 97.0334 46.9528 97.0334C60.7932 97.0334 71.9998 106.074 71.9998 117.221Z" fill="white"/>
<path d="M30.2725 107.923C27.2772 105.149 22.9908 103.403 18.2396 103.403C13.4884 103.403 9.15042 105.149 6.20676 107.923C7.75605 102.016 12.5589 97.7522 18.2396 97.7522C23.9204 97.7522 28.7232 102.016 30.2725 107.923Z" fill="white"/>
</g>
<g clip-path="url(#clip2_50_1413)">
<path d="M72.4658 354.222C72.4658 360.345 67.4338 365.669 59.7958 368.598C55.7522 370.195 50.9897 371.082 45.8677 371.082C31.1309 371.082 19.2696 363.539 19.2696 354.222C19.2696 346.945 26.5482 340.645 36.792 338.338C38.5892 337.894 40.5661 337.628 42.543 337.45C43.6213 337.362 44.6996 337.362 45.8677 337.362C46.1373 337.362 46.317 337.362 46.5866 337.362C47.9345 337.362 49.1925 337.45 50.4505 337.628C54.4043 338.071 57.9986 339.048 61.1437 340.467C67.9729 343.396 72.4658 348.454 72.4658 354.222Z" fill="#BDD1FF"/>
<path d="M105.444 343.662C105.444 347.3 104.725 350.849 103.557 354.044C99.3335 365.136 88.4606 373.034 75.7007 373.034C69.8599 373.034 64.4684 371.348 59.8856 368.508C51.5288 363.273 45.9576 354.133 45.9576 343.573C45.9576 341.354 46.2272 339.225 46.6764 337.184C46.7663 336.829 46.8562 336.385 46.946 336.03C50.2708 323.429 61.9524 314.112 75.7007 314.112C77.3182 314.112 78.9356 314.2 80.4632 314.467C87.9215 315.62 94.3913 319.525 98.8842 325.026C102.928 330.262 105.444 336.74 105.444 343.662Z" fill="#BDD1FF"/>
<path d="M205.546 319.17C205.546 327.955 202.042 336.119 195.932 343.041C192.158 347.3 187.395 351.116 181.824 354.311C171.131 360.434 157.562 364.072 142.735 364.072C127.819 364.072 114.16 360.345 103.467 354.133C94.0321 348.72 86.8434 341.355 83.0694 333.013C81.0925 328.665 80.0142 323.962 80.0142 319.17C80.0142 317.661 80.104 316.153 80.2837 314.733C83.1592 294.146 105.354 277.729 133.66 274.801C136.625 274.534 139.68 274.357 142.735 274.357C165.829 274.357 186.047 283.32 196.92 296.63C198.448 298.494 199.796 300.446 200.874 302.398C203.929 307.545 205.546 313.225 205.546 319.17Z" fill="#BDD1FF"/>
<path d="M218.216 268.588C218.216 274.623 216.958 280.302 214.622 285.449C214.083 286.602 213.544 287.756 212.915 288.909C212.645 289.442 212.376 289.886 212.016 290.418C209.141 295.032 205.367 299.114 200.964 302.398C195.842 306.125 189.821 308.787 183.262 309.941C180.835 310.384 178.319 310.562 175.803 310.562C154.417 310.562 136.805 295.032 133.839 274.711C133.57 272.759 133.39 270.718 133.39 268.588C133.39 245.427 152.35 226.704 175.803 226.704C176.612 226.704 177.421 226.704 178.229 226.792C199.706 228.035 216.958 245.073 218.216 266.281C218.216 267.08 218.216 267.79 218.216 268.588Z" fill="#BDD1FF"/>
<path d="M257.484 241.701C257.484 244.008 257.304 246.315 257.035 248.534C256.406 252.616 255.328 256.52 253.71 260.159C247.24 275.155 233.043 285.538 216.599 285.538C215.97 285.538 215.251 285.538 214.622 285.449C213.274 285.36 212.016 285.272 210.668 285.005C194.763 282.521 181.823 270.275 177.42 254.124C176.342 250.131 175.713 245.96 175.713 241.701C175.713 236.465 176.612 231.407 178.139 226.793C183.8 209.932 198.896 197.953 216.599 197.953C227.651 197.953 237.715 202.656 245.084 210.376C246.521 211.885 247.869 213.482 249.127 215.257C254.339 222.533 257.484 231.762 257.484 241.701Z" fill="#BDD1FF"/>
<path d="M345.276 282.964C345.276 289.619 341.951 295.742 336.2 301.067C334.673 302.486 332.966 303.906 331.078 305.149C321.284 311.893 307.266 316.685 291.091 318.371C286.868 318.814 282.465 319.08 277.972 319.08C275.546 319.08 273.12 318.992 270.783 318.903C241.579 317.217 217.947 305.592 212.016 290.329C211.836 289.974 211.746 289.619 211.657 289.264C211.207 287.844 210.848 286.425 210.758 285.005C210.668 284.295 210.668 283.585 210.668 282.875C210.668 276.841 213.364 271.162 218.216 266.192C226.303 257.851 240.232 251.373 257.035 248.444C263.595 247.291 270.694 246.67 277.972 246.67C313.826 246.67 343.12 261.755 345.186 280.657C345.276 281.455 345.276 282.165 345.276 282.964Z" fill="#BDD1FF"/>
<path d="M316.701 393C347.272 393 372.054 371.745 372.054 345.525C372.054 319.305 347.272 298.05 316.701 298.05C286.131 298.05 261.349 319.305 261.349 345.525C261.349 371.745 286.131 393 316.701 393Z" fill="#BDD1FF"/>
<path d="M234.84 380.666C267.494 380.666 293.966 359.371 293.966 333.102C293.966 306.833 267.494 285.538 234.84 285.538C202.185 285.538 175.713 306.833 175.713 333.102C175.713 359.371 202.185 380.666 234.84 380.666Z" fill="#BDD1FF"/>
<path d="M400 308.344C400 325.027 387.959 338.87 371.964 341.798C369.898 342.153 367.741 342.419 365.495 342.419C360.103 342.419 355.071 341.177 350.578 339.047C338.986 333.546 330.989 321.832 330.989 308.344C330.989 307.279 331.079 306.214 331.169 305.149C331.348 303.374 331.618 301.6 332.067 299.825C334.044 292.016 338.807 285.272 345.277 280.746C350.938 276.664 357.947 274.268 365.585 274.268C373.762 274.268 381.31 277.108 387.151 281.811C394.878 288.023 400 297.606 400 308.344Z" fill="#BDD1FF"/>
<path d="M387.06 281.722C385.173 292.104 378.524 300.801 369.448 305.681C366.393 307.279 363.068 308.521 359.563 309.142C359.653 310.384 359.743 311.627 359.743 312.869C359.743 313.757 359.743 314.644 359.653 315.531C359.114 324.228 355.789 332.303 350.578 339.047C340.693 351.825 323.71 360.344 304.39 360.344C297.831 360.344 291.541 359.368 285.61 357.594C276.085 354.665 267.728 349.518 261.438 342.863C260.18 341.532 258.922 340.112 257.844 338.603C247.959 344.549 235.738 348.01 222.529 348.01C213.004 348.01 203.928 346.146 196.021 342.952C188.203 339.757 181.374 335.231 175.982 329.73C173.556 327.245 171.4 324.494 169.603 321.566C158.909 327.689 145.341 331.327 130.514 331.327C119.012 331.327 108.139 329.108 98.8839 325.204C96.4577 324.228 94.1214 323.074 91.9648 321.832C91.6952 321.654 91.5155 321.566 91.2459 321.388C90.9764 322.009 90.7967 322.542 90.5271 323.163C88.8198 326.89 86.3037 330.173 83.2485 332.924C82.979 333.19 82.7094 333.457 82.35 333.634C77.228 337.805 70.5785 340.378 63.3898 340.378C62.6709 340.378 61.9521 340.378 61.2332 340.289C57.4592 340.023 53.775 339.047 50.54 337.45C49.5516 337.006 48.5632 336.385 47.5747 335.853C47.395 335.941 47.2153 336.03 46.9457 336.119C50.2705 323.518 61.9521 314.2 75.7004 314.2C77.3179 314.2 78.9353 314.289 80.4629 314.555C83.3384 293.968 105.533 277.551 133.839 274.623C133.569 272.671 133.39 270.63 133.39 268.5C133.39 245.339 152.35 226.615 175.803 226.615C176.612 226.615 177.42 226.615 178.229 226.704C183.89 209.844 198.986 197.864 216.688 197.864C227.741 197.864 237.805 202.567 245.174 210.287C246.611 211.796 247.959 213.393 249.217 215.168C254.429 222.533 257.574 231.762 257.574 241.701C257.574 244.008 257.394 246.315 257.125 248.534C263.684 247.38 270.783 246.759 278.062 246.759C313.915 246.759 343.209 261.844 345.276 280.746C350.937 276.664 357.946 274.268 365.584 274.268C373.581 274.268 381.129 277.019 387.06 281.722Z" fill="#E9F2DC"/>
<path d="M36.792 338.338C38.5891 337.894 40.566 337.628 42.5429 337.45C40.7457 337.894 38.7688 338.16 36.792 338.338Z" fill="#E9F2DC"/>
<path d="M90.4372 323.252C88.7299 326.979 86.2138 330.262 83.1587 333.013C82.8891 333.279 82.6195 333.546 82.2601 333.723C84.3268 329.907 87.0226 326.447 90.4372 323.252Z" fill="#E9F2DC"/>
<path d="M359.563 309.142C359.653 310.384 359.743 311.626 359.743 312.869C359.743 313.756 359.743 314.644 359.653 315.531C359.114 324.227 355.789 332.303 350.578 339.047C340.693 351.825 323.71 360.344 304.39 360.344C297.831 360.344 291.541 359.368 285.61 357.593C276.085 354.665 267.728 349.518 261.438 342.863C260.18 341.531 258.922 340.112 257.844 338.603C247.959 344.549 235.738 348.009 222.529 348.009C213.004 348.009 203.929 346.146 196.021 342.951C188.203 339.757 181.374 335.231 175.983 329.729C173.556 327.245 171.4 324.494 169.603 321.565C158.909 327.688 145.341 331.326 130.514 331.326C119.012 331.326 108.139 329.108 98.884 325.204C96.4578 324.227 94.1214 323.074 91.9648 321.831C101.67 313.224 115.687 307.278 131.772 305.592C131.503 303.64 131.323 301.599 131.323 299.469C131.323 276.308 150.283 257.585 173.736 257.585C174.545 257.585 175.354 257.585 176.162 257.673C181.823 240.813 196.92 228.833 214.622 228.833C225.674 228.833 235.738 233.536 243.107 241.257C243.017 243.12 242.927 244.984 242.658 246.758C244.095 246.492 245.623 246.226 247.15 246.049C252.362 253.414 255.507 262.643 255.507 272.581C255.507 274.889 255.328 277.196 255.058 279.414C261.618 278.261 268.716 277.64 275.995 277.64C311.849 277.64 341.142 292.725 343.209 311.626C348.87 307.545 355.879 305.149 363.517 305.149C365.584 305.149 367.651 305.326 369.628 305.681C366.393 307.278 363.068 308.521 359.563 309.142Z" fill="#E9F2DC"/>
<path d="M214.801 304.262C212.285 322.543 194.134 336.652 172.119 336.652C150.103 336.652 132.042 322.543 129.526 304.262C138.691 315 154.327 322.01 172.209 322.01C190.09 322.01 205.636 315 214.801 304.262Z" fill="#BDD1FF"/>
<path d="M307.895 315.621C309.782 329.021 299.808 342.509 284.262 346.768C268.717 351.028 253.081 344.55 247.69 332.215C256.226 337.983 268.717 339.936 281.297 336.475C293.967 332.925 303.582 324.939 307.895 315.621Z" fill="#BDD1FF"/>
<path d="M399.73 306.391C399.73 309.586 399.281 312.781 398.382 315.709C393.889 302.043 380.86 292.193 365.584 292.193C358.036 292.193 351.027 294.589 345.276 298.671C343.209 279.681 313.915 264.596 278.062 264.596C270.783 264.596 263.684 265.217 257.125 266.37C257.484 264.152 257.574 261.845 257.574 259.537C257.574 235.312 239.243 215.7 216.688 215.7C198.986 215.7 183.98 227.68 178.229 244.541C177.42 244.452 176.612 244.452 175.803 244.452C152.35 244.452 133.39 263.176 133.39 286.337C133.39 288.378 133.569 290.418 133.839 292.459C105.533 295.388 83.3384 311.893 80.463 332.392C78.9354 332.126 77.3179 332.037 75.7005 332.037C61.5028 332.037 49.5516 341.887 46.5863 355.02C46.3167 355.02 46.137 355.02 45.8674 355.02C36.8816 355.02 28.974 357.86 24.1217 362.119C20.7969 359.28 18.82 355.819 18.82 352.003C18.82 342.686 30.7712 335.143 45.4182 335.143C45.6877 335.143 45.8674 335.143 46.137 335.143C49.1024 322.009 60.9637 312.159 75.2512 312.159C76.8686 312.159 78.4861 312.248 80.0137 312.514C82.8891 291.927 105.084 275.51 133.39 272.582C133.12 270.63 132.94 268.589 132.94 266.459C132.94 243.298 151.9 224.574 175.354 224.574C176.162 224.574 176.971 224.574 177.78 224.663C183.621 207.98 198.717 196 216.329 196C238.883 196 257.215 215.612 257.215 239.837C257.215 242.145 257.035 244.452 256.765 246.67C263.325 245.517 270.424 244.896 277.702 244.896C313.556 244.896 342.85 259.981 344.917 278.971C350.578 274.889 357.587 272.493 365.225 272.493C384.275 272.316 399.73 287.579 399.73 306.391Z" fill="white"/>
<path d="M294.326 281.722C284.712 273.913 270.873 269.033 255.508 269.033C240.142 269.033 226.304 273.913 216.689 281.722C221.721 265.217 237.176 253.237 255.508 253.237C273.839 253.148 289.294 265.217 294.326 281.722Z" fill="white"/>
<path d="M177.869 300.712C171.4 292.903 162.054 288.023 151.721 288.023C141.387 288.023 132.042 292.903 125.572 300.712C128.986 284.207 139.32 272.227 151.721 272.227C164.121 272.227 174.455 284.207 177.869 300.712Z" fill="white"/>
</g>
<g clip-path="url(#clip3_50_1413)">
<path d="M118.716 703.088C118.716 708.976 118.02 714.584 116.767 719.911C115.514 724.958 113.843 729.585 111.755 733.931C107.439 742.623 101.313 749.773 94.0729 754.399C88.0862 758.185 81.4033 760.288 74.442 760.288C64.4177 760.288 55.2287 756.082 47.8497 748.932C47.0144 748.091 46.0398 747.109 45.3437 746.268C36.7116 736.735 31.0033 722.855 30.168 707.294C30.0287 705.892 30.0287 704.49 30.0287 703.088C30.0287 695.798 31.1426 688.648 33.0917 682.199C39.4962 660.889 55.6464 645.748 74.442 645.748C96.1613 645.748 114.261 665.936 118.02 692.573C118.577 696.078 118.716 699.583 118.716 703.088Z" fill="#BDD1FF"/>
<path d="M189.444 736.875C189.444 764.214 167.446 786.505 140.158 786.505C131.804 786.505 124.007 784.402 117.185 780.757C106.604 775.149 98.3896 765.756 94.0735 754.4C91.9851 748.932 90.8713 743.044 90.8713 736.875C90.8713 735.894 90.8713 734.913 91.0106 733.931C91.5675 725.099 94.352 716.968 98.8072 709.958C103.541 702.528 110.224 696.499 118.021 692.574C124.703 689.209 132.222 687.246 140.158 687.246C150.878 687.246 160.902 690.751 168.977 696.639C181.369 705.752 189.444 720.332 189.444 736.875Z" fill="#BDD1FF"/>
<path d="M60.5188 798C101.195 798 134.17 776.784 134.17 750.614C134.17 724.443 101.195 703.228 60.5188 703.228C19.8425 703.228 -13.1321 724.443 -13.1321 750.614C-13.1321 776.784 19.8425 798 60.5188 798Z" fill="#BDD1FF"/>
<path d="M30.0287 743.885C30.0287 744.586 30.0287 745.147 30.0287 745.848C29.7503 750.614 28.2188 755.241 25.7127 759.306C20.5613 767.858 11.5116 774.588 0.234261 777.952C-4.77789 779.494 -10.347 780.336 -16.0552 780.336C-41.3945 780.195 -62 763.933 -62 743.885C-62 736.875 -59.4939 730.426 -55.3171 724.958C-49.8873 717.949 -41.3945 712.481 -31.3702 709.677C-26.6365 708.275 -21.4851 707.574 -16.0552 707.574C-5.61325 707.574 3.99338 710.378 11.7901 715.005C22.9282 721.594 30.0287 732.108 30.0287 743.885Z" fill="#BDD1FF"/>
<path d="M62.3298 719.772C62.3298 729.726 58.153 738.838 51.1916 745.988C50.0778 747.11 49.1032 748.091 47.8502 749.073C41.7242 754.12 34.206 757.765 25.7132 759.447C22.2325 760.148 18.6126 760.569 14.8535 760.569C4.41151 760.569 -5.19511 757.765 -12.9918 752.858C-22.32 747.11 -29.1421 738.558 -31.6482 728.604C-32.3443 725.8 -32.762 722.856 -32.762 719.912C-32.762 716.407 -32.2051 713.042 -31.2305 709.818C-25.9399 692.293 -7.28351 679.396 14.8535 679.396C21.3971 679.396 27.5231 680.517 33.0922 682.48C44.2303 686.405 53.28 693.976 58.153 703.369C60.7983 708.276 62.3298 713.884 62.3298 719.772Z" fill="#BDD1FF"/>
<path d="M168.977 696.639C164.521 715.846 149.067 730.706 129.576 734.071C126.791 734.632 123.867 734.772 120.944 734.772C117.741 734.772 114.678 734.492 111.615 733.931C106.743 732.949 102.148 731.407 97.832 729.024C95.6044 730.706 93.2375 732.248 90.7315 733.791C79.8718 740.24 66.0884 744.445 50.9127 745.847C48.9635 745.988 47.0144 746.128 45.0652 746.128C43.8121 746.128 42.4199 746.128 41.1668 746.128C37.2685 746.128 33.5094 745.988 29.7503 745.567C14.9922 744.165 1.76573 739.819 -8.67626 733.65C-12.5746 731.407 -16.0553 728.744 -19.1182 726.08C-23.1558 727.342 -27.4718 728.043 -31.9271 728.323C-33.0409 728.323 -34.1547 728.463 -35.4077 728.463C-42.6475 728.463 -49.4696 727.201 -55.4564 724.818C-50.0265 717.808 -41.5337 712.341 -31.5094 709.537C-26.2188 692.012 -7.56245 679.115 14.5746 679.115C21.1182 679.115 27.2442 680.236 32.8132 682.199C39.2177 660.889 55.3679 645.748 74.1635 645.748C95.8828 645.748 113.982 665.936 117.741 692.573C124.424 689.209 131.943 687.246 139.878 687.246C150.877 687.386 160.902 690.751 168.977 696.639Z" fill="#E9F2DC"/>
<path d="M112.729 716.267C111.197 727.903 99.9198 736.876 86.2756 737.016C72.4922 737.156 61.2148 728.184 59.5441 716.547C65.2524 723.277 75.1375 727.763 86.1364 727.623C97.2745 727.623 107.02 722.996 112.729 716.267Z" fill="#BDD1FF"/>
<path d="M16.6628 714.585C13.4606 719.492 6.49928 721.034 0.234086 718.09C-5.89188 715.146 -9.09409 708.697 -7.28415 703.089C-6.17034 707.435 -2.68967 711.501 2.32248 713.884C7.19541 716.408 12.6252 716.408 16.6628 714.585Z" fill="#BDD1FF"/>
<path d="M189.999 731.127C189.999 736.314 189.164 741.221 187.772 745.988C180.95 726.641 162.711 712.902 141.27 712.902C133.334 712.902 125.816 714.864 119.133 718.229C115.374 691.592 97.2746 671.404 75.5553 671.404C56.7597 671.404 40.6094 686.545 34.205 707.854C28.6359 705.892 22.3707 704.77 15.9663 704.77C-6.17073 704.77 -24.8271 717.668 -30.1177 735.193C-41.8127 738.417 -51.4194 745.427 -56.5707 754.259C-59.6337 749.352 -61.4437 743.885 -61.4437 738.137C-61.4437 722.295 -48.6348 708.836 -30.8138 703.929C-25.5232 686.264 -6.86687 673.366 15.2701 673.366C21.8138 673.366 27.9398 674.488 33.5088 676.451C40.0525 655.141 56.2028 640 74.9983 640C96.7177 640 114.817 660.188 118.576 686.825C125.259 683.461 132.777 681.498 140.713 681.498C168.002 681.498 189.999 703.789 189.999 731.127Z" fill="white"/>
</g>
</g>
<defs>
<linearGradient id="paint0_linear_50_1413" x1="309.5" y1="-215" x2="309.5" y2="950" gradientUnits="userSpaceOnUse">
<stop stop-color="#89C9FF"/>
<stop offset="1" stop-color="#D1CDFF"/>
</linearGradient>
<clipPath id="clip0_50_1413">
<rect x="-21" y="-215" width="661" height="1165" rx="200" fill="white"/>
</clipPath>
<clipPath id="clip1_50_1413">
<rect width="121" height="77" fill="white" transform="translate(-49 77)"/>
</clipPath>
<clipPath id="clip2_50_1413">
<rect width="381" height="197" fill="white" transform="matrix(1 0 0 -1 19 393)"/>
</clipPath>
<clipPath id="clip3_50_1413">
<rect width="252" height="158" fill="white" transform="translate(-62 640)"/>
</clipPath>
</defs>
</svg>
