<svg width="353" height="622" viewBox="0 0 353 622" fill="none" xmlns="http://www.w3.org/2000/svg">
<g clip-path="url(#clip0_50_962)">
<rect width="353" height="622" rx="176.5" fill="url(#paint0_linear_50_962)"/>
<g clip-path="url(#clip1_50_962)">
<path d="M29.8499 110.519C29.8499 114.265 28.3874 117.746 25.8374 120.698C24.2624 122.514 22.2749 124.141 19.9499 125.503C15.4874 128.114 9.82489 129.665 3.6374 129.665C-2.5876 129.665 -8.2876 128.076 -12.7501 125.427C-16.6876 123.119 -19.6876 119.979 -21.2626 116.422C-22.0876 114.568 -22.5376 112.562 -22.5376 110.519C-22.5376 109.876 -22.5001 109.233 -22.4251 108.627C-21.2251 99.849 -11.9626 92.849 -0.150103 91.6003C1.0874 91.4868 2.3624 91.4111 3.6374 91.4111C13.2749 91.4111 21.7124 95.2328 26.2499 100.908C26.8874 101.703 27.4499 102.535 27.8999 103.368C29.1749 105.562 29.8499 107.984 29.8499 110.519Z" fill="#BDD1FF"/>
<path d="M35.1373 88.9513C35.1373 91.5242 34.6123 93.9459 33.6373 96.1404C33.4123 96.6323 33.1873 97.1242 32.9248 97.6161C32.8123 97.8431 32.6998 98.0323 32.5498 98.2594C31.3498 100.227 29.7748 101.967 27.9373 103.367C25.7998 104.957 23.2873 106.092 20.5498 106.584C19.5373 106.773 18.4873 106.849 17.4373 106.849C8.5123 106.849 1.1623 100.227 -0.0751953 91.5621C-0.187695 90.7296 -0.262695 89.8594 -0.262695 88.9513C-0.262695 79.0756 7.6498 71.0918 17.4373 71.0918C17.7748 71.0918 18.1123 71.0918 18.4498 71.1296C27.4123 71.6594 34.6123 78.9242 35.1373 87.9675C35.1373 88.308 35.1373 88.6107 35.1373 88.9513Z" fill="#BDD1FF"/>
<path d="M51.5249 77.4861C51.5249 78.4699 51.4499 79.4537 51.3374 80.3996C51.0749 82.1401 50.6249 83.805 49.9499 85.3564C47.2499 91.751 41.3249 96.178 34.4624 96.178C34.1999 96.178 33.8999 96.178 33.6374 96.1401C33.0749 96.1023 32.5499 96.0645 31.9874 95.951C25.3499 94.8915 19.9499 89.6699 18.1124 82.7834C17.6624 81.0807 17.3999 79.3023 17.3999 77.4861C17.3999 75.2537 17.7749 73.0969 18.4124 71.1293C20.7749 63.9401 27.0749 58.832 34.4624 58.832C39.0749 58.832 43.2749 60.8374 46.3499 64.1293C46.9499 64.7726 47.5124 65.4537 48.0374 66.2104C50.2124 69.3131 51.5249 73.2482 51.5249 77.4861Z" fill="#BDD1FF"/>
<path d="M88.1623 95.0811C88.1623 97.919 86.7748 100.53 84.3748 102.8C83.7373 103.405 83.0248 104.011 82.2373 104.541C78.1498 107.416 72.2998 109.46 65.5498 110.178C63.7873 110.368 61.9498 110.481 60.0748 110.481C59.0623 110.481 58.0498 110.443 57.0748 110.405C44.8873 109.687 35.0248 104.73 32.5498 98.2217C32.4748 98.0703 32.4373 97.919 32.3998 97.7676C32.2123 97.1622 32.0623 96.5568 32.0248 95.9514C31.9873 95.6487 31.9873 95.346 31.9873 95.0433C31.9873 92.4703 33.1123 90.0487 35.1373 87.9298C38.5123 84.373 44.3248 81.6109 51.3373 80.3622C54.0748 79.8703 57.0373 79.6055 60.0748 79.6055C75.0373 79.6055 87.2623 86.0379 88.1248 94.0974C88.1623 94.4379 88.1623 94.7406 88.1623 95.0811Z" fill="#BDD1FF"/>
<path d="M76.2377 142C88.9955 142 99.3377 132.937 99.3377 121.757C99.3377 110.577 88.9955 101.514 76.2377 101.514C63.4799 101.514 53.1377 110.577 53.1377 121.757C53.1377 132.937 63.4799 142 76.2377 142Z" fill="#BDD1FF"/>
<path d="M42.0749 136.741C55.7025 136.741 66.7499 127.661 66.7499 116.46C66.7499 105.259 55.7025 96.1787 42.0749 96.1787C28.4473 96.1787 17.3999 105.259 17.3999 116.46C17.3999 127.661 28.4473 136.741 42.0749 136.741Z" fill="#BDD1FF"/>
<path d="M111 105.903C111 113.016 105.975 118.919 99.3002 120.168C98.4377 120.319 97.5377 120.433 96.6002 120.433C94.3502 120.433 92.2502 119.903 90.3752 118.995C85.5377 116.649 82.2002 111.654 82.2002 105.903C82.2002 105.449 82.2377 104.995 82.2752 104.541C82.3502 103.784 82.4627 103.027 82.6502 102.27C83.4752 98.9406 85.4627 96.0649 88.1627 94.1352C90.5252 92.3947 93.4502 91.373 96.6377 91.373C100.05 91.373 103.2 92.5839 105.638 94.5893C108.863 97.2379 111 101.324 111 105.903Z" fill="#BDD1FF"/>
<path d="M105.6 94.5517C104.813 98.9787 102.038 102.687 98.2501 104.768C96.9751 105.449 95.5876 105.979 94.1251 106.244C94.1626 106.773 94.2001 107.303 94.2001 107.833C94.2001 108.211 94.2001 108.59 94.1626 108.968C93.9376 112.676 92.5501 116.119 90.3751 118.995C86.2501 124.444 79.1626 128.076 71.1001 128.076C68.3626 128.076 65.7376 127.66 63.2626 126.903C59.2876 125.654 55.8001 123.46 53.1751 120.622C52.6501 120.054 52.1251 119.449 51.6751 118.806C47.5501 121.341 42.4501 122.817 36.9376 122.817C32.9626 122.817 29.1751 122.022 25.8751 120.66C22.6126 119.298 19.7626 117.368 17.5126 115.022C16.5001 113.962 15.6001 112.79 14.8501 111.541C10.3876 114.152 4.7251 115.703 -1.4624 115.703C-6.2624 115.703 -10.7999 114.757 -14.6624 113.092C-15.6749 112.676 -16.6499 112.184 -17.5499 111.654C-17.6624 111.579 -17.7374 111.541 -17.8499 111.465C-17.9624 111.73 -18.0374 111.957 -18.1499 112.222C-18.8624 113.811 -19.9124 115.211 -21.1874 116.384C-21.2999 116.498 -21.4124 116.611 -21.5624 116.687C-23.6999 118.465 -26.4749 119.562 -29.4749 119.562C-29.7749 119.562 -30.0749 119.562 -30.3749 119.525C-31.9499 119.411 -33.4874 118.995 -34.8374 118.314C-35.2499 118.125 -35.6624 117.86 -36.0749 117.633C-36.1499 117.671 -36.2249 117.708 -36.3374 117.746C-34.9499 112.373 -30.0749 108.4 -24.3374 108.4C-23.6624 108.4 -22.9874 108.438 -22.3499 108.552C-21.1499 99.7733 -11.8874 92.7733 -0.0749016 91.5247C-0.187401 90.6922 -0.262402 89.8219 -0.262402 88.9138C-0.262402 79.0382 7.6501 71.0544 17.4376 71.0544C17.7751 71.0544 18.1126 71.0544 18.4501 71.0922C20.8126 63.903 27.1126 58.7949 34.5001 58.7949C39.1126 58.7949 43.3126 60.8003 46.3876 64.0922C46.9876 64.7355 47.5501 65.4165 48.0751 66.1733C50.2501 69.3138 51.5626 73.249 51.5626 77.4868C51.5626 78.4706 51.4876 79.4544 51.3751 80.4003C54.1126 79.9084 57.0751 79.6436 60.1126 79.6436C75.0751 79.6436 87.3001 86.076 88.1626 94.1355C90.5251 92.3949 93.4501 91.3733 96.6376 91.3733C99.9751 91.3733 103.125 92.5463 105.6 94.5517Z" fill="#E9F2DC"/>
<path d="M94.1252 106.243C94.1627 106.773 94.2002 107.303 94.2002 107.832C94.2002 108.211 94.2002 108.589 94.1627 108.968C93.9377 112.676 92.5502 116.119 90.3752 118.995C86.2502 124.443 79.1627 128.076 71.1002 128.076C68.3627 128.076 65.7377 127.659 63.2627 126.903C59.2877 125.654 55.8002 123.459 53.1752 120.622C52.6502 120.054 52.1252 119.449 51.6752 118.805C47.5502 121.341 42.4502 122.816 36.9377 122.816C32.9627 122.816 29.1752 122.022 25.8752 120.659C22.6127 119.297 19.7627 117.368 17.5127 115.022C16.5002 113.962 15.6002 112.789 14.8502 111.541C10.3877 114.151 4.72519 115.703 -1.46231 115.703C-6.26231 115.703 -10.7998 114.757 -14.6623 113.092C-15.6748 112.676 -16.6498 112.184 -17.5498 111.654C-13.4998 107.984 -7.64981 105.449 -0.937305 104.73C-1.04981 103.897 -1.12481 103.027 -1.12481 102.119C-1.12481 92.2432 6.78769 84.2595 16.5752 84.2595C16.9127 84.2595 17.2502 84.2595 17.5877 84.2973C19.9502 77.1081 26.2502 72 33.6377 72C38.2502 72 42.4502 74.0054 45.5252 77.2973C45.4877 78.0919 45.4502 78.8865 45.3377 79.6432C45.9377 79.5297 46.5752 79.4162 47.2127 79.3405C49.3877 82.4811 50.7002 86.4162 50.7002 90.6541C50.7002 91.6378 50.6252 92.6216 50.5127 93.5676C53.2502 93.0757 56.2127 92.8108 59.2502 92.8108C74.2127 92.8108 86.4377 99.2432 87.3002 107.303C89.6627 105.562 92.5877 104.541 95.7752 104.541C96.6377 104.541 97.5002 104.616 98.3252 104.768C96.9752 105.449 95.5877 105.978 94.1252 106.243Z" fill="#E9F2DC"/>
<path d="M33.7125 104.162C32.6625 111.957 25.0875 117.973 15.9 117.973C6.7125 117.973 -0.825 111.957 -1.875 104.162C1.95 108.74 8.475 111.73 15.9375 111.73C23.4 111.73 29.8875 108.74 33.7125 104.162Z" fill="#BDD1FF"/>
<path d="M72.5625 109.006C73.35 114.719 69.1875 120.471 62.7 122.287C56.2125 124.103 49.6875 121.341 47.4375 116.082C51 118.541 56.2125 119.373 61.4625 117.898C66.75 116.384 70.7625 112.979 72.5625 109.006Z" fill="#BDD1FF"/>
<path d="M110.887 105.07C110.887 106.432 110.7 107.795 110.325 109.043C108.45 103.216 103.012 99.0162 96.6373 99.0162C93.4873 99.0162 90.5623 100.038 88.1623 101.778C87.2998 93.6811 75.0748 87.2487 60.1123 87.2487C57.0748 87.2487 54.1123 87.5135 51.3748 88.0054C51.5248 87.0595 51.5623 86.0757 51.5623 85.0919C51.5623 74.7622 43.9123 66.4 34.4998 66.4C27.1123 66.4 20.8498 71.5081 18.4498 78.6973C18.1123 78.6595 17.7748 78.6595 17.4373 78.6595C7.64981 78.6595 -0.262691 86.6432 -0.262691 96.5189C-0.262691 97.3892 -0.187691 98.2595 -0.0751915 99.1297C-11.8877 100.378 -21.1502 107.416 -22.3502 116.157C-22.9877 116.043 -23.6627 116.005 -24.3377 116.005C-30.2627 116.005 -35.2502 120.205 -36.4877 125.805C-36.6002 125.805 -36.6752 125.805 -36.7877 125.805C-40.5377 125.805 -43.8377 127.016 -45.8627 128.832C-47.2502 127.622 -48.0752 126.146 -48.0752 124.519C-48.0752 120.546 -43.0877 117.33 -36.9752 117.33C-36.8627 117.33 -36.7877 117.33 -36.6752 117.33C-35.4377 111.73 -30.4877 107.53 -24.5252 107.53C-23.8502 107.53 -23.1752 107.568 -22.5377 107.681C-21.3377 98.9027 -12.0752 91.9027 -0.262691 90.6541C-0.375191 89.8216 -0.450191 88.9514 -0.450191 88.0432C-0.450191 78.1676 7.46231 70.1838 17.2498 70.1838C17.5873 70.1838 17.9248 70.1838 18.2623 70.2216C20.6998 63.1081 26.9998 58 34.3498 58C43.7623 58 51.4123 66.3622 51.4123 76.6919C51.4123 77.6757 51.3373 78.6595 51.2248 79.6054C53.9623 79.1135 56.9248 78.8486 59.9623 78.8486C74.9248 78.8486 87.1498 85.2811 88.0123 93.3784C90.3748 91.6378 93.2998 90.6162 96.4873 90.6162C104.437 90.5405 110.887 97.0486 110.887 105.07Z" fill="white"/>
<path d="M66.9 94.5514C62.8875 91.2217 57.1125 89.1406 50.7 89.1406C44.2875 89.1406 38.5125 91.2217 34.5 94.5514C36.6 87.5136 43.05 82.4055 50.7 82.4055C58.35 82.3676 64.8 87.5136 66.9 94.5514Z" fill="white"/>
<path d="M18.3001 102.649C15.6001 99.3192 11.7001 97.2381 7.38759 97.2381C3.0751 97.2381 -0.824903 99.3192 -3.5249 102.649C-2.0999 95.611 2.2126 90.5029 7.38759 90.5029C12.5626 90.5029 16.8751 95.611 18.3001 102.649Z" fill="white"/>
</g>
<g clip-path="url(#clip2_50_962)">
<path d="M256.41 116.558C256.41 118.757 256.15 120.851 255.683 122.84C255.215 124.725 254.592 126.453 253.813 128.076C252.203 131.321 249.918 133.991 247.218 135.719C244.985 137.132 242.492 137.918 239.895 137.918C236.156 137.918 232.728 136.347 229.976 133.677C229.664 133.363 229.301 132.997 229.041 132.682C225.821 129.123 223.692 123.94 223.38 118.129C223.328 117.605 223.328 117.082 223.328 116.558C223.328 113.836 223.744 111.166 224.471 108.758C226.86 100.8 232.884 95.1465 239.895 95.1465C247.997 95.1465 254.748 102.685 256.15 112.632C256.358 113.941 256.41 115.249 256.41 116.558Z" fill="#BDD1FF"/>
<path d="M282.792 129.175C282.792 139.383 274.587 147.707 264.408 147.707C261.292 147.707 258.384 146.922 255.839 145.561C251.892 143.467 248.828 139.959 247.218 135.719C246.439 133.677 246.023 131.478 246.023 129.175C246.023 128.809 246.023 128.442 246.075 128.076C246.283 124.777 247.322 121.741 248.984 119.124C250.749 116.349 253.242 114.098 256.151 112.632C258.643 111.375 261.448 110.643 264.408 110.643C268.407 110.643 272.146 111.951 275.158 114.15C279.78 117.553 282.792 122.998 282.792 129.175Z" fill="#BDD1FF"/>
<path d="M234.701 152C249.874 152 262.174 144.078 262.174 134.305C262.174 124.533 249.874 116.61 234.701 116.61C219.529 116.61 207.229 124.533 207.229 134.305C207.229 144.078 219.529 152 234.701 152Z" fill="#BDD1FF"/>
<path d="M223.328 131.792C223.328 132.054 223.328 132.264 223.328 132.525C223.224 134.305 222.653 136.033 221.718 137.551C219.797 140.744 216.421 143.257 212.214 144.514C210.345 145.09 208.267 145.404 206.138 145.404C196.686 145.351 189 139.279 189 131.792C189 129.175 189.935 126.767 191.493 124.725C193.518 122.107 196.686 120.066 200.425 119.019C202.191 118.495 204.113 118.233 206.138 118.233C210.033 118.233 213.617 119.28 216.525 121.008C220.68 123.469 223.328 127.395 223.328 131.792Z" fill="#BDD1FF"/>
<path d="M235.377 122.788C235.377 126.505 233.819 129.908 231.222 132.578C230.807 132.997 230.443 133.363 229.976 133.73C227.691 135.614 224.886 136.975 221.718 137.604C220.42 137.865 219.07 138.022 217.668 138.022C213.773 138.022 210.189 136.975 207.281 135.143C203.801 132.997 201.257 129.803 200.322 126.086C200.062 125.039 199.906 123.94 199.906 122.84C199.906 121.532 200.114 120.275 200.478 119.071C202.451 112.527 209.41 107.711 217.668 107.711C220.108 107.711 222.394 108.13 224.471 108.863C228.626 110.329 232.001 113.155 233.819 116.663C234.806 118.495 235.377 120.589 235.377 122.788Z" fill="#BDD1FF"/>
<path d="M275.158 114.15C273.496 121.322 267.731 126.871 260.461 128.128C259.422 128.337 258.331 128.39 257.241 128.39C256.046 128.39 254.904 128.285 253.761 128.076C251.944 127.709 250.23 127.133 248.62 126.243C247.789 126.871 246.906 127.447 245.971 128.023C241.92 130.431 236.779 132.002 231.118 132.525C230.391 132.578 229.664 132.63 228.937 132.63C228.47 132.63 227.95 132.63 227.483 132.63C226.029 132.63 224.627 132.578 223.224 132.421C217.719 131.897 212.786 130.274 208.891 127.971C207.436 127.133 206.138 126.138 204.996 125.144C203.49 125.615 201.88 125.877 200.218 125.981C199.802 125.981 199.387 126.034 198.919 126.034C196.219 126.034 193.674 125.563 191.441 124.673C193.466 122.055 196.634 120.013 200.373 118.966C202.347 112.422 209.306 107.606 217.564 107.606C220.004 107.606 222.29 108.025 224.367 108.758C226.756 100.8 232.78 95.1465 239.791 95.1465C247.893 95.1465 254.644 102.685 256.046 112.632C258.539 111.375 261.344 110.642 264.304 110.642C268.407 110.695 272.146 111.951 275.158 114.15Z" fill="#E9F2DC"/>
<path d="M254.177 121.479C253.605 125.825 249.399 129.175 244.309 129.227C239.168 129.28 234.961 125.929 234.338 121.584C236.467 124.097 240.154 125.772 244.257 125.72C248.412 125.72 252.047 123.992 254.177 121.479Z" fill="#BDD1FF"/>
<path d="M218.342 120.851C217.148 122.684 214.551 123.26 212.214 122.16C209.929 121.061 208.735 118.653 209.41 116.559C209.825 118.181 211.124 119.7 212.993 120.59C214.811 121.532 216.836 121.532 218.342 120.851Z" fill="#BDD1FF"/>
<path d="M283 127.028C283 128.965 282.688 130.798 282.169 132.578C279.624 125.353 272.821 120.223 264.823 120.223C261.863 120.223 259.058 120.956 256.566 122.212C255.163 112.265 248.412 104.727 240.31 104.727C233.299 104.727 227.275 110.381 224.886 118.338C222.809 117.605 220.472 117.186 218.083 117.186C209.825 117.186 202.866 122.003 200.893 128.547C196.53 129.751 192.947 132.368 191.025 135.666C189.883 133.834 189.208 131.792 189.208 129.646C189.208 123.73 193.985 118.705 200.633 116.872C202.606 110.276 209.566 105.46 217.823 105.46C220.264 105.46 222.549 105.878 224.626 106.611C227.067 98.6539 233.091 93 240.103 93C248.204 93 254.956 100.539 256.358 110.485C258.851 109.229 261.655 108.496 264.615 108.496C274.794 108.496 283 116.82 283 127.028Z" fill="white"/>
</g>
<g clip-path="url(#clip3_50_962)">
<path d="M42.6477 312.752C42.6477 313.523 42.596 314.293 42.4411 315.064C41.7698 318.557 39.6524 321.793 36.4505 324.413C32.9904 327.238 28.2909 329.395 22.8683 330.525C20.1313 331.091 17.2392 331.399 14.2439 331.399C10.7322 331.399 7.42703 330.988 4.32844 330.217C-4.8124 327.957 -11.7326 322.718 -13.6434 316.297C-13.9532 315.167 -14.1598 313.985 -14.1598 312.752C-14.1598 302.479 -1.45559 294.157 14.2439 294.157C26.4834 294.157 36.9153 299.243 40.8918 306.331C42.028 308.335 42.6477 310.492 42.6477 312.752Z" fill="#BDD1FF"/>
<path d="M67.0751 321.536C67.0751 325.389 66.3521 328.985 65.061 332.118C64.5446 333.299 63.9765 334.43 63.3568 335.508C60.5164 340.08 56.3333 342.957 51.6855 342.957C50.9625 342.957 50.2394 342.905 49.5164 342.751C47.3474 342.34 45.2817 341.261 43.5258 339.72C39.7042 336.433 37.0188 330.834 36.3991 324.362C36.2958 323.437 36.2441 322.512 36.2441 321.588C36.2441 319.019 36.554 316.554 37.1737 314.293C37.9484 311.263 39.2394 308.54 40.8404 306.331C43.6291 302.53 47.3991 300.219 51.6338 300.219C58.2441 300.219 63.9249 306.075 66.0939 314.242C66.7653 316.502 67.0751 318.968 67.0751 321.536Z" fill="#BDD1FF"/>
<path d="M23.6948 336.022C23.6948 340.953 21.8356 345.473 18.6338 349.172C15.6901 352.613 11.6103 355.233 6.85912 356.774C4.07038 357.647 1.02343 358.161 -2.1268 358.161C-16.3803 358.161 -27.9484 348.247 -27.9484 336.073C-27.9484 334.892 -27.8451 333.761 -27.6385 332.631C-26.3475 325.44 -20.9766 319.379 -13.5916 316.245C-10.1315 314.755 -6.20661 313.934 -2.07516 313.934C4.43188 313.934 10.3708 315.988 14.9155 319.379C18.737 322.255 21.5774 326.056 22.9201 330.423C23.3849 332.272 23.6948 334.121 23.6948 336.022Z" fill="#BDD1FF"/>
<path d="M34.2301 369C52.3699 369 67.0751 356.719 67.0751 341.569C67.0751 326.42 52.3699 314.139 34.2301 314.139C16.0902 314.139 1.38498 326.42 1.38498 341.569C1.38498 356.719 16.0902 369 34.2301 369Z" fill="#BDD1FF"/>
<path d="M92.7936 334.327C92.7936 345.473 81.587 354.514 67.695 354.514C66.1973 354.514 64.7513 354.411 63.3569 354.206C56.1785 353.179 50.033 349.737 46.3147 344.908C45.0752 343.316 44.1457 341.569 43.4743 339.669C42.9062 337.974 42.5964 336.176 42.5964 334.327C42.5964 327.957 46.263 322.255 52.0471 318.557C55.972 316.04 60.8264 314.447 66.094 314.191C66.6105 314.139 67.1269 314.139 67.695 314.139C74.4602 314.139 80.5541 316.297 85.0987 319.79C89.8499 323.488 92.7936 328.625 92.7936 334.327Z" fill="#BDD1FF"/>
<path d="M85.0988 319.79C83.0331 327.392 75.5964 333.402 66.1457 335.097C65.2161 335.251 64.2866 335.405 63.357 335.457C62.4791 335.559 61.5495 335.559 60.6199 335.559C59.1223 335.559 57.6762 335.457 56.2819 335.251C54.526 338.025 52.2537 340.542 49.5166 342.648C48.5354 343.419 47.4509 344.138 46.3147 344.857C40.8922 348.145 34.2302 350.045 27.0518 350.045C24.1082 350.045 21.2678 349.737 18.5823 349.12C11.7138 347.579 5.67154 344.241 1.38516 339.72C0.817081 339.104 0.249004 338.487 -0.319071 337.82C-3.1078 338.693 -6.15475 339.207 -9.30499 339.207C-16.535 339.207 -23.0421 336.69 -27.7416 332.58C-26.4505 325.389 -21.0796 319.327 -13.6947 316.194C-14.0045 315.064 -14.2111 313.882 -14.2111 312.65C-14.2111 302.376 -1.50686 294.054 14.1927 294.054C26.4321 294.054 36.864 299.14 40.8406 306.229C43.6293 302.427 47.3992 300.116 51.634 300.116C58.2443 300.116 63.9251 305.972 66.0941 314.139C66.6105 314.088 67.127 314.088 67.695 314.088C74.4603 314.139 80.6058 316.297 85.0988 319.79Z" fill="#E9F2DC"/>
<path d="M26.5351 331.347C25.6056 338.333 18.6854 343.727 10.3708 343.727C2.00464 343.727 -4.86391 338.333 -5.79349 331.347C-2.33339 335.457 3.60557 338.128 10.3708 338.128C17.0844 338.128 23.0751 335.405 26.5351 331.347Z" fill="#BDD1FF"/>
<path d="M74.0471 326.827C73.1175 333.813 66.1973 339.207 57.8828 339.207C49.5166 339.207 42.648 333.813 41.7184 326.827C45.1785 330.937 51.1175 333.608 57.8828 333.608C64.648 333.608 70.587 330.885 74.0471 326.827Z" fill="#BDD1FF"/>
<path d="M92.9998 332.221C92.9998 334.121 92.6899 335.919 92.0702 337.666C88.8683 329.447 79.366 323.54 68.1594 323.54C67.643 323.54 67.1266 323.54 66.5585 323.591C64.3895 315.424 58.7604 309.568 52.0984 309.568C47.9153 309.568 44.0937 311.931 41.305 315.68C37.3284 308.592 26.8965 303.506 14.6571 303.506C-1.04247 303.506 -13.7467 311.828 -13.7467 322.101C-13.7467 323.283 -13.5918 324.464 -13.2303 325.646C-19.8922 328.471 -24.9533 333.71 -26.8124 340.029C-27.4838 338.077 -27.7936 336.073 -27.7936 333.916C-27.7936 325.235 -21.958 317.735 -13.4368 314.139C-13.7467 313.009 -13.9533 311.828 -13.9533 310.595C-13.9533 300.322 -1.24904 292 14.4505 292C26.6899 292 37.1219 297.085 41.0984 304.174C43.8871 300.373 47.6571 298.061 51.8918 298.061C58.5021 298.061 64.1829 303.917 66.3519 312.085C66.8683 312.033 67.3848 312.033 67.9528 312.033C81.7932 312.033 92.9998 321.074 92.9998 332.221Z" fill="white"/>
<path d="M51.2725 322.923C48.2772 320.149 43.9908 318.403 39.2396 318.403C34.4884 318.403 30.1504 320.149 27.2068 322.923C28.7561 317.016 33.5589 312.752 39.2396 312.752C44.9204 312.752 49.7232 317.016 51.2725 322.923Z" fill="white"/>
</g>
<g clip-path="url(#clip4_50_962)">
<path d="M72.9208 432.407C72.9208 436.409 69.6342 439.889 64.6455 441.803C62.0044 442.847 58.8938 443.427 55.5485 443.427C45.9232 443.427 38.1761 438.497 38.1761 432.407C38.1761 427.652 42.93 423.534 49.6207 422.026C50.7945 421.736 52.0857 421.562 53.3769 421.446C54.0812 421.388 54.7855 421.388 55.5485 421.388C55.7245 421.388 55.8419 421.388 56.018 421.388C56.8983 421.388 57.72 421.446 58.5417 421.562C61.1241 421.852 63.4717 422.49 65.5258 423.418C69.9863 425.332 72.9208 428.638 72.9208 432.407Z" fill="#BDD1FF"/>
<path d="M94.4602 425.506C94.4602 427.883 93.9907 430.203 93.2277 432.291C90.4693 439.541 83.3677 444.702 75.0337 444.702C71.2188 444.702 67.6974 443.6 64.7042 441.745C59.246 438.323 55.6071 432.349 55.6071 425.448C55.6071 423.998 55.7832 422.606 56.0767 421.272C56.1354 421.04 56.1941 420.75 56.2527 420.518C58.4243 412.282 66.054 406.193 75.0337 406.193C76.0901 406.193 77.1466 406.251 78.1443 406.425C83.0156 407.179 87.2413 409.731 90.1758 413.326C92.8169 416.748 94.4602 420.982 94.4602 425.506Z" fill="#BDD1FF"/>
<path d="M159.842 409.499C159.842 415.241 157.553 420.576 153.562 425.1C151.097 427.884 147.986 430.378 144.347 432.466C137.363 436.467 128.501 438.845 118.817 438.845C109.074 438.845 100.153 436.409 93.1692 432.35C87.0067 428.812 82.3115 423.998 79.8465 418.546C78.5553 415.705 77.851 412.631 77.851 409.499C77.851 408.513 77.9097 407.527 78.0271 406.599C79.9051 393.144 94.4017 382.415 112.889 380.501C114.826 380.327 116.821 380.211 118.817 380.211C133.9 380.211 147.106 386.069 154.207 394.768C155.205 395.986 156.085 397.262 156.79 398.538C158.785 401.902 159.842 405.613 159.842 409.499Z" fill="#BDD1FF"/>
<path d="M168.117 376.441C168.117 380.385 167.295 384.096 165.769 387.46C165.417 388.214 165.065 388.968 164.654 389.722C164.478 390.07 164.302 390.36 164.067 390.708C162.189 393.724 159.724 396.392 156.848 398.537C153.503 400.973 149.571 402.713 145.286 403.467C143.702 403.757 142.058 403.873 140.415 403.873C126.447 403.873 114.943 393.724 113.007 380.443C112.83 379.167 112.713 377.833 112.713 376.441C112.713 361.304 125.097 349.067 140.415 349.067C140.943 349.067 141.471 349.067 142 349.125C156.027 349.937 167.295 361.072 168.117 374.933C168.117 375.455 168.117 375.919 168.117 376.441Z" fill="#BDD1FF"/>
<path d="M193.764 358.868C193.764 360.376 193.647 361.884 193.471 363.334C193.06 366.002 192.356 368.553 191.299 370.931C187.074 380.733 177.801 387.518 167.06 387.518C166.649 387.518 166.18 387.518 165.769 387.46C164.889 387.402 164.067 387.344 163.187 387.17C152.798 385.546 144.347 377.543 141.471 366.987C140.767 364.378 140.356 361.652 140.356 358.868C140.356 355.446 140.943 352.14 141.941 349.125C145.638 338.105 155.498 330.276 167.06 330.276C174.279 330.276 180.853 333.35 185.665 338.395C186.604 339.381 187.485 340.425 188.306 341.585C191.71 346.341 193.764 352.372 193.764 358.868Z" fill="#BDD1FF"/>
<path d="M251.105 385.836C251.105 390.186 248.934 394.188 245.177 397.667C244.18 398.595 243.065 399.523 241.832 400.335C235.435 404.743 226.279 407.875 215.715 408.977C212.956 409.267 210.08 409.441 207.146 409.441C205.561 409.441 203.977 409.383 202.451 409.325C183.376 408.223 167.941 400.625 164.067 390.65C163.95 390.418 163.891 390.186 163.832 389.954C163.539 389.026 163.304 388.098 163.245 387.17C163.187 386.706 163.187 386.242 163.187 385.778C163.187 381.834 164.947 378.123 168.117 374.875C173.399 369.423 182.496 365.19 193.471 363.276C197.755 362.522 202.392 362.116 207.146 362.116C230.563 362.116 249.697 371.975 251.046 384.328C251.105 384.85 251.105 385.314 251.105 385.836Z" fill="#BDD1FF"/>
<path d="M232.442 457.752C252.409 457.752 268.595 443.86 268.595 426.724C268.595 409.587 252.409 395.696 232.442 395.696C212.475 395.696 196.288 409.587 196.288 426.724C196.288 443.86 212.475 457.752 232.442 457.752Z" fill="#BDD1FF"/>
<path d="M178.974 449.69C200.302 449.69 217.592 435.773 217.592 418.604C217.592 401.436 200.302 387.518 178.974 387.518C157.646 387.518 140.356 401.436 140.356 418.604C140.356 435.773 157.646 449.69 178.974 449.69Z" fill="#BDD1FF"/>
<path d="M286.848 402.423C286.848 413.327 278.983 422.374 268.536 424.288C267.187 424.52 265.778 424.694 264.311 424.694C260.789 424.694 257.503 423.882 254.568 422.49C246.997 418.894 241.774 411.239 241.774 402.423C241.774 401.727 241.832 401.031 241.891 400.336C242.008 399.176 242.184 398.016 242.478 396.856C243.769 391.752 246.88 387.344 251.105 384.387C254.803 381.719 259.381 380.153 264.369 380.153C269.71 380.153 274.64 382.009 278.455 385.083C283.503 389.142 286.848 395.406 286.848 402.423Z" fill="#BDD1FF"/>
<path d="M278.396 385.024C277.164 391.81 272.82 397.494 266.893 400.683C264.897 401.727 262.726 402.539 260.437 402.945C260.495 403.757 260.554 404.569 260.554 405.381C260.554 405.961 260.554 406.541 260.495 407.121C260.143 412.805 257.972 418.082 254.568 422.49C248.112 430.841 237.019 436.409 224.401 436.409C220.116 436.409 216.008 435.771 212.134 434.611C205.913 432.697 200.455 429.334 196.347 424.984C195.525 424.114 194.703 423.186 193.999 422.2C187.543 426.086 179.561 428.348 170.934 428.348C164.713 428.348 158.785 427.13 153.62 425.042C148.514 422.954 144.054 419.996 140.532 416.4C138.947 414.777 137.539 412.979 136.365 411.065C129.381 415.066 120.519 417.444 110.835 417.444C103.322 417.444 96.2208 415.994 90.1757 413.443C88.591 412.805 87.0651 412.051 85.6565 411.239C85.4804 411.123 85.363 411.065 85.187 410.949C85.0109 411.355 84.8935 411.703 84.7174 412.109C83.6023 414.545 81.959 416.69 79.9635 418.488C79.7874 418.662 79.6114 418.836 79.3766 418.952C76.0313 421.678 71.6882 423.36 66.9929 423.36C66.5234 423.36 66.0539 423.36 65.5843 423.302C63.1193 423.128 60.713 422.49 58.6002 421.446C57.9546 421.156 57.309 420.75 56.6634 420.402C56.546 420.46 56.4286 420.518 56.2526 420.576C58.4241 412.341 66.0539 406.251 75.0335 406.251C76.0899 406.251 77.1464 406.309 78.1441 406.483C80.0222 393.028 94.5188 382.299 113.006 380.385C112.83 379.109 112.713 377.775 112.713 376.383C112.713 361.246 125.096 349.009 140.415 349.009C140.943 349.009 141.471 349.009 141.999 349.067C145.697 338.048 155.557 330.218 167.119 330.218C174.338 330.218 180.911 333.292 185.724 338.337C186.663 339.323 187.543 340.367 188.365 341.527C191.769 346.341 193.823 352.373 193.823 358.868C193.823 360.376 193.706 361.884 193.53 363.334C197.814 362.58 202.451 362.174 207.204 362.174C230.622 362.174 249.755 372.033 251.105 384.386C254.802 381.719 259.38 380.153 264.369 380.153C269.592 380.153 274.522 381.951 278.396 385.024Z" fill="#E9F2DC"/>
<path d="M49.6207 422.026C50.7945 421.737 52.0857 421.563 53.3769 421.447C52.2031 421.737 50.9119 421.911 49.6207 422.026Z" fill="#E9F2DC"/>
<path d="M84.6587 412.167C83.5436 414.603 81.9003 416.748 79.9048 418.546C79.7287 418.72 79.5526 418.894 79.3179 419.01C80.6678 416.516 82.4285 414.255 84.6587 412.167Z" fill="#E9F2DC"/>
<path d="M260.437 402.945C260.495 403.757 260.554 404.569 260.554 405.381C260.554 405.961 260.554 406.541 260.495 407.121C260.143 412.804 257.972 418.082 254.568 422.49C248.112 430.841 237.019 436.409 224.401 436.409C220.116 436.409 216.008 435.771 212.135 434.611C205.913 432.697 200.455 429.333 196.347 424.984C195.525 424.114 194.703 423.186 193.999 422.2C187.543 426.086 179.561 428.347 170.934 428.347C164.713 428.347 158.785 427.129 153.62 425.042C148.514 422.954 144.054 419.996 140.532 416.4C138.947 414.776 137.539 412.978 136.365 411.065C129.381 415.066 120.519 417.444 110.835 417.444C103.322 417.444 96.2208 415.994 90.1757 413.442C88.5911 412.804 87.0651 412.05 85.6565 411.239C91.9951 405.613 101.151 401.727 111.656 400.625C111.48 399.349 111.363 398.015 111.363 396.623C111.363 381.486 123.747 369.249 139.065 369.249C139.593 369.249 140.121 369.249 140.649 369.307C144.347 358.288 154.207 350.458 165.769 350.458C172.988 350.458 179.561 353.532 184.374 358.578C184.315 359.796 184.257 361.014 184.08 362.174C185.02 362 186.017 361.826 187.015 361.71C190.419 366.523 192.473 372.555 192.473 379.051C192.473 380.559 192.356 382.066 192.18 383.516C196.464 382.762 201.101 382.356 205.855 382.356C229.272 382.356 248.405 392.216 249.755 404.569C253.453 401.901 258.03 400.335 263.019 400.335C264.369 400.335 265.719 400.451 267.01 400.683C264.897 401.727 262.726 402.539 260.437 402.945Z" fill="#E9F2DC"/>
<path d="M165.886 399.756C164.243 411.703 152.388 420.925 138.008 420.925C123.629 420.925 111.833 411.703 110.189 399.756C116.176 406.774 126.388 411.355 138.067 411.355C149.747 411.355 159.9 406.774 165.886 399.756Z" fill="#BDD1FF"/>
<path d="M226.69 407.18C227.922 415.937 221.408 424.753 211.254 427.536C201.101 430.32 190.889 426.086 187.367 418.025C192.943 421.795 201.101 423.071 209.317 420.809C217.593 418.489 223.873 413.269 226.69 407.18Z" fill="#BDD1FF"/>
<path d="M286.671 401.148C286.671 403.235 286.378 405.323 285.791 407.237C282.857 398.306 274.346 391.868 264.369 391.868C259.439 391.868 254.861 393.434 251.105 396.102C249.755 383.691 230.622 373.831 207.204 373.831C202.451 373.831 197.814 374.237 193.53 374.991C193.764 373.541 193.823 372.033 193.823 370.526C193.823 354.693 181.85 341.875 167.119 341.875C155.557 341.875 145.756 349.705 141.999 360.724C141.471 360.666 140.943 360.666 140.415 360.666C125.097 360.666 112.713 372.903 112.713 388.04C112.713 389.374 112.83 390.708 113.006 392.042C94.5188 393.956 80.0222 404.743 78.1441 418.14C77.1464 417.966 76.09 417.908 75.0335 417.908C65.7604 417.908 57.9546 424.346 56.0178 432.929C55.8417 432.929 55.7244 432.929 55.5483 432.929C49.6792 432.929 44.5145 434.785 41.3452 437.569C39.1736 435.713 37.8824 433.451 37.8824 430.958C37.8824 424.868 45.6883 419.938 55.2548 419.938C55.4309 419.938 55.5483 419.938 55.7244 419.938C57.6611 411.355 65.4083 404.917 74.7401 404.917C75.7965 404.917 76.8529 404.975 77.8507 405.149C79.7288 391.694 94.2253 380.965 112.713 379.051C112.537 377.775 112.419 376.441 112.419 375.049C112.419 359.912 124.803 347.675 140.121 347.675C140.649 347.675 141.178 347.675 141.706 347.733C145.521 336.83 155.381 329 166.884 329C181.615 329 193.588 341.817 193.588 357.65C193.588 359.158 193.471 360.666 193.295 362.116C197.579 361.362 202.216 360.956 206.97 360.956C230.387 360.956 249.52 370.816 250.87 383.227C254.568 380.559 259.146 378.993 264.134 378.993C276.577 378.877 286.671 388.852 286.671 401.148Z" fill="white"/>
<path d="M217.828 385.025C211.548 379.921 202.509 376.731 192.473 376.731C182.437 376.731 173.399 379.921 167.119 385.025C170.406 374.237 180.5 366.408 192.473 366.408C204.446 366.35 214.541 374.237 217.828 385.025Z" fill="white"/>
<path d="M141.765 397.436C137.539 392.332 131.435 389.142 124.686 389.142C117.936 389.142 111.832 392.332 107.607 397.436C109.837 386.649 116.586 378.819 124.686 378.819C132.785 378.819 139.534 386.649 141.765 397.436Z" fill="white"/>
</g>
</g>
<defs>
<linearGradient id="paint0_linear_50_962" x1="176.5" y1="0" x2="176.5" y2="622" gradientUnits="userSpaceOnUse">
<stop stop-color="#89C9FF"/>
<stop offset="1" stop-color="#D1CDFF"/>
</linearGradient>
<clipPath id="clip0_50_962">
<rect width="353" height="622" rx="176.5" fill="white"/>
</clipPath>
<clipPath id="clip1_50_962">
<rect width="159" height="84" fill="white" transform="translate(-48 58)"/>
</clipPath>
<clipPath id="clip2_50_962">
<rect width="94" height="59" fill="white" transform="translate(189 93)"/>
</clipPath>
<clipPath id="clip3_50_962">
<rect width="121" height="77" fill="white" transform="translate(-28 292)"/>
</clipPath>
<clipPath id="clip4_50_962">
<rect width="248.848" height="128.752" fill="white" transform="matrix(1 0 0 -1 38 457.751)"/>
</clipPath>
</defs>
</svg>
