<svg width="46" height="47" viewBox="0 0 46 47" fill="none" xmlns="http://www.w3.org/2000/svg">
<path fill-rule="evenodd" clip-rule="evenodd" d="M17.1781 9.125L25.1023 13.6621L30.2504 16.609V18.1992H4.10583V16.609L9.25388 13.6621L17.1781 9.125Z" fill="#EEB9A2"/>
<path fill-rule="evenodd" clip-rule="evenodd" d="M28.8489 18.1992H5.50745L9.25393 16.0609L17.1781 11.5238L25.1024 16.0609L28.8489 18.1992Z" fill="#E18A7A"/>
<path fill-rule="evenodd" clip-rule="evenodd" d="M9.39761 30.445L9.02925 21.6942H6.73823L6.36987 30.445H9.39761ZM27.9863 30.445L27.6179 21.6942H25.3359L24.9675 30.445H27.9863ZM21.796 30.445L21.4277 21.6942H19.1367L18.7683 30.445H21.796ZM15.5968 30.445L15.2195 21.6942H12.9375L12.5691 30.445H15.5968Z" fill="#FB8500"/>
<path fill-rule="evenodd" clip-rule="evenodd" d="M4.4293 37.2821H29.927C30.8344 37.2821 31.5711 36.5453 31.5711 35.6379C31.5711 34.7305 30.8344 33.9938 29.927 33.9938H4.4293C3.52187 33.9938 2.78516 34.7305 2.78516 35.6379C2.78516 36.5364 3.53086 37.2821 4.4293 37.2821Z" fill="#EEB9A2"/>
<path fill-rule="evenodd" clip-rule="evenodd" d="M4.4293 37.2821H29.927C30.8344 37.2821 31.5711 36.5454 31.5711 35.6379H2.78516C2.78516 36.5364 3.53086 37.2821 4.4293 37.2821Z" fill="#E18A7A"/>
<path fill-rule="evenodd" clip-rule="evenodd" d="M5.86685 30.4449H28.4805C29.4598 30.4449 30.2504 31.2446 30.2504 32.2239C30.2504 33.2032 29.4508 33.9938 28.4805 33.9938H5.86685C4.88755 33.9938 4.09692 33.1942 4.09692 32.2239C4.09692 31.2446 4.89653 30.4449 5.86685 30.4449Z" fill="#EEB9A2"/>
<path fill-rule="evenodd" clip-rule="evenodd" d="M30.2594 32.2059V32.2149C30.2594 33.1942 29.4598 33.9848 28.4895 33.9848H5.86685C4.88755 33.9848 4.09692 33.1852 4.09692 32.2149V32.2059H30.2594Z" fill="#E18A7A"/>
<path fill-rule="evenodd" clip-rule="evenodd" d="M6.2531 21.6942H28.1031C29.0644 21.6942 29.8461 20.9125 29.8461 19.9512C29.8461 18.9899 29.0644 18.2083 28.1031 18.2083H6.2531C5.29177 18.2083 4.51013 18.9899 4.51013 19.9512C4.51013 20.9036 5.29177 21.6942 6.2531 21.6942Z" fill="#EEB9A2"/>
<path fill-rule="evenodd" clip-rule="evenodd" d="M6.2531 21.6942H28.1031C29.0195 21.6942 29.7832 20.9754 29.8461 20.068H4.51013C4.57302 20.9754 5.33669 21.6942 6.2531 21.6942Z" fill="#E18A7A"/>
<path fill-rule="evenodd" clip-rule="evenodd" d="M27.3395 19.1696H33.4848C37.8422 19.1696 41.409 22.7364 41.409 27.0938V39.4832C42.6039 39.7348 43.3766 41.4328 43.1879 42.6188H17.6364C17.4387 41.4328 18.2203 39.7348 19.4153 39.4832V27.0938C19.4153 22.7364 22.9821 19.1696 27.3395 19.1696Z" fill="#7FA389"/>
<path fill-rule="evenodd" clip-rule="evenodd" d="M27.3394 19.1696H33.4847C37.8421 19.1696 41.4089 22.7364 41.4089 27.0938V37.6774C39.3695 37.3539 37.1414 36.6082 34.8593 35.4133C28.4804 32.0711 23.566 26.2403 22.2722 21.0203C23.6468 19.8614 25.4167 19.1696 27.3394 19.1696Z" fill="#9BD0B6"/>
<path fill-rule="evenodd" clip-rule="evenodd" d="M24.3117 12.593C23.3145 10.266 26.8903 8.00198 28.3188 11.3262C28.3188 10.0864 29.1094 9.06213 30.4121 9.06213C31.7149 9.06213 32.5055 10.0864 32.5055 11.3262C33.934 8.01096 37.5188 10.266 36.5125 12.593C32.6582 21.5504 28.166 21.5504 24.3117 12.593Z" fill="#7FA389"/>
<path fill-rule="evenodd" clip-rule="evenodd" d="M29.8371 9.13401C30.0168 9.08909 30.2055 9.06213 30.4121 9.06213C31.7148 9.06213 32.5055 10.0864 32.5055 11.3262C33.934 8.01096 37.5187 10.266 36.5125 12.593C35.2906 15.441 33.9969 17.3817 32.6851 18.4149C30.5558 15.2793 29.4598 11.9641 29.8371 9.13401Z" fill="#9BD0B6"/>
<path d="M32.9636 13.2578C32.9906 13.0152 33.2062 12.8265 33.4488 12.8445C33.6914 12.8625 33.88 13.0871 33.8621 13.3297C33.7992 14.0754 33.6375 14.7851 33.3949 15.405C33.1523 16.025 32.8289 16.564 32.4335 16.9504C32.2539 17.1211 31.9753 17.1211 31.8046 16.9414C31.625 16.7617 31.6339 16.4832 31.8136 16.3125C32.1191 16.016 32.3707 15.5847 32.5683 15.0816C32.766 14.5515 32.9007 13.9226 32.9636 13.2578ZM35.5781 22.916C35.614 23.1586 35.4433 23.3832 35.1917 23.4191C34.9492 23.455 34.7246 23.2754 34.6886 23.0328C34.5988 22.3679 34.3832 21.739 34.0597 21.191C33.7542 20.6699 33.341 20.2297 32.8558 19.9152C32.6492 19.7804 32.5863 19.5019 32.721 19.2953C32.8558 19.0886 33.1343 19.0257 33.341 19.1605C33.9519 19.5558 34.455 20.0949 34.8414 20.7328C35.2187 21.3797 35.4703 22.1254 35.5781 22.916ZM27.4832 19.1605C27.6898 19.0257 27.9683 19.0886 28.1031 19.2953C28.2378 19.5019 28.175 19.7804 27.9683 19.9152C27.4742 20.2297 27.0699 20.6699 26.7554 21.191C26.432 21.739 26.2164 22.359 26.1265 23.0328C26.0906 23.2754 25.866 23.4461 25.6234 23.4191C25.3808 23.3832 25.2101 23.1586 25.2371 22.916C25.3449 22.1254 25.5964 21.3886 25.9828 20.7418C26.3691 20.0949 26.8722 19.5558 27.4832 19.1605ZM29.0195 16.3125C29.1992 16.4832 29.1992 16.7707 29.0285 16.9414C28.8578 17.1211 28.5703 17.1211 28.3906 16.9504C27.9953 16.564 27.6718 16.025 27.4292 15.405C27.1867 14.7851 27.025 14.0754 26.9621 13.3297C26.9441 13.0871 27.1238 12.8625 27.3664 12.8445C27.6179 12.8265 27.8335 13.0062 27.8515 13.2578C27.9144 13.9226 28.0492 14.5515 28.2558 15.0906C28.4625 15.5937 28.723 16.016 29.0195 16.3125ZM22.9011 40.5433C22.6585 40.5433 22.4519 40.3457 22.4519 40.0941C22.4519 39.8515 22.6496 39.6449 22.9011 39.6449H25.7851C26.0277 39.6449 26.2343 39.8425 26.2343 40.0941C26.2343 40.3457 26.0367 40.5433 25.7851 40.5433H22.9011ZM28.1839 40.5433C27.9414 40.5433 27.7347 40.3457 27.7347 40.0941C27.7347 39.8515 27.9324 39.6449 28.1839 39.6449H37.95C38.2015 39.6449 38.3992 39.8425 38.3992 40.0941C38.3992 40.3457 38.2015 40.5433 37.95 40.5433H28.1839Z" fill="#FDFDFD"/>
<path d="M40.3488 20.1668C40.4117 20.4094 40.2769 20.652 40.0343 20.7149C39.7917 20.7777 39.5492 20.634 39.4863 20.4004C39.3246 19.8164 38.9831 19.3223 38.5249 18.9719C38.0667 18.6215 37.5007 18.4149 36.8988 18.4149C36.6562 18.4149 36.4495 18.2082 36.4585 17.9656C36.4585 17.777 36.5753 17.6152 36.7371 17.5524C37.4738 17.2559 38.1386 16.8156 38.7046 16.2766C39.2706 15.7375 39.7378 15.0906 40.0613 14.3719C40.1601 14.1473 40.4296 14.0484 40.6542 14.1473C40.8788 14.2461 40.9777 14.5156 40.8788 14.7402C40.5015 15.5668 39.9714 16.3035 39.3246 16.9234C38.9921 17.2379 38.6238 17.5254 38.2374 17.777C38.5339 17.9027 38.8214 18.0645 39.082 18.2621C39.6749 18.7293 40.1331 19.3852 40.3488 20.1668Z" fill="#DD6E42"/>
<path fill-rule="evenodd" clip-rule="evenodd" d="M30.4122 24.5691C34.1766 24.5691 37.2313 27.6238 37.2313 31.3882C37.2313 35.1527 34.1766 38.2074 30.4122 38.2074C26.6477 38.2074 23.593 35.1527 23.593 31.3882C23.593 27.6238 26.6477 24.5691 30.4122 24.5691Z" fill="#FFEC91"/>
<path fill-rule="evenodd" clip-rule="evenodd" d="M30.4121 26.6984C32.9996 26.6984 35.102 28.8007 35.102 31.3882C35.102 33.9757 32.9996 36.0781 30.4121 36.0781C27.8246 36.0781 25.7223 33.9757 25.7223 31.3882C25.7223 28.8007 27.8246 26.6984 30.4121 26.6984Z" fill="#FFCC00"/>
<path d="M29.9539 29.1601V28.9445C29.9539 28.7019 30.1515 28.4952 30.4031 28.4952H30.421C30.6636 28.4952 30.8613 28.7019 30.8613 28.9534L30.8523 29.1601C31.0949 29.223 31.3015 29.3308 31.4812 29.4745C31.7867 29.7261 31.9753 30.0765 31.9753 30.4718C31.9753 30.7144 31.7777 30.921 31.5261 30.921C31.2835 30.921 31.0769 30.7234 31.0769 30.4718C31.0769 30.364 31.014 30.2562 30.9152 30.1753C30.7894 30.0675 30.6097 30.0046 30.4121 30.0046C30.2144 30.0046 30.0257 30.0675 29.9 30.1753C29.8011 30.2562 29.7382 30.364 29.7382 30.4718C29.7382 30.8042 30.1156 30.8761 30.4929 30.948C31.2386 31.0917 31.9753 31.2355 31.9753 32.3046C31.9753 32.6999 31.7867 33.0503 31.4812 33.3019C31.3015 33.4456 31.0859 33.5534 30.8523 33.6163V33.832C30.8523 34.0745 30.6546 34.2812 30.4031 34.2812C30.1605 34.2812 29.9539 34.0835 29.9539 33.832V33.6073C29.7382 33.5534 29.5406 33.4546 29.3789 33.3288C29.0824 33.1042 28.8757 32.7808 28.8488 32.4124C28.8218 32.1698 29.0105 31.9452 29.2531 31.9273C29.4957 31.9003 29.7203 32.089 29.7382 32.3316C29.7472 32.4394 29.8191 32.5382 29.9179 32.6191C30.0437 32.7089 30.2144 32.7718 30.4121 32.7718C30.6187 32.7718 30.7984 32.7089 30.9152 32.6011C31.014 32.5202 31.0769 32.4124 31.0769 32.3046C31.0769 31.9722 30.6996 31.9003 30.3222 31.8284C29.5765 31.6847 28.8308 31.5409 28.8308 30.4718C28.8308 30.0765 29.0195 29.7261 29.325 29.4745C29.5046 29.3308 29.7203 29.223 29.9539 29.1601Z" fill="#FDFDFD"/>
<path fill-rule="evenodd" clip-rule="evenodd" d="M33.3321 29.825C33.7813 29.825 34.1407 30.1843 34.1407 30.6335C34.1407 31.0738 33.7813 31.4332 33.3321 31.4332C32.8918 31.4332 32.5325 31.0738 32.5325 30.6335C32.5325 30.1843 32.8918 29.825 33.3321 29.825Z" fill="#FFEC91"/>
<path fill-rule="evenodd" clip-rule="evenodd" d="M17.1781 4.38123C20.3496 4.38123 22.9192 6.95076 22.9192 10.1222C22.9192 13.2937 20.3496 15.8633 17.1781 15.8633C14.0067 15.8633 11.4371 13.2937 11.4371 10.1222C11.4371 6.95076 14.0067 4.38123 17.1781 4.38123Z" fill="#FB8500"/>
<path fill-rule="evenodd" clip-rule="evenodd" d="M17.1781 5.73792C19.6039 5.73792 21.5625 7.70549 21.5625 10.1223C21.5625 12.5481 19.5949 14.5067 17.1781 14.5067C14.7524 14.5067 12.7848 12.5391 12.7848 10.1223C12.7848 7.70549 14.7524 5.73792 17.1781 5.73792Z" fill="#FFC500"/>
<path d="M16.72 7.27424V6.86096C16.72 6.61838 16.9176 6.41174 17.1692 6.41174H17.1961C17.4387 6.42073 17.6364 6.61838 17.6364 6.86995L17.6274 7.27424C17.9688 7.34612 18.2833 7.48987 18.5258 7.68752C18.9032 7.99299 19.1278 8.42424 19.1278 8.90041C19.1278 9.14299 18.9301 9.34963 18.6786 9.34963C18.436 9.34963 18.2293 9.15198 18.2293 8.90041C18.2293 8.70276 18.1215 8.51409 17.9508 8.37932C17.7532 8.2176 17.4836 8.11877 17.1782 8.11877C16.8727 8.11877 16.5942 8.2176 16.4055 8.37932C16.2348 8.51409 16.127 8.70276 16.127 8.90041C16.127 9.46643 16.693 9.57424 17.259 9.68205C18.1934 9.86174 19.1278 10.0504 19.1278 11.3531C19.1278 11.8293 18.8942 12.2606 18.5258 12.566C18.2833 12.7637 17.9688 12.9164 17.6364 12.9793L17.6274 13.3207V13.3836C17.6274 13.6352 17.4297 13.8328 17.1782 13.8328C16.9356 13.8328 16.729 13.6352 16.729 13.3836V12.9703C16.4145 12.9074 16.127 12.7727 15.9024 12.602C15.534 12.3235 15.2915 11.9281 15.2465 11.4789C15.2196 11.2364 15.4083 11.0117 15.6508 10.9938C15.8934 10.9668 16.118 11.1555 16.136 11.3981C16.154 11.5867 16.2618 11.7574 16.4325 11.8832C16.6301 12.027 16.8907 12.1168 17.1782 12.1168C17.4836 12.1168 17.7622 12.018 17.9508 11.8563C18.1215 11.7125 18.2293 11.5328 18.2293 11.3352C18.2293 10.7692 17.6633 10.6614 17.0973 10.5446C16.1629 10.3649 15.2375 10.1852 15.2375 8.88245C15.2375 8.39729 15.4711 7.97502 15.8395 7.66956C16.0731 7.48987 16.3786 7.33713 16.72 7.27424Z" fill="#FDFDFD"/>
<path fill-rule="evenodd" clip-rule="evenodd" d="M20.3766 8.90039C20.9156 8.90039 21.3469 9.33164 21.3469 9.8707C21.3469 10.4098 20.9156 10.85 20.3766 10.85C19.8375 10.85 19.4062 10.4098 19.4062 9.8707C19.4062 9.33164 19.8375 8.90039 20.3766 8.90039ZM20.1699 11.1375C20.4574 11.1375 20.682 11.3711 20.682 11.6586C20.682 11.9461 20.4484 12.1797 20.1699 12.1797C19.8914 12.1797 19.6488 11.9461 19.6488 11.6586C19.6488 11.3711 19.8824 11.1375 20.1699 11.1375Z" fill="#FFF2AF"/>
<path fill-rule="evenodd" clip-rule="evenodd" d="M26.2703 16.6359H34.5449C35.2726 16.6359 35.8656 17.2288 35.8656 17.9566V18.2261C35.8656 18.9538 35.2726 19.5468 34.5449 19.5468H26.2703C25.5426 19.5468 24.9496 18.9538 24.9496 18.2261V17.9566C24.9586 17.2288 25.5515 16.6359 26.2703 16.6359Z" fill="#DD6E42"/>
</svg>
