<svg width="224" height="251" viewBox="0 0 224 251" fill="none" xmlns="http://www.w3.org/2000/svg">
<g clip-path="url(#clip0_50_2341)">
<path d="M222.022 239.843C198.743 222.405 100.257 148.427 86.1105 134.314L5.97833 176.202C5.97833 176.202 64.8912 188.877 103.211 205.776C136.07 220.158 195.789 243.888 212.442 250.45C215.128 251.529 218.261 250.99 220.41 249.102L222.201 247.574C224.708 245.506 224.529 241.731 222.022 239.843Z" fill="url(#paint0_linear_50_2341)"/>
<path d="M86.111 134.314C100.257 148.517 198.744 222.495 222.022 239.843C223.634 241.012 224.261 242.989 223.902 244.787C212.621 236.697 92.5573 149.326 86.111 134.314Z" fill="#EAEEEF"/>
<path d="M178.509 217.371C178.509 217.371 155.678 220.158 151.649 226.09C147.62 232.023 143.501 236.877 145.74 238.765C147.978 240.562 185.582 219.259 178.509 217.371Z" fill="#EAEEEF"/>
<path d="M151.649 226.001C155.678 220.068 178.509 217.281 178.509 217.281C178.509 217.281 153.529 232.203 151.291 232.652C151.291 232.742 154.335 227.169 151.649 226.001Z" fill="#7895AD"/>
<path d="M133.653 199.125C133.653 199.125 110.822 201.911 106.793 207.844C102.764 213.776 98.6453 218.63 100.884 220.518C103.122 222.316 140.726 201.012 133.653 199.125Z" fill="#EAEEEF"/>
<path d="M106.793 207.844C110.822 201.911 133.653 199.125 133.653 199.125C133.653 199.125 108.673 214.046 106.435 214.495C106.524 214.495 109.568 208.922 106.793 207.844Z" fill="#7895AD"/>
<path d="M88.8858 181.955C88.8858 181.955 66.0548 184.742 62.0258 190.675C57.9969 196.607 53.8783 201.461 56.1167 203.349C58.2654 205.147 95.9589 183.753 88.8858 181.955Z" fill="#EAEEEF"/>
<path d="M62.0256 190.585C66.0546 184.652 88.8856 181.865 88.8856 181.865C88.8856 181.865 63.9058 196.787 61.6674 197.236C61.6674 197.236 64.7116 191.753 62.0256 190.585Z" fill="#7895AD"/>
<path d="M-200.038 194.719C-195.651 198.135 -123.935 209.641 -73.975 199.124C-24.0155 188.607 -18.4645 184.472 -18.4645 184.472C-18.4645 184.472 -6.28795 188.067 14.0361 182.584C34.2706 177.101 84.5882 155.078 90.1393 150.135C95.6903 145.191 105.181 134.314 105.181 134.314C105.181 134.314 194.803 104.202 211.188 77.9542C227.573 51.7068 200.713 46.4034 200.713 46.4034C200.713 46.4034 202.056 33.0999 172.957 30.6729C143.859 28.2459 107.33 46.4034 86.1998 54.8529C64.8909 63.2125 -29.0294 100.336 -29.0294 100.336C-29.0294 100.336 -222.063 177.371 -200.038 194.719Z" fill="url(#paint1_linear_50_2341)"/>
<path d="M-200.038 194.721C-200.844 194.092 -201.291 193.372 -201.56 192.653C-194.397 196.608 -189.204 194.721 -189.204 194.721C-190.637 188.159 -186.429 181.058 -186.429 181.058C-182.131 172.878 -167.179 173.597 -165.657 173.687C-166.553 173.687 -171.746 174.046 -174.969 186.541C-178.461 200.204 -134.142 195.979 -88.0321 181.058C-41.9225 166.136 -44.7876 149.777 -44.7876 149.777C-39.2365 128.743 21.9146 107.709 21.9146 107.709L28.1819 116.967C14.931 126.496 16.274 137.552 16.274 137.552C53.6093 128.113 59.5185 111.574 59.5185 111.574C63.3684 116.158 61.2196 125.237 61.2196 125.237C61.2196 125.237 175.016 80.7423 195.251 72.6524C215.485 64.5624 209.755 50.45 209.755 50.45C215.575 54.6747 220.41 62.8545 211.009 77.8659C194.624 104.113 104.912 134.316 104.912 134.316C104.912 134.316 95.6004 145.192 90.0493 150.136C84.4983 155.08 34.1806 177.103 13.9462 182.586C-6.28833 188.069 -18.5544 184.473 -18.5544 184.473C-18.5544 184.473 -24.1054 188.698 -74.0649 199.125C-123.935 209.642 -195.651 198.226 -200.038 194.721Z" fill="url(#paint2_linear_50_2341)"/>
<path d="M184.686 32.4717C201.607 36.9661 200.712 46.3145 200.712 46.3145L195.877 44.8763C195.877 36.5167 184.686 32.4717 184.686 32.4717Z" fill="url(#paint3_linear_50_2341)"/>
<path d="M112.075 57.9997L113.418 57.4604C114.224 57.1008 114.851 56.2918 114.851 55.393L114.94 51.6176C114.94 49.9997 113.329 48.8311 111.807 49.4603L110.285 50.0895C109.389 50.4491 108.852 51.2581 108.852 52.2469V55.9323C108.942 57.4604 110.643 58.6289 112.075 57.9997Z" fill="#001B4B"/>
<path d="M101.242 62.404L102.585 61.8647C103.39 61.5051 104.017 60.6961 104.017 59.7973L104.107 56.0219C104.107 54.404 102.495 53.2354 100.973 53.8646L99.451 54.4938C98.5556 54.8534 98.0184 55.6624 98.0184 56.6512V60.3366C98.108 61.9546 99.7196 63.0332 101.242 62.404Z" fill="#001B4B"/>
<path d="M90.3184 66.8982L91.6614 66.3588C92.4672 65.9993 93.0939 65.1903 93.0939 64.2914L93.1834 60.5161C93.1834 58.8981 91.5718 57.7295 90.0498 58.3588L88.5277 58.988C87.6324 59.3475 87.0952 60.1565 87.0952 61.1453V64.7408C87.1847 66.3588 88.7963 67.4375 90.3184 66.8982Z" fill="#001B4B"/>
<path d="M79.3958 71.3025L80.7388 70.7631C81.5446 70.4036 82.1714 69.5946 82.1714 68.6957L82.2609 64.9204C82.2609 63.3024 80.6493 62.1338 79.1272 62.7631L77.6051 63.3923C76.7098 63.7518 76.1726 64.5608 76.1726 65.5496V69.235C76.2621 70.7631 77.8737 71.9317 79.3958 71.3025Z" fill="#001B4B"/>
<path d="M68.4732 75.7082L69.8162 75.1689C70.622 74.8093 71.2488 74.0003 71.2488 73.1015L71.3383 69.3261C71.3383 67.7082 69.7267 66.5396 68.2046 67.1688L66.6826 67.798C65.7872 68.1576 65.25 68.9666 65.25 69.9554V73.6408C65.3396 75.2588 67.0407 76.3374 68.4732 75.7082Z" fill="#001B4B"/>
<path d="M57.6386 80.2024L58.9816 79.663C59.7874 79.3035 60.4141 78.4945 60.4141 77.5956L60.5037 73.8203C60.5037 72.2023 58.8921 71.0337 57.37 71.663L55.8479 72.2922C54.9526 72.6517 54.4154 73.4607 54.4154 74.4495V78.1349C54.505 79.663 56.1165 80.7417 57.6386 80.2024Z" fill="#001B4B"/>
<path d="M46.7161 84.6066L48.0591 84.0673C48.8649 83.7078 49.4916 82.8988 49.4916 81.9999L49.5811 78.2246C49.5811 76.6066 47.9695 75.438 46.4475 76.0673L44.9254 76.6965C44.0301 77.056 43.4929 77.865 43.4929 78.8538V82.5392C43.5824 84.1572 45.194 85.2359 46.7161 84.6066Z" fill="#001B4B"/>
<path d="M35.7932 89.1008L37.1362 88.5615C37.942 88.2019 38.5687 87.3929 38.5687 86.494L38.6583 82.7187C38.6583 81.1007 37.0467 79.9322 35.5246 80.5614L34.0025 81.1906C33.1072 81.5502 32.57 82.3592 32.57 83.3479V87.0334C32.6595 88.5615 34.2711 89.6401 35.7932 89.1008Z" fill="#001B4B"/>
<path d="M24.9592 93.5051L26.3022 92.9658C27.108 92.6062 27.7347 91.7972 27.7347 90.8983L27.8243 87.123C27.8243 85.505 26.2127 84.3365 24.6906 84.9657L23.1686 85.5949C22.2732 85.9545 21.7361 86.7635 21.7361 87.7522V91.4377C21.8256 92.9658 23.4372 94.1343 24.9592 93.5051Z" fill="#001B4B"/>
<path d="M14.0367 97.9094L15.3797 97.3701C16.1855 97.0105 16.8122 96.2015 16.8122 95.3026L16.9017 91.5273C16.9017 89.9093 15.2901 88.7408 13.7681 89.37L12.246 89.9992C11.3507 90.3588 10.8135 91.1678 10.8135 92.1565V95.8419C10.903 97.4599 12.5146 98.5386 14.0367 97.9094Z" fill="#001B4B"/>
<path d="M3.11291 102.405L4.45591 101.866C5.26171 101.506 5.88845 100.697 5.88845 99.7982L5.97799 96.0229C5.97799 94.4049 4.36639 93.2364 2.84432 93.8656L1.41179 94.4049C0.516453 94.7645 -0.020752 95.5735 -0.020752 96.5623V100.248C-0.020752 101.866 1.59085 102.944 3.11291 102.405Z" fill="#001B4B"/>
<path d="M161.587 41.9091C154.872 42.5383 150.932 43.7068 150.932 43.7068C154.335 38.4933 160.065 36.1562 166.332 35.2573L161.587 41.9091Z" fill="#001B4B"/>
<path d="M178.777 35.2573C188.894 36.336 197.668 39.3922 197.758 39.4821C200.981 43.0776 200.712 46.4035 200.712 46.4035C192.923 43.8866 185.581 42.6282 179.045 41.999L178.777 35.2573Z" fill="#001B4B"/>
<path d="M169.644 34.9887C171.793 34.8988 174.031 34.8988 176.27 35.0786L176.001 41.8202C171.972 41.5506 168.301 41.6405 165.078 41.7304C166.6 39.3034 168.391 36.7865 169.644 34.9887Z" fill="#001B4B"/>
<path d="M21.8257 102.494C21.8257 102.494 24.7803 111.303 19.9455 115.798C15.0212 120.292 -44.6078 149.686 -44.6078 149.686C-44.6078 149.686 -105.132 107.168 -116.772 100.966C-128.411 94.674 -233.433 47.3028 -239.79 43.7073C-246.147 40.0219 -304.433 6.76316 -304.791 2.53841C-305.149 -1.68634 -281.423 0.111427 -275.782 2.53841C-270.231 5.05529 -9.15277 100.876 21.8257 102.494Z" fill="url(#paint4_linear_50_2341)"/>
<path d="M-26.7014 95.4837C-58.2171 86.7645 -275.872 6.85379 -280.259 1.37061C-278.379 1.73016 -276.767 2.1796 -275.783 2.53915C-270.232 5.05603 -9.15292 100.877 21.8255 102.495C21.8255 102.495 24.5116 110.405 20.6616 115.079C16.2745 112.383 0.0690002 102.944 -26.7014 95.4837Z" fill="#EAEEEF"/>
<path d="M101.421 194.72C101.421 188.967 103.749 184.023 107.241 181.057C107.42 180.967 107.599 180.787 107.688 180.697C134.548 158.675 156.931 161.641 156.931 161.641C156.931 161.641 164.989 184.832 164.004 200.383C151.38 215.574 113.329 211.079 113.329 211.079C106.614 210.36 101.421 203.349 101.421 194.72Z" fill="url(#paint5_linear_50_2341)"/>
<path d="M113.239 211.08C110.732 210.81 108.494 209.641 106.614 207.844C106.703 207.844 106.793 207.844 106.882 207.844C127.744 205.237 147.351 194.36 162.572 183.124C163.646 188.967 164.363 195.079 164.005 200.293C151.291 215.484 113.239 211.08 113.239 211.08Z" fill="#7895AD"/>
<path d="M156.932 202.45C165.783 202.45 172.958 193.314 172.958 182.045C172.958 170.776 165.783 161.641 156.932 161.641C148.081 161.641 140.906 170.776 140.906 182.045C140.906 193.314 148.081 202.45 156.932 202.45Z" fill="#2D364D"/>
<path d="M160.244 197.506C167.216 197.506 172.868 190.141 172.868 181.056C172.868 171.971 167.216 164.606 160.244 164.606C153.272 164.606 147.62 171.971 147.62 181.056C147.62 190.141 153.272 197.506 160.244 197.506Z" fill="#000A22"/>
</g>
<defs>
<linearGradient id="paint0_linear_50_2341" x1="-1.49133" y1="130.188" x2="219.514" y2="245.827" gradientUnits="userSpaceOnUse">
<stop stop-color="#303B45"/>
<stop offset="0.1467" stop-color="#384551"/>
<stop offset="0.4113" stop-color="#4E6170"/>
<stop offset="0.7608" stop-color="#718DA3"/>
<stop offset="1" stop-color="#8CAECA"/>
</linearGradient>
<linearGradient id="paint1_linear_50_2341" x1="-5.13236" y1="98.3406" x2="15.9511" y2="144.541" gradientUnits="userSpaceOnUse">
<stop stop-color="#EAEEEF"/>
<stop offset="0.4048" stop-color="#DEE6EB"/>
<stop offset="1" stop-color="#C5D6E3"/>
</linearGradient>
<linearGradient id="paint2_linear_50_2341" x1="7.86444" y1="49.3642" x2="7.01045" y2="204.196" gradientUnits="userSpaceOnUse">
<stop stop-color="#8CAECA"/>
<stop offset="0.0156188" stop-color="#86A7C2"/>
<stop offset="0.0503115" stop-color="#7E9DB6"/>
<stop offset="0.0987955" stop-color="#7997AF"/>
<stop offset="0.2296" stop-color="#7895AD"/>
<stop offset="0.6081" stop-color="#809FB9"/>
<stop offset="1" stop-color="#8CAECA"/>
</linearGradient>
<linearGradient id="paint3_linear_50_2341" x1="192.738" y1="32.559" x2="192.662" y2="46.3265" gradientUnits="userSpaceOnUse">
<stop stop-color="#8CAECA"/>
<stop offset="0.0156188" stop-color="#86A7C2"/>
<stop offset="0.0503115" stop-color="#7E9DB6"/>
<stop offset="0.0987955" stop-color="#7997AF"/>
<stop offset="0.2296" stop-color="#7895AD"/>
<stop offset="0.6081" stop-color="#809FB9"/>
<stop offset="1" stop-color="#8CAECA"/>
</linearGradient>
<linearGradient id="paint4_linear_50_2341" x1="145.058" y1="216.617" x2="-190.71" y2="28.4929" gradientUnits="userSpaceOnUse">
<stop stop-color="#303B45"/>
<stop offset="0.1467" stop-color="#384551"/>
<stop offset="0.4113" stop-color="#4E6170"/>
<stop offset="0.7608" stop-color="#718DA3"/>
<stop offset="1" stop-color="#8CAECA"/>
</linearGradient>
<linearGradient id="paint5_linear_50_2341" x1="126.137" y1="167.887" x2="134.577" y2="198.712" gradientUnits="userSpaceOnUse">
<stop stop-color="#C5D6E3"/>
<stop offset="0.2873" stop-color="#B9CEDE"/>
<stop offset="0.8034" stop-color="#9AB8D0"/>
<stop offset="1" stop-color="#8CAECA"/>
</linearGradient>
<clipPath id="clip0_50_2341">
<rect width="462" height="251" fill="white" transform="translate(-238)"/>
</clipPath>
</defs>
</svg>
