<svg width="32" height="32" viewBox="0 0 32 32" fill="none" xmlns="http://www.w3.org/2000/svg">
<g clip-path="url(#clip0_145_3601)">
<path fill-rule="evenodd" clip-rule="evenodd" d="M23.9999 32H7.99988C5.87815 32 3.84331 31.1571 2.34302 29.6569C0.842733 28.1566 -0.00012207 26.1217 -0.00012207 24V8C-0.00012207 5.87827 0.842733 3.84344 2.34302 2.34315C3.84331 0.842855 5.87815 0 7.99988 0L23.9999 0C26.1216 0 28.1564 0.842855 29.6567 2.34315C31.157 3.84344 31.9999 5.87827 31.9999 8V24C31.9999 26.1217 31.157 28.1566 29.6567 29.6569C28.1564 31.1571 26.1216 32 23.9999 32Z" fill="#199BDF"/>
<path fill-rule="evenodd" clip-rule="evenodd" d="M14.9999 9H23.9999C25.1545 9.00145 26.2654 8.55905 27.103 7.76433C27.9405 6.96961 28.4405 5.88336 28.4996 4.73029C28.5587 3.57722 28.1723 2.44555 27.4204 1.56938C26.6685 0.693211 25.6086 0.139576 24.4599 0.023C24.3069 0.0145 24.1554 0 23.9999 0H7.99988C5.87815 0 3.84331 0.842855 2.34302 2.34315C0.842733 3.84344 -0.00012207 5.87827 -0.00012207 8L-0.00012207 24C-0.00012207 20.0218 1.58023 16.2064 4.39328 13.3934C7.20632 10.5804 11.0216 9 14.9999 9Z" fill="#32B4FF"/>
<path fill-rule="evenodd" clip-rule="evenodd" d="M23.9999 16C22.4176 16 20.8709 16.4692 19.5553 17.3482C18.2397 18.2273 17.2143 19.4767 16.6088 20.9385C16.0033 22.4003 15.8449 24.0089 16.1536 25.5607C16.4623 27.1126 17.2242 28.538 18.343 29.6569C19.4618 30.7757 20.8873 31.5376 22.4392 31.8463C23.991 32.155 25.5995 31.9965 27.0614 31.391C28.5232 30.7855 29.7726 29.7602 30.6516 28.4446C31.5307 27.129 31.9999 25.5823 31.9999 24V8C31.9999 10.1217 31.157 12.1566 29.6567 13.6569C28.1564 15.1571 26.1216 16 23.9999 16Z" fill="#0082BE"/>
<path fill-rule="evenodd" clip-rule="evenodd" d="M22.5398 8.51611C22.7856 8.41463 23.054 8.38032 23.3174 8.41668C23.5808 8.45305 23.8298 8.55879 24.0389 8.72307C24.248 8.88735 24.4097 9.10427 24.5074 9.3516C24.6051 9.59893 24.6352 9.86778 24.5948 10.1306L22.3768 24.5501C22.3376 24.8052 22.2332 25.0459 22.0738 25.2488C21.9143 25.4517 21.7052 25.6101 21.4667 25.7086C21.2281 25.8071 20.9682 25.8424 20.712 25.811C20.4558 25.7797 20.2121 25.6827 20.0043 25.5296L13.4633 20.7101C13.3455 20.6232 13.2482 20.5116 13.1783 20.383C13.1083 20.2544 13.0675 20.112 13.0586 19.9659C13.0498 19.8197 13.0731 19.6735 13.1269 19.5373C13.1808 19.4012 13.2639 19.2786 13.3703 19.1781L19.4738 13.4136C19.5193 13.3707 19.547 13.3124 19.5516 13.2501C19.5561 13.1877 19.5372 13.126 19.4985 13.0769C19.4598 13.0279 19.4041 12.9951 19.3425 12.985C19.2808 12.975 19.2176 12.9884 19.1653 13.0226L11.0963 18.2851C10.7505 18.5107 10.3617 18.6624 9.95454 18.7308C9.54734 18.7992 9.13039 18.7828 8.72982 18.6826L4.94382 17.7361C4.73959 17.6851 4.55666 17.571 4.42108 17.41C4.2855 17.249 4.20419 17.0493 4.18874 16.8393C4.17328 16.6294 4.22446 16.4199 4.33499 16.2408C4.44552 16.0617 4.60976 15.922 4.80432 15.8416L22.5398 8.51611Z" fill="#FDFDFD"/>
</g>
<defs>
<clipPath id="clip0_145_3601">
<rect width="32" height="32" fill="white"/>
</clipPath>
</defs>
</svg>
