<svg width="32" height="32" viewBox="0 0 32 32" fill="none" xmlns="http://www.w3.org/2000/svg">
<g clip-path="url(#clip0_145_3580)">
<path fill-rule="evenodd" clip-rule="evenodd" d="M23.9999 32H7.99988C5.87815 32 3.84331 31.1571 2.34302 29.6569C0.842733 28.1566 -0.00012207 26.1217 -0.00012207 24V8C-0.00012207 5.87827 0.842733 3.84344 2.34302 2.34315C3.84331 0.842855 5.87815 0 7.99988 0L23.9999 0C26.1216 0 28.1564 0.842855 29.6567 2.34315C31.157 3.84344 31.9999 5.87827 31.9999 8V24C31.9999 26.1217 31.157 28.1566 29.6567 29.6569C28.1564 31.1571 26.1216 32 23.9999 32Z" fill="#00D264"/>
<path fill-rule="evenodd" clip-rule="evenodd" d="M14.9999 9H23.9999C25.1545 9.00145 26.2654 8.55905 27.103 7.76433C27.9405 6.96961 28.4405 5.88336 28.4996 4.73029C28.5587 3.57722 28.1723 2.44555 27.4204 1.56938C26.6685 0.693211 25.6086 0.139576 24.4599 0.023C24.3069 0.0145 24.1554 0 23.9999 0H7.99988C5.87815 0 3.84331 0.842855 2.34302 2.34315C0.842733 3.84344 -0.00012207 5.87827 -0.00012207 8L-0.00012207 24C-0.00012207 20.0218 1.58023 16.2064 4.39328 13.3934C7.20632 10.5804 11.0216 9 14.9999 9Z" fill="#00EB78"/>
<path fill-rule="evenodd" clip-rule="evenodd" d="M23.9999 16C22.4176 16 20.8709 16.4692 19.5553 17.3482C18.2397 18.2273 17.2143 19.4767 16.6088 20.9385C16.0033 22.4003 15.8449 24.0089 16.1536 25.5607C16.4623 27.1126 17.2242 28.538 18.343 29.6569C19.4618 30.7757 20.8873 31.5376 22.4392 31.8463C23.991 32.155 25.5995 31.9965 27.0614 31.391C28.5232 30.7855 29.7726 29.7602 30.6516 28.4446C31.5307 27.129 31.9999 25.5823 31.9999 24V8C31.9999 10.1217 31.157 12.1566 29.6567 13.6569C28.1564 15.1571 26.1216 16 23.9999 16Z" fill="#00B950"/>
<path fill-rule="evenodd" clip-rule="evenodd" d="M10.8364 23.5465C10.9694 23.5087 11.1089 23.4988 11.246 23.5176C11.3831 23.5363 11.5148 23.5833 11.6329 23.6555C13.6209 24.8399 15.9732 25.2572 18.2473 24.8288C20.5214 24.4004 22.5606 23.1558 23.9814 21.3293C25.4023 19.5027 26.1067 17.2199 25.9624 14.9103C25.818 12.6007 24.8348 10.4234 23.1976 8.78795C21.5604 7.15249 19.3821 6.17157 17.0723 6.02967C14.7625 5.88778 12.4805 6.59468 10.6554 8.01744C8.83037 9.44019 7.58801 11.4808 7.16203 13.7553C6.73605 16.0299 7.15581 18.3817 8.34235 20.3685C8.4143 20.4862 8.46104 20.6175 8.47963 20.7542C8.49822 20.8908 8.48825 21.0299 8.45035 21.1625C8.17185 22.148 7.49985 24.5 7.49985 24.5L10.8364 23.5465ZM6.60935 21.367C5.17977 18.9572 4.67908 16.1084 5.20131 13.3555C5.72354 10.6026 7.23276 8.13512 9.44557 6.41628C11.6584 4.69744 14.4226 3.84552 17.219 4.02051C20.0155 4.1955 22.6519 5.38535 24.6332 7.36663C26.6145 9.34791 27.8043 11.9843 27.9793 14.7808C28.1543 17.5773 27.3024 20.3415 25.5836 22.5543C23.8647 24.7671 21.3972 26.2763 18.6443 26.7985C15.8915 27.3208 13.0427 26.8201 10.6329 25.3905C10.6329 25.3905 7.44435 26.3015 5.86535 26.753C5.77957 26.7774 5.68881 26.7785 5.60248 26.7561C5.51614 26.7337 5.43736 26.6886 5.37428 26.6256C5.31121 26.5625 5.26614 26.4837 5.24374 26.3974C5.22133 26.311 5.22241 26.2203 5.24685 26.1345L6.60935 21.367Z" fill="#FDFDFD"/>
<path fill-rule="evenodd" clip-rule="evenodd" d="M10.9904 12.393C11.1459 14.6319 12.1014 16.7402 13.6824 18.333C15.2635 19.9258 17.3647 20.8969 19.6024 21.069H19.6034C19.9606 21.0967 20.3196 21.0466 20.6557 20.9223C20.9918 20.7981 21.297 20.6025 21.5504 20.349L21.8994 20C22.0641 19.8351 22.1567 19.6116 22.1569 19.3785V18.6375C22.1568 18.5446 22.131 18.4535 22.0821 18.3745C22.0333 18.2955 21.9634 18.2316 21.8804 18.19L19.6509 17.0755C19.557 17.0285 19.4507 17.0122 19.347 17.029C19.2433 17.0458 19.1476 17.0948 19.0734 17.169L18.1034 18.139C18.0452 18.1972 17.9735 18.2402 17.8948 18.2641C17.816 18.288 17.7326 18.2921 17.6519 18.276L17.6474 18.275C16.6793 18.0814 15.7903 17.6057 15.0923 16.9076C14.3942 16.2096 13.9184 15.3205 13.7249 14.3525L13.7239 14.348C13.7078 14.2673 13.7119 14.1839 13.7358 14.1051C13.7597 14.0264 13.8027 13.9547 13.8609 13.8965L14.8309 12.9265C14.9051 12.8523 14.9541 12.7565 14.9709 12.6529C14.9877 12.5492 14.9714 12.4429 14.9244 12.349L13.8099 10.1195C13.7683 10.0364 13.7044 9.96657 13.6254 9.91774C13.5463 9.8689 13.4553 9.84303 13.3624 9.84302H12.7324C12.5828 9.84306 12.4348 9.8745 12.2981 9.9353C12.1615 9.99611 12.0391 10.0849 11.9389 10.196L11.6069 10.565C11.3885 10.8073 11.2212 11.091 11.1149 11.3993C11.0085 11.7076 10.9653 12.0342 10.9879 12.3595L10.9904 12.393Z" fill="#FDFDFD"/>
</g>
<defs>
<clipPath id="clip0_145_3580">
<rect width="32" height="32" fill="white"/>
</clipPath>
</defs>
</svg>
